<?xml version="1.0" encoding="utf-8"?>
<!-- Generator: Adobe Illustrator 24.1.0, SVG Export Plug-In . SVG Version: 6.00 Build 0)  -->
<svg version="1.1" id="Layer_1" xmlns="http://www.w3.org/2000/svg" xmlns:xlink="http://www.w3.org/1999/xlink" x="0px" y="0px"
	 viewBox="0 0 377.8 144" style="enable-background:new 0 0 377.8 144;" xml:space="preserve">
<style type="text/css">
	.st0{fill:#669BC4;}
	.st1{fill:#2974AD;}
	.st2{fill:#005A9D;}
	.st3{fill:#FFFFFF;}
	.st4{fill:#1B1A1A;}
</style>
<path class="st0" d="M137.6,53.3C134,28.2,115.2,6.9,89,1.4C62.9-4.2,37.1,7.6,23.6,28.9C3.8,44.6-5.2,71.4,3.1,96.8
	c8.3,25.5,31.4,41.9,56.7,42.9c23.4,9.2,51.1,3.6,68.9-16.2C146.4,103.7,149.2,75.6,137.6,53.3z"/>
<path class="st1" d="M137.6,53.3c-3.3-6.4-7.8-12.3-13.5-17.5c-11.3-10.1-25.2-15.4-39.2-15.9c-12.9-5.1-27.7-5.9-41.9-1.3
	c-7.2,2.3-13.7,5.9-19.3,10.3c-3.8,6-6.6,12.8-8.2,20.2c-3.1,14.7-0.8,29.2,5.7,41.5c2,13.9,8.7,27.2,19.9,37.3
	c5.7,5.1,12.1,9,18.8,11.6c7.1,0.3,14.4-0.7,21.5-3c14.3-4.7,25.8-14.1,33.3-25.9c11-8.7,19.1-21.1,22.3-35.8
	C138.4,67.6,138.6,60.3,137.6,53.3z"/>
<path class="st2" d="M121.1,58.5c-6-18.3-19.6-32-36.3-38.6c-17.7-0.7-35.6,6.3-48.4,20.5C23.6,54.6,18.6,73.1,21.1,90.7
	c8.3,15.9,23.3,28,42.1,32c18.8,4,37.4-1,51.3-12C124,95.7,127,76.7,121.1,58.5z"/>
<g>
	<path class="st3" d="M53.4,84.7v8.1h-6.2v-8.1H29.8v-5c4.6-8.2,7-17.1,7-23.2h6.2c0,6.2-2.7,15.1-7.3,22.8h11.4V64.2h6.2v15.1h5.1
		v5.4H53.4z"/>
	<path class="st3" d="M81.6,80.9c0-4.1-2.8-6.8-7.4-6.8c-3.1,0-5.6,1.1-7.4,3.4l-3.8-1.7l1.3-19.3h21.8v5.8H69.5l-0.8,8.9
		c2.2-1.6,5-2.1,7.3-2.1c6.9,0,12.3,4.5,12.3,11.7c0,6.6-4.7,12.6-13.7,12.6c-6.1,0-10.6-2.4-13.5-7.3l5.3-3c1.7,3.2,4.6,4.6,8,4.6
		C78.6,87.9,81.6,85.3,81.6,80.9z"/>
	<path class="st3" d="M92,92.8v-5.3h8.9V63.7c-1.9,0.9-5.6,2-8.9,2.4l-0.8-4.9c5.3-1,8.9-2.3,11.2-4.6h4.8v31h8.5v5.3H92z"/>
</g>
<g>
	<path class="st4" d="M177.8,92.8l-7.7-14.6h-10.4v14.6h-5.1V56.5h15.9c7.5,0,12.2,4.2,12.2,10.6c0,5.1-3.2,8.6-7.5,10.1l8.5,15.5
		H177.8z M170.3,61.2h-10.6v12.5h10.8c4.2,0,6.9-2.5,6.9-6.2C177.3,63.7,174.5,61.2,170.3,61.2z"/>
	<path class="st4" d="M214.5,79.8h-22.2c0.3,5.9,4,9.3,9.5,9.3c3.4,0,6.2-1.3,8.4-3.7l3.2,3.1c-2.9,3.1-6.6,5-11.7,5
		c-9.2,0-14.5-6.3-14.5-14.7c0-8.3,5.2-14.9,13.9-14.9c8.3,0,13.5,6.2,13.5,14.1C214.6,78.8,214.6,79.4,214.5,79.8z M209.7,76.2
		c-0.5-5.5-4.2-8.2-8.7-8.2c-5,0-8.3,3.4-8.7,8.2H209.7z"/>
	<path class="st4" d="M229.1,93.5c-5.6,0-10-2.2-12.5-6l3.5-2.6c2.2,3,5.5,4.6,9.3,4.6c3.8,0,6.6-1.5,6.6-4.6c0-2.9-2.6-3.4-7.8-4.4
		c-5.6-1-10.1-2.7-10.1-8.2c0-5.8,5.1-8.3,10.6-8.3c5.3,0,9.3,2.4,11.5,4.7l-3.2,3c-2-2.3-5-3.7-8.4-3.7c-3,0-6,1.1-6,3.8
		c0,2.9,3.2,3.5,7,4.3c5.7,1.1,11.1,2.4,11.1,8.4C240.7,89.8,236.4,93.5,229.1,93.5z"/>
	<path class="st4" d="M270.9,79.8h-22.2c0.3,5.9,4,9.3,9.5,9.3c3.4,0,6.2-1.3,8.4-3.7l3.2,3.1c-2.9,3.1-6.6,5-11.7,5
		c-9.2,0-14.5-6.3-14.5-14.7c0-8.3,5.2-14.9,13.9-14.9c8.3,0,13.5,6.2,13.5,14.1C271,78.8,270.9,79.4,270.9,79.8z M266.1,76.2
		c-0.5-5.5-4.2-8.2-8.7-8.2c-5,0-8.3,3.4-8.7,8.2H266.1z"/>
	<path class="st4" d="M303.4,92.7c-0.9,0.4-2.3,0.5-3.3,0.5c-2.7,0-5.1-1.3-5.5-4.5c-2.5,3.6-6.3,4.7-9.8,4.7
		c-5.8,0-9.7-3.2-9.7-8.6c0-6.6,5.8-8,9.8-8.5c4.4-0.6,9-0.6,9-4.2c0-3.2-3.4-4.1-6.4-4.1c-3.1,0-6.2,1-8.8,3l-2.2-3.6
		c3.3-2.3,6.9-3.6,11.3-3.6c6.4,0,11,2.7,11,9.3v13.4c0,2.1,0.7,3.1,2.2,3.1c0.7,0,1.3-0.2,1.7-0.4L303.4,92.7z M294.1,77
		c-1.9,2.4-4.7,2.3-8.2,2.9c-3.2,0.5-5.9,1.3-5.9,4.8c0,3.4,2.6,4.8,5.9,4.8c4.1,0,8.2-2.2,8.2-7.6V77z"/>
	<path class="st4" d="M321.7,69.5c-0.9-0.5-2-0.9-3.3-0.9c-3.8,0-7.3,3.3-7.3,9.4v14.8h-4.7V64.5h4.7v4.8c1.9-3.1,4.7-5.3,8.2-5.3
		c1.6,0,3.1,0.5,3.9,1L321.7,69.5z"/>
	<path class="st4" d="M348.4,87.5c-2.4,3.4-6.2,5.9-11.5,5.9c-8.4,0-13.7-6.4-13.7-14.8c0-8.5,5.3-14.8,13.7-14.8
		c5,0,8.8,2.3,11.3,5.9l-3.5,2.8c-1.7-2.7-4.2-4.4-7.6-4.4c-5.5,0-8.9,4.5-8.9,10.5c0,6,3.4,10.5,8.8,10.5c3.6,0,6.1-1.8,7.7-4.3
		L348.4,87.5z"/>
	<path class="st4" d="M353.4,92.8V53.9h4.7v15.3c2.3-3.4,5.6-5.3,9.7-5.3c6.1,0,9.9,4,9.9,10.7v18.3h-4.7V75.7c0-3.4-1-7.4-6.3-7.4
		c-4.9,0-8.6,3.5-8.6,8.8v15.7H353.4z"/>
</g>
</svg>
