<?xml version="1.0" encoding="utf-8"?>
<!-- Generator: Adobe Illustrator 24.3.0, SVG Export Plug-In . SVG Version: 6.00 Build 0)  -->
<svg version="1.1" id="Layer_1" xmlns="http://www.w3.org/2000/svg" xmlns:xlink="http://www.w3.org/1999/xlink" x="0px" y="0px"
	 viewBox="0 0 580.4 585" style="enable-background:new 0 0 580.4 585;" xml:space="preserve">
<style type="text/css">
	.st0{fill:#21BCEF;}
	.st1{fill:#FFFFFF;stroke:#FFFFFF;stroke-width:0.1254;stroke-linecap:round;stroke-linejoin:round;stroke-miterlimit:26.4993;}
</style>
<g id="layer1" transform="translate(-39.022 -78.115)">
	<g id="g1016" transform="translate(-63.947 -88.179)">
		<path id="path1008" class="st0" d="M392.9,166.3c0.6,0,1.2,0.8,2.2,2.2c0.8,1.2,66,79.5,145.1,173.9s143.6,172.1,143.2,172.5
			c-0.2,0.5-63.1,52.1-139.8,114.6s-142,115.6-144.9,118.1c-5.1,4.2-5.4,4.3-7.3,2.5c-1.1-1.1-66.5-54.6-145.4-118.9
			S102.7,513.9,103,513.1c0.3-0.8,65.1-78.1,144.3-172.1s144-171.6,144.3-172.9C391.9,166.9,392.4,166.3,392.9,166.3z"/>
		<path id="path923" class="st1" d="M382.2,658.2c-9-3.3-19.8-12.6-24.3-21.2c-5.6-10.7-5.1-27.4,1.1-40.8
			c4.8-9.9,4.8-10.2,1.7-12.6c-1.7-1.2-22.3-12.7-45.6-25.3c-23.3-12.6-43.6-23.6-45-24.3c-1.9-1.1-5,0-10.5,3.6
			c-18.1,11.5-37.1,10.2-51.9-3.6c-10.7-9.9-13.8-16.9-13.8-31.2c0-13.8,2.8-20.9,11.6-29.8c11.9-11.9,27.9-16,43.3-10.9
			c8.4,2.8,8.5,2.8,13.8-1.2c6.2-4.7,56-50.1,80-72.9l16.6-15.8l-5-10.4c-10.1-20.9-5-44.2,12.7-58.1c9.6-7.6,16.7-9.9,30.5-9.9
			c32.2,0,54.7,33.8,42.6,64c-3.3,8.4-3.3,8.5-0.2,13.6c2.6,4.5,47.4,58.6,71.2,86.2c4.2,4.8,8.8,8.7,10.4,8.7s6.8-1.6,11.8-3.4
			c23.1-9.1,47.4,1.1,57,24c6.2,14.7,0.8,34.6-12.4,46.5c-9.3,8.4-16.1,11-28.5,11c-8.7,0-11.9-0.9-21.1-5.9
			c-6.8-3.7-12.1-5.6-14.3-5c-3.7,0.9-60.9,40.2-73.6,50.4c-7.8,6.4-8.4,8.7-4.3,18.1c3.9,9.3,3.4,23.9-0.9,33
			c-4.8,10.1-16.7,20.2-27.1,23.3C397.4,661.4,391,661.4,382.2,658.2L382.2,658.2z M384.8,487.3V399l-5-6.8
			c-2.8-3.7-5.4-6.8-5.9-6.8c-2,0-102.2,91-102.2,92.9c0,0.5,1.6,5.1,3.4,10.1c1.9,5.1,3.3,12.4,3.1,16.6s-0.2,8.8-0.2,10.4
			c0.2,3.6,33.6,25,83.9,53.9c13.8,8.1,18.6,10.1,20.3,8.7C384.3,576.2,384.8,559,384.8,487.3L384.8,487.3z M427.3,565.5
			c66.3-41.7,78.8-50.1,79.5-53.2c0.5-1.9,1.1-9.1,1.2-16.4l0.5-13l-33.8-40.2c-36.3-42.9-49.6-57.5-52.7-57.5
			c-1.1,0-6.5,3.1-12.1,6.8l-10.2,6.8l0.5,88.2c0.5,79.1,1.1,92.4,4,92.4C404.5,579.6,415,573.2,427.3,565.5L427.3,565.5z"/>
	</g>
</g>
</svg>
