<?xml version="1.0" encoding="utf-8"?>
<!-- Generator: Adobe Illustrator 24.1.2, SVG Export Plug-In . SVG Version: 6.00 Build 0)  -->
<svg version="1.1" id="Layer_1" xmlns="http://www.w3.org/2000/svg" xmlns:xlink="http://www.w3.org/1999/xlink" x="0px" y="0px"
	 viewBox="0 0 889.246 143.041" enable-background="new 0 0 889.246 143.041" xml:space="preserve">
<g>
	<path id="Fill-1" fill="#008B84" d="M774.695,38.365c-4.837-1.761-7.329-7.107-5.568-11.942c1.759-4.835,7.104-7.329,11.94-5.568
		c-10.098-3.676-21.265,1.532-24.941,11.629c-3.673,10.099,1.532,21.267,11.632,24.941l95.619,34.803l-82.309,29.957
		c-10.098,3.676-21.265-1.531-24.941-11.631c-3.673-10.098,1.532-21.265,11.632-24.939c-15.363,5.591-23.283,22.577-17.693,37.94
		c5.593,15.362,22.58,23.282,37.941,17.692l89.799-32.686c9.022-3.282,13.673-13.258,10.389-22.279
		c-1.827-5.023-5.731-8.692-10.388-10.39L774.695,38.365"/>
	<path id="Fill-2" fill="#00A299" d="M863.376,50.813l-82.309-29.958c-10.098-3.676-21.265,1.532-24.941,11.629
		c-3.673,10.099,1.532,21.267,11.632,24.941c-15.363-5.591-23.283-22.577-17.693-37.94c5.593-15.362,22.58-23.284,37.941-17.692
		l89.799,32.686c9.022,3.281,13.673,13.259,10.389,22.279c-1.827,5.022-5.731,8.691-10.388,10.39l-103.109,37.528
		c-4.837,1.761-7.329,7.107-5.568,11.942c1.759,4.835,7.104,7.328,11.94,5.567c-10.098,3.676-21.265-1.531-24.941-11.631
		c-3.673-10.098,1.532-21.265,11.632-24.939L863.376,50.813"/>
	<path id="Fill-3" fill="#023025" d="M30.112,69.722H16.295v23.78h14.542c8.45,0,13.035-4.467,13.035-12.071
		C43.872,74.552,38.924,69.722,30.112,69.722z M27.577,37.134H16.295V57.05h11.887c8.088,0,11.708-3.984,11.708-10.379
		C39.891,40.514,35.302,37.134,27.577,37.134z M0,24.219h28.422c17.019,0,28.486,6.879,28.486,20.76
		c0,9.174-6.639,15.329-14.725,17.26v0.242C54.737,64.17,61.255,73.103,61.255,82.88c0,15.208-12.313,23.657-28.728,23.657H0V24.219
		z M210.829,70.447h27.037c-0.724-6.758-5.915-12.311-13.518-12.311C216.381,58.136,211.433,64.05,210.829,70.447z M253.919,77.208
		c0,1.328,0,2.775-0.24,4.345h-42.971c0,7.967,6.76,14.847,14.967,14.847c5.312,0,9.053-2.295,11.588-6.036l13.441,4.894
		c-4.516,7.541-12.559,13.333-25.15,13.333c-17.26,0-30.779-12.552-30.779-31.382c0-16.537,10.863-30.417,29.693-30.417
		C243.539,46.79,253.919,61.033,253.919,77.208z M697.343,64.292c-0.361-4.104-3.017-6.517-6.639-6.517
		c-3.862,0-5.915,2.535-5.915,5.069c0,3.259,1.811,5.312,11.588,8.691c12.19,3.983,16.656,10.138,16.656,18.467
		c0,10.621-8.087,18.588-22.329,18.588c-14.725,0-21.726-7.726-22.33-18.949h14.604c0.362,4.585,2.777,7.845,8.089,7.845
		c4.104,0,6.638-2.777,6.638-6.155c0-3.983-2.776-6.397-11.467-9.295c-10.863-3.499-16.535-8.932-16.535-17.984
		c0-10.379,8.449-17.26,20.88-17.26c12.795,0,19.916,7.363,21.123,17.501H697.343z M620.607,70.447h27.038
		c-0.725-6.758-5.914-12.311-13.52-12.311C626.161,58.136,621.212,64.05,620.607,70.447z M663.699,77.208
		c0,1.328,0,2.775-0.241,4.345h-42.97c0,7.967,6.758,14.847,14.965,14.847c5.313,0,9.056-2.295,11.588-6.036l13.442,4.894
		c-4.516,7.541-12.558,13.333-25.15,13.333c-17.26,0-30.779-12.552-30.779-31.382c0-16.537,10.863-30.417,29.692-30.417
		C653.317,46.79,663.699,61.033,663.699,77.208z M541.34,19.632h16.294v36.331h0.483c3.983-6.397,10.501-9.053,17.017-9.053
		c12.917,0,21.97,8.569,21.97,26.434v33.193h-16.295V74.311c0-8.571-4.102-13.036-10.863-13.036
		c-7.121,0-12.312,4.949-12.312,14.726v30.537H541.34V19.632z M499.85,93.624c8.088,0,14.728-6.641,14.728-16.176
		c0-9.896-6.399-16.415-14.606-16.415c-9.776,0-14.847,8.208-14.847,16.295C485.124,85.295,489.711,93.624,499.85,93.624z
		 M529.905,104.727c0,21.485-9.656,32.831-31.021,32.831c-14.015,0-23.95-6.615-27.768-17.727l14.974-5.448
		c1.205,5.552,5.31,9.896,13.759,9.896c9.777,0,14.848-6.155,14.848-17.38v-7.363h-0.364c-3.86,4.587-9.534,8.328-18.467,8.328
		c-14.966,0-27.277-11.708-27.277-30.417c0-17.381,11.95-30.537,28.003-30.537c9.173,0,14.604,4.708,17.501,8.811h0.604v-7h15.208
		V104.727z M460.173,106.538h-16.175v-7.243h-0.362c-4.708,6.881-10.621,9.174-16.899,9.174c-9.414,0-21.001-5.793-21.001-25.467
		v-34.28h16.295v32.228c0,8.449,3.982,13.036,10.26,13.036c7.119,0,11.587-4.949,11.587-14.604V48.721h16.296V106.538z
		 M377.974,71.535h-31.685v35.003h-17.26V24.219h17.26v32.348h31.685V24.219h17.26v82.318h-17.26V71.535z M301.082,62.723
		c-2.054-0.362-4.467-0.725-7.726-0.725c-9.656,0-14.485,6.036-14.485,16.416v28.123h-16.293V48.721h15.934v8.932h0.359
		c3.14-5.672,9.174-10.622,16.9-10.622c2.293,0,3.742,0.123,5.312,0.484V62.723z M161.009,82.759l-3.743,3.62v20.158h-16.294V19.632
		h16.294v48.644l18.347-19.555h19.795L172.233,72.5l26.676,34.038h-19.675L161.009,82.759z M99.121,94.348
		c7.725,0,14.483-6.76,14.483-16.537c0-10.141-6.276-16.778-14.363-16.778c-10.14,0-14.967,8.329-14.967,16.657
		C84.274,86.139,88.982,94.348,99.121,94.348z M129.054,106.538h-15.69v-7.243h-0.482c-3.743,4.95-9.416,9.174-18.83,9.174
		c-11.225,0-26.313-9.053-26.313-30.897c0-18.59,12.794-30.417,27.52-30.417c9.053,0,14.483,4.465,17.623,9.052h0.482v-7.484h15.69
		V106.538L129.054,106.538z"/>
</g>
</svg>
