<?xml version="1.0" encoding="utf-8"?>
<!-- Generator: Adobe Illustrator 24.0.3, SVG Export Plug-In . SVG Version: 6.00 Build 0)  -->
<svg version="1.1" id="Layer_1" xmlns="http://www.w3.org/2000/svg" xmlns:xlink="http://www.w3.org/1999/xlink" x="0px" y="0px"
	 viewBox="0 0 203.6 42.6" style="enable-background:new 0 0 203.6 42.6;" xml:space="preserve">
<style type="text/css">
	.st0{fill:#C7000B;}
</style>
<g>
	<path class="st0" d="M33.2,38.4c-9.5,0-17.1-7.7-17.1-17.1S23.8,4.2,33.2,4.2c3.3,0,6.5,1,9.1,2.6l-9.1,14.5l17.1-9.9
		c-1.9-3-4.5-5.5-7.8-7.4c-4.1-2.5-9.8-4-16.1-4c-9,0-16.9,3.3-21.3,8.2C1.9,11.8,0,16.3,0,21.3c0,5,1.9,9.5,5.2,13.1
		c4.4,4.9,12.2,8.2,21,8.2s16.6-3.3,21-8.2c0.2-0.3,0.5-0.5,0.7-0.8l-0.7-2.5C44.2,35.5,39.1,38.4,33.2,38.4"/>
	<path class="st0" d="M89.9,41.6l-7.2-26.8c-1.2-4.3-5.1-7.5-9.8-7.5c-1.2,0-2.4,0.2-3.5,0.6l-15.5,5.6H70l2.7,10.1
		C70,21.4,66.6,20,62.8,20c-7.5,0-13.5,5-13.5,11.2c0,6.2,6,11.2,13.5,11.2c5.4,0,10.1-2.6,13-6.7l1.6,5.9H89.9z M68,37.4
		c-3.4,0-6.2-2.8-6.2-6.2c0-3.4,2.8-6.2,6.2-6.2c3.4,0,6.2,2.8,6.2,6.2C74.3,34.6,71.5,37.4,68,37.4"/>
	<path class="st0" d="M119.2,7.3c-0.9,0-1.8,0.2-2.6,0.6l-9.9,4.6c-0.5-3-3.1-5.2-6.1-5.2c-0.9,0-1.8,0.2-2.6,0.6l-12.1,5.6h8.5v28
		h12.5V16.6c0-1.7,1.4-3.1,3.1-3.1c1.7,0,3.1,1.4,3.1,3.1v24.9h12.5v-28C125.4,10.1,122.6,7.3,119.2,7.3"/>
	<path class="st0" d="M197.4,7.3c-0.9,0-1.8,0.2-2.6,0.6l-9.9,4.6c-0.5-3-3.1-5.2-6.1-5.2c-0.9,0-1.8,0.2-2.6,0.6l-12.1,5.6h8.5v28
		h12.5V16.6c0-1.7,1.4-3.1,3.1-3.1c1.7,0,3.1,1.4,3.1,3.1v24.9h12.5v-28C203.6,10.1,200.8,7.3,197.4,7.3"/>
	<path class="st0" d="M165.9,24.9c0,9.8-7.9,17.7-17.7,17.7c-9.8,0-17.7-7.9-17.7-17.7c0-9.8,7.9-17.7,17.7-17.7
		C158,7.3,165.9,15.2,165.9,24.9 M149,12.6c-0.6-2.1-2.7-3.3-4.8-2.8c-2.1,0.6-3.3,2.7-2.8,4.8l6,22.6c0.6,2.1,2.7,3.3,4.8,2.8
		c2.1-0.6,3.3-2.7,2.8-4.8L149,12.6z"/>
</g>
</svg>
