<?xml version="1.0" encoding="utf-8"?>
<!-- Generator: Adobe Illustrator 24.1.0, SVG Export Plug-In . SVG Version: 6.00 Build 0)  -->
<svg version="1.1" id="Layer_1" xmlns="http://www.w3.org/2000/svg" xmlns:xlink="http://www.w3.org/1999/xlink" x="0px" y="0px"
	 viewBox="0 0 425 140.4" style="enable-background:new 0 0 425 140.4;" xml:space="preserve">
<style type="text/css">
	.st0{fill:#E41F35;}
	.st1{fill:#231F20;}
</style>
<g>
	<path class="st0" d="M237.1,29l-0.3-0.3c-44.6,1.8-86.3,15.7-114.4,33.1c-1.2-1.8-2.5-3.6-4-5.3c25.2-15.6,60.4-28.6,90.4-32.5
		l-0.4-0.2c-32.1,3.2-63.4,13-85.8,25.1c-0.9-1.6-2-3.2-3.3-4.7c19.5-11.2,44.7-20.3,68.7-24.7l-0.3-0.2
		c-28.1,4.2-53.4,12.1-70.8,22c-1.3-1.4-2.6-2.7-4.2-4.1c1.8-1.1,3.7-2.2,5.7-3.2c0.9,0.9,1.7,1.8,2.5,2.7l1-0.9
		c-0.5-0.9-1.1-1.8-1.8-2.7c14.4-7.3,32.2-13.1,46.1-15.8l-0.4-0.2c-14.2,2.5-33,6.8-47.5,13.7C106.3,16.4,82.2,6.8,47.2,0l-0.3,0.2
		c31.7,7.2,54.9,18,69.2,31.4c-2.1,1-4,2.2-5.9,3.4C93.4,21.1,63.7,8.7,24.4,2.9l-0.3,0.2c34.6,6.3,63.5,18.8,82.9,34
		c-1.9,1.5-3.6,3-5.1,4.6C80.3,26.5,46.1,13.6,0.3,7.6L0,7.9c37.9,6.1,77.3,19.4,104.1,41.9c-3.5,3-6.4,6.2-8.4,9.4l1.1,1.2
		c2.9-2.8,6.3-5.6,9.9-8.3c1.4,1.2,2.7,2.5,4,3.8C101.6,62.2,95,69,92.1,75.6l1.2,1c5.1-5.9,12.2-11.8,20.8-17.4
		c1.5,1.7,3,3.3,4.4,5.1c-17.3,11.4-28.7,23.9-31.2,35.5l1.3,0.9c7.3-12.3,19-23,33-32.5c2.2,3.1,4.2,6.2,5.9,9.5l1.3-0.8
		c-0.7-3.6-2-7.2-3.8-10.8C160,43.8,207.9,30.7,237.1,29 M103.8,43.1c1.7-1.4,3.5-2.8,5.5-4.1c1.5,1.3,3,2.6,4.4,3.8
		c-2,1.2-3.8,2.4-5.6,3.7C106.8,45.3,105.3,44.3,103.8,43.1 M111.1,49.1c1.8-1.3,3.6-2.3,5.5-3.5c1.4,1.4,2.7,2.8,4,4.3
		c-1.8,1-3.6,2.1-5.3,3.1C113.9,51.7,112.6,50.3,111.1,49.1"/>
	<path class="st1" d="M211.2,98.4h7.3v6.8h-7.3V98.4z M211.3,110.7h7v29.1h-7V110.7z"/>
	<rect x="283.4" y="97.5" class="st1" width="7" height="42.3"/>
	<polygon class="st1" points="298.1,97.4 301.6,97.4 301.6,115.5 317.1,115.5 317.1,97.4 320.7,97.4 320.7,139.8 317.1,139.8 
		317.1,118.6 301.6,118.6 301.6,139.8 298.1,139.8 	"/>
	<path class="st1" d="M330.9,126.3c0,10.8,7,10.9,8.3,10.9c1.9,0,4.6-1,6.3-2.4l0.2,3.7c-1.4,0.8-3.3,1.7-6.8,1.7
		c-11.4,0-11.8-12-11.8-14.9c0-9.9,3.8-14.9,10.2-14.9c7.2,0,10.3,5.7,10.3,16H330.9z M343.8,123.2c0-6.2-2.6-9.9-6.5-9.9
		c-4.5,0-6.5,4.2-6.5,9.9H343.8z"/>
	<rect x="379.4" y="97.5" class="st1" width="3.4" height="42.3"/>
	<path class="st1" d="M395.3,103.9v6.8h5.9v2.9h-5.9v19.2c0,2.3,0.3,4.6,3.3,4.6c1.4,0,2.1-0.3,2.6-0.5v3c-0.3,0.2-1.2,0.4-3.3,0.4
		c-5,0-6.1-3.3-6.1-6.6v-20.1h-4.4v-2.9h4.4v-5.8L395.3,103.9z"/>
	<path class="st1" d="M135.1,112.4c2-0.9,4.7-2.2,8.8-2.2c8.7,0,11.6,4.3,11.6,11v13.4c0,2.1,0.2,4,0.4,5.1h-6.3
		c-0.3-1.1-0.4-2.5-0.4-3.3H149c-1,1-3.5,3.8-8.1,3.8c-5.1,0-8.8-3.1-8.8-8.5c0-7.9,6.9-9.9,14.1-9.9h2.7v-1.1
		c0-2.9-1.4-5.5-5.4-5.5c-3.5,0-6.6,1.7-8,2.8L135.1,112.4z M148.9,125.6h-2.6c-3.3,0-7.6,1-7.6,5.5c0,2.6,1.7,4.5,4.5,4.5
		c3.7,0,5.7-3.1,5.7-6.8V125.6z"/>
	<path class="st1" d="M256.1,112.4c2-0.9,4.7-2.2,8.8-2.2c8.8,0,11.6,4.3,11.6,11v13.4c0,2.1,0.2,4,0.4,5.1h-6.3
		c-0.3-1.1-0.4-2.5-0.4-3.3H270c-0.9,1-3.4,3.8-8.1,3.8c-5.1,0-8.8-3.1-8.8-8.5c0-7.9,7-9.9,14.1-9.9h2.7v-1.1
		c0-2.9-1.4-5.5-5.4-5.5c-3.5,0-6.6,1.7-7.9,2.8L256.1,112.4z M269.9,125.6h-2.6c-3.3,0-7.6,1-7.6,5.5c0,2.6,1.7,4.5,4.4,4.5
		c3.8,0,5.7-3.1,5.7-6.8V125.6z"/>
	<path class="st1" d="M162.4,115.5c0-1.8-0.1-3.5-0.3-4.8h6.3c0,1.8,0.2,2.3,0.2,4h0.1c0.6-1.2,1.9-4.5,7.5-4.5
		c0.4,0,0.8,0.1,1.2,0.2v6.5c-0.3-0.1-1-0.3-2-0.3c-2.9,0-6,1.8-6,7.2v15.9h-7V115.5z"/>
	<path class="st1" d="M204.2,97.4v37.4c0,2.1,0.1,3.9,0.3,5h-6.6c-0.1-0.8-0.2-2.3-0.2-3.8h-0.2c-0.4,0.8-2.2,4.3-7.8,4.3
		c-7.2,0-10.2-6.9-10.2-15c0-9.5,3.6-15,10.8-15c4.7,0,6.4,2.8,6.8,3.4h0.1V97.4H204.2z M191.6,135.1c4.1,0,5.6-4.5,5.6-10
		c0-5.6-1.6-9.7-5.4-9.7c-4,0-5.3,3.8-5.3,9.6C186.5,131.7,187.5,135.1,191.6,135.1"/>
	<path class="st1" d="M128.4,138.9c-0.7,0.3-3,1.4-8.6,1.4c-12,0-18.2-8.8-18.2-20.3c0-11.6,6.2-20.3,17.9-20.3
		c5.2,0,7.9,1.1,8.8,1.5l-0.4,6.6c-0.7-0.4-2.8-2-7.5-2c-6,0-11.2,4.1-11.2,14.3c0,10.2,5.2,14.3,11.2,14.3c3.5,0,5.8-0.9,7.5-2
		L128.4,138.9z"/>
	<path class="st1" d="M225.5,115.5c0-1.8-0.1-3.5-0.3-4.8h6.6c0,0.9,0.2,2.9,0.2,3.7h0.1c0.6-0.9,2.4-4.1,7.6-4.1
		c6,0,8.8,3.9,8.8,9.6v19.9h-7v-18.8c0-3.6-2.1-4.9-4.5-4.9c-2.3,0-4.5,1.3-4.5,4.9v18.8h-7V115.5z"/>
	<path class="st1" d="M406,97.4h3.5v15.9h0c0.8-1,2.6-3,7-3c5.5,0,8.5,4.5,8.5,8.5v21h-3.5v-20.1c0-3.9-2.3-6.5-6-6.5
		c-3.7,0-6.1,2.5-6.1,6.5v20.1H406V97.4z"/>
	<path class="st1" d="M368.2,119.9c0-4-1.4-6.6-6.3-6.6c-4,0-6.7,2.7-7,3l-0.5-3.5c1.7-1,4-2.6,7.9-2.6c8.1,0,9.5,5.9,9.5,9v14
		c0,2.2,0.2,4.3,0.3,6.5h-3.4l-0.2-3.5h-0.1c-0.8,1-2.3,3.9-7.9,3.9c-5.5,0-8.6-3.4-8.6-8.6c0-7.4,6.3-9.3,13.8-9.3h2.5V119.9z
		 M365.5,125.1c-6.1,0-9.9,1.8-9.9,6.4c0,2.9,1.8,5.6,5.7,5.6c1.5,0,6.9-0.6,6.9-8.6v-3.4H365.5z"/>
</g>
</svg>
