<?xml version="1.0" encoding="utf-8"?>
<!-- Generator: Adobe Illustrator 21.0.2, SVG Export Plug-In . SVG Version: 6.00 Build 0)  -->
<svg version="1.1" id="Layer_1" xmlns="http://www.w3.org/2000/svg" xmlns:xlink="http://www.w3.org/1999/xlink" x="0px" y="0px"
	 viewBox="0 0 247.9 80" style="enable-background:new 0 0 247.9 80;" xml:space="preserve">
<style type="text/css">
	.st0{fill-rule:evenodd;clip-rule:evenodd;fill:#FFFFFF;}
</style>
<g>
	<path class="st0" d="M102.8,63.4v-43h11.9c15.1,0,22.7,7,22.7,21c0,6.6-2.1,12-6.3,16c-4.2,4-9.8,6-16.9,6H102.8L102.8,63.4z
		 M107.9,24.9v33.9h6.4c5.6,0,10-1.5,13.2-4.5c3.1-3,4.7-7.3,4.7-12.8c0-11-5.9-16.5-17.6-16.5H107.9L107.9,24.9z M169.9,49.2h-21.7
		c0.1,3.4,1,6.1,2.8,7.9c1.8,1.9,4.2,2.8,7.2,2.8c3.5,0,6.6-1.1,9.5-3.4v4.6c-2.7,2-6.3,2.9-10.7,2.9c-4.3,0-7.7-1.4-10.2-4.2
		c-2.5-2.8-3.7-6.7-3.7-11.8c0-4.8,1.4-8.7,4.1-11.7c2.7-3,6.1-4.5,10.1-4.5c4,0,7.1,1.3,9.3,3.9c2.2,2.6,3.3,6.2,3.3,10.8V49.2
		L169.9,49.2z M164.9,45.1c0-2.8-0.7-5.1-2.1-6.7c-1.4-1.6-3.2-2.4-5.6-2.4c-2.3,0-4.3,0.8-5.9,2.5c-1.6,1.7-2.6,3.8-3,6.5H164.9
		L164.9,45.1z M182.3,63.4h-4.9V17.9h4.9V63.4L182.3,63.4z M216.4,32.6l-12.2,30.7h-4.8l-11.7-30.7h5.4l7.8,22.3
		c0.6,1.6,0.9,3.1,1.1,4.3h0.1c0.2-1.5,0.5-2.9,1-4.2l8.2-22.4H216.4L216.4,32.6z M246.3,49.2h-21.7c0.1,3.4,1,6.1,2.8,7.9
		c1.8,1.9,4.2,2.8,7.2,2.8c3.5,0,6.6-1.1,9.5-3.4v4.6c-2.7,2-6.3,2.9-10.7,2.9c-4.3,0-7.7-1.4-10.2-4.2c-2.5-2.8-3.7-6.7-3.7-11.8
		c0-4.8,1.4-8.7,4.1-11.7c2.7-3,6.1-4.5,10.1-4.5c4,0,7.1,1.3,9.3,3.9c2.2,2.6,3.3,6.2,3.3,10.8V49.2L246.3,49.2z M241.3,45.1
		c0-2.8-0.7-5.1-2.1-6.7c-1.4-1.6-3.2-2.4-5.6-2.4c-2.3,0-4.3,0.8-5.9,2.5c-1.6,1.7-2.6,3.8-3,6.5H241.3z"/>
	<g>
		<path class="st0" d="M20.4,28h-3.1V50h2.9c6.6,0,9.9-3.8,9.9-11.5C30.2,31.1,27.6,28,20.4,28z"/>
		<path class="st0" d="M75.3,9.2H48.6V0.5L1.5,8.6V72l47.1,7.5v-6.8h26.7c0.9,0,1.7-0.8,1.7-1.7V10.9C77,10,76.2,9.2,75.3,9.2z
			 M20.2,53.8h-7V24.1h7.3c10.5,0,14.1,5,14.1,14.5C34.7,47.3,31,53.8,20.2,53.8z M55.7,70.2h-7.1v-16h7.1V70.2z M55.7,52h-7.1V11.3
			h7.1V52z M74.8,70.2H58.1V31.9h16.6V70.2z M74.8,29.8H58.1V11.3h16.6V29.8z"/>
	</g>
</g>
</svg>
