<?xml version="1.0" encoding="utf-8"?>
<!-- Generator: Adobe Illustrator 24.1.0, SVG Export Plug-In . SVG Version: 6.00 Build 0)  -->
<svg version="1.1" id="Layer_1" xmlns="http://www.w3.org/2000/svg" xmlns:xlink="http://www.w3.org/1999/xlink" x="0px" y="0px"
	 viewBox="0 0 442.2 107.6" style="enable-background:new 0 0 442.2 107.6;" xml:space="preserve">
<style type="text/css">
	.st0{fill:#414141;}
	.st1{fill:#46B5D7;}
</style>
<g>
	<path class="st0" d="M357.3,55.9c-0.4,2.8-0.9,5.7-1.2,8.5c-0.1,1.2-0.6,1.7-1.9,1.7c-4,0-4,0.1-3.3-3.9c1.1-6,2-12.1,3.1-18.1
		c0.1-0.8-0.1-1.9,1.1-2.2c1.3-0.3,1.5,1,1.9,1.7c2,3.7,4,7.4,6,11.1c0.3,0.5,0.6,0.9,1,1.7c0.5-0.9,0.9-1.6,1.3-2.3
		c1.9-3.6,3.8-7.1,5.7-10.7c0.2-0.3,0.3-0.7,0.5-0.9c0.4-0.3,0.9-0.7,1.4-0.6c0.3,0,0.7,0.6,0.8,1c0.6,3.3,1.2,6.7,1.8,10
		c0.6,3.7,1.3,7.4,1.9,11.2c0.3,1.6,0.1,1.8-1.5,1.8c-4.3,0-3.7,0.6-4.3-3.7c-0.3-2.1-0.7-4.2-1-6.7c-0.4,0.7-0.7,1.1-0.9,1.5
		c-1.4,2.6-2.7,5.2-4.1,7.8c-0.3,0.6-1,1.3-1.5,1.3c-0.5,0-1.2-0.7-1.5-1.3c-1.4-2.6-2.8-5.3-4.2-8c-0.2-0.4-0.4-0.8-0.6-1.2
		C357.5,55.9,357.4,55.9,357.3,55.9z"/>
	<path class="st0" d="M247.3,25.6c2.1-3.9,4.1-7.6,6.1-11.3c0.4-0.8,0.8-1.6,1.3-2.3c0.3-0.4,1-0.9,1.4-0.9c0.4,0.1,0.9,0.8,1,1.2
		c1.1,6.1,2.1,12.3,3.1,18.4c0.2,1,0.3,2,0.5,3c0.2,0.9-0.2,1.4-1.2,1.4c-0.1,0-0.1,0-0.2,0c-3.9,0.2-3.9,0.2-4.5-3.6
		c-0.3-2.1-0.6-4.3-1-6.8c-0.5,0.7-0.7,1.1-0.9,1.5c-1.4,2.7-2.7,5.3-4.2,8c-0.3,0.5-1,1.1-1.5,1.2c-0.4,0-1.1-0.7-1.3-1.2
		c-1.7-3-3.2-6.1-5.1-9.1c-0.3,1.9-0.6,3.9-0.9,5.8c0,0.2,0,0.3-0.1,0.5c-0.8,4.1,0.3,3.7-4.3,3.7c-1.6,0-1.8-0.2-1.5-1.8
		c0.9-5.2,1.7-10.3,2.6-15.4c0.3-1.8,0.5-3.5,0.9-5.2c0.1-0.6,0.5-1.3,0.9-1.5c0.8-0.3,1.2,0.4,1.6,1.1c2.2,4.2,4.5,8.3,6.7,12.5
		C246.9,25,247.1,25.2,247.3,25.6z"/>
	<path class="st0" d="M250.1,54.1c0-1.7,0-3.4,0-5.1c0-1.7,0-3.4,0-5.2c0-1.1,0.3-1.6,1.5-1.6c5,0,4.1-0.4,4.1,3.9
		c0,5.9,0,11.9,0,17.8c0,0.4,0,0.9,0,1.3c-0.1,1.1-1,1.5-1.9,0.8c-0.3-0.2-0.5-0.5-0.7-0.7c-3.7-3.7-7.4-7.5-11.2-11.2
		c-0.3-0.3-0.6-0.5-1.1-0.9c0,2.8,0,5.2,0,7.7c0,1.2,0,2.4,0,3.7c0,1-0.3,1.5-1.4,1.4c-4.9,0-4,0.5-4.1-3.8
		c-0.1-6.1-0.1-12.2-0.1-18.3c0-0.5,0-1.3,0.3-1.6c0.7-0.8,1.5-0.3,2.1,0.3c3.3,3.2,6.6,6.4,10,9.6c0.7,0.7,1.4,1.3,2.1,2
		C249.9,54.2,250,54.2,250.1,54.1z"/>
	<path class="st0" d="M407.4,53.6c0,3.5,0,7,0,10.5c0,1.9,0,2-1.9,2c-4,0-3.5,0.3-3.5-3.4c0-5.8-0.1-11.7-0.1-17.5
		c0-0.6-0.1-1.1,0-1.7c0.1-0.5,0.3-1.3,0.6-1.4c0.5-0.1,1.2,0.1,1.6,0.4c1.9,1.7,3.7,3.5,5.5,5.3c2.2,2.1,4.5,4.3,6.7,6.4
		c0.1,0,0.3-0.1,0.4-0.1c0-0.6,0-1.1,0-1.7c0-2.9,0-5.8,0-8.7c0-1.1,0.4-1.5,1.5-1.5c5.1,0,4-0.4,4.1,3.9c0.1,6.1,0,12.2,0,18.3
		c0,0.6-0.4,1.3-0.6,1.9c-0.6-0.3-1.4-0.4-1.8-0.8c-3.4-3.3-6.8-6.8-10.1-10.1c-0.7-0.7-1.3-1.3-2-2
		C407.6,53.4,407.5,53.5,407.4,53.6z"/>
	<path class="st0" d="M321.4,58.8c-2.6-0.5-2.5-0.5-2.5-3.3c0-1.3,0.4-1.8,1.7-1.7c1.7,0.1,3.4,0.1,5.2,0c1,0,1.4,0.4,1.4,1.4
		c0,2.6,0,5.2,0,7.8c0,0.5-0.3,1.3-0.8,1.5c-6.3,3.3-14.7,3-18.8-4.6c-2.7-5-1.3-11.5,3.2-15.2c4.4-3.5,10.9-3.5,15.3,0
		c1.2,0.9,1.2,1.1,0.2,2.2c-0.1,0.1-0.2,0.2-0.2,0.2c-0.7,0.7-1.3,1.8-2.2,2c-0.7,0.2-1.6-0.6-2.5-1c-2.5-1.1-5.5-0.5-7.4,1.7
		c-2,2.3-2.2,5.6-0.6,8c1.5,2.3,4.6,3.5,7.1,2.8C321.6,60.3,321.8,59.7,321.4,58.8z"/>
	<path class="st0" d="M272.6,53.7c2.6,0,5,0,7.3,0c0.3,0,0.9,0.7,0.9,1.1c0.1,2.8,0.1,5.6,0,8.3c0,0.4-0.4,1-0.8,1.3
		c-4.9,3.1-12,2.5-16.2-1.3c-4.8-4.4-5.2-12.1-0.9-17c4.3-5,12-5.6,17-1.5c0.8,0.7,1,1.3,0.2,2c-0.1,0.1-0.2,0.2-0.4,0.4
		c-0.7,0.7-1.3,1.8-2.2,2c-0.7,0.2-1.6-0.6-2.5-1c-2.6-1.2-5.7-0.4-7.5,1.8c-2,2.4-2.1,5.6-0.4,8c1.6,2.4,4.7,3.5,7.3,2.6
		c0.4-0.1,0.6-0.7,0.9-1.1c-0.3-0.3-0.7-0.8-1-0.7c-1.4,0.1-1.9-0.6-1.8-1.9C272.6,55.8,272.6,54.8,272.6,53.7z"/>
	<path class="st0" d="M375,16.6c0,1.4,0,2.5,0,3.9c1.8,0,3.6,0,5.3,0c2.9,0,2.9,0,2.9,2.9c0,2.3,0,2.3-2.4,2.3c-1.9,0-3.8,0-5.8,0
		c0,1.4,0,2.8,0,4.3c2.6,0,5.2,0,7.8,0c1.9,0,1.9,0.1,2,2c0,3.2,0,3.2-3.1,3.2c-3.5,0-7,0-10.5,0c-1.7,0-1.9-0.2-1.9-1.9
		c0-6.7,0-13.3,0-20c0-1.8,0.1-1.9,1.8-1.9c3.9,0,7.9,0,11.8,0c1.7,0,1.8,0.1,1.8,1.8c0,3.9,0.2,3.4-3.4,3.4
		C379.3,16.6,377.2,16.6,375,16.6z"/>
	<path class="st0" d="M349.5,11.5c5.1,0,10,0,15.1,0c0,1.7,0,3.2,0,5.1c-3.2,0-6.3,0-9.6,0c0,1.4,0,2.5,0,4c1.9,0,3.7,0,5.5,0
		c2.7,0,2.7,0,2.7,2.6c0,0.4,0,0.8,0,1.2c0,1-0.4,1.4-1.4,1.4c-1.7,0-3.3,0-5,0c-0.5,0-1.1,0-1.8,0.1c0,1.4,0,2.7,0,4.2
		c3.2,0,6.3,0,9.7,0c0,1.6,0.1,3.1-0.1,4.5c0,0.3-0.7,0.7-1.1,0.7c-4.3,0-8.7,0-13,0c-1.2,0-1.3-0.8-1.3-1.7c0-3.1,0-6.2,0-9.3
		c0-3.6,0-7.1,0-10.7C349.3,12.9,349.4,12.2,349.5,11.5z"/>
	<path class="st0" d="M337.6,60.8c2.7,0,5.2,0,7.7,0c2,0,2.1,0.1,2.1,2c0,3.6,0.3,3.3-3.2,3.3c-3.5,0-7,0-10.5,0
		c-1.7,0-1.8-0.1-1.8-1.8c0-6.8,0-13.6,0-20.3c0-1.2,0.4-1.7,1.6-1.7c4.1,0,8.2,0.1,12.3,0c1.2,0,1.5,0.5,1.5,1.6
		c-0.1,4.2,0.4,3.6-3.5,3.6c-1.9,0-3.9,0-5.8,0c-0.1,0-0.2,0.1-0.5,0.2c0,1.1,0,2.3,0,3.7c2,0,3.9,0,5.9,0c2.3,0,2.3,0,2.3,2.3
		c0,2.9,0,2.9-2.9,2.9c-1.7,0-3.4,0-5.3,0C337.6,58.1,337.6,59.3,337.6,60.8z"/>
	<path class="st0" d="M220.9,56.6c0,1.4,0,2.6,0,4c0.5,0,1,0.1,1.6,0.1c2.2,0,4.4,0,6.7,0c1.1,0,1.6,0.3,1.6,1.5
		c0,4.5,0.3,3.7-3.5,3.8c-3.4,0-6.8,0-10.2,0c-1.7,0-1.8-0.1-1.8-1.8c0-6.7,0-13.4,0-20.2c0-1.8,0.1-1.8,1.9-1.9c3.9,0,7.9,0,11.8,0
		c1.6,0,1.7,0.1,1.7,1.7c0,4,0.4,3.5-3.4,3.5c-2.1,0-4.2,0-6.4,0c0,1.3,0,2.5,0,3.9c2.1,0,4.2,0,6.2,0c1.9,0,2,0.1,2,2
		c0,3.6,0.3,3.3-3.3,3.3C224.2,56.6,222.6,56.6,220.9,56.6z"/>
	<path class="st0" d="M387.5,47.5c0,1.3,0,2.5,0,3.9c2.2,0,4.2,0,6.2,0c1.8,0,1.9,0.1,1.9,1.9c0,3.6,0.4,3.4-3.3,3.4
		c-1.6,0-3.2,0-4.9,0c0,1.4,0,2.6,0,4c0.6,0,1.2,0.1,1.8,0.1c2.2,0,4.3,0,6.5,0c1.1,0,1.6,0.4,1.6,1.6c-0.1,4.3,0.4,3.7-3.6,3.7
		c-3.4,0-6.9,0-10.3,0c-1.1,0-1.6-0.3-1.6-1.5c0-6.9,0-13.9,0-20.8c0-1,0.3-1.5,1.4-1.5c4.2,0,8.3,0,12.5,0c1.1,0,1.6,0.4,1.6,1.6
		c0,4.4,0.4,3.6-3.6,3.7C391.7,47.5,389.6,47.5,387.5,47.5z"/>
	<path class="st0" d="M220.9,16.8c0,1.2,0,2.3,0,3.7c1.4,0,2.8,0,4.1,0c0.2,0,0.3,0,0.5,0c4,0,3.6-0.7,3.6,3.8c0,1-0.4,1.4-1.4,1.4
		c-2.2,0-4.4,0-6.8,0c0,1.5,0,2.8,0,4.3c2.7,0,5.4,0,8,0c1.7,0,1.8,0.1,1.8,1.8c0,3.8,0.3,3.4-3.4,3.4c-3.4,0-6.9,0-10.3,0
		c-1.3,0-1.8-0.4-1.8-1.7c0-6.8,0-13.7,0-20.5c0-1.2,0.5-1.7,1.7-1.6c4.1,0,8.1,0,12.2,0c1.2,0,1.7,0.4,1.7,1.6
		c-0.1,4.2,0.2,3.5-3.4,3.6c-1.9,0-3.9,0-5.8,0.1C221.4,16.6,221.2,16.7,220.9,16.8z"/>
	<path class="st0" d="M256.4,90c1.2-4.7,2.5-9.4,3.7-14.2c0.2-0.6,0.3-1.3,0.5-1.9c0.4-1.2,1.4-1,2.2-0.8c0.9,0.2,0.7,1,0.5,1.6
		c-2,7-3.9,14-5.9,21c-0.2,0.5-0.7,1.2-1.2,1.3c-0.9,0.2-1.1-0.6-1.3-1.3c-1.6-4.9-3.2-9.8-4.8-14.7c-0.2-0.5-0.4-1-0.6-1.8
		c-0.3,0.6-0.5,1-0.6,1.4c-1.6,4.9-3.1,9.8-4.7,14.8c-0.1,0.3-0.1,0.6-0.3,0.8c-0.3,0.4-0.8,1-1.1,1c-0.5-0.1-1.1-0.6-1.2-1
		c-1-3.1-1.8-6.3-2.7-9.5c-1.1-3.9-2.2-7.8-3.3-11.7c-0.2-0.8-0.6-1.6,0.6-1.8c1-0.2,1.9-0.2,2.2,1.1c1.2,4.6,2.4,9.1,3.7,13.7
		c0.2,0.7,0.4,1.5,1,2.2c0.4-1.3,0.9-2.6,1.3-3.9c1.3-4,2.5-8,3.8-11.9c0.2-0.6,0.7-1.4,1.2-1.5c1-0.3,1.2,0.7,1.4,1.5
		c1.5,4.7,3,9.4,4.5,14.1c0.2,0.6,0.4,1.1,0.6,1.7C256.1,90.1,256.2,90.1,256.4,90z"/>
	<path class="st0" d="M336.3,18.4c1.4-2.1,2.7-3.8,3.9-5.7c0.6-1,1.3-1.4,2.5-1.3c0.8,0.1,1.7,0,2.5,0c1.6,0.1,1.8,0.5,1,1.8
		c-1.6,2.5-3.1,5-5,7.3c-1.7,2.1-2.4,4.4-2.2,7.1c0.2,1.9,0,3.8,0,5.7c0,1.9-0.1,1.9-2,1.9c-0.7,0-1.4,0-2.2,0c-1,0-1.4-0.4-1.4-1.4
		c0-2.8,0.1-5.7,0-8.5c0-0.9-0.3-1.9-0.8-2.6c-2-3.1-4.1-6.2-6.1-9.3c-0.3-0.4-0.3-1-0.5-1.5c0.5-0.1,1-0.4,1.5-0.4
		c3.9-0.1,3.9-0.1,6.1,3.2C334.4,15.8,335.3,17,336.3,18.4z"/>
	<path class="st0" d="M436.7,47.5c0,5.6,0,10.9,0,16.1c0,2.5,0,2.5-2.4,2.5c-3.1,0-3.1,0-3.1-3.1c0-4.4,0-8.9,0-13.3
		c0-0.7,0-1.3,0-2.2c-1.4,0-2.7,0-3.9,0c-1.2,0.1-1.6-0.4-1.6-1.6c0-4.4-0.1-3.6,3.5-3.7c3.7,0,7.5,0,11.2,0c1.7,0,1.8,0.1,1.8,1.8
		c0,4.1,0.2,3.3-3.3,3.4C438.2,47.5,437.6,47.5,436.7,47.5z"/>
	<path class="st0" d="M290.8,30c2.5,0,4.7,0.1,6.9,0c1.3-0.1,1.8,0.5,1.8,1.7c0,4.3-0.1,3.4-3.4,3.5c-3.1,0-6.1,0-9.2,0
		c-1.3,0-1.7-0.5-1.7-1.8c0-6.8,0-13.7,0-20.5c0-1.2,0.4-1.7,1.7-1.6c4.4,0.1,3.9-0.5,3.9,3.9c0,4.2,0,8.3,0,12.5
		C290.8,28.4,290.8,29.1,290.8,30z"/>
	<path class="st0" d="M344.1,97.2c-2.6,0-4.7-0.8-6.6-2.2c-0.8-0.6-1.3-1.2-0.6-2.2c0.7-1,1.3-0.8,2.2-0.2c1.1,0.8,2.4,1.4,3.7,1.9
		c1.3,0.5,2.6,0.2,3.9-0.5c2.1-1.2,2.5-3.7,0.7-5.3c-1.2-1-2.7-1.7-4.1-2.5c-1.4-0.8-2.9-1.4-4.2-2.3c-2-1.4-2.6-3.4-2.3-5.7
		c0.3-2.3,1.7-4,3.9-4.8c3-1.1,5.9-0.7,8.7,0.8c0.7,0.4,1.1,0.9,0.6,1.8c-0.4,0.8-1,1.2-1.9,0.7c-0.7-0.4-1.5-0.9-2.3-1
		c-1.2-0.2-2.6-0.4-3.7-0.1c-2.7,0.7-3.5,3.9-1.4,5.8c1,0.9,2.3,1.5,3.5,2.1c1.3,0.7,2.6,1.2,3.9,1.9c2.8,1.7,3.9,4.1,3.3,6.7
		c-0.6,2.7-2.9,4.6-6,5C344.8,97.2,344.3,97.2,344.1,97.2z"/>
	<path class="st1" d="M189.9,29.5c-9.8-18.2-25.1-28.2-45.7-29.3c-16.6-0.9-30.7,5.2-42.1,17.3c-19,20.4-19,52.3,0,72.7
		c11.3,12.1,25.3,18.1,41.9,17.4c19.8-0.9,34.7-10.3,44.8-27.3c1-1.7,0.9-2-0.8-3c-5.7-3.2-11.4-6.5-17.1-9.7
		c-1.6-0.9-2-0.8-2.9,0.8c-1.6,2.8-3.5,5.2-5.9,7.4c-14.1,13.3-37.8,9.5-46.8-7.7c-1-1.9-1.8-4-2.7-6.3c0.8-0.1,1.2-0.2,1.7-0.2
		c6.3,0,12.6,0.1,18.8,0.1c19.9,0,39.8,0,59.7,0c2.2,0,2.4-0.2,2.6-2.1C196.5,49.1,194.9,38.9,189.9,29.5z M114.7,41.3
		c2.6-7.6,12.6-17.2,26.2-17.5c13.8-0.4,24.6,8.8,27.9,17.5C150.6,41.3,132.7,41.3,114.7,41.3z"/>
	<path class="st1" d="M94,88.9c-4.4-6-7.6-12.6-9.6-19.9c-0.4-1.4-1.5-1.8-2.6-2c-1.1-0.3-1.4,0.9-1.8,1.6
		c-5.9,9.8-14.7,15.1-26.2,15.1c-11.3,0-20-5.2-25.9-14.9c-1.3-2.1-2.3-4.4-2.9-7.1c19.3,0,38.5,0,57.8,0c-0.1-1.1-0.1-2-0.1-3
		c-1.1-13.9,2.2-26.7,10-38.3c1.8-2.6,1.8-2.6-0.5-4.8C79.3,3.5,64.1-2,46.6,0.6C25.1,3.8,10.3,16.1,3,36.5
		c-7.9,22.1-0.1,46.2,18.6,60.3c21,15.9,51.3,14,70-4.5c0.9-0.9,1.8-1.9,2.7-2.8C94.2,89.2,94.1,89,94,88.9z M55.2,23.8
		c11,0.4,24,9.3,25.6,17.5c-18,0-36,0-54.1,0C30.4,32.3,41.3,23.3,55.2,23.8z"/>
	<path class="st0" d="M313.5,11.1c-7-0.1-12.4,5.1-12.6,12.1c-0.1,6.7,5.2,12.2,11.8,12.3c7.1,0.1,12.5-5,12.6-12
		C325.4,16.7,320.1,11.2,313.5,11.1z M313.2,29.9c-3.6,0-6.6-2.9-6.6-6.5c0-3.6,2.9-6.6,6.5-6.6c3.6,0,6.6,3,6.7,6.5
		C319.8,26.8,316.7,29.9,313.2,29.9z"/>
	<path class="st0" d="M274,11.4c-2.2,0-4.3,0-6.5,0c-2.3,0-2.3,0-2.4,2.3c0,5.9,0,11.9,0,17.8c0,4.1-0.4,3.6,3.7,3.7
		c1.8,0,1.9-0.1,1.9-1.9c0-2.1,0-4.2,0-6.6c1.4,0,2.5,0,3.6,0c4.3-0.2,7.5-3.6,7.4-7.9C281.6,14.6,278.2,11.4,274,11.4z M274.3,21.4
		c-0.4,0.1-0.8,0.1-1.2,0.1c-0.7,0-1.4,0-2.3,0c0-1.6,0-3.1,0-4.8c1.2,0,2.4-0.1,3.5,0c1.2,0.2,1.8,1,1.8,2.2
		C276.2,20.2,275.5,21.1,274.3,21.4z"/>
	<path class="st0" d="M304.8,63.7c-3.1-6.7-6.2-13.4-9.4-20.1c-0.3-0.6-0.9-1.1-1.4-1.7c-0.5,0.5-1.1,1-1.4,1.6
		c-2,4.2-4,8.4-5.9,12.7c-1.2,2.7-2.5,5.3-3.7,8c-0.3,0.6-0.8,1.5,0.1,1.7c1.4,0.3,2.9,0.3,4.3,0c0.6-0.1,1.2-1.2,1.5-2
		c0.4-1.1,1-1.5,2.2-1.5c1.9,0.1,3.9,0.1,5.8,0c1.1-0.1,1.8,0.3,2.1,1.3c0.5,1.9,1.7,2.7,3.3,2.3c0.5,0,0.7,0,0.9,0
		C305.6,66.1,305.7,65.8,304.8,63.7z M291.7,57.5c0.7-1.6,1.4-3,2-4.5c0.1,0,0.3,0,0.4,0.1c0.6,1.4,1.3,2.8,2.1,4.4
		C294.7,57.5,293.3,57.5,291.7,57.5z"/>
	<path class="st0" d="M302.3,87.4c0.5-0.3,1-0.5,1.3-0.8c1-1.1,2.3-2.2,2.9-3.5c2.1-4.8-1.4-9.8-6.8-10c-2.5-0.1-5,0-7.5,0
		c-1.9,0-2,0.1-2,2c0,6.6,0,13.1,0,19.7c0,2.2,0.3,2.5,2.8,1.8c0-2.8,0-5.7,0-8.9c1.8,0,3.2,0.1,4.6,0c1.2-0.1,1.9,0.4,2.4,1.5
		c1,2.3,2.2,4.5,3.3,6.7c0.5,0.9,2,1.4,2.9,0.9c1.1-0.7,0.3-1.4-0.1-2.1C304.9,92.3,303.6,89.9,302.3,87.4z M293.2,85c0-3.1,0-6,0-9
		c2.5,0,5-0.2,7.3,0.1c2.1,0.2,3.6,2.4,3.6,4.4c0,2.1-1.5,4.3-3.5,4.5C298.2,85.2,295.8,85,293.2,85z"/>
	<path class="st0" d="M321,73.1c-2.1-0.1-4.2,0-6.3,0c-1.8,0-1.9,0.2-2,2.1c0,3.3,0,6.5,0,9.8c0,0,0,0,0,0c0,3.4,0,6.9,0,10.3
		c0,1.3,0.5,1.7,1.7,1.6c2.3-0.1,4.7,0,7,0c6.3-0.1,11.5-5.3,11.6-11.6C333,78.5,328,73.4,321,73.1z M321,94.3c-1.8,0.1-3.5,0-5.3,0
		c0-6.3,0-12.4,0-18.6c3.1-0.1,6.1-0.5,8.9,0.8c3.9,1.8,5.9,6,5.1,10.4C328.8,91.2,325.5,94.1,321,94.3z"/>
	<path class="st0" d="M286.1,95.1c-3.1-7-6.3-14-9.4-20.9c-0.2-0.5-0.8-0.9-1.3-1.3c-0.4,0.5-1,0.8-1.3,1.4
		c-3.2,6.9-6.3,13.8-9.4,20.8c-0.2,0.5-0.3,1-0.5,1.6c2.4,0.5,2.5,0.5,3.4-1.3c0.5-1,0.9-2,1.3-3.1c0.3-0.9,0.9-1.2,1.9-1.2
		c3.1,0,6.1,0,9.2,0c0.9,0,1.4,0.3,1.8,1.1c0.5,1.3,1.1,2.6,1.8,3.9c0.4,0.8,1.7,1.1,2.4,0.7C286.9,96.3,286.3,95.6,286.1,95.1z
		 M270.6,88.6c1.6-3.6,3.1-6.9,4.7-10.7c1.7,3.7,3.2,7.1,4.8,10.7C276.8,88.6,273.9,88.6,270.6,88.6z"/>
	<path class="st0" d="M234.3,94.9c-3.1-6.9-6.2-13.8-9.3-20.7c-0.3-0.6-0.9-1-1.4-1.5c-0.4,0.5-1,0.9-1.2,1.4
		c-3.1,6.9-6.2,13.8-9.3,20.7c-0.2,0.5-0.3,1.1-0.5,1.7c2.3,0.6,2.5,0.5,3.3-1.2c0.5-1.1,1-2.2,1.5-3.3c0.3-0.7,0.8-1,1.5-1
		c3.2,0,6.3,0,9.5,0c0.9,0,1.3,0.3,1.6,1.1c0.5,1.3,1.2,2.6,1.7,4c0.5,1.2,1.6,1,2.4,0.7C235.3,96.4,234.6,95.5,234.3,94.9z
		 M218.9,88.5c1.6-3.5,3.1-6.9,4.5-10.2c0.1,0,0.3,0,0.4,0.1c1.5,3.3,3,6.7,4.5,10.2C225.2,88.5,222.2,88.5,218.9,88.5z"/>
</g>
</svg>
