<?xml version="1.0" encoding="utf-8"?>
<!-- Generator: Adobe Illustrator 24.0.2, SVG Export Plug-In . SVG Version: 6.00 Build 0)  -->
<svg version="1.1" id="Layer_1" xmlns="http://www.w3.org/2000/svg" xmlns:xlink="http://www.w3.org/1999/xlink" x="0px" y="0px"
	 viewBox="0 0 264 66.7" style="enable-background:new 0 0 264 66.7;" xml:space="preserve">
<style type="text/css">
	.st0{fill:url(#SVGID_1_);}
	.st1{fill:url(#SVGID_2_);}
	.st2{fill:url(#SVGID_3_);}
	.st3{fill:url(#SVGID_4_);}
	.st4{fill:url(#SVGID_5_);}
	.st5{fill:url(#SVGID_6_);}
</style>
<g>
	<g>
		
			<linearGradient id="SVGID_1_" gradientUnits="userSpaceOnUse" x1="-2.034111e-02" y1="32.8115" x2="264.0108" y2="32.8115" gradientTransform="matrix(1 0 0 -1 0 65.86)">
			<stop  offset="0" style="stop-color:#3FC3A3"/>
			<stop  offset="1" style="stop-color:#FCDA0E"/>
		</linearGradient>
		<path class="st0" d="M9.9,7.1c-0.4-2,0.1-2.4,1.7-2.8c6.9-2,19.7-3.5,28.9-3.8c2.1-0.1,3.4,0.9,3.9,2.8c0.7,2.1,1,3.6,1.2,5.6
			c0.1,2.2-0.5,3-2.7,3.2c-4.6,0.5-10.3,1.2-15.7,2.1c-1.5,4.1-3.3,8.8-5.1,13.7c2.5-0.4,5-0.6,7.7-0.7c2.2-0.1,3.4,0.4,4.1,2.3
			c0.7,2,1.2,3.8,1.4,5.8c0.3,2.2-0.3,2.8-2.5,3.3C27.7,39.6,22,40.7,17,42c-1.1,3.1-2.2,6.2-3.1,9.1c4.1-0.8,7.7-1.3,12-1.6
			c2.2-0.2,3.5,0.3,4.2,2.2c0.8,2.1,1.3,3.9,1.5,5.9c0.3,2.2-0.2,2.9-2.4,3.4c-5.7,1.3-12.1,2.7-17.5,4.2c-3,0.8-4.5,0.4-6.3-1.1
			c-1.3-1.1-2.6-2.4-4-4.3c-1.1-1.5-1.8-3.7-1.2-6.5c2-8.9,7.7-26.4,12.1-39.6C11.2,11.8,10.3,8.9,9.9,7.1z"/>
		
			<linearGradient id="SVGID_2_" gradientUnits="userSpaceOnUse" x1="1.818989e-12" y1="32.3742" x2="264.0312" y2="32.3742" gradientTransform="matrix(1 0 0 -1 0 65.86)">
			<stop  offset="0" style="stop-color:#3FC3A3"/>
			<stop  offset="1" style="stop-color:#FCDA0E"/>
		</linearGradient>
		<path class="st1" d="M80,3.7c0.9-2.5,2.2-2.9,4.4-2.2c1.5,0.5,3.2,1.3,4.5,2.1c2.2,1.4,2.9,2.6,1.9,5.8
			c-4.5,14.3-11.9,38.1-16,53.5c-0.6,2.4-2.2,2.9-4.6,2.3c-1.8-0.5-4-1.4-5.6-2.3c-1.8-1-2.8-2.4-3.5-5.1
			c-1.7-7.5-2.9-17.5-3.7-30.4c-2.5,7.9-6.8,22-10.8,36.1c-0.6,2.1-1.6,2.7-3.8,2c-1.4-0.5-3.2-1.4-4.3-2.1
			c-2.2-1.4-2.8-2.4-1.9-6.7c2.2-10.2,10.8-38.5,15.7-52.8C53,2,54,1.3,55.5,1.3c1.6,0,5.5,1.4,8.4,2.9c2.3,1.2,2.8,2.3,3,5
			c0.6,9.4,1.3,20.9,2.2,31.6C71.7,30.1,76.6,13.3,80,3.7z"/>
		
			<linearGradient id="SVGID_3_" gradientUnits="userSpaceOnUse" x1="-5.456968e-12" y1="32.4702" x2="264.0312" y2="32.4702" gradientTransform="matrix(1 0 0 -1 0 65.86)">
			<stop  offset="0" style="stop-color:#3FC3A3"/>
			<stop  offset="1" style="stop-color:#FCDA0E"/>
		</linearGradient>
		<path class="st2" d="M126.5,29.2c-5.6-0.8-7.8-4.1-7.7-8.7c0.1-3.5,0.9-8.4-0.6-8.9c-3-1-10.2,9.3-15,20.7
			c-4.1,9.7-5.6,21.9-2.1,23.5c2.9,1.3,7.5-4.3,10.9-11.3c-5.1,0.3-7.5-2.2-8.1-7.8c-0.2-1.8,0.7-2.3,2.4-2.7
			c3.4-0.9,9.1-1.9,12.2-2.3c2.9-0.4,4.4,0.1,5.7,1.9c0.9,1.3,1.7,2.8,2.3,4c1.1,2.4,1,3.9-0.1,6.5c-3.8,9.2-8.9,16.2-14.2,19.9
			c-3.4,2.4-7.2,3.2-11,2.5c-3.5-0.6-6.6-1.9-9.4-3.8c-2.1-1.5-4.3-4.3-5.1-7.4c-3.9-14.4,6.6-42,21.5-53c3.1-2.3,6.9-2.5,9.7-2.1
			c3.8,0.5,8.3,2.4,10.8,4.9c2.4,2.4,3.1,5.1,3.2,8.7c0.1,3.7-1,10.1-2,13.2C129.3,28.8,128.6,29.5,126.5,29.2z"/>
		
			<linearGradient id="SVGID_4_" gradientUnits="userSpaceOnUse" x1="9.094947e-13" y1="32.8127" x2="264.0312" y2="32.8127" gradientTransform="matrix(1 0 0 -1 0 65.86)">
			<stop  offset="0" style="stop-color:#3FC3A3"/>
			<stop  offset="1" style="stop-color:#FCDA0E"/>
		</linearGradient>
		<path class="st3" d="M139.7,52.5c-2.2,4.1-4.2,8-5.9,11.4c-1.1,2.1-1.9,2.2-3.8,1.4c-1.7-0.7-3.4-1.7-4.8-3.3s-1.4-3-0.2-5.8
			c6.6-14.7,19.7-39.1,28.2-52.4c1.6-2.5,3.4-3.8,6.9-3.7c4.1,0.1,9.5,1.5,12.7,2.8c2.4,1,2.7,2.5,2.3,5
			c-1.8,12.6-4.1,36.7-5.4,55.2c-0.1,2.3-0.7,2.9-2.9,2.9s-4.8-0.4-6.2-0.9c-2-0.7-2.6-2-2.6-5c0-3.2,0.2-7,0.4-11.3
			C152,49.9,144.8,51.1,139.7,52.5z M159.1,36.5c0.6-7.9,1.4-16.1,2.3-23.2c-3.9,6.6-9,15.6-14,24.7
			C151.3,37.4,155.3,36.8,159.1,36.5z"/>
		
			<linearGradient id="SVGID_5_" gradientUnits="userSpaceOnUse" x1="9.094947e-12" y1="32.4702" x2="264.0312" y2="32.4702" gradientTransform="matrix(1 0 0 -1 0 65.86)">
			<stop  offset="0" style="stop-color:#3FC3A3"/>
			<stop  offset="1" style="stop-color:#FCDA0E"/>
		</linearGradient>
		<path class="st4" d="M216,29.2c-5.6-0.8-7.8-4.1-7.7-8.7c0.1-3.5,0.9-8.4-0.6-8.9c-3-1-10.2,9.3-15,20.7
			c-4.1,9.7-5.6,21.9-2.1,23.5c2.9,1.3,7.5-4.3,10.9-11.3c-5.1,0.3-7.5-2.2-8.1-7.8c-0.2-1.8,0.7-2.3,2.4-2.7
			c3.4-0.9,9.1-1.9,12.2-2.3c2.9-0.4,4.4,0.1,5.7,1.9c0.9,1.3,1.7,2.8,2.3,4c1.1,2.4,1,3.9-0.1,6.5c-3.8,9.2-8.9,16.2-14.2,19.9
			c-3.4,2.4-7.2,3.2-11,2.5c-3.5-0.6-6.6-1.9-9.4-3.8c-2.1-1.5-4.3-4.3-5.1-7.4c-3.9-14.4,6.6-42,21.5-53c3.1-2.3,6.9-2.5,9.7-2.1
			c3.8,0.5,8.3,2.4,10.8,4.9c2.4,2.4,3.1,5.1,3.2,8.7c0.1,3.7-1,10.1-2,13.2C218.8,28.8,218.1,29.5,216,29.2z"/>
		
			<linearGradient id="SVGID_6_" gradientUnits="userSpaceOnUse" x1="0" y1="32.8115" x2="264.0312" y2="32.8115" gradientTransform="matrix(1 0 0 -1 0 65.86)">
			<stop  offset="0" style="stop-color:#3FC3A3"/>
			<stop  offset="1" style="stop-color:#FCDA0E"/>
		</linearGradient>
		<path class="st5" d="M228.3,7.1c-0.4-2,0.1-2.4,1.7-2.8c6.9-2,19.7-3.5,28.9-3.8c2.1-0.1,3.4,0.9,3.9,2.8c0.7,2.1,1,3.6,1.2,5.6
			c0.1,2.2-0.5,3-2.7,3.2c-4.6,0.5-10.3,1.2-15.7,2.1c-1.5,4.1-3.3,8.8-5.1,13.7c2.5-0.4,5-0.6,7.7-0.7c2.2-0.1,3.4,0.4,4.1,2.3
			c0.7,2,1.2,3.8,1.4,5.8c0.3,2.2-0.3,2.8-2.5,3.3c-5.1,1-10.8,2.1-15.8,3.4c-1.1,3.1-2.2,6.2-3.1,9.1c4.1-0.8,7.7-1.3,12-1.6
			c2.2-0.2,3.5,0.3,4.2,2.2c0.8,2.1,1.3,3.9,1.5,5.9c0.3,2.2-0.2,2.9-2.4,3.4c-5.7,1.3-12.1,2.7-17.5,4.2c-3,0.8-4.5,0.4-6.3-1.1
			c-1.3-1.1-2.6-2.4-4-4.3c-1.1-1.5-1.8-3.7-1.2-6.5c2-8.9,7.7-26.4,12.1-39.6C229.6,11.8,228.7,8.9,228.3,7.1z"/>
	</g>
</g>
</svg>
