<?xml version="1.0" encoding="utf-8"?>
<!-- Generator: Adobe Illustrator 23.0.6, SVG Export Plug-In . SVG Version: 6.00 Build 0)  -->
<svg version="1.1" id="Layer_1" xmlns="http://www.w3.org/2000/svg" xmlns:xlink="http://www.w3.org/1999/xlink" x="0px" y="0px"
	 viewBox="0 0 603.8 362.1" style="enable-background:new 0 0 603.8 362.1;" xml:space="preserve">
<style type="text/css">
	.st0{enable-background:new    ;}
	.st1{fill-rule:evenodd;clip-rule:evenodd;fill:#041C2C;}
</style>
<g class="st0">
	<path class="st1" d="M352.2,136.5l21.1-0.2l11.4,0.1l12.4,0.1h2.1c-0.2-1-0.2-3-0.2-5.1c0-1.7,0.4-4.6,0.5-4.6
		c-6.2,0.6-26.5,2.8-40.1,2.8c-2.2,0-4.1,0-5.4-0.3l-0.3-0.3c-0.3-4.8-0.7-10.8-0.7-13.5c0-1.2-0.3-5.5-0.3-12l-0.4-13.2V78.9
		l0.2-0.3c2.9-0.2,7.6-0.2,11.1-0.1c11.1,0.2,23.9,1,30.4,1.3c0,0-0.4-2.3-0.3-4.6c0.1-2.5,0.3-4.5,0.3-4.5
		c-1.6,0.1-5.7,0.3-12.7,0.5c-7.6,0.2-10.6,0.3-12.7,0.4c-4.1,0.1-10.2,0-12.5,0c-0.7,0-3.3,0-3.6,0c-0.3-0.1-0.2-0.3-0.2-0.3
		s-0.2-5.7-0.2-11.6c0-4.3,0-7.9,0.2-10.9l0.2-18.3v-2c2.9-0.2,4.6-0.1,6.7-0.1c5,0,9.5-0.3,25.1,0.7c5.7,0.3,9.9,0.4,13.6,0.8
		c-0.1,0-0.1-3.1-0.1-4.5s0.4-3.5,0.7-4.7l-2.1,0.1c-3.1,0.2-22.5,0.1-27.1,0.1c-7.7,0-14.2-0.1-29.8-0.8h-2.1
		C338.3,27.2,339,78,339,78l-0.2,21.3l-0.4,15.1c0.1,9.2-1.3,22.8-1.4,22.8C340.9,136.8,344.8,136.6,352.2,136.5z M318.3,136.5
		c-0.2-1-0.2-3-0.2-5.1c0-1.7,0.4-4.6,0.5-4.6c-6.2,0.6-26.5,2.8-40.1,2.8c-2.2,0-4.1,0-5.4-0.3l-0.3-0.3
		c-0.3-4.8-0.7-10.8-0.7-13.5c0-1.2-0.3-5.5-0.3-12l-0.4-13.2V78.9l0.2-0.3c2.9-0.2,7.6-0.2,11.1-0.1c11.1,0.2,23.9,1,30.4,1.3
		c0,0-0.4-2.3-0.3-4.6c0.1-2.5,0.3-4.5,0.3-4.5c-1.6,0.1-5.7,0.3-12.7,0.5c-7.6,0.2-10.6,0.3-12.7,0.4c-4.1,0.1-10.2,0-12.5,0
		c-0.7,0-3.3,0-3.6,0c-0.3-0.1-0.2-0.3-0.2-0.3s-0.2-5.7-0.2-11.6c0-4.3,0-7.9,0.2-10.9l0.2-18.3v-2c2.9-0.2,4.6-0.1,6.7-0.1
		c5,0,9.5-0.3,25.1,0.7c5.7,0.3,9.9,0.4,13.6,0.8c-0.1,0-0.1-3.1-0.1-4.5s0.4-3.5,0.7-4.7l-2.1,0.1c-3.1,0.2-22.5,0.1-27.2,0.1
		c-7.7,0-14.2-0.1-29.8-0.8h-2.1C257.3,27.2,258,78,258,78l-0.2,21.3l-0.4,15.1c0.1,9.2-1.3,22.8-1.4,22.8c4-0.2,7.9-0.4,15.4-0.5
		l21.1-0.2l11.4,0.1l12.4,0.1h2V136.5z M64.5,276.4c-2.4,0.3-8.4,1-17.9,1.6c-4.1,0.2-7.6,0.5-14,0.5c-3.1,0-5.8,0.2-8.9,0.1
		c-4-0.1-7-0.3-7.1-0.6c-0.2-0.4-0.3-3-0.3-3.1c-0.8-12.1-1.1-54.8-1.1-54.8s-0.8-24.1,2-51.4c0,0-5.4,0.7-8.5,0.7
		c-2.3,0-5.8-0.2-8.5-0.6c0,0,1.7,37,1.7,59.1s-1.2,52.2-1.7,57.9c0.9,0,5.4-0.3,14.8-0.4s22.9-0.3,31.3,0c6.6,0.2,11,0.3,14.5,0.4
		c1.2,0,2.5,0.1,3.7,0.1c-0.1,0-0.2-2.7-0.2-4.5C64.3,280,64.5,276.4,64.5,276.4z M172.7,284.9c3.5,0,5.7,0.5,8.9,0.6l-9.3-19.7
		c0,0-10.1-22.4-14.4-32.2c-4.2-9.5-14.9-34-20.9-47.8c-3.9-8.9-8.6-20.9-8.6-20.9h-4.1c-0.3,0.9-23.2,52.5-28,63.3
		c-5.9,13.2-13.3,29-18.8,41.2c-3.6,7.9-7.1,16.4-7.1,16.4c2.8-0.5,3.9-0.5,6-0.5c2.3,0,3.2,0.1,6,0.8c0,0,2.8-11.5,11.1-31.9
		c2.4-5.8,5.7-13.9,6.3-15.5c0.1-0.2,0.4-0.2,0.4-0.2s15.7,0,21,0c0,0,20.3,0,22.9,0c0.2,0,0.2,0.2,0.3,0.2c0,0,2.1,4.6,7,16.3
		c3,7,5.4,13.6,5.4,13.6l6.6,16.9C167.5,285.1,169.2,284.8,172.7,284.9z M141.2,231.9c-3.2,0-32.6,0-38.3,0c-0.4,0-0.4-0.4-0.4-0.4
		s12.8-29.4,15.6-35.2c1.7-3.4,3.8-8,3.8-8c0.4-0.3,3,5.2,8.7,18.3c4.3,9.9,10.9,25.1,10.9,25.1
		C141.5,231.6,141.5,231.9,141.2,231.9z M278,168.6c1,15.3,1.6,23.9,1.7,37v15.6c-0.2,24-0.9,30.8-5.6,40
		c-6.8,13.4-18.1,18.5-34.3,18.9c-18.7,0.6-29.3-10.3-34.6-22.4c-1.6-3.7-3-13.7-2.8-28.9c0-5-0.1-13.9,0.1-24.3
		c0.3-19.3,0.7-28.1,1.4-36c-3.1,0.5-4.8,0.7-8.1,0.7c-3.8,0-5.3-0.2-8.4-0.7c0.5,7,1.7,20.9,1.7,32.7c0,4.5,0.2,9.7,0.2,15.5
		c-0.4,14.1,0.2,23.1,0.2,25c-0.1,18.3,2.9,26.3,11.7,34.4c7.8,7.3,21.6,11.6,36.7,11.6c15.9,0,28.7-4.7,37.2-14.1
		c4.3-4.5,8.1-10.1,9.9-15.8c2.6-8.2,3.6-13.5,3.6-37.4c0-6.4,0.1-12.5,0.3-17.7c0,0,0.5-29.2,1.2-34.2c-2.1,0.7-4.1,0.7-6.1,0.7
		C282.3,169.3,278,168.7,278,168.6z M151,30.1c6.6-0.5,8.9-1,18.6-1.5l18.6-0.4l0.2,0.2c0.3,4.7,0.7,18.9,0.7,18.9l0.3,23.5v23.8
		c0,22.7-0.8,32.9-1.7,42.2c0,0,4.2-0.6,7.9-0.6c3.8,0,8.8,0.5,8.8,0.6c-1.2-9.6-1.2-30.3-1.5-42.5s0.2-23.7,0.2-23.7l0.4-23.1
		l0.8-19.4l0.2-0.1l16.2,0.4c7.7,0.2,12.4,0.6,20.1,1.5c0,0-0.8-3.1-0.7-5.1s0.2-3.4,0.4-4.4c0,0-27,0.7-41.3,0.7H194
		c0,0-41.4-0.4-42.9-0.7c0.5,2.8,0.6,2.2,0.5,4.5C151.6,27.8,151.1,30.1,151,30.1z M255.8,7.1h61.1V0h-61.1L255.8,7.1L255.8,7.1z
		 M458.8,278.1c-2.2,0-4.1,0-5.4-0.3l-0.3-0.3c-0.3-4.8-0.7-10.7-0.7-13.5c0-1.2-0.3-5.5-0.3-12l-0.4-13.2v-11.4l0.2-0.3
		c2.9-0.2,7.6-0.2,11.1-0.1c11.1,0.2,23.9,1,30.4,1.3c0,0-0.4-2.3-0.3-4.6c0.1-2.5,0.3-4.5,0.3-4.5c-1.6,0.1-5.7,0.3-12.7,0.5
		c-7.6,0.2-10.6,0.3-12.7,0.4c-4.1,0.1-10.2,0-12.5,0c-0.7,0-3.3,0-3.6,0c-0.3-0.1-0.2-0.3-0.2-0.3s-0.2-5.7-0.2-11.6
		c0-4.3,0-7.9,0.2-10.9l0.2-18.3v-2c2.9-0.2,4.6-0.1,6.7-0.1c5,0,9.5-0.3,25.1,0.7c5.7,0.3,9.9,0.4,13.6,0.8c-0.1,0-0.1-3.1-0.1-4.5
		s0.4-3.5,0.7-4.7l-2.1,0.1c-3.1,0.2-22.5,0.1-27.1,0.1c-7.7,0-14.2-0.1-29.8-0.8h-2.1c0.9,7.1,1.6,57.9,1.6,57.9l-0.2,21.2
		l-0.4,15.1c0.1,9.2-1.3,22.8-1.4,22.8c4-0.2,7.9-0.4,15.4-0.5l21.1-0.2l11.4,0.1l12.4,0.1h2.1c-0.2-1-0.2-3-0.2-5.1
		c0-1.7,0.5-4.6,0.5-4.6C492.7,275.9,472.4,278.1,458.8,278.1z M594,286.2c4.4,0,9.8,0,9.8,0c-3.5-3.5-4.5-5.8-10-12.6l-12.9-16
		L570,243.9c0,0-12.4-15.6-12.5-15.8c-0.2-0.3-0.1-0.5-0.1-0.5c23.2-4.4,37.1-16.8,37.1-32.1c0-13.8-8.1-27.2-36-26.7
		c-1.4,0-6.2,0-14.5,0.4c-4.8,0.2-10,0.5-13.4,0.5c-4.7,0-8.2,0-12.4-0.6c0,0,0.6,11.4,0.9,17.6c0.7,14.9,0.7,21.9,0.7,35.3
		c0,20.5-0.1,32.6-0.7,45.9l-0.9,17.5c2.8-0.5,4.9-0.5,7.7-0.5c2.4,0,4.6,0.1,9.2,0.7l-0.2-1.6l-0.8-17.4l-0.6-16.8
		c-0.1-5.4-0.2-17.7,0-20.8h6.9c0.8-0.1,18.9,22.3,24.1,29.1c0,0,20.8,28.4,20.9,28.4C587.6,286.3,590.3,286.2,594,286.2z
		 M533.5,222.6V221c0,0-0.1-42.6,0-44c0,0-0.1-0.2,0.2-0.3c2-1,10.2-1.9,17.2-1.9c19.7,0.1,26.9,9.4,27.6,21.6
		c0.6,9.7-5.4,17.6-12,21.5c-5.8,3.5-10.7,5.1-23.8,5.1C539.4,223.1,535.6,223.1,533.5,222.6z M319,285l13.4,0.1
		c2.2,0,4.5,0.1,9.8,0.2c30.2,0.5,42.9-3,55.1-13.2c13.7-11.6,23.1-28.5,23.1-49.1c0-17.5-6.2-31-17.3-41.3
		c-10.9-10.2-20.7-12.7-43.7-12.7h-3.3l-10.9,0.2l-13.6,0.6c-3.8,0.2-6.7,0.2-8.8,0.2c-4.5,0-7.9-0.1-13.2-0.8
		c0,0,0.6,13.1,1.1,18.9c0.8,9.8,0.8,27.8,0.8,34.1c0,10.5-0.3,23.7-0.3,29.7c0,5.8-0.7,31.1-1.5,33.6
		C309.6,285.9,313.5,285.2,319,285z M324.7,226.9v-17.1c0-12.6,0.6-29.3,0.7-32.8l1.5-0.4c7.7-1.1,18.7-2.2,26.6-2
		c18.7,0.6,23.8,1.8,33.1,8.5c12.3,8.9,16.2,24.9,16.6,42c0.4,17-4.5,31-14.1,40.4c-8.6,8.5-14.5,10.8-24.8,12.7
		c-4,0.7-11.4,0.9-18.8,1c-2.1,0-14.6,0.3-19.8-0.9c-0.7-5.4-0.8-9.8-1.1-18.2l-0.2-15.9L324.7,226.9z M15.5,136.5l21.1-0.2
		l11.4,0.1l12.4,0.1h2.1c-0.2-1-0.2-3-0.2-5.1c0-1.7,0.4-4.6,0.5-4.6c-6.2,0.6-26.5,2.8-40.1,2.8c-2.2,0-4.1,0-5.4-0.3L17,129
		c-0.3-4.8-0.7-10.8-0.7-13.5c0-1.2-0.3-5.5-0.3-12l-0.4-13.2V78.9l0.2-0.3c2.9-0.2,7.6-0.2,11.1-0.1c11.1,0.2,23.9,1,30.4,1.3
		c0,0-0.4-2.3-0.3-4.6c0.1-2.5,0.3-4.5,0.3-4.5c-1.6,0.1-5.7,0.3-12.7,0.5C37,71.3,34,71.5,31.9,71.5c-4.1,0.1-10.2,0-12.5,0
		c-0.7,0-3.3,0-3.6,0c-0.3-0.1-0.2-0.3-0.2-0.3s-0.2-5.7-0.2-11.6c0-4.3,0-7.9,0.2-10.9l0.2-18.3v-2c2.9-0.2,4.6-0.1,6.7-0.1
		c5,0,9.5-0.3,25.1,0.7c5.7,0.3,9.9,0.4,13.6,0.8c-0.1,0-0.1-3.1-0.1-4.5s0.4-3.5,0.7-4.7l-2.1,0.1c-3.1,0.2-22.5,0.1-27.1,0.1
		c-7.7,0-14.2-0.1-29.8-0.8H0.6c0.9,7.1,1.6,57.9,1.6,57.9L2,99.1l-0.4,15.1c0.1,9.2-1.3,22.8-1.4,22.8
		C4.2,136.8,8,136.6,15.5,136.5z M107.4,132.9c-17.2,0.2-28.9-18-28.9-18c-0.9,4.1-3,13.2-3,13.2c7.8,6.2,18.2,9.9,29.1,9.9
		c23.5,0,41.8-16.1,41.8-37.6c0-14.4-7.9-23.6-27.1-29.9c-5.7-1.9-12-4.7-15.6-6.3c-9.5-4.5-13.1-11.2-13.3-20
		c-0.3-12.7,8.5-20.8,23-20.9c16.5-0.2,23.2,15.4,23.2,15.4c1.6-5.8,2.9-8.4,4.7-12.8c0,0-8.7-8.6-26.5-8.7
		c-21.9-0.2-37.1,13.4-37.1,32c0,5.2,1.3,9.9,3.8,14.1c3.3,5.8,11.1,12.5,28.1,18.4c17.4,6,24.3,13,24.3,24.8
		C133.9,120.4,123.9,132.7,107.4,132.9z M25.7,315.4c5.3,0,10,2,13.5,5.8l0.5-0.2c0.3-2,0.7-3.5,1.4-5.3c-3.8-1.8-9.1-2.9-14.4-2.9
		c-8.3,0-14.4,2-19.1,6.3c-5,4.4-7.6,11-7.6,18.6C0,352.5,9.6,362,24.5,362c6.2,0,11.6-1.4,15.6-4.2l1-4.2l-0.3-0.2
		c-4.7,4.1-9.5,6-15.1,6c-5.5,0-10.3-2.1-13.7-6c-3.3-3.9-5-9.1-5-15.7c0-6.7,1.5-11.7,4.7-15.6C15.1,317.8,20,315.4,25.7,315.4z
		 M99.3,312.8c-16.1,0-26,9.4-26,24.6s9.9,24.7,26,24.7s25.9-9.4,25.9-24.7C125.2,322.2,115.3,312.8,99.3,312.8z M114.4,352.3
		c-3.2,4.8-8.8,7.5-15.1,7.5c-6.5,0-12-2.7-15.2-7.5c-2.6-3.7-3.9-8.6-3.9-14.9c0-6.2,1.3-11.2,3.9-14.8c3.4-4.8,8.8-7.5,15.2-7.5
		c6.3,0,11.9,2.7,15.1,7.5c2.6,3.7,3.9,8.6,3.9,14.8C118.3,343.6,117,348.5,114.4,352.3z M214.1,350.4l-0.4-2.7l-0.3-2.7
		c-0.4-3.2-0.7-5.8-0.9-7.6l-0.3-2.5l-0.2-2.5l-0.3-2.5l-0.4-3c-0.8-7.6-0.5-4.4-1-10.3c-0.3-2.9-0.2-2.2-0.4-3.5H209l-0.6,1.1
		c-0.7,1.2-2.5,4.4-4.9,8.9l-1.7,3l-1.8,3.1l-1.7,3.1c-1.1,2-2.7,4.9-4.9,9c-2.3,4.3-3.6,6.5-4.8,8.7l-0.2,0.4
		c-1.7-2.8-2.7-4.6-6.7-12c-2.9-5.6-2-3.7-6.4-12.2l-1.6-3c-1.1-2-2-3.9-3.1-6c-1.5-2.9-1.3-2.5-2-3.9h-1.1
		c-0.4,3.6-0.5,3.9-1.3,10.3c-1.1,8.2-0.6,4.4-1.6,11.9l-0.4,2.9c-0.2,1.6-0.4,3.4-0.6,4.8c-0.3,1.6,0.3-1.8-1.6,10.5
		c-0.6,3.7-0.8,5.2-1.3,7.7c1.3-0.2,1.8-0.3,2.3-0.3c0.6,0,1.1,0.1,2.6,0.3c0.1-4.2,0.3-7.1,1.3-16.6c1.1-10.5,1.4-12.7,2.2-18.3
		l0.2,0.4l0.2,0.4l0.2,0.3l1.5,2.7l1.5,2.7l1.5,2.7c0.8,1.5,2.3,4.3,4.2,8.1c6.5,12.9,4.8,9.3,5.6,11c2,4.1,2.2,4.3,2.9,6h0.6
		c1.3-3.4,2.5-5.6,7.1-14.7c1.1-2-0.3,0.6,4.6-8.5c2.9-5.3,2-3.7,2.9-5.3c1.9-3.5,2.2-4.1,3.6-6.3c1.8,15.2,1.8,15.3,2.7,26.2
		c0.4,4.5,0.6,6.7,0.6,9.3c1.8-0.2,2.5-0.3,3.4-0.3c0.7,0,1.4,0.1,3.3,0.3c-0.4-2.5-0.7-4.4-1.1-8L214.1,350.4z M269.7,313.7
		c-0.8,0-2.6,0.1-4.6,0.1c-2.2,0.1-3.9,0.1-5.3,0.1c-2.1,0-3.2-0.1-5.4-0.3c0.3,2.7,0.4,4.3,0.5,7.2c0.1,4.4,0.2,9.3,0.2,15.9
		c0,3.5-0.1,11.4-0.3,15.9c-0.1,3.5-0.2,5.5-0.4,8.4c2.5-0.3,2.9-0.3,3.4-0.3c0.7,0,1,0,3.4,0.3c-0.1-1.7-0.2-2.3-0.3-3.4
		c-0.1-1.9-0.1-4.8-0.3-8.6c0-2,0,0.8-0.1-8.6v-1.2c2.9,0.1,3.4,0.1,4.8,0.1c6.2,0,10.2-0.8,13.6-2.9c3.9-2.3,6.1-6.5,6.1-11.2
		C285.2,317.7,279.9,313.7,269.7,313.7z M264.4,337.1c-1.1,0-2.2-0.1-3.7-0.3v-5.3c0,0,0-1.3,0.1-3.2v-1.6c0.1-2.5,0.1-4.2,0.1-4.9
		c0-1.1,0.1-2.1,0.3-5.1c2.1-0.4,3.7-0.5,5.8-0.5c8,0,11.8,3.1,11.8,9.6C278.9,333.2,273.9,337.1,264.4,337.1z M346.7,345.2l-1.7-4
		c-2.2-5.3-0.1-0.4-6.7-15.6c0,0-1-2.3-3.2-7.5c-2.1-4.9-1.4-3.3-2.1-5h-1.4l-0.2,0.5l-0.3,0.5l-0.2,0.5c-0.1,0.4-0.7,1.6-1.7,3.7
		c-0.9,2-2.5,5.6-3.3,7.4s-2.7,6-5.3,11.7c-2,4.4-3.8,8.4-5.4,12.1c-2.6,5.8-3.9,8.5-5.5,11.6c1.4-0.2,1.9-0.3,2.6-0.3
		c0.6,0,1.2,0.1,2.4,0.3c3.7-10.9,3.6-10.6,6.9-18.5h1.3c2.4-0.1,6.2-0.1,7.4-0.1h9c1.3,3,2.1,5,3.8,9.3c1.7,4.3,2.4,6.3,3.5,9.3
		c1.3-0.2,2-0.3,3.4-0.3s2.2,0.1,3.6,0.3c-1.6-3.4-1.8-3.9-3.8-8.4C349,350.7,350,353,346.7,345.2z M330.4,339.8
		c-2.5,0-4.6,0-6.9-0.1H323l7.7-17.6c1.3,2.8,1.8,4.1,2.7,6.1c0.8,2-0.2-0.6,3.3,7.9c1.5,3.4,1,2.3,1.5,3.6
		C335.2,339.8,334.5,339.8,330.4,339.8z M422,313.7c0.1,1.9,0.2,2.6,0.3,3.9c0.1,3.6,0.2,10.9,0.2,16.8c0,3.6,0,4.5-0.1,8.6
		c-0.1,6.2-0.1,4.5-0.1,6v0.6c-2.2-2.2-4.1-4.1-7.5-7.7c-3.6-3.9-6.3-6.8-7.1-7.7l-2.2-2.4l-2.3-2.5l-2.3-2.4
		c-2.2-2.3-4.4-4.7-6.7-7.2c-2.8-3.1-4.8-5.4-5.7-6.2l-0.7-0.7h-1.1c0.1,1.9,0.1,2.6,0.1,6.1v9.5c0,0-0.1,0.9-0.1,2.7l-0.1,2.8
		l-0.1,2.7c-0.2,10.1-0.1,7.9-0.5,16c-0.2,4.2-0.4,6-0.6,8.4c1-0.2,1.5-0.3,2.5-0.3c0.8,0,1.4,0.1,2.5,0.3c-0.1-2-0.2-2.7-0.3-4.2
		c-0.2-3.9-0.3-11-0.3-14.5V337c0.1-2,0,0.6,0.1-8.6v-3.9l0.1-0.4l0.6,0.6c0.4,0.4-1-1.1,4.1,4.3c2.6,2.7,1.2,1.3,4.2,4.5
		c7.6,8,5.5,5.7,7.1,7.4c2.7,3,6.5,7,9.8,10.7c4.9,5.5,6.9,7.7,9.1,10.5h1c-0.1-3.5-0.1-2.3-0.1-3.9c-0.1-2.5-0.1-5.5-0.1-8.4V348
		c0-4,0.1-10.9,0.2-15.5c0.1-3.9,0.4-9.4,0.6-13.1c0.2-2.6,0.3-3.4,0.5-5.6c-1.1,0.2-1.6,0.3-2.5,0.3
		C423.8,314,423.2,313.9,422,313.7z M473.7,313.7c-1.4,0.2-2.2,0.3-3.4,0.3c-1.2,0-2-0.1-3.4-0.3c0.2,2.5,0.4,4.2,0.5,7.6
		c0.1,4.7,0.2,8.4,0.2,12.7c0,1.5,0,5.6-0.1,10.6c-0.1,3.9-0.1,6.8-0.1,8.4c-0.1,2.9-0.2,5-0.5,8.1c1.5-0.2,2.3-0.3,3.3-0.3
		c1.1,0,1.9,0.1,3.6,0.3c-0.2-2.8-0.3-4.8-0.4-8.1c-0.2-4.6-0.3-11.9-0.3-17.9c0-4.8,0.1-7.6,0.3-13.4
		C473.4,317.9,473.5,316.3,473.7,313.7z M528.1,357.7c-3.8,0.1-4.7,0.1-6,0.1c-0.4,0-1.5,0-2.7-0.1v-1.1l-0.1-1.3V354l-0.1-1.3V351
		c-0.1-5.9-0.1-5.4-0.1-7l0.1-5.1c0-0.1,0-0.6-0.1-1.2c1.8-0.1,2.9-0.1,4.7-0.1c4.5,0,9,0.2,12.2,0.6c-0.2-0.8-0.3-1.2-0.3-1.9
		c0-0.6,0.1-1.2,0.3-2.2c-2.6,0.4-3.3,0.4-7.4,0.5l-2,0.1c-3.6,0.1-3.9,0.1-4.8,0.1c-0.6,0-1.5,0-2.7-0.1c-0.1-0.6-0.1-1.3-0.1-1.4
		c0-0.8,0-1.1,0.1-2.3c-0.1,0.3-0.1,1.1,0.1-2.5V327c0.1-2,0.1-1,0.1-2.9v-1.5c0.1-1.9,0.1-1.1,0.1-2.5c0.1-2.6,0.1-2,0.1-2.9
		c1.1-0.1,2-0.1,2.3-0.1c1.5,0,2.3,0,4,0.1c2.5,0.1,4.5,0.1,6.2,0.2c2.2,0.1,3.5,0.2,5.5,0.4c-0.1-1.1-0.2-1.6-0.2-2
		c0-0.6,0.1-1,0.2-2c-1.5,0.1-1.8,0.2-4.6,0.2c-0.6,0,1,0-5.5,0.1h-5.8c-3.8-0.1-2.6-0.1-3.8-0.1c-2.7,0-3.1-0.1-4.8-0.2
		c0.1,2.2,0.3,3.9,0.4,8c0.1,4.3,0.2,7.8,0.2,8.8c0,1.2,0,2.1-0.1,4.5c0,1.5,0.1-0.9-0.1,7.7c-0.1,5.3-0.1,3.5-0.1,5.3
		c-0.1,6.7-0.3,10-0.6,13.2c1.5-0.1,2-0.1,4.6-0.1c1.1-0.1-1.3,0,7.4-0.1h2.8c0.6,0,1.3,0,3.2,0.1c1,0-0.6,0,4.6,0.1h1.8l0.3,0.1
		h0.4c-0.1-0.8-0.2-1.3-0.2-2c0-0.9,0.1-1.3,0.2-2.3C535.2,357.3,534.2,357.4,528.1,357.7z M584.6,334.3c-4.2-1.8-6.2-2.7-7.9-4
		c-2-1.6-3.1-3.8-3.1-6.5c0-4.7,3.8-8.3,8.7-8.3c3.9,0,7.4,2.5,8.7,6.3h0.7c0.4-2,1-3.7,1.9-5.8c-3.3-2.3-6.4-3.3-10.4-3.3
		c-4.3,0-7.8,1.1-10.4,3.2c-2.7,2.3-4.5,6-4.5,9.7c0,6.2,3.1,9.7,11.6,13.2c4.9,2,6,2.6,7.6,4.2c1.7,1.5,2.5,3.4,2.5,6.2
		c0,5.5-4.3,9.7-9.9,9.7c-4.6,0-9-2.9-10.9-7.1h-0.7c-0.2,2.2-0.4,3-1.4,6.3c3.2,2.5,7.3,3.9,11.7,3.9c9.5,0,16.7-6.7,16.7-15.6
		c0-3-1.1-5.8-3.2-7.7C590.6,337.1,589.2,336.3,584.6,334.3z"/>
</g>
</svg>
