<?xml version="1.0" encoding="utf-8"?>
<!-- Generator: Adobe Illustrator 24.3.0, SVG Export Plug-In . SVG Version: 6.00 Build 0)  -->
<svg version="1.1" id="Layer_1" xmlns="http://www.w3.org/2000/svg" xmlns:xlink="http://www.w3.org/1999/xlink" x="0px" y="0px"
	 viewBox="0 0 324.1 52.8" style="enable-background:new 0 0 324.1 52.8;" xml:space="preserve">
<style type="text/css">
	.st0{fill:#00563F;}
</style>
<path class="st0" d="M252.1,14.5c-0.2,0-0.2,0.1-1.8,0.1c-1.6,0.1-4.7,0.1-10.8,0.1h-2.9h-1.7H232c-6.2,0-9.2-0.1-10.8-0.1
	c-1.6-0.1-1.6-0.1-1.8-0.1c-0.7,0-0.7,0.5-0.7,1.9v5.5c0,0.3,0,1,0.6,1c0.7,0,0.8-0.2,1.9-2.5c0.7-1.5,2.1-3.7,10.2-3.8
	c0.8,0,1.2,0.2,1.2,1.5V46c0,2.3,0,3.9-3,4.1c-1.3,0.1-2.1,0.2-2.1,1c0,0.9,0.8,0.9,1.3,0.9c1.1,0,6-0.2,7-0.2c2,0,5.1,0.2,7.1,0.2
	c0.5,0,1.3,0,1.3-0.9c0-0.9-0.8-1-2.1-1c-3-0.2-3-1.8-3-4.2V18.6c0-1.6,0.2-1.9,1.9-2c7.4,0.2,8.8,2.3,9.5,3.8
	c1.1,2.2,1.2,2.5,1.9,2.5c0.6,0,0.6-0.7,0.6-1v-5.5C252.8,15,252.8,14.5,252.1,14.5"/>
<path class="st0" d="M187.4,42.5c-0.5,0-0.7,0.2-1.7,2.3c-2.6,5.1-6.3,5.1-9,5.1c-5,0-6.3-0.7-6.3-4.9V34.7c0-1.8,0.5-1.8,3.3-1.8
	c4.9,0,6.6,0.1,7.8,4.7c0.3,1.1,0.7,1.4,1.1,1.4c0.7,0,0.7-0.8,0.7-1.2c0-0.5-0.2-2.6-0.2-3c0-1.3,0.4-7.5,0.4-8.3
	c0-0.7-0.3-0.8-0.7-0.8c-0.3,0-0.6,0.1-0.9,0.9c-1.1,3.2-1.6,4.5-8.2,4.5c-3.5,0-3.5-0.5-3.5-2.4V20c0-3,0.2-3.4,3.2-3.4
	c8.5,0,9.9,2.3,10.6,3.8c1.1,2.2,1.2,2.5,1.8,2.5c0.6,0,0.6-0.7,0.6-1v-5.5c0-1.4,0-1.9-0.7-1.9c-0.2,0-0.2,0.1-1.8,0.1
	c-1.6,0.1-4.7,0.1-10.8,0.1h-2.9c-5.1,0-7.7-0.1-9-0.1c-1.3-0.1-1.4-0.1-1.5-0.1c-0.4,0-1.2,0-1.2,0.8c0,0.9,0.8,1,2.2,1
	c3,0.2,3,1.8,3,4.2v25.2c0,2.5,0,4.1-3,4.2c-1.3,0.1-2.2,0.2-2.2,1c0,0.9,0.8,0.9,1.3,0.9c0.4,0,0.9-0.1,1.9-0.1
	c1-0.1,2.5-0.1,4.9-0.1h0.7c0.4,0,3.2,0.1,6.6,0.1c3.5,0.1,7.6,0.1,10.7,0.1c1.7,0,2.3-0.7,2.4-1.8c0.2-2.2,0.8-6,0.8-6.8
	C188.2,43,188,42.5,187.4,42.5"/>
<path class="st0" d="M285,42.5c-0.5,0-0.7,0.2-1.7,2.3c-2.6,5.1-6.3,5.1-9,5.1c-5,0-6.3-0.7-6.3-4.9V34.7c0-1.8,0.5-1.8,3.3-1.8
	c4.9,0,6.6,0.1,7.8,4.7c0.3,1.1,0.7,1.4,1.1,1.4c0.7,0,0.7-0.8,0.7-1.2c0-0.5-0.2-2.6-0.2-3c0-1.3,0.4-7.5,0.4-8.3
	c0-0.7-0.3-0.8-0.7-0.8c-0.3,0-0.6,0.1-0.9,0.9c-1.1,3.2-1.6,4.5-8.2,4.5c-3.5,0-3.5-0.5-3.5-2.4V20c0-3,0.2-3.4,3.2-3.4
	c8.5,0,9.9,2.3,10.6,3.8c1.1,2.2,1.2,2.5,1.8,2.5c0.6,0,0.6-0.7,0.6-1v-5.5c0-1.4,0-1.9-0.7-1.9c-0.2,0-0.2,0.1-1.8,0.1
	c-1.6,0.1-4.7,0.1-10.8,0.1h-2.9c-5.1,0-7.7-0.1-9-0.1c-1.3-0.1-1.4-0.1-1.5-0.1c-0.4,0-1.2,0-1.2,0.8c0,0.9,0.8,1,2.2,1
	c3,0.2,3,1.8,3,4.2v25.2c0,2.5,0,4.1-3,4.2c-1.3,0.1-2.2,0.2-2.2,1c0,0.9,0.8,0.9,1.3,0.9c0.4,0,0.9-0.1,1.9-0.1
	c1-0.1,2.5-0.1,4.9-0.1h0.7c0.4,0,3.2,0.1,6.6,0.1c3.5,0.1,7.6,0.1,10.7,0.1c1.7,0,2.3-0.7,2.4-1.8c0.2-2.2,0.8-6,0.8-6.8
	C285.7,43,285.5,42.5,285,42.5"/>
<path class="st0" d="M206.3,29c-4.9-2-8.4-3.5-8.4-7.9c0-2.4,1.9-5.8,6.6-5.8c5.1,0,6.2,3.4,6.9,5.8c0.6,1.9,0.9,2.3,1.5,2.3
	c0.9,0,0.9-0.5,0.9-1.8c0-5.4,0-5.9-0.7-6.3c-0.9-0.4-4.4-1.4-8-1.4c-7.7,0-12,4.9-12,10.5c0,6.5,4.8,8.8,9.8,11
	c4.4,2,8.5,4.3,8.5,9.1c0,4.9-4.8,6.6-7.4,6.6c-4.3,0-8.5-3.7-9.7-9c-0.1-0.5-0.2-1.2-0.7-1.2c-0.7,0-0.8,0.9-0.8,1.1
	c0,2.2,0.2,4.8,0.3,5.6c0.2,1.5,0.4,2.7,1.1,3.2c1.1,0.8,4.1,2,8.9,2c8.1,0,13.1-5.7,13.1-12.4C216.1,33.4,209.7,30.4,206.3,29"/>
<path class="st0" d="M62.6,13.8C50.9,13.8,42,22.2,42,33.2c0,11.6,9.8,19.6,20.4,19.6c10.3,0,20.3-8.3,20.3-20.1
	C82.7,22.1,73.9,13.8,62.6,13.8 M62.9,51.1c-8,0-13.8-9.3-13.8-19.2c0-8.6,5.4-16.4,12.8-16.4c9.5,0,13.7,10.2,13.7,17.4
	C75.6,41.7,71.2,51.1,62.9,51.1"/>
<path class="st0" d="M38.2,0c-0.1,0-0.2,0.1-2.5,0.2C33.5,0.3,28.9,0.3,20,0.3h-1.9C9.5,0.3,6.4,0.3,4.1,0.2C2,0.1,1.9,0,1.7,0
	C1.1,0,0,0,0,1.2c0,1.2,1.3,1.3,3.1,1.5c4.3,0.3,4.3,2.6,4.3,6.1v23.3v12.5c0,2.9,0,4.9-3.7,5.1c-1.5,0.1-2.6,0.2-2.6,1.3
	c0,1.1,1,1.1,1.5,1.1c1.4,0,7.5-0.3,8.7-0.3c2.4,0,6.4,0.3,8.8,0.3c0.6,0,1.5,0,1.5-1.1c0-1.1-1-1.2-2.6-1.3
	c-3.7-0.2-3.7-2.2-3.7-5.2V32.1v-0.9c0-2.5,0-3.4,1.4-3.8c0.9-0.3,4.9-0.3,7.4-0.3c2.2,0,7.7,0,8.9,4.7c0.2,0.4,0.7,2.7,1,3.3
	c0.1,0.4,0.5,1.4,1.4,1.4c1,0,1-1,1-1.6l-0.3-4.1c-0.2-2-0.2-3.5-0.2-4.2c0-1.3,0.3-7.2,0.3-8.4c0-0.9-0.3-1.4-1-1.5
	c-0.8,0-1.2,0.7-1.4,1.4c-1.1,4.5-2.3,6.4-9.3,6.4c-1.3,0-6.4,0-7.7-0.2c-1.1-0.2-1.4-0.3-1.4-4.9V7.3C15.6,3.2,17,3,20,3
	c13.4,0,14.6,1.8,17.1,7.6c0.3,0.7,0.7,1.7,1.6,1.7c1,0,1-1.4,1-1.6V1.6C39.7,0.4,39.6,0,38.2,0"/>
<path class="st0" d="M117.6,50.2c-1.7-0.2-2.5-1.7-3.7-3.8l-5.8-10.3c-1.4-2.5-2.1-2.9-2.9-3.3c2-0.4,8.2-1.9,8.2-8.8
	c0-2.1-0.9-9.4-11.5-9.4c-1.8,0-9.7,0.2-11.4,0.2c-0.7,0-3.6-0.2-4.2-0.2c-2,0-2.2,0-2.2,0.8c0,0.8,0.8,0.9,2.2,1
	c2.9,0.2,2.9,1.8,2.9,4.2v25.3c0,2.5,0,4.1-2.9,4.3c-1.3,0.1-2.2,0.1-2.2,1c0,0.9,0.8,0.8,1.3,0.8c1.1,0,5.9-0.2,6.9-0.2
	c0.2,0,6,0.2,7.2,0.2c0.5,0,1.3,0.1,1.3-0.8c0-0.9-0.8-1-2.2-1c-3-0.2-3-1.8-3-4.3V35.2c0-1,0.1-1.4,1.1-1.4c2.7,0,3,0.2,4.3,2.8
	l7.2,13.6c0.7,1.3,0.9,1.8,2,1.8h7.9c0.4,0,1-0.1,1-0.7C119.1,50.6,118.8,50.4,117.6,50.2 M98.6,32.2c-3,0-3-0.1-3-2.2V20
	c0-2.3,0.1-3.8,2.8-3.8c7.4,0,8.2,6.4,8.2,8.5C106.7,32.2,100.7,32.2,98.6,32.2"/>
<path class="st0" d="M155.1,50.2c-1.7-0.2-2.5-1.7-3.7-3.8l-5.8-10.3c-1.4-2.5-2.1-2.9-2.9-3.3c2-0.4,8.2-1.9,8.2-8.8
	c0-2.1-0.9-9.4-11.5-9.4c-1.8,0-9.7,0.2-11.4,0.2c-0.7,0-3.6-0.2-4.2-0.2c-2,0-2.2,0-2.2,0.8c0,0.8,0.8,0.9,2.2,1
	c2.9,0.2,2.9,1.8,2.9,4.2v25.3c0,2.5,0,4.1-2.9,4.3c-1.3,0.1-2.2,0.1-2.2,1c0,0.9,0.8,0.8,1.3,0.8c1.1,0,5.9-0.2,6.9-0.2
	c0.2,0,6,0.2,7.2,0.2c0.5,0,1.3,0.1,1.3-0.8c0-0.9-0.8-1-2.2-1c-3-0.2-3-1.8-3-4.3V35.2c0-1,0.1-1.4,1.1-1.4c2.7,0,3,0.2,4.3,2.8
	l7.2,13.6c0.7,1.3,0.9,1.8,2,1.8h7.9c0.4,0,1-0.1,1-0.7C156.6,50.6,156.3,50.4,155.1,50.2 M136.1,32.2c-3,0-3-0.1-3-2.2V20
	c0-2.3,0.1-3.8,2.8-3.8c7.4,0,8.2,6.4,8.2,8.5C144.2,32.2,138.2,32.2,136.1,32.2"/>
<path class="st0" d="M322.5,50.2c-1.7-0.2-2.5-1.7-3.7-3.8l-5.8-10.3c-1.4-2.5-2.1-2.9-2.9-3.3c2-0.4,8.2-1.9,8.2-8.8
	c0-2.1-0.9-9.4-11.5-9.4c-1.8,0-9.7,0.2-11.4,0.2c-0.7,0-3.6-0.2-4.2-0.2c-2,0-2.2,0-2.2,0.8c0,0.8,0.8,0.9,2.2,1
	c2.9,0.2,2.9,1.8,2.9,4.2v25.3c0,2.5,0,4.1-2.9,4.3c-1.3,0.1-2.2,0.1-2.2,1c0,0.9,0.8,0.8,1.3,0.8c1.1,0,5.9-0.2,6.9-0.2
	c0.2,0,6,0.2,7.2,0.2c0.5,0,1.3,0.1,1.3-0.8c0-0.9-0.8-1-2.2-1c-3-0.2-3-1.8-3-4.3V35.2c0-1,0.1-1.4,1.1-1.4c2.7,0,3,0.2,4.3,2.8
	l7.2,13.6c0.7,1.3,0.9,1.8,2,1.8h7.9c0.4,0,1-0.1,1-0.7C324.1,50.6,323.8,50.4,322.5,50.2 M303.5,32.2c-3,0-3-0.1-3-2.2V20
	c0-2.3,0.1-3.8,2.8-3.8c7.4,0,8.2,6.4,8.2,8.5C311.6,32.2,305.7,32.2,303.5,32.2"/>
</svg>
