<?xml version="1.0" encoding="utf-8"?>
<!-- Generator: Adobe Illustrator 24.2.3, SVG Export Plug-In . SVG Version: 6.00 Build 0)  -->
<svg version="1.1" id="Layer_1" xmlns="http://www.w3.org/2000/svg" xmlns:xlink="http://www.w3.org/1999/xlink" x="0px" y="0px"
	 viewBox="0 0 147.2 33.7" style="enable-background:new 0 0 147.2 33.7;" xml:space="preserve">
<style type="text/css">
	.st0{fill:#002856;}
</style>
<g>
	<path class="st0" d="M147.2,10.9l-0.4,5.1h-2.1c-3.3,0-5.1,2.7-5.1,5.2v11.6h-5.9V10.9h5.6l0.1,2.7c1.2-1.9,3.2-2.7,5.8-2.7H147.2z
		"/>
	<path class="st0" d="M106.2,32.8h-5.9V21.3c0-2.4-0.2-5.5-3.6-5.5c-3.3,0-4.6,2.4-4.6,5.1v11.9h-5.9V10.9h5.5l0.1,2.8
		c1.2-1.9,3.4-3.3,6.6-3.3c6,0,7.8,4.3,7.8,8.7V32.8z"/>
	<path class="st0" d="M83.6,27.7l-0.4,5c-1.4,0.4-2.7,0.5-4.2,0.5c-5.6,0-7.2-2.6-7.2-7.7V4.8h5.9V11h5.9l-0.4,5h-5.5v9
		c0,2.1,0.6,3.2,2.7,3.2C81.3,28.3,82.3,28.1,83.6,27.7"/>
	<path class="st0" d="M69.9,10.9L69.4,16h-1.6c-3.3,0-5,2.7-5,5.2v11.6h-5.9V10.9h5.6l0.1,2.7c1.2-1.9,3.2-2.7,5.8-2.7H69.9z"/>
	<path class="st0" d="M30.2,30.4c-4,2.1-8,3.4-13.3,3.2C7.1,33.3,0,27.2,0,17C0,6.7,7.1,0.2,16.9,0c4.9-0.1,9.4,1.2,12.8,4.2
		l-4.2,4.2c-2.1-1.8-5.3-2.9-9-2.7C10.4,6,6.7,10.5,6.6,16.6C6.5,23.2,10.6,27.8,17,28c3,0.1,5.1-0.3,7-1.2V20h-6.6l0.4-5.6h12.4
		C30.2,14.4,30.2,30.4,30.2,30.4z"/>
	<path class="st0" d="M131.1,24h-16.2c0.5,2.8,2.7,4.5,5.4,4.6c2.7,0.1,4.2-0.7,6.1-2.7l3.9,2.9c-2.7,3.4-6,4.6-9.8,4.6
		c-6.6,0-11.5-4.6-11.5-11.5s4.9-11.5,11.3-11.5c7,0,10.9,4.3,10.9,11.8L131.1,24L131.1,24z M125.1,19.4c-0.2-2.8-2.2-4.5-5.1-4.4
		s-4.8,2-5.2,4.4H125.1z"/>
	<path class="st0" d="M53.2,18.5v14.3H48l-0.1-2.2c-1.6,2-4.2,2.7-6.9,2.7c-4,0-7.8-2-7.9-6.6c-0.1-7.3,8.2-7.8,13.4-7.8h1v-0.3
		c0-2.4-1.6-3.7-4.6-3.7c-2.2,0-4.3,0.9-5.8,2.3l-3.4-3.5c3.1-2.5,6.3-3.5,9.8-3.5C50.2,10.4,53.2,13.5,53.2,18.5 M47.5,23.3h-0.8
		c-2.8,0-7.7,0.1-7.7,3.1c0,4.1,8.5,2.8,8.5-2.2V23.3z"/>
</g>
</svg>
