<?xml version="1.0" encoding="utf-8"?>
<!-- Generator: Adobe Illustrator 23.0.4, SVG Export Plug-In . SVG Version: 6.00 Build 0)  -->
<svg version="1.1" id="Layer_1" xmlns="http://www.w3.org/2000/svg" xmlns:xlink="http://www.w3.org/1999/xlink" x="0px" y="0px"
	 viewBox="0 0 99.29 74.47" style="enable-background:new 0 0 99.29 74.47;" xml:space="preserve">
<style type="text/css">
	.st0{fill:#E0E0E0;}
	.st1{fill:#D9D9D9;}
	.st2{fill:#EEEEEE;}
	.st3{fill:#CA3737;}
	.st4{fill:#F5F5F5;}
	.st5{fill:#E84F4B;}
</style>
<g>
	<path class="st0" d="M7.9,74.47h83.5c4.36,0,7.9-3.53,7.9-7.9V7.9c0-4.36-3.53-7.9-7.9-7.9H7.9C3.53,0,0,3.53,0,7.9v58.67
		C0,70.94,3.53,74.47,7.9,74.47L7.9,74.47z M7.9,74.47"/>
	<path class="st1" d="M54.16,74.47h37.23c4.36,0,7.9-3.53,7.9-7.9V7.9c0-4.36-3.53-7.9-7.9-7.9H7.9C3.53,0,0,3.53,0,7.9L54.16,74.47
		z M54.16,74.47"/>
	<path class="st2" d="M10.71,74.47h80.68c4.36,0,7.9-3.53,7.9-7.9V9.03L10.71,74.47z M10.71,74.47"/>
	<path class="st0" d="M53.59,74.47h37.81c4.36,0,7.9-3.53,7.9-7.9V9.03l-61.45,45.4L53.59,74.47z M53.59,74.47"/>
	<path class="st3" d="M91.39,4.51H7.9C3.53,4.51,0,3.53,0,7.9v58.67c0,4.36,3.53,7.9,7.9,7.9h3.38V10.15h76.73v64.31h3.38
		c4.36,0,7.9-3.53,7.9-7.9V7.9C99.29,3.53,95.76,4.51,91.39,4.51L91.39,4.51z M91.39,4.51"/>
	<path class="st4" d="M91.39,0H7.9C3.53,0,0,3.46,0,7.9c0,2.72,3.43,5.1,3.43,5.1l46.22,32.72l46.22-32.72c0,0,3.43-2.37,3.43-5.1
		C99.29,3.46,95.76,0,91.39,0L91.39,0z M91.39,0"/>
	<path class="st5" d="M93.08,0.19L49.65,30.46L6.21,0.19C2.66,0.94,0,4.06,0,7.9c0,2.72,3.43,5.1,3.43,5.1l46.22,32.72l46.22-32.72
		c0,0,3.43-2.37,3.43-5.1C99.29,4.06,96.63,0.94,93.08,0.19L93.08,0.19z M93.08,0.19"/>
</g>
</svg>
