<?xml version="1.0" encoding="utf-8"?>
<!-- Generator: Adobe Illustrator 23.0.4, SVG Export Plug-In . SVG Version: 6.00 Build 0)  -->
<svg version="1.1" id="Layer_1" xmlns="http://www.w3.org/2000/svg" xmlns:xlink="http://www.w3.org/1999/xlink" x="0px" y="0px"
	 viewBox="0 0 272.2 272.2" style="enable-background:new 0 0 272.2 272.2;" xml:space="preserve">
<style type="text/css">
	.st0{fill:#FFFFFF;}
	.st1{fill:#C7C7C7;}
	.st2{fill:#4483EF;}
	.st3{fill:#3664D0;}
</style>
<g id="XMLID_49_">
	<path id="XMLID_47_" class="st0" d="M72.2,10c2.1-0.3,4.3-0.4,6.2,0.5c2.8,1.1,4.9,3.9,5.6,6.8c0.2,2.1,0.2,4.3-0.8,6.2
		c-1.8,4-6.6,6.2-10.8,5.1c-4.3-1-7.5-5.1-7.5-9.5C64.8,14.9,68,11,72.2,10z"/>
	<path id="XMLID_46_" class="st0" d="M195.5,9.9c2.1-0.3,4.3-0.3,6.3,0.6c3.2,1.4,5.4,4.8,5.6,8.2c0,2.7-0.9,5.5-2.9,7.3
		c-1.7,1.8-4.1,2.8-6.5,2.9c-3.7,0-7.5-2.2-9-5.7c-0.9-1.9-0.8-4-0.7-6C189,13.7,191.9,10.8,195.5,9.9z"/>
	<path id="XMLID_45_" class="st0" d="M183.1,155.7c4.9,0,9.8,0,14.6,0c-0.1,19.4,0,38.8,0,58.2c-4.9,0-9.7,0-14.6,0
		C183.1,194.5,183.2,175.1,183.1,155.7z"/>
	<g id="XMLID_56_">
		<g id="XMLID_59_">
			<path id="XMLID_60_" class="st1" d="M25,1.5C28,0.1,31.4-0.1,34.8,0c68.3,0,136.6,0,205,0c7.4-0.1,14.7,4.5,17.7,11.3
				c1.3,2.7,1.8,5.7,1.8,8.6c0,6.6,0.1,13.3,0,19.9c-2.2-0.8-4.6-1.1-6.9-1.1c-77.3,0-154.6,0-231.9,0c-2.5,0.1-4.9,0.2-7.3,1.1
				C13,33,13,26.1,13,19.2C13,11.6,17.9,4.3,25,1.5z M72.2,10c-4.1,1-7.4,4.9-7.3,9.2c0,4.4,3.2,8.6,7.5,9.5c4.2,1.1,9-1.2,10.8-5.1
				c1-1.9,1.1-4.1,0.8-6.2c-0.7-2.9-2.7-5.7-5.6-6.8C76.4,9.6,74.2,9.6,72.2,10z M195.5,9.9c-3.5,0.8-6.5,3.8-7.2,7.3
				c-0.1,2-0.2,4.2,0.7,6c1.5,3.5,5.2,5.7,9,5.7c2.4-0.1,4.8-1.1,6.5-2.9c2-1.9,2.9-4.6,2.9-7.3c-0.2-3.5-2.4-6.8-5.6-8.2
				C199.8,9.6,197.6,9.6,195.5,9.9z"/>
		</g>
		<path id="XMLID_41_" class="st1" d="M194.3,97.5c1.1-0.4,2.3-0.4,3.4-0.3c-0.1,19.4,0,38.9,0,58.4v0.2c-4.9,0-9.8,0-14.6,0v-0.2
			c0-13.4,0-26.9,0-40.3c-9.7,3.2-19.4,6.5-29.2,9.7c0-4.4,0-8.8,0-13.2C167.4,107,180.9,102.3,194.3,97.5z"/>
		<path id="XMLID_38_" class="st1" d="M75.3,104.5c6.1-4.6,13.7-7,21.3-7.3c7.6-0.3,15.4,1,22,4.8c5.2,3,9.4,7.8,11.6,13.4
			c2.2,5.6,3,11.7,2.3,17.7c-1.5,9.5-8.8,17.2-17.4,21.1c1.2,0.4,2.4,0.8,3.6,1.4c-0.8,0.1-1.5,0.2-2.3,0.2
			c-10.2-0.1-20.3,0.1-30.5-0.1c0-2.2-0.1-4.4,0.1-6.6c7.3-0.2,15.1,0.7,21.9-2.5c5.6-2.4,9.8-7.8,10.6-13.8
			c0.7-5.8,0.1-12.1-3.3-17c-2.7-3.9-7.3-6-11.8-6.7c-6.2-0.9-12.9-0.2-18.1,3.5c-5.1,3.6-7.8,9.9-7.7,16.1c-4.7,0.1-9.4,0-14.1,0.1
			c0.1-2.6,0.3-5.2,1-7.7C66,114.4,70,108.5,75.3,104.5z"/>
	</g>
	<g id="XMLID_53_">
		<path id="XMLID_36_" class="st2" d="M13.1,39.9c2.3-0.9,4.8-1,7.3-1.1c77.3,0,154.6,0,231.9,0c2.3,0,4.7,0.2,6.9,1.1
			c6.7,2.4,12.1,8.6,12.8,15.8c-1.4-4.9-4.3-9.5-8.7-12.2c-3.2-2-6.9-3.1-10.6-3.1c-77.6,0-155.1,0-232.7,0
			c-5.8-0.1-11.7,2.4-15.4,7c-1.8,1.9-2.8,4.4-4,6.7C1.8,47.5,6.9,42.1,13.1,39.9z"/>
		<path id="XMLID_35_" class="st2" d="M182.8,155.6l0.3,0v0.2c0.1,19.4,0,38.8,0,58.1c4.9,0,9.7,0,14.6,0c0-19.4,0-38.8,0-58.2v-0.2
			l0.2,0c2.1,0.3,4.3,0.1,6.5,0.1c18.3,0,36.5,0,54.8,0c2.1,30.6,4.1,61.1,6.2,91.7c0.2,3.5,0.6,7.1-0.3,10.5L265,258
			c-0.9,1-1.4,2.3-2,3.4c-3.4,5.6-9.8,9.4-16.4,9.3c-72.9,0-145.8,0-218.6,0c-2.3,0-4.6,0.1-6.8-0.5c-5-1.4-9.6-4.7-12.1-9.3
			c-0.5-1-1-2-1.7-2.9l-0.1-0.1c-1.2-4.6-0.2-9.3-0.1-14c2-29.4,3.9-58.8,5.9-88.2c24.3-0.1,48.6,0,72.9,0c0,1.4,0,2.8,0,4.2
			c7.7,0.1,15.8-0.8,23,2.3c4.9,1.9,9,6,10.5,11.1c1.7,5.6,1.5,11.9-0.5,17.4c-1.9,5.2-6.4,9.2-11.6,10.7
			c-6.4,1.9-13.5,1.7-19.6-0.9c-4.8-2.1-8.7-6.2-10.2-11.2c-0.7-2.2-1-4.5-1-6.9c-4.7,0-9.3,0-14,0c0.1,5.9,1.5,11.9,4.8,16.8
			c3.5,5.4,8.9,9.4,14.9,11.7c7.6,2.9,15.9,3.6,23.9,2.4c7.8-1.2,15.4-4.7,20.6-10.6c4.8-5.4,7.3-12.6,7.7-19.7
			c0.4-6.8-1.1-14-5.5-19.5c-2.4-3.2-5.8-5.5-9.2-7.6c1.7-0.2,3.4-0.2,5-0.2c17.2,0,34.4,0,51.6,0
			C178.5,155.6,180.7,155.8,182.8,155.6z"/>
	</g>
	<g id="XMLID_50_">
		<path id="XMLID_33_" class="st3" d="M4.5,47.4c3.7-4.5,9.6-7.1,15.4-7c77.6,0,155.1,0,232.7,0c3.8,0,7.5,1.1,10.6,3.1
			c4.4,2.7,7.3,7.3,8.7,12.2c0.4,1.7,0.3,3.5,0.1,5.3c-4.2,31.6-8.6,63.1-12.7,94.7c-17.5,0-35.1,0-52.6,0c-2.9,0-5.9,0.1-8.8-0.1
			l-0.2,0c0.1-19.4,0-38.9,0-58.3c-1.2-0.1-2.4-0.1-3.4,0.3c-13.5,4.8-27,9.4-40.4,14.2c0.1,4.4,0,8.8,0,13.2
			c9.7-3.2,19.4-6.5,29.2-9.7c0,13.5,0,26.9,0,40.3l-0.3,0c-20.4,0.1-40.8,0-61.1,0.1c-1,0-2.1,0.3-3-0.1c-1.2-0.6-2.3-1.1-3.6-1.4
			c8.6-3.8,16-11.5,17.4-21.1c0.7-6,0-12.1-2.3-17.7c-2.2-5.6-6.4-10.4-11.6-13.4c-6.6-3.8-14.4-5.1-22-4.8
			c-7.6,0.3-15.2,2.7-21.3,7.3c-5.4,4-9.3,9.9-11,16.4c-0.7,2.5-0.9,5.1-1,7.7c4.7,0,9.4,0.1,14.1-0.1c-0.1-6.2,2.6-12.5,7.7-16.1
			c5.2-3.8,11.9-4.4,18.1-3.5c4.6,0.7,9.2,2.8,11.8,6.7c3.4,4.9,4,11.2,3.3,17c-0.8,6.1-5,11.5-10.6,13.8
			c-6.8,3.2-14.6,2.3-21.9,2.5h-0.2c0.1,2.2,0,4.4,0.1,6.6c-24.3,0-48.6-0.1-72.9,0C8.8,124.8,4.6,93.8,0.4,62.9
			C-0.1,60-0.2,57,0.5,54.1C1.8,51.8,2.7,49.3,4.5,47.4z"/>
		<path id="XMLID_32_" class="st3" d="M7.2,258c0.7,0.9,1.2,1.9,1.7,2.9c2.5,4.6,7.1,7.9,12.1,9.3c2.2,0.6,4.6,0.5,6.8,0.5
			c72.9,0,145.8,0,218.6,0c6.6,0.1,13-3.7,16.4-9.3c0.6-1.2,1.2-2.4,2-3.4c-1.6,6.2-6.6,11.4-12.8,13.3c-3.4,1.2-7.1,0.9-10.6,0.9
			c-71,0-142,0-212.9,0c-2.8,0-5.7,0-8.5-0.8C14,269.5,8.9,264.3,7.2,258z"/>
	</g>
</g>
</svg>
