<?xml version="1.0" encoding="utf-8"?>
<!-- Generator: Adobe Illustrator 23.0.4, SVG Export Plug-In . SVG Version: 6.00 Build 0)  -->
<svg version="1.1" id="Layer_1" xmlns="http://www.w3.org/2000/svg" xmlns:xlink="http://www.w3.org/1999/xlink" x="0px" y="0px"
	 viewBox="0 0 114.85 159.85" style="enable-background:new 0 0 114.85 159.85;" xml:space="preserve">
<style type="text/css">
	.st0{fill:#23A566;}
	.st1{fill:#8ED1B1;}
	.st2{fill-rule:evenodd;clip-rule:evenodd;fill:#FFFFFF;}
</style>
<g>
	<path class="st0" d="M114.85,150.61c0,5.1-4.14,9.24-9.24,9.24H9.24c-5.1,0-9.24-4.14-9.24-9.24V9.28c0-5.1,4.14-9.24,9.24-9.24
		h61.97l43.65,44.71v105.86H114.85z"/>
	<path class="st1" d="M114.85,44.69H80.37c-5.1,0-9.24-4.14-9.24-9.24V0L114.85,44.69L114.85,44.69z"/>
	<path class="st2" d="M87.29,130.29H27.56V78.56H87.3v51.73H87.29z M61.12,85.95v9.24H79.9v-9.24H61.12L61.12,85.95z M61.12,100.73
		v8.62H79.9v-8.62H61.12L61.12,100.73z M61.12,114.89v8.01H79.9v-8.01H61.12L61.12,114.89z M53.73,122.9v-8.01H34.95v8.01H53.73
		L53.73,122.9z M53.73,109.35v-8.62H34.95v8.62H53.73L53.73,109.35z M53.73,95.19v-9.24H34.95v9.24H53.73L53.73,95.19z"/>
</g>
</svg>
