<?xml version="1.0" encoding="utf-8"?>
<!-- Generator: Adobe Illustrator 23.0.4, SVG Export Plug-In . SVG Version: 6.00 Build 0)  -->
<svg version="1.1" id="Layer_1" xmlns="http://www.w3.org/2000/svg" xmlns:xlink="http://www.w3.org/1999/xlink" x="0px" y="0px"
	 viewBox="0 0 91.1 126.3" style="enable-background:new 0 0 91.1 126.3;" xml:space="preserve">
<style type="text/css">
	.st0{fill-rule:evenodd;clip-rule:evenodd;fill:#4483EF;}
	.st1{fill-rule:evenodd;clip-rule:evenodd;fill:#F1F1F1;}
	.st2{fill-rule:evenodd;clip-rule:evenodd;fill:#A6C5FA;}
</style>
<path class="st0" d="M83.2,126.3H8c-4.4,0-8-3.6-8-8V8c0-4.4,3.6-8,8-8l0,0h47.9l35.2,34.7v83.6C91.1,122.7,87.6,126.3,83.2,126.3
	L83.2,126.3L83.2,126.3z"/>
<polygon class="st1" points="21.5,69.2 67.8,69.2 67.8,63.6 21.5,63.6 "/>
<polygon class="st1" points="21.5,80.6 67.8,80.6 67.8,74.9 21.5,74.9 "/>
<polygon class="st1" points="21.5,92 67.8,92 67.8,86.3 21.5,86.3 "/>
<polygon class="st1" points="21.5,103.4 56.7,103.4 56.7,97.7 21.5,97.7 "/>
<path class="st2" d="M64,34.7h27.2L55.9,0v26.6C55.9,31.1,59.5,34.7,64,34.7L64,34.7z"/>
</svg>
