<?xml version="1.0" encoding="utf-8"?>
<!-- Generator: Adobe Illustrator 23.0.4, SVG Export Plug-In . SVG Version: 6.00 Build 0)  -->
<svg version="1.1" id="Layer_1" xmlns="http://www.w3.org/2000/svg" xmlns:xlink="http://www.w3.org/1999/xlink" x="0px" y="0px"
	 viewBox="0 0 157.85 184.03" style="enable-background:new 0 0 157.85 184.03;" xml:space="preserve">
<style type="text/css">
	.st0{fill-rule:evenodd;clip-rule:evenodd;fill:url(#SVGID_1_);}
</style>
<linearGradient id="SVGID_1_" gradientUnits="userSpaceOnUse" x1="78.9242" y1="184.0274" x2="78.9242" y2="-9.094947e-13">
	<stop  offset="0" style="stop-color:#479843"/>
	<stop  offset="0.4946" style="stop-color:#63B946"/>
</linearGradient>
<path class="st0" d="M156.62,64.92c-2.79-15.23-9.46-28.53-19.99-39.88c-4.45-4.79-9.43-8.96-14.93-12.49
	C111.46,5.96,100.3,1.93,88.2,0.5c-1.47-0.17-2.97-0.15-4.42-0.5c-3.48,0-6.96,0-10.44,0c-0.11,0.26-0.36,0.17-0.55,0.18
	c-2.69,0.24-5.36,0.54-8.01,1.05C45.39,4.9,29.47,14.42,17.15,29.8C7.01,42.44,1.43,56.95,0.22,73.12
	c-0.58,7.84-0.02,15.61,1.7,23.27c1.28,5.7,3.18,11.21,5.74,16.47c0.22,0.45,0.45,0.9,0.68,1.34c4.21,8.29,9.62,15.67,16.41,22.05
	c3.57,3.36,7.39,6.4,11.52,9.02c12.66,8.04,26.49,12.25,41.51,12.44c0.92,0.01,1.17,0.24,1.17,1.18
	c-0.04,8.04-0.03,16.08-0.02,24.12c0,0.31,0.03,0.62,0.04,1.01c0.26-0.11,0.42-0.17,0.58-0.24c15.1-7.09,28.96-16.06,41.32-27.29
	c2.46-2.24,4.81-4.58,7.08-7.02c0.97-1.04,1.93-2.1,2.9-3.15c1.5-1.6,2.8-3.4,4.21-5.09c1.63-1.95,3.1-4.02,4.54-6.1
	c3.2-4.61,6.05-9.41,8.45-14.49c1.21-2.57,2.37-5.15,3.39-7.8c0.03-0.05,0.08-0.09,0.1-0.15c2.79-7.25,4.58-14.75,5.53-22.44
	c0.33-2.68,0.55-5.38,0.68-8.07C158.04,76.4,157.67,70.63,156.62,64.92z M54.97,113.3c-1.36,0.37-2.74,0.58-4.12,0.78
	c-1.07,0.16-1.76-0.44-2.16-1.4c0-2.97,0.01-5.94,0.01-8.91c0.05-0.87-0.3-1.81,0.4-2.58c0.35-0.38,0.74-0.64,1.27-0.78
	c1.55-0.39,3.13-0.71,4.55-1.55c2.61-1.56,4.23-3.8,4.95-6.73c0.11-0.46,0.22-0.92,0.33-1.39c-6.26-0.01-12.52-0.02-18.79-0.03
	c-0.54,0-1.08-0.02-1.6-0.17c-1.6-0.44-2.82-1.9-2.82-3.54c-0.01-9.47,0.01-18.94,0.01-28.41c-0.13-1.51,0-2.93,1.27-4.01
	c0.69-0.58,1.45-0.94,2.36-0.94c9.21,0,18.41,0,27.62,0c2.44,0,4.45,2.45,3.67,4.86c0.19,0.45,0.15,0.93,0.15,1.41
	c0,10.32,0.06,20.64-0.02,30.96c-0.05,6.85-2.72,12.61-7.73,17.28c-0.26,0.24-0.51,0.5-0.77,0.74
	C60.97,110.87,58.15,112.44,54.97,113.3z M105.9,112.64c-0.12,0.03-0.23,0.07-0.35,0.1c-0.07,0.04-0.13,0.08-0.2,0.11
	c-1.78,0.5-3.58,0.92-5.42,1.19c-1.4,0.21-2.46-0.59-2.48-2c-0.01-0.99-0.02-1.98-0.03-2.97c0.02-1.77,0.03-3.54,0.05-5.31
	c-0.01-0.39-0.02-0.78-0.02-1.17c0-1.36,0.53-1.93,2.22-2.32c2.14-0.49,4.16-1.18,5.83-2.73c2-1.86,3.01-4.18,3.47-6.81
	c-5.78-0.01-11.57-0.02-17.35-0.03c-0.63,0-1.26,0.01-1.89,0c-2.36-0.04-3.98-1.67-3.98-4.05c0-9.35,0.02-18.7,0.02-28.05
	c0-0.09-0.01-0.18-0.02-0.27c-0.18-1.75,0.32-3.18,1.88-4.16c0.6-0.38,1.26-0.54,1.96-0.54c9.15,0,18.29,0,27.44-0.01
	c2.44,0,4.45,2.45,3.67,4.86c0.19,0.45,0.15,0.93,0.15,1.41c0,10.33,0,20.67,0,31.01c-0.01,9.23-5.79,17.87-14.32,21.42
	C106.32,112.42,106.12,112.54,105.9,112.64c0.15,0.19,0.33,0.24,0.52,0.25C106.24,112.88,106.06,112.83,105.9,112.64z"/>
</svg>
