<?xml version="1.0" encoding="utf-8"?>
<!-- Generator: Adobe Illustrator 22.0.1, SVG Export Plug-In . SVG Version: 6.00 Build 0)  -->
<svg version="1.1" id="Layer_1" xmlns="http://www.w3.org/2000/svg" xmlns:xlink="http://www.w3.org/1999/xlink" x="0px" y="0px"
	 viewBox="0 0 182.4 51.6" style="enable-background:new 0 0 182.4 51.6;" xml:space="preserve">
<style type="text/css">
	.st0{fill:#3F000B;}
	.st1{fill:#A7A9AC;}
</style>
<g>
	<path class="st0" d="M122.2,43.5V27.3h6.2V20h-6.2V8h6.4V0.7h-15v50.1h15.8v-7.3H122.2z M33,43.5V27.3h6.2V20H33V8h6.6V0.7H24.4
		v50.1h15.8v-7.3H33z M12.1,0.7v19.1H8.5V0.7H0v50.1h8.5V27h3.6v23.8h8.4V0.7H12.1z M101.2,0.7v19.1h-3.6V0.7h-8.5v50.1h8.5V27h3.6
		v23.8h8.4V0.7H101.2z M66.2,9.2V14c0,4,1,6.2,2.7,8.8c1.2,1.8,2.7,3.3,4.1,4.8l2.8,3.2c1.1,1.4,1.8,2.5,1.8,4.4l0,7.5
		c0,0.8-0.7,1.5-1.7,1.5c-1,0-1.7-0.7-1.7-1.7v-9.6h-8.3v10c0,5.4,3.8,8.7,9.9,8.7c4.9,0,10.1-2.7,10.1-8.6v-8.1c0-3-0.4-5-2.4-7.9
		c-1.2-1.8-3.1-3.9-4.8-5.8l-2.1-2.3c-1.5-1.8-2.2-3.1-2.2-6l0-3.7c0-1.2,0.9-1.6,1.6-1.6c1,0,1.5,0.6,1.5,1.6v7.4h8V9
		c0-6-3.2-9-9.6-9C69.7,0,66.2,3.3,66.2,9.2 M55,10.2c0-1.3-0.8-2-2.5-2h-0.9v12.5c0.1,0,1,0,1,0c0.7,0,2.4-0.2,2.4-2.1V10.2z
		 M62.7,41.8c0,7.4,3.3,9,3.3,9H55.6l-0.1-0.3c-0.8-1.7-1-3.9-1-5.8l0-15.2c0-2.3-1.5-2.3-2-2.3h-1.4l0,23.6H43l0-50.1h12.6
		c4.5,0,7.3,3.3,7.3,8.4v7.4c0,3.4-1.3,5.7-3.6,7.1c2.2,1.4,3.5,3.5,3.5,6.4V41.8z M151.3,0.7l-6,34.2l0,15.8l-8.6,0l0-15.7l-6-34.4
		h8.6c0,0,2,13.8,2.7,18.5c0.6-4.7,2.6-18.5,2.6-18.5H151.3z"/>
	<path class="st1" d="M160.4,21.6c0-2.9,2.1-5.3,5.4-6.4c3.9-1.4,13.5-1.9,16.7-5.9V16c-2.9,3.7-12.8,3.7-16.7,5.1
		c-3,1-4.1,2.8-4.7,3.7c-0.3,0.4-0.3,0.4-0.5,0.4c-0.1,0-0.2-0.1-0.2-0.2V21.6z"/>
	<path class="st0" d="M153.1,50.7c-3.8,0-6.3-5.2-2-10.4c1.5-1.8,3.2-3.3,4.7-5c2.9-3.2,3.8-5.6,4.4-8c0-0.1,0.1-0.3,0.3-0.3
		c0.2,0,0.3,0.2,0.3,0.3c0.6,2.3,1.5,4.8,4.4,8c1.5,1.7,3.3,3.2,4.7,5c4.4,5.2,1.8,10.4-2,10.4H153.1z"/>
</g>
</svg>
