<?xml version="1.0" encoding="utf-8"?>
<!-- Generator: Adobe Illustrator 22.0.1, SVG Export Plug-In . SVG Version: 6.00 Build 0)  -->
<svg version="1.1" id="Layer_1" xmlns="http://www.w3.org/2000/svg" xmlns:xlink="http://www.w3.org/1999/xlink" x="0px" y="0px"
	 viewBox="0 0 421 60.3" style="enable-background:new 0 0 421 60.3;" xml:space="preserve">
<style type="text/css">
	.st0{fill:#231F20;}
	.st1{fill:#5C8627;}
	.st2{fill:#AFBC21;}
	.st3{fill:#1C3E93;}
	.st4{fill:#508FCC;}
</style>
<g>
	<g>
		<path class="st0" d="M151.7,55.3V5H140v21.3h-30V5H98.2v50.2H110V33.9h30v21.3H151.7z M202.6,12.6V5h-43.6v50.2h43.6v-7.5h-31.9
			V33.2h29.2v-7.6h-29.2V12.6H202.6z M245.7,29.9L267,5h-13.5l-15.5,18.7L222.6,5h-13.4l21.3,24.7l-22.7,25.5h13.4L238,35.9l17,19.3
			h13.5L245.7,29.9z M285.8,5h-11.7v50.2h11.7V5z M327.5,4.2c-21.1,0-33,11.3-33,25.9c0,14.7,12.3,25.9,33,25.9
			c21.2,0,33.1-11.2,33.1-25.9C360.6,15.5,348.6,4.2,327.5,4.2L327.5,4.2z M327.5,11.9c13.4,0,21.4,7.1,21.4,18.2
			c0,11.3-7.8,18.3-21.4,18.3c-13.2,0-21.3-7.1-21.3-18.3C306.2,19,314.1,11.9,327.5,11.9 M421,55.3V5h-11.7v33.8L381.3,5h-13.6
			v50.2h11.7V21.4l27.9,33.8H421z"/>
		<path class="st1" d="M77.3,53c-9.8,9.8-25.6,9.8-35.3,0l17.7-17.7L77.3,53z"/>
		<path class="st2" d="M59.7,0L42,17.7c-9.8,9.8-9.8,25.6,0,35.3l17.7-17.7C69.4,25.6,69.4,9.8,59.7,0"/>
		<path class="st3" d="M0,7.3c9.8-9.8,25.6-9.8,35.3,0L17.7,25L0,7.3z"/>
	</g>
	<g>
		<path class="st4" d="M35.3,7.3l-8.8,8.8L17.7,25c-4.9,4.9-7.3,11.3-7.3,17.7c0,6.4,2.4,12.8,7.3,17.7l8.8-8.8l8.8-8.8
			c4.9-4.9,7.3-11.3,7.3-17.7S40.2,12.2,35.3,7.3"/>
	</g>
</g>
</svg>
