<svg xmlns="http://www.w3.org/2000/svg" width="272.942" height="72.573" viewBox="0 0 272.942 72.573">
  <g id="Group_22" data-name="Group 22" transform="translate(-54.231 -396.596)">
    <path id="Path_32" data-name="Path 32" d="M54.231,432.882A36.286,36.286,0,1,0,90.517,396.6a36.292,36.292,0,0,0-36.286,36.286M64.8,451.341A31.739,31.739,0,0,1,86.89,401.487c-.317.155-3.947,2.521-3.947,8.2,0,5.208,3.63,9.782,6.627,14.043.789,1.106,1.419,2.208,2.366,3.472,2.366,3.627,5.208,8.36,5.208,13.884a17.641,17.641,0,0,1-17.67,17.67A16.583,16.583,0,0,1,64.8,451.341m42.913-32.026c-.63-.475-2.525-1.736-3.944-2.683-5.208-3.472-9.152-5.521-9.152-9.31a4.156,4.156,0,0,1,4.419-4.1c4.574,0,9.937,4.1,9.937,4.1a31.7,31.7,0,0,1,13.1,25.56,28.463,28.463,0,0,1-1.1,8.36c0-4.574-2.683-14.987-13.254-21.927M82.471,463.489a22.725,22.725,0,0,0,19.247-19.722,15.1,15.1,0,0,1,1.422,6.469c0,8.363-6.785,13.884-15.148,13.884a24.509,24.509,0,0,1-5.521-.63" transform="translate(0 0)" fill="#fff"/>
    <path id="Path_33" data-name="Path 33" d="M149.416,432.124a8.606,8.606,0,0,1-5.049,1.894c-2.525,0-4.1-1.578-4.1-3.63,0-2.366,1.894-3.469,5.838-3.627l3.313-.158Zm7.1-1.105v-8.36c0-6.155-3.785-10.257-11.99-10.257a21.613,21.613,0,0,0-10.412,2.525l2.05,4.261a19.846,19.846,0,0,1,6.941-1.736c4.419,0,6.469,2.366,6.469,4.733v.317l-4.416.158c-6.469.314-11.99,2.366-11.99,8.36,0,4.891,3.944,8.049,9.307,8.049a10.336,10.336,0,0,0,7.732-3.158,4.234,4.234,0,0,0,4.257,3.158c1.581,0,2.525-.633,2.525-2.053,0-1.736-.472-2.683-.472-6M225.3,417.293c4.261,0,5.363,3.472,5.363,6.313H219.781c0-3.158,1.578-6.313,5.521-6.313m8.046,14.515c-1.894,0-3.313,2.37-6.785,2.37a6.684,6.684,0,0,1-6.624-6h17.983V426.6c0-8.363-4.574-14.2-12.462-14.2-8.046,0-12.623,5.68-12.623,13.254,0,6.785,4.1,13.254,13.571,13.254,5.363,0,9.465-2.366,9.465-4.733a2.281,2.281,0,0,0-2.525-2.37m22.877,7.1c-9.152,0-14.515-6-14.515-13.254,0-7.574,5.521-13.254,14.515-13.254a15.1,15.1,0,0,1,8.518,2.211l-1.578,4.574a11.433,11.433,0,0,0-6.31-1.894c-5.2,0-7.888,3.789-7.888,8.363s2.838,8.363,7.574,8.363c3.627,0,5.046-2.366,6.941-2.366a2.323,2.323,0,0,1,2.366,2.366c0,2.525-4.419,4.891-9.624,4.891M82.52,432.755a2.659,2.659,0,0,1,2.683-2.68c2.366,0,4.1,3.313,10.1,3.313,3.63,0,6.313-1.581,6.313-4.261,0-2.366-1.894-3.789-4.891-5.208-.947-.472-2.683-1.261-3.789-1.736-4.1-1.891-8.2-4.574-8.2-9.937,0-5.208,4.577-9.624,12.623-9.624,5.838,0,9.307,1.578,10.1,2.05l-1.733,5.208a20.994,20.994,0,0,0-8.046-1.736c-2.683,0-5.366,1.261-5.366,3.944,0,2.525,2.208,3.627,5.049,5.049.947.472,1.736.789,2.683,1.261,4.416,2.049,9.148,4.419,9.148,10.254,0,6.313-5.993,10.257-13.884,10.257-7.257,0-12.779-3-12.779-6.155m119.905-1.1a2.324,2.324,0,0,0,2.366,2.366c2.211,0,2.841-1.736,4.577-1.736a2.153,2.153,0,0,1,2.208,2.208c0,2.366-2.841,4.419-7.888,4.419-5.68,0-8.2-3.313-8.2-7.574V417.926h-4.577v-5.049h4.577V407.2l7.1-1.894v7.732h9.31l-1.736,5.046h-7.574Zm-80.619,0a2.323,2.323,0,0,0,2.366,2.366c2.208,0,2.838-1.736,4.416-1.736a2.154,2.154,0,0,1,2.211,2.208c0,2.366-2.841,4.419-7.891,4.419-5.68,0-8.2-3.313-8.2-7.574V417.926H110.13v-5.049H114.7V407.2l7.1-1.894v7.732h9.307l-1.736,5.046h-7.571Zm66.263,3.786a3.47,3.47,0,1,1-6.94,0V423.761c0-3.155-1.578-5.835-5.208-5.835-2.683,0-4.574,1.577-6,2.68v14.831a3.47,3.47,0,1,1-6.941,0v-22.4h6l.472,3a13.771,13.771,0,0,1,9.152-3.785c4.416,0,9.624,2.521,9.624,9.148v14.043Z" transform="translate(61.323 13.065)" fill="#fff"/>
  </g>
</svg>
