<svg xmlns="http://www.w3.org/2000/svg" width="154.6" height="108" viewBox="0 0 154.6 108"><g transform="translate(-750.001 -178)"><g transform="translate(-119.455 -299.039)"><path d="M933.659,488.825a27.033,27.033,0,0,1,19.562-8.4,27.306,27.306,0,0,1,23.8,14.109,32.9,32.9,0,0,1,13.451-2.858,33.55,33.55,0,1,1-6.552,66.447,24.311,24.311,0,0,1-31.857,10,27.737,27.737,0,0,1-51.563-1.252,25.747,25.747,0,0,1-31.041-25.463,26.049,26.049,0,0,1,12.873-22.536,29.963,29.963,0,0,1,51.328-30.051" transform="translate(0)" fill="#fff"/><path d="M949.815,645.907c-.1.252.034.3.066.349a8.935,8.935,0,0,0,.879.533,9.415,9.415,0,0,0,4.616,1.076c3.166,0,5.131-1.681,5.131-4.39v-.052c0-2.505-2.221-3.418-4.3-4.075l-.273-.086c-1.571-.509-2.924-.952-2.924-1.983v-.051c0-.886.792-1.536,2.017-1.536a9.088,9.088,0,0,1,4.02,1.03s.308.2.419-.1c.063-.162.588-1.577.644-1.734a.294.294,0,0,0-.155-.356,8.984,8.984,0,0,0-4.535-1.218H955.1c-2.9,0-4.92,1.751-4.92,4.259v.051c0,2.64,2.231,3.5,4.321,4.1l.336.1c1.522.467,2.837.872,2.837,1.941v.055c0,.979-.858,1.709-2.231,1.709a7.468,7.468,0,0,1-4.076-1.173c-.221-.131-.349-.225-.522-.329a.257.257,0,0,0-.363.029.253.253,0,0,0-.056.113Z" transform="translate(-58.011 -112.864)" fill="#0f9bd7"/><path d="M1116.6,645.907c-.1.252.034.3.066.349a8.973,8.973,0,0,0,.879.533,9.414,9.414,0,0,0,4.615,1.076c3.166,0,5.131-1.681,5.131-4.39v-.052c0-2.505-2.221-3.418-4.3-4.075l-.273-.086c-1.57-.509-2.924-.952-2.924-1.983v-.051c0-.886.792-1.536,2.017-1.536a9.088,9.088,0,0,1,4.02,1.03s.308.2.419-.1c.063-.162.588-1.578.644-1.734a.294.294,0,0,0-.155-.356,8.985,8.985,0,0,0-4.536-1.218h-.315c-2.9,0-4.92,1.751-4.92,4.259v.051c0,2.64,2.231,3.5,4.321,4.1l.336.1c1.523.467,2.841.872,2.841,1.941v.055c0,.979-.858,1.709-2.231,1.709a7.478,7.478,0,0,1-4.076-1.173c-.221-.131-.353-.222-.522-.329a.269.269,0,0,0-.415.142Z" transform="translate(-178.463 -112.864)" fill="#0f9bd7"/><path d="M1207.508,637.874a6.364,6.364,0,0,0-1.2-2.294,5.772,5.772,0,0,0-2.03-1.545,7.351,7.351,0,0,0-5.664,0,5.79,5.79,0,0,0-2.027,1.545,6.287,6.287,0,0,0-1.2,2.294,10.5,10.5,0,0,0,0,5.678,6.369,6.369,0,0,0,1.2,2.294,5.615,5.615,0,0,0,2.03,1.529,7.518,7.518,0,0,0,5.664,0,5.72,5.72,0,0,0,2.031-1.53,6.345,6.345,0,0,0,1.2-2.294,9.96,9.96,0,0,0,.391-2.841,10.081,10.081,0,0,0-.395-2.837m-2.64,2.837a6.532,6.532,0,0,1-.848,3.592,3.248,3.248,0,0,1-5.131,0,8.1,8.1,0,0,1,0-7.168,3.274,3.274,0,0,1,5.135,0,6.471,6.471,0,0,1,.848,3.577" transform="translate(-235.107 -112.975)" fill="#0f9bd7"/><path d="M1291.649,645.134a.253.253,0,0,0-.314-.17l-.029.011a6.014,6.014,0,0,1-1.228.349,9.3,9.3,0,0,1-1.446.1,4.04,4.04,0,0,1-3.023-1.131,5.069,5.069,0,0,1-1.134-3.612,5.6,5.6,0,0,1,1.013-3.477,3.454,3.454,0,0,1,2.931-1.287,8.943,8.943,0,0,1,2.792.4s.208.086.3-.18c.235-.644.405-1.1.651-1.8a.238.238,0,0,0-.143-.3l-.024-.007a10.226,10.226,0,0,0-1.761-.446,13.413,13.413,0,0,0-1.983-.131,7.207,7.207,0,0,0-2.944.567,6.06,6.06,0,0,0-2.123,1.537,6.531,6.531,0,0,0-1.287,2.294,9.09,9.09,0,0,0-.429,2.844,7.578,7.578,0,0,0,1.758,5.255,6.671,6.671,0,0,0,5.214,1.965,10.743,10.743,0,0,0,3.74-.668.242.242,0,0,0,.107-.315Z" transform="translate(-297.556 -112.959)" fill="#0f9bd7" fill-rule="evenodd"/><path d="M1335.54,637.384a5.58,5.58,0,0,0-1.141-2.093,5.167,5.167,0,0,0-1.7-1.294,6.533,6.533,0,0,0-2.563-.515,6.98,6.98,0,0,0-2.951.574,5.84,5.84,0,0,0-2.06,1.571,6.44,6.44,0,0,0-1.211,2.321,10.071,10.071,0,0,0-.391,2.851,9.568,9.568,0,0,0,.4,2.855,5.732,5.732,0,0,0,3.543,3.764,8.944,8.944,0,0,0,3.245.523,9.32,9.32,0,0,0,4.5-.893c.1-.055.194-.152.076-.429l-.588-1.637a.258.258,0,0,0-.328-.158l-.007,0a8.626,8.626,0,0,1-3.67.661,3.659,3.659,0,0,1-4.1-4.024l8.94.007a.265.265,0,0,0,.258-.235,9.411,9.411,0,0,0-.263-3.847m-8.892,1.868a5.205,5.205,0,0,1,.723-2.107,2.847,2.847,0,0,1,2.557-1.3,2.774,2.774,0,0,1,2.505,1.3,4.43,4.43,0,0,1,.595,2.11Z" transform="translate(-327.934 -112.983)" fill="#0f9bd7" fill-rule="evenodd"/><path d="M1077.746,637.384a5.57,5.57,0,0,0-1.141-2.093,5.128,5.128,0,0,0-1.7-1.294,6.538,6.538,0,0,0-2.56-.515,6.984,6.984,0,0,0-2.955.574,5.843,5.843,0,0,0-2.06,1.571,6.435,6.435,0,0,0-1.211,2.321,10.062,10.062,0,0,0-.391,2.851,9.561,9.561,0,0,0,.4,2.855,5.732,5.732,0,0,0,3.543,3.764,8.944,8.944,0,0,0,3.245.522,9.319,9.319,0,0,0,4.5-.893c.1-.055.194-.152.076-.429l-.588-1.637a.257.257,0,0,0-.328-.158l-.008,0a8.626,8.626,0,0,1-3.671.661,3.66,3.66,0,0,1-4.1-4.024l8.94.007a.264.264,0,0,0,.257-.235,9.411,9.411,0,0,0-.263-3.847m-8.892,1.868a5.251,5.251,0,0,1,.72-2.107,2.854,2.854,0,0,1,2.557-1.3,2.781,2.781,0,0,1,2.509,1.3,4.43,4.43,0,0,1,.591,2.11Z" transform="translate(-141.751 -112.983)" fill="#0f9bd7" fill-rule="evenodd"/><path d="M1001.376,638.758c-.363-.027-.834-.041-1.394-.041a8.507,8.507,0,0,0-2.2.284,5.706,5.706,0,0,0-1.865.865,4.332,4.332,0,0,0-1.3,1.477,4.284,4.284,0,0,0-.477,2.06,4.6,4.6,0,0,0,.412,2.041,3.665,3.665,0,0,0,1.166,1.4,4.874,4.874,0,0,0,1.82.789,10.579,10.579,0,0,0,2.37.242,16.067,16.067,0,0,0,2.716-.228c.879-.149,1.951-.367,2.252-.436s.626-.159.626-.159a.283.283,0,0,0,.2-.294v-8.175a5.02,5.02,0,0,0-1.419-3.948,6.092,6.092,0,0,0-4.11-1.235,14.56,14.56,0,0,0-2.4.221,8.528,8.528,0,0,0-2.754,1.01.28.28,0,0,0-.086.356l.633,1.7a.226.226,0,0,0,.284.149l.01,0a1.094,1.094,0,0,0,.149-.076,9.1,9.1,0,0,1,3.9-.906,3.632,3.632,0,0,1,2.211.578c.487.377.734.938.734,2.131v.377c-.768-.111-1.477-.171-1.477-.171m-3.556,6.283a1.762,1.762,0,0,1-.515-.529,2.118,2.118,0,0,1-.269-1.163,1.951,1.951,0,0,1,.8-1.73,4.01,4.01,0,0,1,2.6-.647,18.236,18.236,0,0,1,2.429.208v4.065a18.172,18.172,0,0,1-2.415.318,4.054,4.054,0,0,1-2.623-.523" transform="translate(-90.046 -112.915)" fill="#0f9bd7"/><path d="M1258.367,634.573a.244.244,0,0,0-.129-.319l-.005,0a8.189,8.189,0,0,0-1.5-.258,4.471,4.471,0,0,0-2.308.37,3.971,3.971,0,0,0-1.509,1.116v-1.09a.258.258,0,0,0-.245-.269h-2.306a.257.257,0,0,0-.258.257V647.73a.271.271,0,0,0,.273.269h2.349a.27.27,0,0,0,.27-.269v-6.663a7.807,7.807,0,0,1,.3-2.345,3.345,3.345,0,0,1,.782-1.315,2.7,2.7,0,0,1,1.107-.664,4.3,4.3,0,0,1,1.2-.172,4.958,4.958,0,0,1,.983.121.311.311,0,0,0,.328-.242c.152-.412.588-1.637.671-1.879" transform="translate(-274.912 -113.337)" fill="#0f9bd7" fill-rule="evenodd"/><path d="M1160.306,613.069a6.45,6.45,0,0,0-.886-.208,6.95,6.95,0,0,0-1.214-.1,5.11,5.11,0,0,0-3.785,1.359,7.4,7.4,0,0,0-1.8,4.055l-.107.605h-2.031a.3.3,0,0,0-.3.258l-.332,1.858c-.024.177.052.287.291.287h1.974l-2.006,11.192a13.825,13.825,0,0,1-.536,2.2,4.505,4.505,0,0,1-.623,1.274,1.651,1.651,0,0,1-.82.633,3.412,3.412,0,0,1-1.052.148,3.882,3.882,0,0,1-.717-.08,2.152,2.152,0,0,1-.484-.155.248.248,0,0,0-.323.136l0,.005c-.073.191-.6,1.64-.661,1.82a.266.266,0,0,0,.13.353l.007,0a6.471,6.471,0,0,0,.816.239,5.392,5.392,0,0,0,1.312.124,6.511,6.511,0,0,0,2.193-.343,4.188,4.188,0,0,0,1.654-1.152,5.975,5.975,0,0,0,1.163-2,16.973,16.973,0,0,0,.785-3l2.013-11.4h2.944a.3.3,0,0,0,.3-.258l.332-1.858c.024-.177-.052-.287-.291-.287h-2.856a12.029,12.029,0,0,1,.47-2.017,2.612,2.612,0,0,1,.63-.955,1.84,1.84,0,0,1,.748-.467,3.168,3.168,0,0,1,.958-.135,3.741,3.741,0,0,1,.734.073,4.43,4.43,0,0,1,.456.111c.291.086.329,0,.388-.135l.681-1.879a.229.229,0,0,0-.155-.311" transform="translate(-198.904 -98.016)" fill="#0f9bd7" fill-rule="evenodd"/><path d="M1049.124,633.19a.257.257,0,0,1-.241.272h-2.39a.257.257,0,0,1-.258-.257c0-.005,0-.011,0-.016V614.105a.258.258,0,0,1,.245-.269h2.386a.257.257,0,0,1,.258.257s0,.008,0,.012Z" transform="translate(-127.672 -98.797)" fill="#0f9bd7" fill-rule="evenodd"/></g></g></svg>