<?xml version="1.0" encoding="utf-8"?>
<!-- Generator: Adobe Illustrator 22.0.1, SVG Export Plug-In . SVG Version: 6.00 Build 0)  -->
<svg version="1.1" id="Layer_1" xmlns="http://www.w3.org/2000/svg" xmlns:xlink="http://www.w3.org/1999/xlink" x="0px" y="0px"
	 viewBox="0 0 600 108.6" style="enable-background:new 0 0 600 108.6;" xml:space="preserve">
<g>
	<polyline points="326.4,101.3 403.8,101.3 403.8,91.8 339.7,91.8 339.7,61.5 387.9,61.5 387.9,52 339.7,52 339.7,24.1 403.8,24.1 
		403.8,14.7 326.4,14.7 	"/>
	<polyline points="366.7,0.7 356.2,12.4 389.1,0.7 	"/>
	<polyline points="533.8,91.8 533.8,14.7 521.7,14.7 521.7,101.3 600,101.3 600,91.8 	"/>
	<path d="M441.7,68l20.7-41.4l21,41.4 M454,14.7l-44,86.6h14.9l11.3-22.4h52.8l11.4,22.4H515L471,14.7"/>
	<path d="M274,54.7h-40.4V24.9h41.8c9.6,0,15.1,4.5,17,10.2c1.3,3.9,0.5,9.1-1.7,12.6C287.3,53.5,280.6,54.7,274,54.7 M284.4,65
		c19.8-5.3,21.8-20.1,21.7-25.3c-1.2-15.5-11.6-25.1-30.3-25.1h-54.6v86.6h12.4V64.9h35.5l26.1,36.3H311
		C311,101.3,292.1,76.8,284.4,65"/>
	<path d="M146,97.8c-24.3,0-44.3-19.5-44.3-43c0-23.5,19.1-44,45.3-44c25.5,0,44.3,20.5,44.3,44C191.2,78.3,170.3,97.8,146,97.8
		 M146.4,0c-35.1,0-59.1,24.8-59.1,54.7c0,31.6,26.4,53.8,59.1,53.8c32.6,0,59-22,59-53.8C205.4,24.8,181.2,0,146.4,0"/>
	<polyline points="56,45.3 65,45.3 81.3,14.7 68.2,14.7 	"/>
	<polyline points="12.1,91.8 12.1,14.7 0,14.7 0,101.3 78.3,101.3 78.3,91.8 	"/>
</g>
</svg>
