<?xml version="1.0" encoding="utf-8"?>
<!-- Generator: Adobe Illustrator 22.0.1, SVG Export Plug-In . SVG Version: 6.00 Build 0)  -->
<svg version="1.1" id="Layer_1" xmlns="http://www.w3.org/2000/svg" xmlns:xlink="http://www.w3.org/1999/xlink" x="0px" y="0px"
	 viewBox="0 0 135.9 29" style="enable-background:new 0 0 135.9 29;" xml:space="preserve">
<style type="text/css">
	.st0{fill:#F25022;}
	.st1{fill:#80BA01;}
	.st2{fill:#777777;}
	.st3{fill:#02A4EF;}
	.st4{fill:#FFB902;}
</style>
<title>microsoft-logo</title>
<g>
	<path class="st0" d="M0,0h13.8c0,4.6,0,9.2,0,13.8H0V0z"/>
	<path class="st1" d="M15.2,0H29c0,4.6,0,9.2,0,13.8H15.2C15.2,9.2,15.2,4.6,15.2,0z"/>
	<path class="st2" d="M124.4,5.3c1.3-0.8,2.9-1,4.4-0.5c0,0.8,0,1.7,0,2.6c-0.7-0.4-1.5-0.4-2.2-0.2c-0.6,0.3-0.9,0.8-1,1.4
		c-0.1,0.7-0.1,1.5-0.1,2.2h4.4c0-0.9,0-1.9,0-2.8c1-0.3,2-0.6,3-0.9c0,1.2,0,2.5,0,3.7c1,0,2,0,3,0v2.4c-1,0-2,0-3,0
		c0,1.4,0,2.8,0,4.2c0,0.8,0,1.5,0,2.3c0,0.5,0.2,0.9,0.6,1.2c0.7,0.4,1.6,0.3,2.3-0.2v2.5c-0.9,0.4-1.8,0.5-2.7,0.4
		c-0.9,0-1.7-0.4-2.4-1.1c-0.6-0.8-0.9-1.8-0.8-2.9c0-2.1,0-4.3,0-6.4h-4.4c0,3.3,0,6.7,0,10.1h-3c0-3.3,0-6.7,0-10.1
		c-0.7,0-1.4,0-2.1,0c0-0.8,0-1.6,0-2.4c0.7,0,1.4,0,2.1,0c-0.1-1.1,0-2.1,0.2-3.2C122.9,6.7,123.5,5.8,124.4,5.3L124.4,5.3z"/>
	<path class="st2" d="M60.5,5.4c0.6-0.1,1.2,0.1,1.6,0.6c0.5,0.5,0.6,1.3,0.2,1.9c-0.4,0.7-1.2,1-2,0.8C59.6,8.6,59,7.9,59,7.1
		C59,6.3,59.7,5.5,60.5,5.4L60.5,5.4z"/>
	<path class="st2" d="M37.7,5.8H42c1.3,3.4,2.7,6.9,4.1,10.3c0.3,0.9,0.7,1.7,1,2.6c1.7-4.3,3.5-8.6,5.2-12.9c1.4,0,2.8,0,4.2,0
		c0,5.8,0,11.6,0,17.4c-1,0-2,0-3,0c0-4.3,0-8.6,0-12.8c0-0.2,0-0.4,0-0.6c-0.1,0.1-0.1,0.2-0.2,0.3c-1.7,4.4-3.5,8.7-5.2,13.1
		c-0.7,0-1.4,0-2.1,0c-1.8-4.4-3.5-8.8-5.3-13.2l-0.2-0.3c0,1.9,0,3.8,0,5.6c0,2.6,0,5.2,0,7.8h-2.8C37.7,17.4,37.7,11.6,37.7,5.8z"
		/>
	<path class="st2" d="M68.7,10.7c1.4-0.4,3-0.4,4.4,0c0.3,0.1,0.6,0.2,0.8,0.4c0,1,0,1.9,0,2.8c-1-0.8-2.2-1.1-3.4-1
		c-1,0.1-1.9,0.6-2.5,1.4c-0.7,1-1,2.2-0.8,3.4c0.1,1,0.5,1.8,1.2,2.5c0.8,0.6,1.8,0.9,2.8,0.8c1-0.1,1.9-0.5,2.7-1.1
		c0,0.9,0,1.8,0,2.7c-1.2,0.7-2.7,1-4.1,0.8c-1.4-0.1-2.8-0.6-3.9-1.6c-1.1-1.1-1.8-2.6-1.8-4.2c-0.1-1.6,0.3-3.3,1.2-4.6
		C66.2,11.9,67.4,11.1,68.7,10.7L68.7,10.7z"/>
	<path class="st2" d="M101.3,10.5c1.4-0.2,2.8-0.1,4.1,0.4c0,0.9,0,1.8,0,2.7c-0.9-0.6-2-1-3.1-0.9c-0.6,0-1.1,0.3-1.4,0.8
		c-0.2,0.5,0,1.2,0.4,1.5c0.8,0.6,1.9,0.8,2.7,1.3c0.7,0.4,1.3,0.9,1.7,1.6c0.7,1.4,0.4,3.1-0.8,4.2c-1.2,1-2.6,1.4-4.1,1.3
		c-1-0.1-2-0.3-3-0.7c0-1,0-1.9,0-2.9c0.8,0.6,1.7,1,2.7,1.2c0.7,0.1,1.4,0.1,2.1-0.2c0.6-0.3,0.7-1.1,0.4-1.6c0,0,0,0,0-0.1
		c-0.4-0.4-0.8-0.7-1.3-0.9c-0.9-0.3-1.8-0.8-2.6-1.3c-0.5-0.4-0.9-1-1.1-1.7c-0.3-1-0.1-2.1,0.4-3C99.1,11.3,100.2,10.7,101.3,10.5
		L101.3,10.5z"/>
	<path class="st2" d="M80.7,10.9c0.8-0.5,1.9-0.6,2.8-0.2c0,1,0,2,0,3c-0.6-0.4-1.3-0.5-2-0.5c-0.8,0.1-1.5,0.7-1.9,1.5
		c-0.3,0.8-0.5,1.7-0.4,2.6c0,2,0,4,0,6h-2.9c0-4.2,0-8.3,0-12.5c1,0,2,0,2.9,0c0,0.7,0,1.4,0,2.1C79.4,12.1,80,11.4,80.7,10.9
		L80.7,10.9z"/>
	<path class="st2" d="M59.3,10.7c1,0,2,0,3,0c0,4.1,0,8.3,0,12.5h-3C59.3,19,59.3,14.9,59.3,10.7L59.3,10.7z"/>
	<path class="st2" d="M95.8,13.6c-0.5-1.2-1.5-2.1-2.6-2.6c-1.3-0.6-2.8-0.7-4.3-0.5c-1.5,0.2-2.9,0.9-3.9,2.1
		c-0.8,1.1-1.3,2.4-1.4,3.8c-0.2,1.6,0.2,3.3,1.1,4.7c0.8,1.2,2.1,2,3.4,2.2c1.2,0.2,2.3,0.2,3.5,0c1.4-0.3,2.6-1,3.5-2.1
		c0.8-1.1,1.2-2.3,1.3-3.6C96.5,16.2,96.3,14.9,95.8,13.6z M92.9,19.3c-0.3,0.7-0.8,1.2-1.5,1.4c-0.8,0.3-1.6,0.3-2.4,0.1
		c-0.8-0.2-1.5-0.8-1.9-1.5c-0.4-1-0.6-2.1-0.5-3.1c0.1-1,0.5-1.9,1.1-2.6c0.6-0.5,1.3-0.8,2-0.8l0,0c0.9-0.1,1.8,0.2,2.5,0.8
		c0.6,0.7,1,1.6,1,2.6C93.4,17.3,93.3,18.4,92.9,19.3z"/>
	<path class="st2" d="M119.7,14c-0.5-1.3-1.4-2.3-2.6-2.9c-1.4-0.6-2.9-0.8-4.4-0.6l0.1,0c-1.2,0.1-2.4,0.6-3.3,1.4
		c-1.1,1-1.8,2.4-2,3.8c-0.2,1.5-0.1,3,0.5,4.3c0.6,1.3,1.7,2.4,3,2.9c1.3,0.5,2.8,0.6,4.2,0.4c1.4-0.2,2.8-1,3.7-2.1
		c0.9-1.2,1.4-2.7,1.3-4.2C120.2,16,120.1,15,119.7,14z M117,18.2c-0.1,0.7-0.4,1.3-0.8,1.8c-0.4,0.5-1.1,0.8-1.7,0.9
		c-0.7,0.1-1.5,0-2.1-0.2c-0.7-0.3-1.3-0.9-1.6-1.7c-0.3-0.9-0.4-1.8-0.3-2.7c0-0.9,0.3-1.8,0.9-2.5c0.6-0.6,1.3-1,2.2-1l0-0.1
		c0.9-0.1,1.7,0.2,2.4,0.7c0.6,0.5,1,1.2,1.1,2C117.2,16.5,117.2,17.4,117,18.2z"/>
	<path class="st3" d="M0,15.2h13.8c0,4.6,0,9.2,0,13.8H0V15.2z"/>
	<path class="st4" d="M15.2,15.2H29V29H15.2C15.2,24.4,15.2,19.8,15.2,15.2z"/>
</g>
</svg>
