<?xml version="1.0" encoding="utf-8"?>
<!-- Generator: Adobe Illustrator 22.0.1, SVG Export Plug-In . SVG Version: 6.00 Build 0)  -->
<svg version="1.1" id="Layer_1" xmlns="http://www.w3.org/2000/svg" xmlns:xlink="http://www.w3.org/1999/xlink" x="0px" y="0px"
	 viewBox="0 0 176.5 83.5" style="enable-background:new 0 0 176.5 83.5;" xml:space="preserve">
<style type="text/css">
	.st0{fill:#EE4023;}
</style>
<polygon points="0,66.7 0,8.1 12.3,8.1 28,42.8 28.1,42.8 28.1,8.1 38.4,8.1 38.4,66.7 27.6,66.7 10.4,28.9 10.2,28.9 10.2,66.7 "/>
<polygon class="st0" points="57.7,66.7 57.7,8.1 70,8.1 85.7,42.8 85.9,42.8 85.9,8.1 96.1,8.1 96.1,66.7 85.4,66.7 68.1,28.9 
	68,28.9 68,66.7 "/>
<path d="M162,38.8c0,5.4-2.4,8.1-7.3,8.1c-5.1,0-7.8-2.7-7.8-7.9c0-5.6,2.6-8.2,7.6-8.2C159.9,30.9,162,33.3,162,38.8z M167,27.8
	c-4.9,0-6.2-2.3-12.3-2.3c-8.8,0-14.9,5.6-14.9,13.7c0,5.4,3.7,10,9.1,11.7c-5.5,1.7-7.3,3.6-7.3,6.9c0,3.7,2.9,5.9,7.6,5.9
	c1.3,0,4.6-0.1,6.2-0.1c4,0,6.4,0.4,7.9,1.5c1.5,1,2.2,2.7,2.2,4.9c0,5-3.6,7.1-9.8,7.1c-3.2,0-6.2-0.7-8.2-1.9
	c-1.5-0.9-2.3-2.6-2.3-4.7c0-1.3,0.6-2.8,1.1-3.7l-6.7,0.6c-0.6,1.6-0.8,2.8-0.8,4.3c0,5.8,4.9,10.3,17.5,10.3
	c9.8,0,16.1-3.9,16.1-12.7c0-3.5-1.3-6.4-4.5-8.6c-2.4-1.7-5-2.3-9.7-2.3h-6.5c-2,0-3.2-0.7-3.2-1.9c0-1.4,1.9-2.7,7.3-4.7
	c2.9,0,5.5-0.5,7.5-1.8c3.7-2.3,6-6.6,6-11.1c0-2.6-0.8-4.9-2.4-6.9c0.7,0.3,1.7,0.5,2.8,0.5c2.4,0,4.3-0.6,6.8-2.4l-3.9-3.9
	C170.7,27.3,169.1,27.8,167,27.8z"/>
<g>
	<path d="M109.9,83.5c-0.2,0-0.4,0-0.6-0.1c-1-0.3-1.6-1.5-1.3-2.5l25.9-79.5c0.3-1,1.5-1.6,2.5-1.3c1,0.3,1.6,1.5,1.3,2.5
		l-25.9,79.5C111.5,82.9,110.7,83.5,109.9,83.5z"/>
</g>
</svg>
