<?xml version="1.0" encoding="utf-8"?>
<!-- Generator: Adobe Illustrator 24.3.0, SVG Export Plug-In . SVG Version: 6.00 Build 0)  -->
<svg version="1.1" id="Layer_1" xmlns="http://www.w3.org/2000/svg" xmlns:xlink="http://www.w3.org/1999/xlink" x="0px" y="0px"
	 viewBox="0 0 48 31" style="enable-background:new 0 0 48 31;" xml:space="preserve">
<style type="text/css">
	.st0{fill:#084593;}
	.st1{fill:#0556AB;}
	.st2{fill:#18B0FF;}
	.st3{fill:#2CCEFF;}
</style>
<path class="st0" d="M24.5,0C16.5,0,10,6.5,10,14.5S16.5,29,24.5,29S39,22.5,39,14.5S32.5,0,24.5,0L24.5,0z"/>
<path class="st1" d="M16.2,8c-1.3-0.5-2.8-0.8-4.2-0.8C5.3,7.2,0,12.5,0,19.1c0,2.5,0.8,4.8,2,6.7c0.1,0,16.4-6.9,26.4-10.9
	C23,11.6,17.9,8.6,16.2,8z"/>
<path class="st2" d="M48,21.4c0-5.3-4.3-9.6-9.6-9.6c-1,0-2,0.2-2.9,0.4c-1,0.3-3.7,1.3-7.1,2.7c8.4,5.1,17.8,11,18.3,11.3
	C47.5,24.8,48,23.1,48,21.4z"/>
<path class="st3" d="M46.7,26.2c-0.5-0.3-9.9-6.2-18.3-11.3c-10,4-26.3,10.9-26.4,10.9c0.4,0.6,3.6,5.2,9.9,5.2c5,0,16.2,0,26.4,0
	C43.7,31,46.1,27.1,46.7,26.2z"/>
</svg>
