<svg id="Layer_1" data-name="Layer 1" xmlns="http://www.w3.org/2000/svg" viewBox="0 0 143.1 24"><defs><style>.cls-1{fill:#fff;}</style></defs><title>Untitled-2</title><path id="path4256" class="cls-1" d="M16.13,24.35c-2.45-.61-3.82-2.56-3.83-5.46a4.71,4.71,0,0,1,.3-2,5.27,5.27,0,0,1,4-3c1-.2,1.28-.42,1.28-.92a4.85,4.85,0,0,1,.26-1,7.24,7.24,0,0,1,3.13-4.1A6.54,6.54,0,0,1,25,7.08,6,6,0,0,1,30,9.29l.89.93.79-.27c3.84-1.33,7.67.93,8,4.71l.08,1,.76.27a4.27,4.27,0,0,1,3,4.79,4.08,4.08,0,0,1-2,3.43l-.54.29-12.09,0c-9.29,0-12.24,0-12.75-.14Z" transform="translate(-2.98 -0.5)"/><path id="path4248" class="cls-1" d="M7.07,22.68a6,6,0,0,1-3.66-3.05A3.87,3.87,0,0,1,3,17.23a4.12,4.12,0,0,1,.36-2.29A5.35,5.35,0,0,1,6.94,12a1.73,1.73,0,0,0,.72-.31,3.86,3.86,0,0,0,.13-1,6.82,6.82,0,0,1,4.66-6.26,7.46,7.46,0,0,1,4.79.29c.49.2.44.24,1.48-1.13a9.56,9.56,0,0,1,2.89-2.33A7.72,7.72,0,0,1,25.23.5a8.76,8.76,0,0,1,8.36,6.07c.39,1.17.37,1.5-.09,1.51a8.1,8.1,0,0,0-1.28.25l-.91.24-.83-.83A8.24,8.24,0,0,0,21,6.47a7.84,7.84,0,0,0-3.14,2.77,9.83,9.83,0,0,0-1.28,2.85c0,.28-.23.42-1.2.74A6.38,6.38,0,0,0,10.62,19a7.76,7.76,0,0,0,.65,3.11c.14.28.22.55.18.59a27.13,27.13,0,0,1-4.39,0Z" transform="translate(-2.98 -0.5)"/><g id="text3027"><path id="path3010" class="cls-1" d="M57.07,22a7.35,7.35,0,0,1-5.7-2.35,8.7,8.7,0,0,1-2.14-6.11,9.22,9.22,0,0,1,2.18-6.45,7.63,7.63,0,0,1,5.94-2.41A7.18,7.18,0,0,1,62.94,7a8.74,8.74,0,0,1,2.12,6.11,9.25,9.25,0,0,1-2.17,6.48A7.48,7.48,0,0,1,57.07,22Zm.14-15.53a5.4,5.4,0,0,0-4.29,1.9,7.37,7.37,0,0,0-1.65,5,7.42,7.42,0,0,0,1.61,5,5.24,5.24,0,0,0,4.19,1.89,5.5,5.5,0,0,0,4.34-1.8,7.35,7.35,0,0,0,1.59-5,7.68,7.68,0,0,0-1.54-5.13A5.28,5.28,0,0,0,57.21,6.46Z" transform="translate(-2.98 -0.5)"/><path id="path3012" class="cls-1" d="M78,21.7H76.11V14.89q0-3.81-2.78-3.81A3,3,0,0,0,71,12.16,4,4,0,0,0,70,14.89V21.7H68.1v-12H70v2h0A4.32,4.32,0,0,1,74,9.47a3.66,3.66,0,0,1,3,1.27,5.64,5.64,0,0,1,1,3.66Z" transform="translate(-2.98 -0.5)"/><path id="path3014" class="cls-1" d="M91.25,16.21H82.81a4.47,4.47,0,0,0,1.07,3.08,3.7,3.7,0,0,0,2.83,1.09A5.87,5.87,0,0,0,90.42,19v1.8A6.94,6.94,0,0,1,86.25,22a5.05,5.05,0,0,1-4-1.63,6.67,6.67,0,0,1-1.45-4.58,6.54,6.54,0,0,1,1.58-4.55,5.07,5.07,0,0,1,3.93-1.76A4.5,4.5,0,0,1,90,11a6.33,6.33,0,0,1,1.28,4.22Zm-2-1.62a3.9,3.9,0,0,0-.8-2.58,2.73,2.73,0,0,0-2.19-.92A3.09,3.09,0,0,0,84,12a4.4,4.4,0,0,0-1.17,2.53Z" transform="translate(-2.98 -0.5)"/><path id="path3016" class="cls-1" d="M94.41,21.7V5H99q8.85,0,8.85,8.16a8.22,8.22,0,0,1-2.46,6.23,9.12,9.12,0,0,1-6.58,2.35Zm2-15V19.93h2.5A7.09,7.09,0,0,0,104,18.17a6.61,6.61,0,0,0,1.83-5q0-6.43-6.84-6.43Z" transform="translate(-2.98 -0.5)"/><path id="path3018" class="cls-1" d="M117.16,11.69a2.34,2.34,0,0,0-1.45-.39,2.44,2.44,0,0,0-2,1.16,5.34,5.34,0,0,0-.82,3.15V21.7h-1.91v-12h1.91v2.46h0a4.17,4.17,0,0,1,1.25-2A2.85,2.85,0,0,1,116,9.54a3.13,3.13,0,0,1,1.14.16Z" transform="translate(-2.98 -0.5)"/><path id="path3020" class="cls-1" d="M120.22,6.71a1.21,1.21,0,0,1-.88-.35,1.18,1.18,0,0,1-.36-.89,1.23,1.23,0,0,1,1.24-1.25,1.24,1.24,0,0,1,.89.36,1.25,1.25,0,0,1,0,1.77A1.23,1.23,0,0,1,120.22,6.71Zm.93,15h-1.91v-12h1.91Z" transform="translate(-2.98 -0.5)"/><path id="path3022" class="cls-1" d="M134.43,9.75l-4.76,12h-1.88l-4.53-12h2.1l3,8.69a7.8,7.8,0,0,1,.42,1.67h0a7.89,7.89,0,0,1,.37-1.62l3.18-8.73Z" transform="translate(-2.98 -0.5)"/><path id="path3024" class="cls-1" d="M146.08,16.21h-8.44a4.47,4.47,0,0,0,1.07,3.08,3.7,3.7,0,0,0,2.83,1.09A5.87,5.87,0,0,0,145.25,19v1.8A6.94,6.94,0,0,1,141.08,22a5.05,5.05,0,0,1-4-1.63,6.67,6.67,0,0,1-1.45-4.58,6.54,6.54,0,0,1,1.58-4.55,5.07,5.07,0,0,1,3.93-1.76A4.5,4.5,0,0,1,144.8,11a6.33,6.33,0,0,1,1.28,4.22Zm-2-1.62a3.9,3.9,0,0,0-.8-2.58,2.73,2.73,0,0,0-2.19-.92,3.09,3.09,0,0,0-2.3,1,4.4,4.4,0,0,0-1.17,2.53Z" transform="translate(-2.98 -0.5)"/></g></svg>