<?xml version="1.0" encoding="utf-8"?>
<!-- Generator: Adobe Illustrator 24.3.0, SVG Export Plug-In . SVG Version: 6.00 Build 0)  -->
<svg version="1.1" id="Layer_1" xmlns="http://www.w3.org/2000/svg" xmlns:xlink="http://www.w3.org/1999/xlink" x="0px" y="0px"
	 viewBox="0 0 120 108" style="enable-background:new 0 0 120 108;" xml:space="preserve">
<style type="text/css">
	.st0{fill:#1A237E;}
	.st1{fill:#0C4999;}
	.st2{fill:#0F73D9;}
	.st3{fill:#0F439D;}
	.st4{fill:#2ECDFD;}
	.st5{fill:#1C5FB0;}
	.st6{fill:#1467C7;}
	.st7{fill:#1690D5;}
	.st8{fill:#1BB4FF;}
	.st9{fill:#074DAF;}
	.st10{fill:#2076D4;}
	.st11{fill:#2ED0FF;}
	.st12{fill:#139FE2;}
	.st13{fill:#00488D;}
	.st14{fill:#FFFFFF;}
</style>
<path class="st0" d="M118.8,53.3L97.3,40.7v34.8H120V55.3C120,54.5,119.5,53.7,118.8,53.3z"/>
<path class="st1" d="M89.8,8.5h27.1V5.2c0-2.9-2.3-5.2-5.2-5.2H41c-2.9,0-5.2,2.3-5.2,5.2v3.3h27H89.8z"/>
<path class="st2" d="M89.8,82.6h21.9c2.9,0,5.2-2.3,5.2-5.2V56.9H89.8V82.6z"/>
<path class="st3" d="M35.8,56.9v20.5c0,2.9,2.3,5.2,5.2,5.2h21.8V56.9L35.8,56.9L35.8,56.9z"/>
<path class="st4" d="M89.8,8.5h27.1v24.1H89.8V8.5z"/>
<path class="st5" d="M35.8,8.5h27v24.1h-27V8.5z"/>
<path class="st6" d="M62.8,56.9h26.9v25.7H62.8V56.9z"/>
<path class="st7" d="M62.8,8.5h26.9v24.1H62.8V8.5z"/>
<path class="st8" d="M89.8,32.6h27.1v24.3H89.8V32.6z"/>
<path class="st9" d="M35.8,32.6h27v24.3h-27V32.6z"/>
<path class="st10" d="M62.8,32.6h26.9v24.3H62.8V32.6z"/>
<path class="st11" d="M34.3,108c1.4,0,80.6,0,80.6,0c2.8,0,5.1-2.3,5.1-5.1V55.3c0,0-0.1,2-5.3,4.9c-3.9,2.2-82.5,46.5-82.5,46.5
	S32.9,108,34.3,108z"/>
<path class="st12" d="M114.8,108c-0.5,0-79.8,0-79.8,0c-2.8,0-5.1-2.3-5.1-5.1V57.2l88.1,49.7C117.4,107.5,116.4,108,114.8,108z"/>
<path class="st13" d="M55,84H5c-2.8,0-5-2.3-5-5V29c0-2.8,2.3-5,5-5H55c2.8,0,5,2.3,5,5V79C60,81.7,57.7,84,55,84z"/>
<path class="st14" d="M29.7,38.2c-9.4,0-15.1,7.2-15.1,16s5.6,16,15.1,16c9.4,0,15.1-7.2,15.1-16C44.8,45.4,39.1,38.2,29.7,38.2z
	 M29.7,64.8c-5.3,0-8.5-4.8-8.5-10.6s3.2-10.6,8.5-10.6s8.5,4.8,8.5,10.6S35.1,64.8,29.7,64.8z"/>
</svg>
