<svg id="Layer_1" data-name="Layer 1" xmlns="http://www.w3.org/2000/svg" viewBox="0 0 268.18 60"><defs><style>.cls-1{fill:#fff;fill-rule:evenodd;}</style></defs><title>power-bi</title><path class="cls-1" d="M1.68,25.09V6.83A9,9,0,0,1,2,4.25,5.82,5.82,0,0,1,4.2,1.09,6.12,6.12,0,0,1,7.84,0a9.75,9.75,0,0,1,2.77.44L53.29,13.15A5.81,5.81,0,0,1,57,16.29a9.46,9.46,0,0,1,.81,4.13V47h0a10.55,10.55,0,0,1-.56,3.84,6.09,6.09,0,0,1-1.62,2.5,5,5,0,0,1-3.19,1.25,8.23,8.23,0,0,1-3.16-.56h0l-3.35-1.32c-3-1.22-1.4-4.13,1-3.12L50.46,51h0a5,5,0,0,0,1.87.35,1.78,1.78,0,0,0,1.15-.43,2.85,2.85,0,0,0,.73-1.17,7.21,7.21,0,0,0,.36-2.65V20.42a6.35,6.35,0,0,0-.48-2.7,2.66,2.66,0,0,0-1.73-1.42L9.67,3.58a6.48,6.48,0,0,0-1.84-.3,2.91,2.91,0,0,0-1.72.47,2.62,2.62,0,0,0-.94,1.43A5.76,5.76,0,0,0,5,6.83V25c.11,3.91-3.36,3.7-3.29.11Zm34.47-4.89a3.93,3.93,0,0,0-3.92,3.92v32A3.93,3.93,0,0,0,36.15,60h0a3.93,3.93,0,0,0,3.92-3.92v-32a3.93,3.93,0,0,0-3.92-3.92ZM3.92,31.9A3.93,3.93,0,0,0,0,35.82v8.55a3.93,3.93,0,0,0,3.92,3.92h0a3.93,3.93,0,0,0,3.92-3.92V35.82A3.93,3.93,0,0,0,3.92,31.9Zm11-3.6A3.93,3.93,0,0,0,11,32.22V48A3.93,3.93,0,0,0,14.9,51.9h0A3.93,3.93,0,0,0,18.82,48V32.22A3.93,3.93,0,0,0,14.9,28.3ZM25.5,24.15a3.93,3.93,0,0,0-3.92,3.92v24A3.93,3.93,0,0,0,25.5,56h0a3.93,3.93,0,0,0,3.92-3.92v-24a3.93,3.93,0,0,0-3.92-3.92Z"/><path class="cls-1" d="M268.17,45.65l-.1-12.36V24.57l.06-13c0-2.74-2.62-2.76-2.56,0,.07,3.26.11,6.53.11,13.29v8.51l-.15,12.34c0,2.5,2.77,2.45,2.63,0ZM254.67,37c0,6.23-4.11,8.34-10.34,8.34-.87,0-2.5,0-3.92-.08-2.12-.08-1.76.22-1.76-1.88V30.48c0-1.8-.32-1.52,1.44-1.52h4.78c6.73,0,9.79,3,9.79,8Zm-2.06-18.12c0,5.67-4,7.84-8.67,7.84h-4c-1.63,0-1.26.13-1.26-1.62V13.59c0-1.76-.32-1.54,1.4-1.56,1.56,0,3.3,0,4.27,0,5.95,0,8.28,2.95,8.28,6.84Zm4.73,17.79c0-4.39-2.5-8.39-8.23-9.17a9.22,9.22,0,0,0,6.12-8.9c0-5.11-3.45-8.87-10.23-8.78l-7,.09c-1.68,0-1.86,0-1.84,2.19l.1,12.34v7.95l-.11,12c0,3,0,3.15,2.34,3.18l6.39.08c7.84.1,12.51-4.17,12.51-11ZM216.1,20a5.46,5.46,0,0,0-.87-.08c-2.61,0-5.82,1.9-8.15,6.12V21.86c0-2.21-2.48-2.27-2.46,0l.07,10.58v5.67l-.08,7.18c0,2.37,2.51,2.77,2.5,0l0-6.42V33.57a11.37,11.37,0,0,1,.67-4.61c1.36-3.9,4.12-6.65,6.76-6.65a7.25,7.25,0,0,1,1.24.09c2.36.42,2.4-2.06.35-2.4ZM194.37,32H178.21c.72-6.28,4.44-10,8.67-10a8.92,8.92,0,0,1,8.91,8.4c.13,1.66.12,1.63-1.41,1.63Zm4-.78a11.24,11.24,0,0,0-11.16-11.47c-6.89,0-11.72,6.74-11.72,15.63s6.18,12.82,12.24,12.82a15.74,15.74,0,0,0,8.18-2.31c1.41-.85,1.36-3.67-1.64-1.71a9.37,9.37,0,0,1-5.66,1.74c-5.45,0-10.52-3.3-10.52-11v-.89h18c1.57-.16,2.2.36,2.26-2.29q0-.27,0-.54Zm-29.23-8.68-6.07,21.08c-.26.91-.28,1-.57.06l-6.4-22c-.24-.86-.63-1.22-1-1.13-.37-.09-.76.26-1,1.13l-6.4,22c-.28,1-.31.85-.57-.06l-6.07-21.08c-1-3.38-3.38-2.45-2.56.2l6.74,21.77c1.12,3.61,3.42,3.8,4.43,0,1.74-6.56,3.5-12.56,5.24-19.09.15-.55.26-.43.39,0C157,32,158.8,38,160.53,44.55c1,3.79,3.31,3.6,4.43,0l6.74-21.77c.82-2.65-1.59-3.58-2.56-.2ZM131.5,34.41c0,7.23-4.39,11.51-10.12,11.51-5.5,0-10.23-3.95-10.23-11.45s4.95-12.57,10.34-12.57,10,4.56,10,12.51Zm2.5-.17c0-8.67-4.95-14.46-12.12-14.46-7.51,0-13.18,5.9-13.18,15C108.7,43,114,48.14,121,48.14c7.28,0,13-5.23,13-13.9Zm-30.75-14c0,5.11-2.95,9.79-10.4,9.79H87.79V13.48c0-1.27-.08-1.47,1.13-1.49l4.48,0c5.95-.06,9.84,2.22,9.84,8.34Zm2.45-.28c0-8.17-5.84-10.4-11.79-10.29l-7,.14c-1.67,0-1.74.16-1.72,1.74L85.34,22V34.57l-.17,10.66c0,2.55,2.74,2.79,2.72-.07l-.1-12.86h5.28C102,32.3,105.69,25.68,105.69,20Z"/></svg>