<?xml version="1.0" encoding="utf-8"?>
<!-- Generator: Adobe Illustrator 22.0.1, SVG Export Plug-In . SVG Version: 6.00 Build 0)  -->
<svg version="1.1" id="Layer_1" xmlns="http://www.w3.org/2000/svg" xmlns:xlink="http://www.w3.org/1999/xlink" x="0px" y="0px"
	 viewBox="0 0 213 82.9" style="enable-background:new 0 0 213 82.9;" xml:space="preserve">
<style type="text/css">
	.st0{fill:#003D79;}
</style>
<g>
	<path class="st0" d="M69.6,0H0v69.6h40.1V42.2c0-5.2-1.2-7.6-1.2-7.6l5.6-1.5c0,0,1.4,2.8,1.1,5.8c2.6-3.6,6.4-5.9,10-5.9
		c0.8,0,1.6,0.2,1.6,0.2c0.9,0.2,2.6,1.2,2.6,1.2l-4.6,5c-0.4-0.1-1-0.3-1.6-0.3c-2.2,0-4.3,0.9-5.9,2.6c-1.6,1.6-2.1,2.7-2.1,5.7
		v22.3h24V0z"/>
	<path class="st0" d="M93.2,51.4c-9,0-12.2,3.1-12.2,8.5c0,4.2,2.1,6.5,6.2,6.5c3.7,0,7-2.2,8.7-5.6l0.2-9.3
		C95,51.5,94.2,51.4,93.2,51.4 M101.3,71c-2.4-0.8-4.2-2.7-4.9-5.2c-3.4,3.4-6.2,4.8-10.3,4.8c-8.8,0-11.4-5.4-11.4-10.2
		c0-8.1,6.9-12.8,18.9-12.8c1.5,0,2.5,0.1,2.5,0.1v-2.5c0-3.2-0.1-4.4-1.1-5.6c-1.1-1.3-2.6-1.9-4.8-1.9c-4,0-9.1,2.1-11.4,4.2
		l-2.8-4c4.7-3.1,9.8-4.8,15-4.8c4.9,0,8.4,1.9,9.9,5.6c0.8,1.9,0.9,4.7,0.8,7.9l-0.3,11.7c-0.1,5.8,0.2,7.3,2.9,8.7L101.3,71z"/>
	<path class="st0" d="M124.9,37.9c-4.4,0-6.7,2.4-6.7,7.4c0,4.6,2.4,7.1,6.9,7.1c4.3,0,6.4-2.5,6.4-7.3
		C131.5,40.2,129.6,37.9,124.9,37.9 M120.4,66.2c-0.9,0.7-2.7,3.3-2.7,3.3c0,0,0,0,0,0.1c-0.5,0.8-1,2-1,3.2c0,1.9,0.8,3.4,2.1,4.1
		c1.7,1,4.4,1.6,7.2,1.6c5.5,0,8.7-1.8,8.7-6.2c0-1.9-0.6-3.4-1.9-4.3c-1.4-0.9-3.5-1.3-7-1.3c-1.4,0-4.4,0.1-5.5,0.1
		c-4.2,0-6.7-1.9-6.7-5.2c0-2.9,1.6-4.6,6.4-6.1c-4.8-1.5-8-5.6-8-10.3c0-7.2,5.4-12,13.2-12c5.4,0,6.5,2,10.9,2
		c1.9,0,3.2-0.4,4.9-1.6l3.4,3.4c-2.2,1.6-3.9,2.1-6,2.1c-0.9,0-1.8-0.1-2.4-0.4c1.4,1.8,2.1,3.8,2.1,6.1c0,4-2,7.7-5.3,9.8
		c-1.8,1.1-4.1,1.6-6.7,1.6c-4.8,1.7-6.4,2.9-6.4,4.2c0,1.1,1.1,1.7,2.9,1.7h5.7c4.1,0,6.4,0.5,8.6,2c2.8,1.9,3.9,4.4,3.9,7.5
		c0,7.7-5.5,11.2-14.2,11.2c-11.2,0-15.5-4-15.5-9.1c0-1.2,0.2-2.3,0.6-3.6c0,0,0-0.1,0-0.1c1.1-3.3,5.3-7.5,5.3-7.5"/>
	<path class="st0" d="M165.6,51.4c-9,0-12.2,3.1-12.2,8.5c0,4.2,2.1,6.5,6.2,6.5c3.6,0,7-2.2,8.7-5.6l0.2-9.3
		C167.5,51.5,166.6,51.4,165.6,51.4 M173.8,71c-2.4-0.8-4.2-2.7-4.9-5.2c-3.4,3.4-6.2,4.8-10.3,4.8c-8.8,0-11.4-5.4-11.4-10.2
		c0-8.1,6.9-12.8,18.9-12.8c1.5,0,2.5,0.1,2.5,0.1v-2.5c0-3.2-0.1-4.4-1.1-5.6c-1.1-1.3-2.6-1.9-4.8-1.9c-4,0-9.1,2.1-11.4,4.2
		l-2.8-4c4.7-3.1,9.8-4.8,15-4.8c4.9,0,8.4,1.9,9.9,5.6c0.8,1.9,0.9,4.7,0.8,7.9l-0.3,11.7c-0.1,5.8,0.2,7.3,2.9,8.7L173.8,71z"/>
	<path class="st0" d="M207.3,69.6V45.5c0-3.8-0.3-4.7-1.3-5.9c-0.8-0.9-2.3-1.5-3.9-1.5c-2.9,0-7.3,2.3-9.9,5v26.5h-5.4V42.2
		c0-5.1-1.4-7.5-1.4-7.5l5.4-1.5c0,0,1.3,2.6,1.3,5.6c3.7-3.7,7.4-5.5,11.2-5.5c3.9,0,7.3,2.1,8.7,5.2c0.6,1.3,0.9,2.7,0.9,4.1v27
		H207.3z"/>
</g>
</svg>
