<?xml version="1.0" encoding="utf-8"?>
<!-- Generator: Adobe Illustrator 24.3.0, SVG Export Plug-In . SVG Version: 6.00 Build 0)  -->
<svg version="1.1" id="Layer_1" xmlns="http://www.w3.org/2000/svg" xmlns:xlink="http://www.w3.org/1999/xlink" x="0px" y="0px"
	 viewBox="0 0 40 40" style="enable-background:new 0 0 40 40;" xml:space="preserve">
<style type="text/css">
	.st0{fill:#13504F;}
	.st1{fill:#13A3A9;}
	.st2{fill:#1DDAEA;}
	.st3{fill:#027178;}
	.st4{fill:#FFFFFF;}
</style>
<path class="st0" d="M19,0C12.4,0,7,5.4,7,12s5.4,12,12,12s12-5.4,12-12S25.6,0,19,0z"/>
<path class="st1" d="M29.5,12C23.7,12,19,16.7,19,22.5S23.7,33,29.5,33S40,28.3,40,22.5S35.3,12,29.5,12z"/>
<path class="st2" d="M20,24c-4.4,0-8,3.6-8,8s3.6,8,8,8s8-3.6,8-8S24.4,24,20,24z"/>
<path class="st3" d="M18.3,30H1.7C0.8,30,0,29.2,0,28.3V11.7C0,10.8,0.8,10,1.7,10h16.6c0.9,0,1.7,0.8,1.7,1.7v16.6
	C20,29.2,19.2,30,18.3,30z"/>
<path class="st4" d="M6.4,24.8v-2.3c0.4,0.3,2.4,1,2.9,1c0.3,0,2.1,0.1,2.1-1c0-1.6-5.1-1.5-5.1-4.7c0-0.5,0.1-3.1,4.1-3.1
	c1,0,2.3,0.3,2.6,0.4v2.1c-0.2-0.1-0.9-0.7-2.5-0.7c-1.9,0-2,0.9-2,1c0,1.4,5,1.5,5,4.7c0,3.2-3.6,3.1-4.2,3.1
	C8.9,25.3,6.8,24.9,6.4,24.8z"/>
</svg>
