<?xml version="1.0" encoding="utf-8"?>
<!-- Generator: Adobe Illustrator 23.0.4, SVG Export Plug-In . SVG Version: 6.00 Build 0)  -->
<svg version="1.1" id="Layer_1" xmlns="http://www.w3.org/2000/svg" xmlns:xlink="http://www.w3.org/1999/xlink" x="0px" y="0px"
	 viewBox="0 0 115.4 106.9" style="enable-background:new 0 0 115.4 106.9;" xml:space="preserve">
<style type="text/css">
	.st0{fill:none;stroke:#FFFFFF;stroke-width:1.75;stroke-miterlimit:40;}
	.st1{fill:#DD1D21;}
	.st2{fill:#FBCE07;}
</style>
<g>
	<path class="st0" d="M51,103.2H22.2l-2.7-21.4L2,69.1c-0.8-3.7-1.1-7.5-1.1-11.4c0-31.4,25.5-56.8,56.8-56.8
		c31.4,0,56.8,25.5,56.8,56.8c0,3.8-0.4,7.6-1.1,11.4L95.9,81.8l-2.7,21.4H64.4l-1.7,1.2c-1.5,1.1-3.2,1.6-5,1.6s-3.6-0.6-5-1.6
		L51,103.2z"/>
	<path class="st1" d="M51,103.2H22.2l-2.7-21.4L2,69.1c-0.8-3.7-1.1-7.5-1.1-11.4c0-31.4,25.5-56.8,56.8-56.8
		c31.4,0,56.8,25.5,56.8,56.8c0,3.8-0.4,7.6-1.1,11.4L95.9,81.8l-2.7,21.4H64.4l-1.7,1.2c-1.5,1.1-3.2,1.6-5,1.6s-3.6-0.6-5-1.6
		L51,103.2z"/>
	<path class="st2" d="M51.9,93.2H31l-2.1-16.9L11.6,63.7c-0.5-2-0.8-4-0.8-6c0-3.4,0.7-6.7,2.1-9.8l30.6,30.9L13.8,42.1
		c1.2-4.8,3.8-9,7.4-12.3l26.6,46L24.2,25.4c3.1-4.1,7.3-7.1,12.2-8.6l16.3,57.1L40.8,14.5c3.6-2,7.7-3.1,11.9-3.1
		c0.9,0,1.8,0,2.6,0.1l2.4,61.8l2.4-61.8c0.9-0.1,1.8-0.1,2.6-0.1c4.2,0,8.2,1.1,11.9,3.1L62.7,73.9l16.3-57
		c4.9,1.5,9.1,4.5,12.2,8.6L67.6,75.8l26.6-46c3.7,3.3,6.3,7.5,7.4,12.3L71.9,78.8l30.6-30.9c1.4,3.1,2.1,6.5,2.1,9.8
		c0,2-0.3,4.1-0.8,6L86.6,76.3l-2.1,16.9h-21l-3.1,2.3c-0.8,0.6-1.7,0.9-2.7,0.9s-1.9-0.3-2.7-0.9L51.9,93.2z"/>
</g>
</svg>
