<?xml version="1.0" encoding="utf-8"?>
<!-- Generator: Adobe Illustrator 24.1.2, SVG Export Plug-In . SVG Version: 6.00 Build 0)  -->
<svg version="1.1" id="Layer_1" xmlns="http://www.w3.org/2000/svg" xmlns:xlink="http://www.w3.org/1999/xlink" x="0px" y="0px"
	 viewBox="0 0 373.88 99.28" style="enable-background:new 0 0 373.88 99.28;" xml:space="preserve">
<style type="text/css">
	.st0{fill:#221F20;}
</style>
<path class="st0" d="M42.62,92.05c-3.83-0.33-6.75-1.38-7.59-1.69c14.88-0.8,26.07-11.74,28.58-24.57c0.87,1.96,1.54,5.67,1.24,9.05
	C63.85,86.26,53.85,93.03,42.62,92.05z M74.9,33.15c-0.91-0.73-3.29-2.62-5.09-4.06C63.2,23.83,58,20.5,58.45,15.34
	c0.28-3.25,3.13-5.46,6.47-5.16c6.31,0.55,13.11,6.85,13.11,6.85c10.33,9.01,15.91,22.56,14.7,36.38
	c-0.46,5.28-1.79,9.34-2.54,11.29C90.73,58.38,88.38,43.88,74.9,33.15z M53.97,0.19C26.66-2.2,2.58,18,0.19,45.31
	C-2.2,72.63,18,96.69,45.32,99.08c27.31,2.39,51.39-17.81,53.78-45.13C101.49,26.65,81.28,2.58,53.97,0.19z M12.5,71.77
	c-4.57-7.69-6.75-16.73-5.95-25.9C8.63,22.15,28.26,6.88,48.53,6.4c-0.52,0.18-5.78,3.05-6.45,10.7
	c-0.63,7.19,3.83,13.73,7.38,20.06c0.91,1.63,1.75,3.14,2.84,5.05c2.91,5.16,6.05,12.12,5.4,19.6
	c-1.18,13.51-13.1,23.22-26.29,22.07C19.99,82.87,14.96,75.9,12.5,71.77z M267.24,71.05c0,2.5-1.52,4.72-4.83,4.72
	c-3.19,0-4.79-2.14-4.79-4.72c0-2.46,0-15.96,0-15.96c0-4.26-2.08-7.95-7.07-7.95c-3.6,0-6.25,2.16-8.28,3.68c0,0,0,17.73,0,20.23
	c0,2.5-1.52,4.72-4.83,4.72c-3.19,0-4.79-2.14-4.79-4.72c0-2.46,0-30.74,0-30.74h8.13l0.66,4.21c1.55-1.24,5.77-5.08,12.62-5.08
	c6.07,0,13.17,3.54,13.17,12.55C267.24,51.99,267.24,68.55,267.24,71.05z M176.51,65.89c0,2.04,1.47,3.18,3.21,3.18
	c2.98,0,3.85-2.46,6.16-2.46c2.04,0,3.04,1.46,3.04,3.08c0,3.2-3.84,6.08-10.91,6.08c-7.81,0-11.15-4.54-11.15-10.34V47.14h-6.36
	v-6.83h6.36v-8.07l9.65-2.57v10.64h12.65l-2.35,6.83h-10.3V65.89z M287.03,65.89c0,2.04,1.48,3.18,3.22,3.18
	c2.98,0,3.85-2.46,6.16-2.46c2.03,0,3.04,1.46,3.04,3.08c0,3.2-3.84,6.08-10.91,6.08c-7.81,0-11.15-4.54-11.15-10.34V47.14h-6.36
	v-6.83h6.36v-8.07l9.64-2.57v10.64h12.66l-2.35,6.83h-10.3V65.89z M122.82,67.4c0-2.15,1.62-3.62,3.63-3.62
	c3.29,0,5.58,4.58,13.73,4.58c4.96,0,8.62-2.14,8.62-5.94c0-3.31-2.58-5.14-6.75-7.07c-1.39-0.65-3.62-1.72-5.1-2.41
	c-5.69-2.65-11.25-6.37-11.25-13.66c0-7.13,6.24-13.08,17.35-13.08c8.03,0,12.84,2.23,13.79,2.72l-2.43,7.03
	c-1.29-0.58-5.96-2.33-11.05-2.33c-3.72,0-7.28,1.79-7.28,5.31c0,3.52,3.05,5.03,6.94,6.87c1.19,0.57,2.45,1.12,3.73,1.72
	c6.05,2.8,12.43,6.08,12.43,14.15c0,8.59-8.11,14.09-19.05,14.09C130.4,75.77,122.82,71.66,122.82,67.4z M360.64,75.77
	c-12.49,0-19.82-8.11-19.82-18.17c0-10.28,7.61-18.16,19.82-18.16c7.19,0,11.08,2.55,11.74,2.93l-2.16,6.26
	c-0.75-0.43-3.92-2.53-8.66-2.53c-7.02,0-10.84,5.11-10.84,11.49c0,6.3,3.82,11.49,10.45,11.49c4.89,0,6.95-3.19,9.46-3.19
	c2.01,0,3.27,1.55,3.27,3.29C373.88,72.55,367.8,75.77,360.64,75.77z M329.4,65.95c-2.67,0-4.51,3.14-9.39,3.14
	c-4.95,0-8.59-3.99-9.04-8.21h24.61v-2.05c0-11.52-6.34-19.39-17.11-19.39c-10.95,0-17.26,7.73-17.26,18.16
	c0,9.4,5.59,18.17,18.63,18.17c7.32,0,12.94-3.33,12.94-6.57C332.77,67.6,331.78,65.95,329.4,65.95z M318.31,46.1
	c5.77,0,7.4,4.85,7.4,8.68h-14.92C310.79,50.39,312.9,46.1,318.31,46.1z M224.1,65.01V53.47c0-8.38-5.11-14.04-16.5-14.04
	c-7.88,0-13.09,2.75-14.32,3.35l2.9,5.73c0.65-0.31,5.28-2.41,9.41-2.41c5.98,0,8.87,3.18,8.87,6.52V53l-5.99,0.22
	c-8.8,0.34-16.37,3.18-16.37,11.45c0,6.68,5.44,11.1,12.75,11.1c6.28,0,9.49-3.26,10.6-4.29c0.19,0.7,1.25,4.29,5.83,4.29
	c2.22,0,3.48-0.96,3.48-2.73C224.75,70.84,224.1,69.59,224.1,65.01z M214.46,66.53c-0.68,0.51-3.32,2.56-6.84,2.56
	c-3.53,0-5.72-2.1-5.72-5c0-3.21,2.67-4.84,7.94-5.07l4.61-0.15V66.53z"/>
</svg>
