<?xml version="1.0" encoding="utf-8"?>
<!-- Generator: Adobe Illustrator 24.3.0, SVG Export Plug-In . SVG Version: 6.00 Build 0)  -->
<svg version="1.1" id="Layer_1" xmlns="http://www.w3.org/2000/svg" xmlns:xlink="http://www.w3.org/1999/xlink" x="0px" y="0px"
	 viewBox="0 0 40 38" style="enable-background:new 0 0 40 38;" xml:space="preserve">
<style type="text/css">
	.st0{fill:#485BD5;}
	.st1{fill:#6D81FF;}
	.st2{fill:#5161CB;}
	.st3{fill:#3440A0;}
	.st4{fill:#2D399A;}
	.st5{fill:#FFFFFF;}
</style>
<path class="st0" d="M38,15H28v10c0,3.3,2.7,6,6,6s6-2.7,6-6v-8C40,15.9,39.1,15,38,15z"/>
<path class="st1" d="M11,15v12.7c0,5.3,4,10,9.3,10.3C26.2,38.4,31,33.7,31,28V17c0-1.1-0.9-2-2-2H11z"/>
<path class="st2" d="M21,0c-3.3,0-6,2.7-6,6s2.7,6,6,6s6-2.7,6-6S24.3,0,21,0z"/>
<path class="st3" d="M34,3c-2.2,0-4,1.8-4,4s1.8,4,4,4s4-1.8,4-4S36.2,3,34,3z"/>
<path class="st4" d="M18.3,29H1.7C0.8,29,0,28.2,0,27.3V10.7C0,9.8,0.8,9,1.7,9h16.6c0.9,0,1.7,0.8,1.7,1.7v16.6
	C20,28.2,19.2,29,18.3,29z"/>
<path class="st5" d="M14.1,14H5.9v1.7h3V24h2v-8.3h3V14z"/>
</svg>
