<?xml version="1.0" encoding="utf-8"?>
<!-- Generator: Adobe Illustrator 23.0.3, SVG Export Plug-In . SVG Version: 6.00 Build 0)  -->
<svg version="1.1" id="Layer_1" xmlns="http://www.w3.org/2000/svg" xmlns:xlink="http://www.w3.org/1999/xlink" x="0px" y="0px"
	 viewBox="0 0 626 618.9" style="enable-background:new 0 0 626 618.9;" xml:space="preserve">
<style type="text/css">
	.st0{fill:#FFFFFF;}
</style>
<g>
	<path class="st0" d="M0,555.6l365.7,63.3V0L0,63.3V555.6z M98.5,200.2l168.8-10.3v42.2l-63.3,2.8v184.7l-42.2-2.5V236.6l-63.3,2.5
		V200.2z"/>
	<path class="st0" d="M422.3,217.6c7.5,0.1,14.9-1.4,21.8-4.4c13.5-5.7,24.2-16.4,29.9-29.9c5.8-13.9,5.8-29.6,0-43.6
		c-5.7-13.5-16.4-24.2-29.9-29.9c-6.9-2.9-14.3-4.4-21.8-4.4c-7.4-0.1-14.8,1.4-21.6,4.4c-5.1,2.2-6.7,5-13.7,8.4v86.5
		c7,3.4,8.6,6.3,13.7,8.4C407.4,216.2,414.8,217.7,422.3,217.6z"/>
	<path class="st0" d="M626,399.1V288.4H513.5v168.8h28.1c9.7-0.1,19.3-0.9,28.8-2.7c9.5-1.7,18.7-4.9,27.3-9.5
		c8-4.4,15-10.5,20.3-17.9C623.6,418.9,626.4,409.1,626,399.1z"/>
	<path class="st0" d="M529.9,236.4c5.1,5.1,11.2,9.2,17.8,12c13.9,5.8,29.6,5.8,43.6,0c13.5-5.7,24.2-16.4,29.9-29.9
		c5.8-13.9,5.8-29.6,0-43.6c-5.7-13.5-16.4-24.2-29.9-29.9c-13.9-5.8-29.6-5.8-43.6,0c-13.5,5.7-24.2,16.4-29.9,29.9
		c-5.8,13.9-5.8,29.6,0,43.6C520.7,225.2,524.8,231.3,529.9,236.4z"/>
	<path class="st0" d="M492.5,253.2H386.9v248.6c7,1.5,9.6,2.7,14.6,3.4c5.5,0.8,11,1.2,16.5,1.2c8.5-0.1,17-0.9,25.4-2.7
		c8.5-1.7,16.6-4.9,24.1-9.4c7.3-4.5,13.4-10.6,17.9-17.8c5-8.4,7.4-18.2,7.1-28V253.2z"/>
</g>
</svg>
