<?xml version="1.0" encoding="utf-8"?>
<!-- Generator: Adobe Illustrator 22.1.0, SVG Export Plug-In . SVG Version: 6.00 Build 0)  -->
<svg version="1.1" id="Layer_1" xmlns="http://www.w3.org/2000/svg" xmlns:xlink="http://www.w3.org/1999/xlink" x="0px" y="0px"
	 viewBox="0 0 238.9 116" style="enable-background:new 0 0 238.9 116;" xml:space="preserve">
<style type="text/css">
	.st0{fill:#3EC8ED;}
	.st1{fill:#FFFFFF;}
</style>
<path class="st0" d="M137.5,12.2c0,6.7-5.4,12.2-12.2,12.2c-6.7,0-12.2-5.4-12.2-12.2c0-6.7,5.4-12.2,12.2-12.2
	C132,0,137.5,5.4,137.5,12.2z"/>
<g>
	<g>
		<path class="st1" d="M169.8,105.6c1.9-4.3,5.2-11.8,5.2-11.8c3.7,2.2,7.6,3.6,10.2,3.6c2.3,0,3.9-0.6,5.4-2.7l-26.1-65.3h24.5
			l13.3,40.1l11-35.3c0,0,1.3-4.8,5.9-4.8c2.7,0,19.6,0,19.6,0l-24.4,65c-5.8,15.5-12.1,21.7-25.3,21.7c-6.8,0-11.9-1.2-17.2-3.7
			C172,112.3,167.6,110.3,169.8,105.6z"/>
	</g>
	<path class="st1" d="M108.5,52.5c0,0,0,32.9,0,37.3c0,6.3-6.3,6.3-6.3,6.3H85.1V60c0-7.3-3.8-11.2-9.5-11.2c-5.5,0-9.6,3.9-9.7,11
		c0,0.1,0,0.2,0,0.2v29.8c0,6.2-6.3,6.3-6.3,6.3H42.6c0,0,0-3.6,0-9.1c-4.3,5.5-10.5,10.6-19.9,10.6C8.5,97.5,0,88.1,0,73
		c0,0,0-32.9,0-37.3c0-6.3,6.3-6.3,6.3-6.3h17.1v36.1c0,7.3,3.8,11.2,9.5,11.2c5.5,0,9.6-3.9,9.7-11c0-0.1,0-0.2,0-0.2V35.7
		c0-6.2,6.3-6.3,6.3-6.3h17.1v9.1C70.2,33,76.4,28,85.9,28C100,28,108.5,37.3,108.5,52.5z"/>
	<path class="st1" d="M113.8,72.9c0,0,0-32.9,0-37.3c0-6.3,6.3-6.3,6.3-6.3h17.1v23.1c0,0,0,32.9,0,37.3c0,6.3-6.3,6.3-6.3,6.3
		h-17.1V72.9z"/>
	<path class="st1" d="M142.7,49.7c0,0,0-32.9,0-37.3c0-6.3,6.3-6.3,6.3-6.3h17.1v23.1c0,0,0,56.2,0,60.6c0,6.3-6.3,6.3-6.3,6.3
		h-17.1V49.7z"/>
</g>
</svg>
