<svg xmlns="http://www.w3.org/2000/svg" width="96.672" height="47" viewBox="0 0 96.672 47">
  <g id="Group_32" data-name="Group 32" transform="translate(-400 -12)">
    <path id="Path_1" data-name="Path 1" d="M122.978,4.939A4.939,4.939,0,1,1,118.039,0,4.933,4.933,0,0,1,122.978,4.939Z" transform="translate(332.686 12)" fill="#3ec8ed"/>
    <g id="Group_1" data-name="Group 1" transform="translate(466.593 23.902)">
      <path id="Path_2" data-name="Path 2" d="M166.646,60.248c.769-1.741,2.105-4.777,2.105-4.777a9.236,9.236,0,0,0,4.129,1.457,2.368,2.368,0,0,0,2.186-1.093L164.5,29.4h9.918L179.8,45.633l4.453-14.29a2.633,2.633,0,0,1,2.388-1.943h7.935L184.7,55.714c-2.348,6.275-4.9,8.785-10.242,8.785A15.322,15.322,0,0,1,167.5,63,2.047,2.047,0,0,1,166.646,60.248Z" transform="translate(-164.5 -29.4)" fill="#112a3f"/>
    </g>
    <path id="Path_3" data-name="Path 3" d="M43.923,37.918v15.1a2.5,2.5,0,0,1-2.55,2.55H34.45V40.954c0-2.955-1.538-4.534-3.846-4.534-2.227,0-3.886,1.579-3.927,4.453V53.018a2.532,2.532,0,0,1-2.55,2.55H17.245V51.885a9.976,9.976,0,0,1-8.056,4.291C3.441,56.135,0,52.33,0,46.217v-15.1a2.5,2.5,0,0,1,2.55-2.55H9.473V43.181c0,2.955,1.538,4.534,3.846,4.534,2.227,0,3.886-1.579,3.927-4.453V31.117a2.532,2.532,0,0,1,2.55-2.55h6.922v3.684A9.826,9.826,0,0,1,34.774,28C40.482,28,43.923,31.765,43.923,37.918Z" transform="translate(400 -4.665)" fill="#112a3f"/>
    <path id="Path_4" data-name="Path 4" d="M113.8,46.95V31.85a2.5,2.5,0,0,1,2.55-2.55h6.922V53.751a2.5,2.5,0,0,1-2.55,2.55H113.8Z" transform="translate(332.269 -5.439)" fill="#112a3f"/>
    <g id="Group_31" data-name="Group 31">
      <path id="Path_5" data-name="Path 5" d="M142.7,23.75V8.65a2.5,2.5,0,0,1,2.55-2.55h6.923V39.984a2.5,2.5,0,0,1-2.55,2.55H142.7Z" transform="translate(315.068 8.369)" fill="#112a3f"/>
    </g>
  </g>
</svg>
