<?xml version="1.0" encoding="utf-8"?>
<!-- Generator: Adobe Illustrator 23.0.4, SVG Export Plug-In . SVG Version: 6.00 Build 0)  -->
<svg version="1.1" id="Layer_1" xmlns="http://www.w3.org/2000/svg" xmlns:xlink="http://www.w3.org/1999/xlink" x="0px" y="0px"
	 viewBox="0 0 413.3 154.8" style="enable-background:new 0 0 413.3 154.8;" xml:space="preserve">
<style type="text/css">
	.st0{fill:#112A3F;}
</style>
<g>
	<path class="st0" d="M252.2,125.2c-0.4-0.3-0.6-0.8-0.8-1.3c-0.2-0.5-0.2-1.1-0.2-1.8v-2c0-1.3-0.3-2.3-0.9-3.2
		c-0.6-0.8-1.5-1.4-2.8-1.8c1.2-0.4,2.1-1.1,2.7-1.9c0.6-0.9,1-1.9,1-3c0-1.9-0.6-3.4-1.8-4.4c-1.2-1-2.9-1.5-5.2-1.5h-7.2v21.1h1.7
		V116h5.9c1.5,0,2.7,0.4,3.5,1.1c0.8,0.8,1.3,1.8,1.3,3.1v1.9c0,0.7,0.1,1.3,0.2,2c0.1,0.6,0.4,1.1,0.8,1.5h1.8V125.2z M244,114.5
		h-5.2v-8.6h5.4c1.8,0,3.1,0.4,4,1.1c0.9,0.8,1.3,1.8,1.3,3.2c0,1.3-0.4,2.3-1.3,3.1C247.3,114.1,245.9,114.5,244,114.5z"/>
	<polygon class="st0" points="258.3,97.3 246.7,97.3 246.7,88.5 256.9,88.5 256.9,87 246.7,87 246.7,79.1 258.3,79.1 258.3,77.6 
		244.9,77.6 244.9,98.7 258.3,98.7 	"/>
	<path class="st0" d="M223.4,124.8c-0.5,0-0.6,0.5-0.4,0.9c0.2,0,0.4,0,0.6,0.1C223.3,125.7,223.4,125.2,223.4,124.8z"/>
	<path class="st0" d="M216.8,45.5c2.7,0,4.8-0.8,6.5-2.5c1.7-1.7,2.5-3.8,2.5-6.4v-3.8c0-2.6-0.8-4.7-2.5-6.4
		c-0.7-0.7-1.5-1.3-2.4-1.7c0,0-0.1,0-0.1,0.1c0,0,0-0.1,0-0.1c-1.2-0.5-2.4-0.8-3.9-0.8c-2.7,0-4.8,0.8-6.5,2.5
		c-1.7,1.7-2.5,3.8-2.5,6.4v3.8c0,2.6,0.8,4.8,2.5,6.4C212,44.7,214.1,45.5,216.8,45.5z M212.7,32.7c0-1.5,0.4-2.8,1.1-3.7
		c0.7-1,1.7-1.4,3-1.4c1.3,0,2.3,0.5,3,1.5c0.7,1,1.1,2.2,1.1,3.7v3.8c0,1.5-0.4,2.8-1.1,3.7c-0.7,1-1.7,1.5-3,1.5
		c-1.3,0-2.3-0.5-3.1-1.5c-0.7-1-1.1-2.2-1.1-3.7V32.7z M210.8,28.1c0.5-0.4,0.9-1,1.8-0.6c-0.5,0.7-1.4,0.7-1.4,2.2
		c-0.2-0.2-0.1-0.7-0.6-0.7C210.7,28.5,211.2,28.3,210.8,28.1z"/>
	<polygon class="st0" points="209.1,80.6 209.2,80.6 221.2,98.7 222.9,98.7 222.9,77.6 221.2,77.6 221.2,95.7 221.1,95.8 
		209.1,77.6 207.4,77.6 207.4,98.7 209.1,98.7 	"/>
	<path class="st0" d="M173.1,125.9c0,0.4,0.3,0.4,0.5,0.5v-1.2C173.4,125.3,173.2,125.6,173.1,125.9z"/>
	<path class="st0" d="M261,34.8c0-0.5-0.6-0.5-1.1-0.5v1.3C260.1,35.3,260.7,35.1,261,34.8z"/>
	<polygon class="st0" points="235.1,52.3 242.4,52.3 242.4,72 244.1,72 244.1,52.3 251.4,52.3 251.4,50.8 235.1,50.8 	"/>
	<path class="st0" d="M216.3,113.2v3.4c0,2.7,0.7,4.9,2.2,6.6c1,1.1,2.2,1.8,3.7,2.2c0.2-0.6,0.8-0.6,1.1-1.1
		c-0.1-0.1-0.1-0.2-0.2-0.2c-1.4-0.3-2.5-0.9-3.4-2c-1.1-1.4-1.7-3.3-1.7-5.6v-3.5c0-2.3,0.6-4.1,1.7-5.5c1.1-1.4,2.7-2.1,4.7-2.1
		c2.1,0,3.7,0.7,4.8,2.1c1.2,1.4,1.7,3.2,1.7,5.5v3.5c0,2.3-0.6,4.2-1.7,5.6c-0.4,0.4-0.8,0.8-1.2,1.1c0.1,0.1,0.1,0.2,0.2,0.3
		c0,0.5-0.6,0.2-1,0.2c-0.8,0.4-1.8,0.6-2.8,0.6c-0.2,0-0.5,0-0.7-0.1c-0.1,0.5-0.1,1,0,1.5c0.2,0,0.4,0.1,0.6,0.1
		c2.5,0,4.5-0.8,6-2.5c1.5-1.7,2.2-3.9,2.2-6.6v-3.4c0-2.7-0.7-4.9-2.3-6.6c-1.5-1.7-3.5-2.5-6-2.5c-2.5,0-4.5,0.8-5.9,2.5
		C217,108.3,216.3,110.5,216.3,113.2z"/>
	<path class="st0" d="M171.1,14c0.1,0.1,0.1,0.2,0.2,0.3c-0.1,0.1-0.1,0.1-0.2,0.2v84.3c0.2,0,0.3-0.2,0.6,0.2
		c-0.1,1.3-0.4,0.5-0.6,0.4v9.6c0.1-0.1,0.2-0.1,0.4-0.2c0,0,0,0,0,0c-0.7-0.8,1-1.2,0.3-1.8c0.1-0.9,0.5,0.8,0.6-0.6
		c0.2,0,0.3,0,0.5,0.1c0.1,0.3,0.2,0.5,0.1,1c-0.7,0-1.1,0.7-1.4,1.3c0,0,0,0,0,0c0,0,0,0,0,0c-0.1,0.3-0.2,0.5-0.4,0.7v2.8
		c0.1,0,0.2,0.1,0.3,0.1c-0.1,0.3-0.2,0.6-0.3,0.8v5.3c0.2,0.3,0.3,0.7,0.7,0.2c0.3,0.2,0.3,0.7,0.3,1.3c-0.2,0-0.1-0.4-0.2-0.6
		c-0.3,0.3-0.6,0.4-0.8,0.3v0.7c1-0.1,1.5,0.7,2.4,1.4c-0.1,0.4-0.5,0.4-0.6,0.8c-0.4,0.1-0.4-0.3-0.4-0.7c-0.5,0.8,0,1.4-1.2,1.4
		c0.1,0.4-0.1,0.8-0.2,1v0.8c0.1,0,0.1,0,0.2,0c-0.1,0.2-0.1,0.3-0.2,0.4v5.9c0,0,0,0.1,0,0.1v15.8h2.6v-8.2
		c-0.1,0.1-0.2,0.2-0.3,0.2c-0.6-0.6,0.2-1.2,0.3-2v-6.1c0-0.1-0.1-0.1-0.1-0.3c-0.2,0.2-0.2,1.3-0.7,1.8c-0.6-0.9,0.5-2.2,0.5-3.3
		c0.1,0,0.2,0,0.4,0.1V127c-0.5,0.1-0.7-0.1-1.4-0.3c0.2,1.2,0.6,2.2,0.7,3.5c-0.2,0.2-0.6,0.1-0.8,0.4c0.4-2-0.7-4.2-0.8-6.5
		c0.8-0.7,1.1,0.5,1.9,0.6c0.1-0.1,0.2-0.3,0.4-0.4V108c-0.1,0-0.2,0-0.4-0.1c0-0.4,0.2-0.7,0.4-0.8v-5c0,0,0,0,0-0.1c0,0,0,0,0,0
		V11.6c-0.1-0.1-0.1-0.4-0.1-0.6c-0.5,0-0.4,1.1-1.1,0.7c0.1-0.8,0.9-1.2,1.2-0.8V8.5c0,0-0.1,0-0.1,0c0-0.1,0.1-0.2,0.1-0.3V7.3
		h-2.6V14z M173.5,116.9c-0.2,0.2-0.3,0.5-0.4,0.9c-0.6,0-0.7-0.6-1.1-0.8c0-0.3,0.3-0.2,0.5-0.2c0-1-0.1-0.6,0.2-1.5
		C173.2,115.6,172.5,117,173.5,116.9z M172.1,12.3c-0.1,0.6,0.8,1.9,1,0.2c0.3,0.2,0.1,0.8,0,1.3c-0.2,0.2-0.7,0-0.8,0.5
		C172,13.7,171.5,12.9,172.1,12.3z M172.5,94.8c0.3,0.5,0.4,1.7-0.1,2.2c-0.1-0.4-0.9-1.4-1.1-0.8c-0.7,0.5,0.4-0.6,0.4-1.2
		C172,95.7,172.4,96.5,172.5,94.8z"/>
	<rect x="254.5" y="50.8" class="st0" width="1.7" height="21.1"/>
	<polygon class="st0" points="211.8,53.8 211.9,53.8 223.9,72 225.6,72 225.6,50.8 223.9,50.8 223.9,69 223.8,69 211.8,50.8 
		210,50.8 210,72 211.8,72 	"/>
	<path class="st0" d="M42.8,110.1C42.8,110.1,42.8,110.1,42.8,110.1l2.7-1.9c-0.4-0.1-0.7-0.3-0.8-0.5c0.5,0.1,0.9,0.2,1.2,0.2
		l6.2-4.5H49c0,0.2-0.1,0.5,0,0.7c-1.2-0.1-0.9,0.9-2.1,0.7c0-0.2,0.4-0.2,0.6-0.2c-0.6-0.8-0.9-0.1-1.8,0c0-0.4-0.4-0.5-0.3-1
		c0.4,0,0.5-0.1,0.8-0.2H32.4l-20.6,15c2,3.3,4.3,6.4,6.9,9.3l23.4-17C41.9,110.4,42.1,109.9,42.8,110.1z M44.6,104.5
		c0.1-0.6-1.2-0.2-0.9-1c1,0.2,1.3,0.9,2.2,1.2c-0.9,0.3-2,0.3-2.8-0.2C43.4,103.8,43.9,104.8,44.6,104.5z M31.4,114.6
		c0.6,0.6-0.7-0.3-1.2-0.2c0.7-0.4,1.4-0.9-0.3-0.7c0.4-0.4,1.6-0.7,2.1-0.2C31.7,113.6,30.8,114.5,31.4,114.6z M33.9,114.9
		c0.5-0.5-0.2-0.5,0.3-1c1.9-0.1-0.8,0.8,1.5,0.7C36.6,114.2,35,115.3,33.9,114.9z M37,111.5c0.1-0.6,0.9-0.7,0.9-1.4
		c1.1,0.3,1.1,0,2.2,0.2C38.5,110.3,38.2,111.3,37,111.5z"/>
	<path class="st0" d="M4.5,103.3c0.8,2.2,1.6,4.3,2.6,6.4l8.8-6.4H4.5z"/>
	<path class="st0" d="M52.1,52.2L18.3,27.5c-2.5,3-4.8,6.1-6.8,9.4l21,15.3H52.1z M37,48.2c0.1,1-1,0.2-1.5,0.2
		C35.6,47.7,36.3,48.1,37,48.2z"/>
	<path class="st0" d="M264.7,45.2v-7.1c-0.2-0.6-0.1-1.4-0.3-1.9c0.1,0,0.2,0.2,0.3,0.3v-3.7c-0.2,0.1-0.4,0.2-0.7,0.1
		c0.1-0.7,0.3-1.1,0.7-1.1v-5.7c-0.2-0.2-0.4-0.4-0.4,0c-0.5-0.6-0.2-0.8,0.1-1.6c0.1,0.1,0.2,0.3,0.3,0.4v-0.9h-1
		c-0.1,0.1-0.2,0.3-0.2,0.7c-0.2-0.1-0.2-0.4-0.2-0.7h-3.6v3.4c0,0,0,0,0.1,0c0,0.1,0,0.2-0.1,0.3v5.2c0.1-0.1,0.2-0.3,0.3-0.4
		c0.3,1.1,1.5,2.2,1.9,0.1c0.2,0.7,0.2,1.5,0.3,2.2c-0.3-0.2-0.4-0.5-0.3-1c-0.2,0.1-0.4,0.2-0.8,0.2c-0.3,0.6,1,1.3-0.2,1.2
		c0,0.4,0.4,0.3,0.7,0.4c-0.4,0.7-1.3,0.5-2,0.8v1.1l-0.1,0l-2.4-4.2c-0.2,0.3-0.7,0.1-0.9,0.7c-0.2-0.1,0-0.6-0.4-0.7
		c0.3-0.1,0.5-0.6,0.8-0.7l-2.9-5c0,0,0,0,0,0c0,0,0,0,0,0l-2-3.5h-4.9v21.1h4.9V31.8l0.1,0l7.7,13.5H264.7z M264.1,39.2
		c0.6,0.5-0.8,0.7-1.3,0.4c0.1-0.3,0-0.6-0.1-0.6C263.1,37.4,263.6,40,264.1,39.2z M263.2,26.8c0,0.9-0.5,0.7-0.5,1.5
		c-0.5,0.6,0.5-2.4-0.6-0.7C261.5,27,262.6,26.4,263.2,26.8z M261.2,27.1c0.3-0.5,0.3,0.4-0.1,0.3c-0.1,0.3,0.2,0.3,0.4,0.4
		c-0.1,0.5-0.2,1-0.3,1.5c-0.2,0-0.1-0.4-0.1-0.6c-0.5,0.6-0.5-0.5-0.8,0.2C260,28.5,261.1,27.6,261.2,27.1z M262.2,31
		c-0.4,0.2-0.6,0.7-0.9,1.1c-0.7-0.2-1.3-0.4-1-1.4c0.6,0.9,0.9-1.2,1.4,0.3c0.5-0.9-0.7-0.4-0.2-1.3c0.6,0.3,0.7,0.9,1,1.4
		C262.8,31.3,262.1,31.5,262.2,31z M261.7,41.2c-0.6-0.2-0.6-0.9-0.7-1.7C261.6,39.8,261.9,40.3,261.7,41.2z M249.5,28.3
		c0.1-0.8,0.5-0.9,0.8-1.4c0.3,0.1,0.1,0.6-0.1,0.6c0,0.4,0.4,0.1,0.5-0.2C251,27.5,250,28.4,249.5,28.3z"/>
	<path class="st0" d="M47.4,104.3c0.3-0.1,0.5-0.7,0.6-0.2c0.3-0.1,0.4-0.4,0.5-0.7h-2C46.3,104,47.5,103.7,47.4,104.3z"/>
	<path class="st0" d="M6.9,45.5c-1,2.2-1.9,4.4-2.7,6.6H16L6.9,45.5z"/>
	<path class="st0" d="M59.8,111v-0.7c-0.2,0.1-0.5,0.2-0.7,0.2c-0.1-0.1-0.1-0.1-0.2-0.2l-0.5,0.3c0,0,0,0,0,0.1
		C59,110.6,59.5,110.8,59.8,111z"/>
	<path class="st0" d="M50.5,116.5c0.3,0,0.6-0.1,0.9-0.2c-0.1-0.1-0.2-0.2-0.2-0.3L50.5,116.5z"/>
	<path class="st0" d="M49.9,117.3c0-0.1,0-0.2,0-0.3l-0.3,0.2C49.6,117.2,49.7,117.2,49.9,117.3z"/>
	<path class="st0" d="M66.4,95.2v0.4C66.5,95.4,66.5,95.3,66.4,95.2z"/>
	<path class="st0" d="M59.8,2c-13.2,3-25.1,9.5-34.8,18.4l34.8,25.4V2z"/>
	<path class="st0" d="M150.6,52.2c-0.8-2.3-1.6-4.5-2.6-6.6l-9.1,6.6H150.6z"/>
	<path class="st0" d="M244.1,30.4c0-2-0.7-3.5-2.2-4.6c-1.4-1.1-3.4-1.7-5.8-1.7H228v21.1h4.9v-8.1h3.4c1,0,1.8,0.3,2.3,0.8
		c0.5,0.5,0.8,1.3,0.8,2.3v0.6c0.2-0.5,0.6-1.1,0.2-1.2c1.2-0.7,0.2,1.3-0.2,2.2c0,0,0-0.1-0.1-0.1c0,0.6,0.1,1.3,0.2,2
		c0.1,0.8,0.4,1.3,0.8,1.6h5.1v-0.3c-0.4-0.3-0.7-0.8-0.9-1.5c-0.2-0.7-0.2-1.3-0.2-1.9v-1.3c0-1.3-0.3-2.3-0.9-3.2
		c-0.6-0.9-1.5-1.5-2.8-1.8c1.1-0.5,2-1.1,2.5-1.9S244.1,31.5,244.1,30.4z M238.5,32.6c-0.5,0.5-1.3,0.7-2.3,0.7H233v-5.5h3.2
		c1,0,1.7,0.3,2.3,0.8c0.5,0.5,0.8,1.2,0.8,2.1C239.3,31.5,239,32.2,238.5,32.6z M239.7,27c0.2,0.4,0.1,1.2-0.3,1.5
		c-0.8-0.4,0-1.3,0.3-1.8C240,26.8,239.8,27.1,239.7,27z"/>
	<path class="st0" d="M288.8,72.3c1.9,0,3.5-0.3,4.7-0.9c1.3-0.6,2.1-1.2,2.6-1.9v-7.5h-7.4v1.5h5.6v5.5c-0.4,0.5-1,0.9-2,1.3
		c-1,0.4-2.2,0.6-3.6,0.6c-2,0-3.6-0.7-4.8-2.1c-1.2-1.4-1.8-3.2-1.8-5.4v-3.9c0-2.1,0.6-3.9,1.7-5.3s2.7-2.1,4.6-2.1
		c1.8,0,3.2,0.4,4.1,1.3c0.9,0.9,1.5,2,1.8,3.4h1.6l0-0.1c-0.2-1.8-0.9-3.3-2.2-4.4c-1.3-1.1-3.1-1.7-5.3-1.7
		c-2.4,0-4.3,0.8-5.8,2.5c-1.5,1.6-2.2,3.8-2.2,6.4v3.9c0,2.7,0.8,4.8,2.4,6.5C284.3,71.4,286.3,72.3,288.8,72.3z"/>
	<path class="st0" d="M59.7,148.1c-0.9-0.2-0.6,0.7-1.5,0.5c-0.4-0.8,1-0.2,0.6-1c0.3,0.2,0.8,0.2,1,0.4v-36.5
		c-0.9-0.5-2,0.5-3.4,0.7l-0.4,0.3c0.1,0,0.2,0,0.3,0c-0.2,0.4-0.6,0.5-1.1,0.6l-2.6,1.9c0.8-0.1,1.7,0.1,1.9,0.9
		c-0.6,0.1-0.6-0.2-0.3-0.2c0-0.5-0.8,0.3-1.5,0c-0.1,0.6,1.7-0.2,1.2,0.7c-1.1,0.3-0.9-0.6-1.9-0.5c-0.3,0.1-0.2,0.5-0.6,0.5
		c0.3,0.3,0.8,0.5,1.2,0.7c0-0.6,0.7-0.5,0.9,0.5c-0.9-0.1-1.6,0.1-1.8,0.5c-0.4-0.1-0.5-0.4-0.9-0.5c0.1,1.2-0.3-0.2-1.5,0.5
		c-0.3,0-0.3-0.2-0.3-0.4l-23.5,17.1c9.6,8.7,21.4,15,34.4,18v-4.3C59.8,148.3,59.7,148.2,59.7,148.1z M38.2,126.7c0,0.3,0,0.6,0,1
		C37.1,127.9,36.8,126.3,38.2,126.7z M40,143.3c-1.1-0.2-1.3,0.4-1.8,0c1-1-1-1-0.3-1.7c0.5,0.4,0.9,0.9,2.2,0.7
		C39.5,142.8,40.1,142.6,40,143.3z M41,128.1c1.2,0.4-0.7,0.4-0.6,0.7c-0.6-0.1-0.6-0.4-0.3-0.7c-0.4,0.2-0.9,0.4-1.2,0.7
		c-0.5-0.1,0.3-0.4-0.3-0.5c0.1-0.3,0.3-0.1,0.3,0c0.6-0.2,0.4-1,1.5-0.7c-0.1-0.4-1-0.2-0.6-1c0.6,0.1,1-0.1,0.9-0.5
		c0.2,0.6,1,1,1.2,0c0.4,0.1,0.2,0.6,0.3,1c-0.7-0.1-1.2,0-1.5,0.2C41.3,127.6,40.4,128.8,41,128.1z M43.1,124.3
		c0.2-0.7-0.3-0.9-0.3-1.4C43.5,123,44.8,124.2,43.1,124.3z M45.9,133.2c0.9,0.1,1.3,0.6,2.2,0.7C47.8,134.2,45.6,134,45.9,133.2z
		 M48.3,142.3c0-0.7-0.6-1.6-1.2-2.4c0.7-0.4,1.1,0,1.6-0.3c0-0.2,0.1-0.2,0.2-0.2c-0.1,0.1-0.2,0.1-0.2,0.2
		C48.7,140.1,49.2,141.6,48.3,142.3z M58.8,112.9c0.5-0.1,0.5,0.2,0.9,0.3c-0.1,0.3-0.6,0.2-0.6,0c-0.3,0-0.2,0.4-0.3,0.7
		c-0.4,0-0.9,0-0.9,0.2C57.1,113.8,58.9,113.6,58.8,112.9z M58.5,117c-0.5-0.4-0.8-1-1.8-1c0.6-1.1,1.3-1.1,2.4-0.7
		C59.3,116.2,58.7,116.5,58.5,117z M56.3,114.9c0.7,0,0.7-0.6,0.6-1.2c0.7,0,0.1,0.9,0.3,1.2c-0.5,0-0.8,0.2-0.9,0.5
		C55.5,114.6,56.1,113,56.3,114.9z M56,116.6c0.4,0.5,0.9,0.6,0.9-0.2c1.3,0.3-0.3,0.8-0.6,1.2c0.2,0.5,1.7,0.1,1.5,1
		c-1.4-0.3-0.8,0.8-1.8,0.7C57,118,54.7,117.6,56,116.6z M49.9,124.5c0.2,0.2,0.7,0.3,0.6,0.7c-0.3-0.1-0.5-0.2-0.9-0.2
		c-0.3-0.7,1.6-0.9,0.6-1.4c0.3-0.8,0.6,0.3,0.9,0.2C50.6,124,50.6,124.5,49.9,124.5z M52.6,123.3c-1,0.1-1.1-0.4-2.2-0.2
		c0.1-0.3,0.5-0.4,0.6-0.7c0.7-0.2,1.3,0.8,1.5,0.3C53.1,122.7,52.5,122.9,52.6,123.3z M50.2,119.2c0.1-0.3,0.5-0.4,0.6-0.7
		c0.8,0.4,0.7,1.3,2.2,1.7C52.4,121.1,51,119.5,50.2,119.2z M53.6,119c0.4-0.2,0.6-0.6,0.9-1c0.6,0,0.4,0.7,1.2,0.5
		c-0.3,0.4-1.3,0.3-1.8,0.5c0.2,0.2,0.7,0.3,0.6,0.7c0.2-0.2,0.8-0.1,0.9-0.5C56.5,120.1,53.1,120.2,53.6,119z M55.1,123
		c-0.7,0-0.1-1-0.3-1.4c-0.4,1.2-1.2-0.6,0-0.5c-0.3,0.5,0.8,1.1,0.9,0.5C56.6,122,55.4,122.8,55.1,123z M56.3,122.1
		c0.4-0.7,0.7-1,0.3-1.7c1.3,0.4-0.4,1.5,0.9,1.7C57.5,122.7,56.5,122.2,56.3,122.1z M57.9,120.6c-0.7,0-0.1-1-0.3-1.4
		c0.8,0.6,1.2,0.2,1.9,0.5c0.6,0.2,0.2,1.5-0.6,1.4c0-0.4,0-0.8,0-1.2C58,119.8,57.7,120,57.9,120.6z"/>
	<polygon class="st0" points="262.7,53.8 262.8,53.8 274.8,72 276.5,72 276.5,50.8 274.8,50.8 274.8,69 274.7,69 262.7,50.8 
		260.9,50.8 260.9,72 262.7,72 	"/>
	<path class="st0" d="M96.9,43.6c-0.6,0.1-0.3,0.9-0.6,1.3l1.2-0.9C97.3,43.8,97.2,43.6,96.9,43.6z"/>
	<path class="st0" d="M115.9,43.1c-0.4,0-0.6,0.1-0.6,0.2c-0.2,0-0.3-0.1-0.4-0.1l-2.4,1.8c0.5,0.4,0.5,1.2,1,1.7
		c-0.7,0.5-1.3-0.5-1.8-1c-0.7,0.1-0.1,1.2-0.3,1.7c-0.9,0.2-1.2-0.2-1.6-0.4l-2.3,1.7c0,0.4-0.2,0.9,0.3,0.9
		c-0.4-0.1-0.7-0.2-1-0.3l-3.9,2.9h19.8l21-15.3c-2-3.3-4.3-6.4-6.9-9.4l-20.6,15C116,42.7,116,42.9,115.9,43.1z M111,50.8
		c-0.3-0.4-1.1-0.4-0.9-1.2c1.2-0.3,0.7,0.7,1.5,0.7C111.5,50.6,111,50.5,111,50.8z M110.7,49.1c-1-0.9-0.4-0.9,0-1.4
		c0.3,0.1,0.3,0.2,0.6,0.2c0.3,0,0.3-0.1,0.3-0.2c0.4,0.1,0.2,0.2,0,0.2c0,0.3,0.1,0.4,0.3,0.5C112,49.1,110.8,48.6,110.7,49.1z
		 M117.7,43.8c-0.1,0.6-0.8,0.8-1.5,1C116.4,44.2,116.8,43.8,117.7,43.8z"/>
	<path class="st0" d="M95,45.8l0.4-0.3c0-0.1,0-0.1,0-0.2c0.1,0,0.2,0,0.3,0l0.5-0.4C96,45,95.9,45.1,95.6,45c0.4-1.1,0.6-1.6,0-1.9
		c0.2-0.2,0.3-0.4,0.3-0.7c0.5,0,1,0,1.5,0c0.1,0.5-0.2,1.2,0.4,1.3l7.6-5.5c-0.2-0.5-0.1-1.3,0.6-1.1c0.1,0.2,0.1,0.4,0.2,0.5
		l23.5-17.1C120.1,11.5,108.2,5.1,95,2V45.8z M112.8,27.7c1,0.3,2.2,0.4,2.5,1.2c-1-0.1-1.4-0.5-2.2-0.7c-0.5,0.1,0.1,0.3,0,0.7
		C112.2,28.7,112.7,28.3,112.8,27.7z M110.4,17.8c-0.5,0.6-1.7-0.2-1.5-1C109.9,16.8,109.9,17.5,110.4,17.8z M95.3,33.2
		c0.2-1,1.9-0.1,0.9,0.5C95.8,33.6,95.8,33.3,95.3,33.2z M106.1,34.9c-0.4,0.5-0.3,1.4-0.6,1.9c-1-0.6-0.7-1.1-0.9-1.9
		C105.5,35.1,105.5,34.5,106.1,34.9z M100.8,6.8c0.3,0.1,0.2,0.5,0.6,0.5c-0.6,1.7-1.8-0.5-2.8,0.2C98.1,6.6,100.2,7.2,100.8,6.8z
		 M98.1,38.1c1.4-0.1-0.4,0.9,0.9,1c-0.3,0.4-1.6,0.2-1.2,1.2c0.6-0.3,1.4-0.3,2.1-0.5c-0.5,0.8,0,1,0.6,1.4
		c-1.3,1.8-0.7,0.5-2.1-0.5c-1.5,1-2.5-0.8-2.8-1.9C96.7,38.7,97.8,39,98.1,38.1z M96.6,28.4c0.1,1-1.5,0.3-1.5,0
		C95.3,27.7,96,28.6,96.6,28.4z"/>
	<path class="st0" d="M112.2,45.2l-0.3,0.2c0,0,0,0.1,0,0.1C112.1,45.5,112.2,45.4,112.2,45.2z"/>
	<path class="st0" d="M66.4,55.6v1c0,0,0,0,0,0C66.7,56.3,66.7,55.9,66.4,55.6z"/>
	<path class="st0" d="M279.2,24.1h-4.9v21.1h4.9V24.1z M276.8,41.6c0.2-0.9,0.8-1.3,1.1-2c0-0.5-0.3,0.1-0.7-0.1
		c0.3-0.9,0.7-0.3,1.2-0.1C278,40.3,277.7,41.5,276.8,41.6z"/>
	<path class="st0" d="M364.8,78.2c-0.3,0.9-0.3-0.8-0.9-0.4c0.2,0.3,0.4,0.8,0.4,1.3c0.8,0.2,1.6,0.6,2.2,1.1
		c0.2,0.2,0.4,0.4,0.6,0.6c0.4-0.2,0.5,1.2,1,0.4c0.3,0.2,0.3,0.7,0.3,1.3c-0.2,0-0.1-0.4-0.2-0.6c-0.1,0.2-0.3,0.3-0.4,0.3
		c0.1,0.2,0.1,0.5,0.2,0.7c0.4,0.1,0.8,0.4,1.2,0.8h0.5l0-0.1c0-1.7-0.6-3.2-1.9-4.4c-0.7-0.7-1.6-1.1-2.6-1.4
		C364.8,77.9,364.4,78,364.8,78.2z"/>
	<path class="st0" d="M357.2,81.4c0.1-0.3,0.3-0.6,0.5-0.8C357.3,80.5,356.8,81.2,357.2,81.4z"/>
	<path class="st0" d="M339.7,84.3c0,0.1,0.1,0.1,0.1,0.2c0.3-0.2,0-0.9,1-0.5c-0.1,0.3-0.5,0.1-0.6,0.5c-0.1,0.3,0,0.3,0.2,0.3
		c0.2,0.3-0.3,0.2-0.7,0v13.8h13.4v-1.5h-11.6c0.1,0.2,0.1,0.3,0.3,0.3c-0.1,0.8-1.2,0.6-1.5,0.1c-0.3-1.2,1.3-1,0.7-1.5
		c0.4-0.6,0.3,0.2,0.4,0.8v-8.5h3.4c0-0.1,0-0.1,0-0.2c0-0.2,0.2,0,0.4,0.2h0.2c0-0.1-0.1-0.2-0.1-0.4c0-0.3,0.1-0.3,0.3-0.3
		c0.2,0,0.3,0,0.5,0.1c-0.1,0.2-0.2,0.4-0.2,0.6h5.7V87h-10.2v-7.9H353v-1.5h-13.3V84.3z"/>
	<path class="st0" d="M347.2,40.3c-0.4-0.1,0,1-0.4,1.4v0.9c0.2,0.1,0.4,0.2,0.7,0.3C347.3,42.1,347.4,41.1,347.2,40.3z"/>
	<path class="st0" d="M355.2,82.8c0,1.6,0.6,2.8,1.8,3.8c1.2,0.9,2.9,1.7,5.3,2.3c0.3,0.1,0.6,0.2,1,0.3c-0.3-0.6-1.3-0.6-1.3-1.7
		c0.6,0.5,0.6,0.8,1.4,0.5c-0.1-0.1-0.1-0.3-0.1-0.5c-0.1,0-0.3-0.1-0.4-0.1c-2.1-0.5-3.5-1.1-4.4-1.8c-0.4,0.2-1.3-0.3-1.2-0.9
		c0.1,0,0.2,0,0.3,0c-0.4-0.5-0.6-1.2-0.6-1.9c-0.2,0-0.3,0.1-0.5,0.5c-0.6-0.1,0.1-1,0.2-1.2c0.1,0.1,0.2,0.2,0.3,0.3
		c0-0.3,0.1-0.5,0.2-0.8c-0.5,0.7-1.1-0.5-1.3-0.8c0.1-0.7,1,0,1.5-0.1c-1-0.6,0.5-1,0.5-0.1c0.2-0.2,0.3-0.4,0.5-0.5
		c0.8-0.6,2-1,3.3-1c0-0.4-0.1-0.7-0.3-0.8c0.1-0.3,0.4-0.4,0.5-0.7c-0.5,0-1,0.1-1.4,0.1c-0.5,0.3-1.1,0.5-1.5,1.5
		c-0.4-0.3-0.2-0.7,0.1-1.1c-0.7,0.2-1.3,0.6-1.9,1C355.9,79.8,355.2,81.2,355.2,82.8z"/>
	<path class="st0" d="M357.6,124.3c0.1,0.2,0.2,0.3,0.3,0.4V124h-1.8c0.1,0,0.2,0.1,0.2,0.1c-0.1,0.4-0.7,0-0.8,0.5
		C356.2,125.9,356.9,124.1,357.6,124.3z"/>
	<path class="st0" d="M346.8,43.4c0,0,0-0.1,0-0.1V43.4z"/>
	<path class="st0" d="M363.1,78c0.8-0.5,1.1-0.3,1.7-0.3c-0.6-0.2-1.1-0.2-1.8-0.3C363.1,77.6,363.1,77.8,363.1,78z"/>
	<path class="st0" d="M363.4,78.9c0-0.1,0.1-0.1,0.1-0.2c0-0.3-0.4-0.3-0.4-0.7c-0.3,0.2-0.5,0.5-0.7,0.8
		C362.8,78.8,363.1,78.8,363.4,78.9z"/>
	<path class="st0" d="M354.2,104.4c0.1,0.1,0.1,0.2,0.2,0.2c-0.2,0.5-0.3,0.9-0.3,1.2h3.8v-1.5h-0.5c-0.1,0.7-0.4,1.5-0.9,1.2
		c0.1-0.6,0.4-0.8,0.6-1.2H354.2z"/>
	<path class="st0" d="M351,124.9c0.3,0,0.6,0.1,1,0.1c-0.1,0.2-0.2,0.4-0.2,0.5h3.8c0-0.2,0-0.3,0-0.6c-0.4-0.2-0.5,0.2-0.6,0.5
		c0-0.5-0.1-1-0.2-1.5h-4.4c-0.4,0.5-0.7,1-1,1.3c0.1-0.4,0.1-0.8,0.2-1.3h-3.4v-8.8h6.2c0.2-0.2,0.7,0,0.7-0.6
		c0.6,1.3,0.8-0.4,1.2-0.1c0.2,0.1,0.2,0.4,0.1,0.7h1.9v-1.5h-10.2v-7.9h6.3c-0.1-0.2-0.3-0.4-0.4-0.6c0.3-0.2,0.4-0.5,0.6-0.8h-8.1
		v21.1h6.4C351,125.3,351,125.1,351,124.9z"/>
	<path class="st0" d="M389.6,44.3c-0.2,0.5-0.5,0.8-0.9,0.9h4V24.1h-4.9v21.1h0.1C387.9,45,389.1,44.5,389.6,44.3z"/>
	<path class="st0" d="M346.8,44.6v0.6h0.2C346.9,45,346.9,44.7,346.8,44.6z"/>
	<path class="st0" d="M395.7,25.4c0.3-0.2,0.5,0,0.9,0.2c-0.4,0.3-0.9,1.3-0.1,0.6c0.6,0.4-0.3,0.8-0.7,0.8v18.2h4.9V31.8l0.1,0
		l7.7,13.5h4.9V24.1h-4.9v13.5l-0.1,0l-7.7-13.5h-4.9V25.4z M396.7,30c-0.4-0.2,0-1.2-0.8-1.1c0.3-0.4,0.4-1.1,1.1-0.7
		C396.5,28.7,396.8,29.3,396.7,30z"/>
	<path class="st0" d="M395.7,25.5v0.4C395.8,25.8,395.8,25.6,395.7,25.5z"/>
	<rect x="230.3" y="50.8" class="st0" width="1.7" height="21.1"/>
	<path class="st0" d="M327.4,104.4C327.4,104.4,327.4,104.4,327.4,104.4C327.4,104.4,327.4,104.4,327.4,104.4L327.4,104.4z"/>
	<path class="st0" d="M336.4,93.5c0-1.6-0.6-2.9-1.8-3.9c-1.2-1-2.9-1.8-5.2-2.4c-2.2-0.5-3.7-1.2-4.6-1.9c-0.9-0.7-1.3-1.6-1.3-2.7
		c0-1.1,0.5-2.1,1.4-2.8c1-0.8,2.3-1.1,4-1.1c1.7,0,3.1,0.5,4.1,1.4c1,0.9,1.5,2.1,1.5,3.5h1.6l0-0.1c0-1.7-0.6-3.2-1.9-4.4
		c-1.3-1.2-3.1-1.8-5.3-1.8c-2.1,0-3.8,0.5-5.1,1.5c-1.3,1-2,2.3-2,4c0,1.6,0.6,2.8,1.8,3.8c1.2,0.9,2.9,1.7,5.3,2.3
		c2.1,0.6,3.6,1.2,4.5,1.9c0.9,0.7,1.3,1.7,1.3,2.8c0,1.2-0.5,2.2-1.5,2.9c-1,0.7-2.4,1.1-4.1,1.1c-1.7,0-3.1-0.4-4.3-1.2
		c-1.2-0.8-1.8-2-1.8-3.6h-1.6l0,0.1c0,2,0.7,3.6,2.3,4.6c1,0.7,2.2,1.1,3.4,1.4c0-0.1,0-0.2,0.1-0.3c0.1,0.1,0.3,0.3,0.4,0.4
		c0.5,0.1,1.1,0.1,1.7,0.1c2.1,0,3.9-0.5,5.3-1.5C335.7,96.6,336.4,95.2,336.4,93.5z"/>
	<path class="st0" d="M346.8,35.2c0.1-0.1,0.2-0.3,0.3-0.5c0.6,0.2,0.3,1-0.3,0.9v0c0.9,0.3-0.1,0.6,0.1,1.6
		c0.5-0.3,1.1-0.8,0.9,0.5c-0.7-0.7-0.1-0.1-0.4,0.9c-0.3-0.1-0.4-0.3-0.5-0.5v1.9c0.4,0.4,1.1,0.7,0.7,1.8c0.9-0.5,0.8-0.2,1.4,0.6
		c0.1-1.9,1.2,0.5,1.1-1.7c1.2,0.4-0.3,1.8,0.4,2.9c-0.7-0.3-0.7,0.8-1.5,0.3c0.1-0.3,0.5-0.1,0.6-0.5c0-0.5-0.5,0.2-0.4-0.4
		c-0.7,0.4-0.6,1.8-2,1.5c0,0.5,0.5,0.5,0.6,0.9h4.2V24.1h-4.9V35.2z M350.8,35.4c0.3,0.1,0.1,0.6-0.1,0.6c0,0.7,0.4-0.3,0.6,0.4
		c-0.2,0.4-0.6,0.5-1.1,0.4c0.2-0.5-0.1-0.6-0.4-0.7C350.1,35.6,350.8,36.1,350.8,35.4z M347.7,35.1c0.7,0.1,1,1.1,0.4,1.6
		C347.7,36.4,347.6,35.8,347.7,35.1z M348.9,40c0,0,0-0.1,0-0.2c-0.4-0.3-1.6-0.7-2-0.5c0.3-0.4,1.6,0,0.6-0.8
		c0.9-0.9,1.2,0.7,1.4,1.4C349,39.9,349.1,40,348.9,40z M347.8,32.9c0.3,0.6,0.6,0.1,1.2,0.2c-0.1,0.3-1.2,1-0.5,1.5
		c0.5-0.4-0.2-0.7,0.8-0.2c-0.4,1.1-0.2,0.8,0.2,1.6c0,0.2-0.1,0.4-0.1,0.6c-0.2-0.1-0.2,0.1-0.3,0.3c-0.2-1.4-0.9-2.4-2.1-2.9
		C347.4,32.8,348.1,34.7,347.8,32.9z"/>
	<polygon class="st0" points="204.4,97.3 192.7,97.3 192.7,88.5 202.9,88.5 202.9,87 192.7,87 192.7,79.1 204.3,79.1 204.3,77.6 
		191,77.6 191,98.7 204.4,98.7 	"/>
	<path class="st0" d="M297.3,98.7h1.7v-9.6h5.9c1.5,0,2.7,0.4,3.5,1.1c0.8,0.8,1.3,1.8,1.3,3.1v1.9c0,0.7,0.1,1.3,0.2,2
		c0.1,0.6,0.4,1.1,0.8,1.5h1.8v-0.3c-0.4-0.3-0.6-0.8-0.8-1.3c-0.2-0.5-0.2-1.1-0.2-1.8v-2c0-1.3-0.3-2.3-0.9-3.2
		c-0.6-0.8-1.5-1.4-2.8-1.8c1.2-0.4,2.1-1.1,2.7-1.9c0.6-0.9,1-1.9,1-3c0-1.9-0.6-3.4-1.8-4.4c-1.2-1-2.9-1.5-5.2-1.5h-7.2V98.7z
		 M299.1,79.1h5.4c1.8,0,3.1,0.4,4,1.1c0.9,0.8,1.3,1.8,1.3,3.2c0,1.3-0.4,2.3-1.3,3.1c-0.9,0.8-2.3,1.2-4.2,1.2h-5.2V79.1z"/>
	<polygon class="st0" points="295,37.5 294.9,37.5 287.1,24.1 282.2,24.1 282.2,45.2 287.1,45.2 287.1,31.8 287.2,31.7 295,45.2 
		299.9,45.2 299.9,24.1 295,24.1 	"/>
	<path class="st0" d="M319.8,107.3v-0.8C319.7,106.9,319.7,107.1,319.8,107.3z"/>
	<rect x="316.1" y="77.6" class="st0" width="1.7" height="21.1"/>
	<path class="st0" d="M205.8,50.8H204v14.3c0,1.8-0.5,3.2-1.6,4.2c-1.1,1-2.5,1.5-4.3,1.5c-1.7,0-3.1-0.5-4.2-1.5
		c-1.1-1-1.6-2.4-1.6-4.2V50.8h-1.7v14.3c0,2.3,0.7,4.1,2.1,5.3c1.4,1.2,3.2,1.8,5.4,1.8c2.3,0,4.1-0.6,5.5-1.8
		c1.4-1.2,2.1-3,2.1-5.3V50.8z"/>
	<polygon class="st0" points="225.8,79.1 233.1,79.1 233.1,98.7 234.8,98.7 234.8,79.1 242.1,79.1 242.1,77.6 225.8,77.6 	"/>
	<path class="st0" d="M205.3,36c-0.6-0.8-1.5-1.4-2.7-1.7c1-0.4,1.7-1,2.2-1.8c0.5-0.8,0.7-1.7,0.7-2.7c0-1.9-0.7-3.4-2.2-4.4
		c-1.5-1-3.5-1.5-6.1-1.5h-7.3v21.1h8.3c2.6,0,4.6-0.5,6-1.6c1.4-1.1,2.1-2.6,2.1-4.7C206.2,37.8,205.9,36.9,205.3,36z M199.7,28.4
		c0.6,0.4,0.8,1.1,0.8,2c0,0.8-0.3,1.4-0.8,1.8c-0.6,0.4-1.4,0.6-2.5,0.6h-2.4v-5h2.3C198.3,27.8,199.1,28,199.7,28.4z M190.9,38.7
		c-0.2,0.1-0.5,0.2-0.6,0.5c-0.3-0.9,1.1-0.6,0.3-1.8c0.3,0.1,0.6,0.1,0.9,0.2C191.2,38.2,190.9,39.3,190.9,38.7z M191.9,26.7
		c-0.2-0.2-0.3-0.4-0.6-0.4c0.1-0.4,0.2-0.8,0.2-1.2c0.3,0.1,0.4,0,0.5-0.2C192.5,25.6,192.2,26,191.9,26.7z M193.8,29.9
		c-0.5-0.3-0.4-1.1-1-1.4c-0.5,0.7,0.8,1.1,0,1.3c-0.7-0.1-0.6-2.2,0.2-2.2c-0.1-0.6-0.3-1-0.7-1.4c0.8-1.4,1.2,0.7,1.8,1
		C193.2,27.9,193.7,29,193.8,29.9z M194.3,24.6c0.1-0.2,2.2,0.1,1.4,1.5c-0.5,0-0.4-0.5-0.3-1C194.8,25.7,194.6,25,194.3,24.6z
		 M200.5,40.8c-0.5,0.4-1.3,0.6-2.4,0.6h-3.4v-5.3h3.7c1,0,1.7,0.2,2.2,0.7c0.5,0.5,0.7,1.2,0.7,2.1C201.3,39.8,201,40.4,200.5,40.8
		z"/>
	<path class="st0" d="M338.5,115v1.3c0,0.4,0,0.7-0.1,1C339.3,117.6,340.4,114.8,338.5,115z"/>
	<path class="st0" d="M357.9,125c-0.7,0.2-1.5,0.1-2.1,0.5h2.1V125z"/>
	<path class="st0" d="M340.2,117.3c0-0.3,0.1-0.7,0.1-1V116c-0.1,0.3-0.3,0.5-0.8,0.7C339.5,116.9,339.9,117.3,340.2,117.3z"/>
	<path class="st0" d="M369.8,93.6c-0.2,0.3-0.2,1.2-0.7,1.7c-0.6-0.9,0.4-2.2,0.5-3.3c-0.1-0.5-0.4-0.9-0.6-1.4
		c0.1,0.6,0.3,1.2,0.3,1.9c-0.2,0.2-0.6,0.1-0.8,0.4c0.2-1,0-2-0.2-3c-0.1-0.1-0.2-0.2-0.3-0.3c-0.6-0.5-1.3-0.9-2.1-1.3
		c-0.1,0.1-0.1,0.2-0.3,0.2c-0.2,0-0.3-0.2-0.3-0.5c-0.2-0.1-0.4-0.2-0.6-0.2c-0.1,0.1-0.1,0.1-0.2,0.2c-0.1-0.2-0.2-0.3-0.2-0.4
		c-0.3-0.1-0.5-0.2-0.8-0.2c0,0.5,0,1.2-0.1,1.7c1.5,0.5,2.6,1,3.3,1.6c0.9,0.7,1.3,1.7,1.3,2.8c0,1.2-0.5,2.2-1.5,2.9
		c-1,0.7-2.4,1.1-4.1,1.1c-1.7,0-3.1-0.4-4.3-1.2c-1.2-0.8-1.8-2-1.8-3.6h-1.6l0,0.1c0,2,0.7,3.6,2.3,4.6c1.6,1.1,3.4,1.6,5.5,1.6
		c2.1,0,3.9-0.5,5.3-1.5C369.1,96.6,369.8,95.2,369.8,93.6z"/>
	<path class="st0" d="M336.5,108c1.4,1.5,2,3.3,2,5.5v1.5c0.5-1.5,1.3,1.4,1.4-1c0.3,0.1,0.3,0.4,0.4,0.7v-1.1
		c0-1.3-0.2-2.5-0.6-3.6c-0.3,0.1-0.6,0.1-0.9,0.1c-0.6,0-0.1-0.9-0.6-1c0.2-0.5,0.8-0.3,1.1,0.1c-0.4-0.8-0.9-1.5-1.5-2.2
		c-0.6-0.6-1.3-1.1-2-1.5c-0.2,0.4-0.5,0.9-0.7,1.4C335.6,107.2,336,107.6,336.5,108z"/>
	<polygon class="st0" points="358.9,45.2 363.8,45.2 363.8,27.8 369.4,27.8 369.4,24.1 353.4,24.1 353.4,27.8 358.9,27.8 	"/>
	<path class="st0" d="M332.4,37.1h3.4c1,0,1.7,0.3,2.2,0.7c0.1-0.2,0.2-0.5,0.4-0.7c-0.1,0.5,0.2,1.2,1.2,0.9c0.1-0.1,0.1-0.1,0.1,0
		c0,0-0.1,0-0.1,0c-0.2,0.3-0.6,1.5-0.1,2.4c-0.2-0.2-0.4-0.4-0.6-0.5c0,0.1,0,0.2,0,0.3v1.3c0,0.7,0.1,1.4,0.2,2.1
		c0.1,0.8,0.4,1.3,0.8,1.6h5.1v-0.3c-0.4-0.3-0.7-0.8-0.9-1.5c-0.2-0.7-0.2-1.3-0.2-1.9v-1c-0.2-0.4-0.4-0.9-0.4-1.5
		c0.1,0,0.2,0,0.2,0.1c-0.1-0.8-0.3-1.5-0.7-2.1c-0.6-0.9-1.5-1.5-2.8-1.8c1.1-0.5,2-1.1,2.6-1.9c0.6-0.8,0.9-1.7,0.9-2.8
		c0-2-0.7-3.5-2.1-4.6c-1.4-1.1-3.4-1.7-5.8-1.7h-8.1v21.1h4.9V37.1z M343.2,38.3c0.5,0.3-0.2,1.7-0.2,2.5c-0.4-0.2-0.5-0.8-1.1-0.8
		C342.8,39.7,342.9,39.1,343.2,38.3z M343.1,41.1c0.7-1,0.4,1,0.8,1.1c-0.5,0.1-1.1-0.8-1.9-0.1c0.1-0.3-0.2-0.3-0.4-0.4
		C341.7,41.1,343.6,41.7,343.1,41.1z M341,39.1c0.4-0.8,0.2,0.5-0.3,0.3c-0.1,0.2,0,0.3,0.2,0.4c-0.2,0.4-0.6,0.5-1.1,0.4
		c0.3-0.4,0.4-0.7-0.1-1C340.3,38.3,340.6,39.8,341,39.1z M337.5,24.4c0.4,0.5,1,1,0.5,2.3c-0.3-0.1-0.4,0-0.5,0.2
		c-0.3-0.6,1-1.3-0.7-1.4C336.9,24.9,337.5,25.3,337.5,24.4z M332.4,27.8h3.2c1,0,1.7,0.3,2.3,0.8c0.5,0.5,0.8,1.2,0.8,2.1
		c0,0.8-0.3,1.5-0.8,1.9c-0.5,0.5-1.3,0.7-2.3,0.7h-3.2V27.8z"/>
	<path class="st0" d="M323.4,43.6c1-0.8,1.6-1.8,1.9-3.1c-0.4,0.4-1,0.1-1.5,0.3c0.1-0.6-0.6-0.5-0.2-1.3c0.3,0.2,0.4,0.5,0.3,1
		c0.7-0.5,0.6-0.3,1.4,0c0.1-0.5,0.2-1,0.2-1.6c0-1.1-0.3-2.1-0.9-2.9c-0.6-0.8-1.5-1.4-2.7-1.7c1-0.4,1.7-1,2.2-1.8
		c0.5-0.8,0.7-1.7,0.7-2.7c0-1.9-0.7-3.4-2.2-4.4c-1.5-1-3.5-1.5-6.1-1.5h-7.3v21.1h8.3C320,45.2,322,44.7,323.4,43.6z M314,27.8
		h2.3c1.2,0,2,0.2,2.6,0.6c0.6,0.4,0.8,1.1,0.8,2c0,0.8-0.3,1.4-0.8,1.8c-0.6,0.4-1.4,0.6-2.5,0.6H314V27.8z M311.6,29.2
		c-0.3-0.5-0.4-1.5,0.1-1.9C311.9,27.8,312,28.8,311.6,29.2z M314,36.1h3.7c1,0,1.7,0.2,2.2,0.7c0.4,0.5,0.7,1.2,0.7,2.1
		c0,0.9-0.3,1.5-0.8,1.9c-0.5,0.4-1.3,0.6-2.4,0.6H314V36.1z"/>
	<path class="st0" d="M367.4,45.2h4.9l1.2-4.1h6.7l1.2,4.1h4.9l-6.8-21.1h-5.3L367.4,45.2z M381.1,38.3c0.6,0.9-1.1,0.8-0.9,2.3
		c-0.5-0.2-0.5-0.7-0.8-1.1C380.3,39.5,380,39,381.1,38.3z M377.4,27c0.4,0.8,0.8-0.2,1.1-0.7c0.1,0-0.2,1.9,0.4,0.4
		c0.3,0.1,0.1,0.6,0.1,1c-0.4-0.1-0.8-0.1-1.2-0.2c-0.1,1.2,0.7-0.2,0,1.3c-1.1-0.8-1.4,0.3-2.1-0.4C376.1,26.6,377.2,28.9,377.4,27
		z M376.8,29.7L376.8,29.7l2.3,7.6h-4.5L376.8,29.7z"/>
	<path class="st0" d="M147.7,109.8c1-2.1,1.9-4.3,2.6-6.5h-11.5L147.7,109.8z"/>
	<path class="st0" d="M133.2,111.2c0,0.2-0.1,0.4-0.1,0.5c-0.8-0.4-0.9-0.1-1.6-0.9c0.1-0.2,0.2-0.4,0.3-0.6l-9.4-6.9h-19.7
		l11.5,8.4c0.2-0.3,0.5-0.4,1.1-0.3c0.1,0.5-0.3,0.5-0.8,0.5l1.8,1.3c0.1-0.1,0.2-0.2,0.2-0.3c0.9,0.7,2-0.1,2.8-0.2
		c-0.2,0.6-1,0.6-1.2,1.2c0.8,0.3,1-1,1.2-0.2c0,0.5-0.9,0.8-1.5,0.7l18.4,13.4c2.6-2.9,4.9-6,6.9-9.3L133.2,111.2z M127.2,108.7
		c0.6-0.3,0.7,0.7,1.7-0.1c0.6,0.6-0.6,1.2,0,1.6c-0.2,1.1-0.8-0.9-1,0.2c-0.7,0.2-0.1-1.9-0.6-1C127,109.2,127.6,108.8,127.2,108.7
		z M127.3,114.4c0-0.3,0-0.6,0-1c0.7,0.3,1.8,0.4,1.2,0.5c0.1,0.2,0.3,0.4,0.6,0.5C128.3,114.9,128.3,113.4,127.3,114.4z
		 M133.7,119.6c0-0.3,0.3-0.2,0.5-0.2c0.3-0.9-0.6-0.7-0.3-1.6c0.8-0.3,0,1,0.9,0.7C134.4,118.9,134.4,119.8,133.7,119.6z
		 M134.8,123.8c-0.5-0.3,0.1-1.4-0.5-1.6c0.3-0.9,0.5,0.4,1,0.1C135.2,123,135,123.4,134.8,123.8z M135.7,125.8
		c-0.9-0.5,0.3-2,0.4-3c0.4,0.1,0.8,0.1,1.2,0.2C135.9,123.7,136.9,124.4,135.7,125.8z"/>
	<polygon class="st0" points="258,104.4 256.3,104.4 256.3,125.5 268.5,125.5 268.5,124 258,124 	"/>
	<path class="st0" d="M132.8,110.9l-0.6-0.4c0,0.2,0,0.5-0.1,0.8C132.5,111.3,132.7,111.1,132.8,110.9z"/>
	<path class="st0" d="M196.1,123.3c0.2,0.1,0.4,0.1,0.6,0l4.2-14.1l0.5-2.2h0.1l0.6,2.2l4.7,16.2h1.6l5.4-21.1h-1.8l-3.8,15.2
		l-0.7,3.3l-0.1,0l-0.8-3.3l-4.5-15.2h-1.6l-4.5,15.2l-0.8,3.3l-0.1,0l-0.6-3.2l-0.8-3.2c-0.5-0.3-0.7-0.9-0.6-1.8
		c0,0.1,0.1,0.1,0.2,0.2l-2.3-9c0,0.1,0,0.1,0,0.2c-0.6,0.6-1.2-0.2-1.1-1.1c0.4,0,0.7,0.1,0.9,0.2l-0.2-0.6H189l3.3,12.8
		c0.4-0.1,0.8-0.3,1.1-0.4c0.3,0.2,0.4,0.7,0.3,1.3c-0.7-0.5-0.3,1-1,0.5c0.2-0.2,0.3-0.5,0.4-0.9c-0.3,0-0.3,0.4-0.5,0.6l1.9,7.3
		h1.7l0.2-0.6C196.2,124.4,196.1,123.9,196.1,123.3z"/>
	<path class="st0" d="M87.6,146.9c0.2-0.2,0.4-0.4,0-0.5c0-0.2,0.4-0.2,0.7-0.2v-0.2c0,0-0.1,0-0.1,0c0-0.1,0.1-0.1,0.1-0.2v-1.8
		c-0.1,0-0.2,0-0.4,0.1c0.1-0.1,0.3-0.1,0.4-0.2v-0.6c-0.2,0.2-0.3,0.4-0.7,0.3c-0.1-0.3,0.3-0.6,0.7-0.7v-9.9
		c-0.5-0.6-0.7-0.6-1.9-1.2c0.4-0.3,0.1-0.6,0-0.2c-1-0.2,0.3-0.5,0.3-0.7c0.3,0.4,0.6,0.9,1.6,0.7v-28.3c0-0.2-0.1-0.4-0.1-0.6
		c0,0,0.1-0.1,0.1-0.1v-8.8h12.2c0,0,0,0,0,0c-0.2,0-0.4,0-0.6,0c0.9-0.2,0.1-1.7,1.2-1.7c-0.6,0.5,0.1,1.6,0.3,0.5
		c0.4,0.1,0.3,0.6,0.3,1c-0.4,0.5-0.9-0.3-0.9,0.3h52.2c1.1-5.3,1.7-10.7,1.7-16.3c0-5.4-0.5-10.6-1.6-15.6h-56
		c0.2,0.2,0.2,0.4-0.1,0.6c0.5,0,0.8-0.2,0.9-0.5c0.8-0.2,0.1,1.4,0,0.5c-1.1,0.8-0.9,1.4-1.2,2.4c-0.8,0.2,0.2-1.1-0.6-1
		c0.1-0.3,0.6-0.2,0.6-0.5c-0.2-0.3-0.8,0.1-1.5-0.2c-0.1-0.9,1.2-0.7,1.1-1.3h-8.1v-4.3c-0.1-0.2-0.2-0.4-0.1-0.6c0,0,0.1,0,0.1,0
		v-1.8c-0.5-0.2-0.8,0.2-1.6,0.1c0,0.2,0,0.3,0,0.5c0.1,0.3,0.8,0.2,1.2,0.2c-0.5,0.2-0.8,0.6-1.5,0.7c0.1-1-0.6-0.1-1.2-0.2
		c0.7-0.6-0.6-1.1-0.9-1.7c-0.7,0.6,0.7,1.7,0.6,2.6c-0.6-0.1-0.6-0.7-1.5-0.5c-0.3-2.2,0.1-5-0.9-6.3c-0.2-0.7,0.5-0.7,0.3-1.4
		c0.5-0.1,0.5,0.2,0.9,0.2c0-0.2,0-0.5,0-0.7c-0.8,0-1,0.4-1.2,0.7c0.1-1.2,1.1-2.8,2.5-3.1c1.1,0.1,0.5,1.2,0.3,1.7
		c0.2,0.7,0.7-0.2,1.2,0c0,0.3,0,0.6,0,1c0.7-0.6,0.7,0.5,1.5,0.5c0.2,0.8-0.8,0.6-0.9,1.2c0.2,0.5,0.5-0.3,0.9,0.2
		c-1,0.3-1.8,1.3-3.1,0.7c-0.1,0.3-0.2,1.2-0.9,1.7c0.3,0.5,0.9,0.7,1.8,0.7c0.2-0.3,0.4-1.1-0.3-1.4c0.7-0.1,0.8,0.3,0.9-0.5
		c0.1-0.4,0.6,1.7,0.6,2.9c0.6-0.8,0.7-0.4,0.9-1c0.2,0,0.3,0,0.4,0.1v-4.8c-0.5-0.3-0.9-0.7-0.7-1.1c0.4-0.1,0.6-0.1,0.7,0v-0.8
		c-0.5,0.1-1.2,0.4-1.6,0.3c0.4-0.8-1-0.2-0.6-1c0.5-0.1,1.8,0.3,1.8-0.2c-0.1,0.2,0.1,0.4,0.4,0.5V44c0,0-0.1-0.1-0.1-0.4
		c-0.8,1.1-1.4,0.1-2.1,1c-0.3,0-0.3-0.1-0.3-0.2c0.1-0.2-0.1-0.2-0.3-0.2c0.8-1,1.4,0,0.9-1.4c0.2,0.1,0.5,0.3,0.9,0.2
		c-0.1-0.2-0.3-0.4-0.6-0.5c0-0.3,0.6-0.2,0.9-0.2c0-0.2-0.4-0.2-0.6-0.2c0.2-0.2,1.7-0.5,0.6-1c0-0.3,0.4-0.3,0.7-0.1v-0.6
		c-0.1,0-0.3,0-0.4,0c0.1-0.2,0.3-0.3,0.4-0.3v-1.3c-0.7-0.1-1.5,0.1-1.6,0.5c-0.7-0.5-0.4-2.4,0.3-2.6c0.7-0.9-0.4,1.4,0.3,0.5
		c0.5,0.2,0.2,0.6-0.3,0.5c0.2,0.4,0.7,0.6,1.3,0.6v-1.4c0,0-0.1,0-0.1,0c0.1-0.1,0.1-0.1,0.1-0.2V0.8c-1.5-0.2-3-0.4-4.5-0.5
		C81.7,0.1,79.6,0,77.4,0s-4.3,0.1-6.5,0.3c-1.5,0.1-3,0.3-4.5,0.5v23.1c0.1,0,0.2,0,0.4-0.1c-0.6,0.5,0.1,0.5,0.6,0.7
		c0.2-0.2,0.2-0.8,1.5-0.7c0.1,0.4-0.3,0.4-0.3,0.7c0.2,0,0.4,0,0.6,0c-0.6,0.3-1.8,0.3-2.8,0.3v27.8c0,0,0,0,0,0.1
		c0-1.2,2.4-0.7,1.5-0.7c-2.1,0.5-0.5,1.3-0.6,2.2c0.1-0.8-1.6,0.6,0,0.7c1-0.2,0.4-0.6,0.3-1.2c0.9-0.2,0.8,0.3,1.5,0.2
		c-0.1,0.3-1.3,0.4,0,0.5c-0.4,0.8-0.1,0.8,0,1.7c1.5-0.4,1.4,0.1,2.1,0.7c0.3-0.2,0.5-0.4,0.6-0.7c0.2,0.1,0.2,1,0.9,0.2
		c0.2,0.6,0.4,0.7,0.6,1.7c-2.2-0.4-5.1,0-7.1-0.2v3.9h-3.5c0.1,0.1,0.1,0.3-0.1,0.6c-0.4-0.4-0.8-0.5-1.3-0.6h-1.1
		c-0.2,0-0.4,0.1-0.7,0.1c0-0.1,0.1-0.1,0.1-0.1H1.6C0.5,66.8,0,72,0,77.4C0,83,0.6,88.5,1.7,93.7h35.9c0.1-0.1,0.3-0.1,0.6,0
		c0,0,0,0,0,0h28.2v0.7c0.6,0.3,1.1,0.8,1.9,1c-0.1,0.3-0.6,0.2-0.6,0.5c0.5,0.6,0.8-0.9,1.8-0.7c0.1-0.4-0.2-0.5-0.6-0.5
		c-0.1-0.7,1.9,0.2,1.8-0.5c0.4,0,0.2,0.2,0,0.2c-0.1,0.6,0.4,0.8,1.2,0.7c0.1,0.8-1.3,0.9-1.8,0.5c0.2,0.2,0.5,0.7,0,0.7
		c0,0.7,1.4,0.3,1.8,0.7c0.6-0.2,0.4-1,1.5-0.7c-0.4,0.3-0.9,0.5-0.3,1c0.3,0,0.6-1,0.9-0.2c-0.2-0.1,4-0.8,4.9-0.2
		c-1-0.3-0.9-0.2-1.2,0.5c-1.9-0.4-1.6,1-2.4,1.4c-0.1-0.3-0.1-1.1-1.2-1.2c0,0.4,0.2,0.6,0.6,0.7c-0.6,0.4-1.1,0.1-2.2,0
		c1.4-1.2-0.6-0.8-1.5-0.2c0-0.8-1.3-0.5-1.5-1c-0.4,0.1-0.3,0.6-0.3,1c-1.1,0.1-0.8-1-1.8-1c0.6-0.4,0.1-0.9,0-1.4
		c-0.2,0.2-0.6,0.2-1,0.2v4.3c0,0,0,0,0,0c0,0,0,0,0,0v1.4c0.8-0.1,0.7-0.9,1.9-0.7c-0.4,0.8-1.7,0.9-1.9,1.9c0,0,0,0,0,0v1
		c0,0,0,0,0,0c0,0,0,0,0,0.1v3.7c0.4,0,0.9,0.1,1.3,0.4c-0.3,0.3-0.8,0.3-1.3,0.2v2.7c0.2-0.3,0.3-0.5,0-0.7
		c0.3-0.8,0.1,0.7,0.9,0.2c0.1,0.7-0.7,0.7-0.6,1.4c-0.2-0.1-0.3-0.1-0.4-0.2V154c3.6,0.5,7.2,0.8,11,0.8c3.7,0,7.4-0.3,11-0.8v-7.1
		C88.1,146.9,87.9,146.9,87.6,146.9z M104.8,91c-1,0.3-0.2-0.8-1.2-0.5c0.1-1.3,0.2-1.3,0.3-2.4C105.1,88.3,105.5,90.2,104.8,91z
		 M139.6,91.9c-0.4-0.1-0.8-0.1-1.2-0.2C138.6,90.8,140,90.6,139.6,91.9z M124.8,66.2c0.4,0.4,1,0.6,0.9,1.4c-0.8,0.1-1.8,1-1.8-0.2
		c1-0.1,1,0.4,1.5,0c0.1-0.4-0.3-0.4-0.3-0.7c-0.9-0.2-0.8,0.3-1.5,0.2C123.5,66,124.8,66.6,124.8,66.2z M123.6,85
		c0.4,0.6-0.8,0.9,0,1c-0.1,0.6-0.5-0.3-1.2,0C122.1,85.2,122.9,85.1,123.6,85z M122.3,65.5c-0.3,0.9-2-0.4-2.1,0.2
		C119.2,64.7,121.5,65.3,122.3,65.5z M108.2,84.8c0-0.7,1.1-0.6,1.9-0.7C109.9,84.6,108.9,84.6,108.2,84.8z M107.9,68.2
		c0.4-0.3,1.1-0.3,1.5,0c-0.3,0.9-1.3,0.2-1.8,0C107.7,67.9,107.9,68,107.9,68.2z M108.8,86c0.5,0.6-0.4,0.8,0.3,1.2
		c0,0.4-1.5-0.1-1.8-0.2C107.2,86.2,108.1,86.1,108.8,86z M105.4,76.3c-0.4,0.3,0,1.3-1.2,1C104.6,77,104.2,76,105.4,76.3z
		 M102.7,76.8c0.5,0,0.6,0.3,1.2,0.2c0.1,0.6-0.6,0.6-1.2,0.7C102.7,77.5,102.7,77.1,102.7,76.8z M100.5,89.6c0.3,0,0.2,0.3,0.3,0.5
		c0.6-0.1,1.3-0.1,1.2-0.7c0.2,0.8,0.3,1.4,0.6,2.6c-0.4,0-0.3-0.4-0.3-0.7c-1,0.1-1.4-0.2-2.2-0.2
		C100.2,90.5,100.8,90.3,100.5,89.6z M94.4,68.6c0.7,0.5,1.7,0.8,2.4,1.2c-0.8,0.8-1.6-0.5-2.8-0.2C94.1,69.2,94.5,69.1,94.4,68.6z
		 M94.1,85.5c0.7,0,0.4,1.6,0,1.9c-0.6,0.9,0.4-1.1-0.3-0.2c-0.3-0.2,0.1-0.8-0.9-0.2c-0.8-0.1,1.8-0.8-0.3-0.7
		C92.6,85.1,94.4,86.5,94.1,85.5z M88.3,28.4c-0.2,0.3-0.6,0.4-1.2,0.5c0.1-0.5-0.1-0.8-0.6-0.7C87,27.4,87.5,28.6,88.3,28.4z
		 M69.2,99.9c0.7,0,0.1,0.9,0.3,1.2c-0.6-0.2-0.8-0.6-0.9-1.2C68.9,100.1,69.1,100.2,69.2,99.9z M68.3,105c0.8-0.6,1.3,0.4,2.2,0.5
		C70.1,106.4,68.3,105.7,68.3,105z M71.7,106.4c0.3-1,2.1-0.7,2.5,0C73.6,107.2,72.7,106.2,71.7,106.4z M74.1,136.1
		c-1.2,0.5-1.2-1.1-1.5-0.5c-1-0.5,1.4-0.3,1.2-1C74.7,134.6,74.5,135.7,74.1,136.1z M88.3,112c-0.3,0.2-0.8,0.3-1.5,0.2
		c-0.3-0.3-0.4-0.6-0.3-1.2c0.7,0.3,1.5,1.3,0.9,0C87.8,111.2,88.3,111.4,88.3,112z M87,57.8c0-0.3,0.1-0.7-0.3-0.7
		c1.1-0.9,1.1,1.4-0.3,1.2C86.3,57.9,86.7,57.8,87,57.8z M86.4,112.2c-1,0.2-3.7,1.2-3.4-0.5C84,112.7,85.7,111.7,86.4,112.2z
		 M83.6,109.3c0.4,0.3,0.4,0.8,0.3,1.4C83.2,110.9,82.5,109.2,83.6,109.3z M82.7,57.3c0.8,0,0.1,0.8,0,1c0.3,0,0.5-0.1,0.6-0.2
		c1,0,0.7,1.1,1.2,1.4c-0.2,0.3-0.7,0.3-0.6,0.7c-0.9,0.2-0.8-0.3-1.5-0.2c0.1-0.8,0.6-1.5-0.9-1.4C81.4,57.8,82.8,58.1,82.7,57.3z
		 M81.8,110.1c-0.7,0.7-1.1-0.4-0.6-1c0.2,0,0.4,0,0.6,0c-0.1,0.2,0.1,0.2,0.3,0.2C82.7,110,80.8,109.8,81.8,110.1z M82.4,53.7
		c0,0.2,0,0.3,0,0.5c-0.3,0-0.3,0.1-0.3,0.2c-1.4-1-1.4,0.3-2.2,0.5c0-0.9,0.3-0.7,0-1.4C81.1,53,80.9,53.9,82.4,53.7z M77.8,84.3
		c-0.1,0.6-1.2,0-0.9-0.5c0.8-0.3,1.3-0.5,2.1-0.2c0,0.2,0,0.5,0,0.7C78.7,84,76.8,83.5,77.8,84.3z M75.7,71c0.1,1.1-1.2,0.1-1.5,0
		c-0.2-0.7,0.6-0.5,0.6-1c0.4,0.1,0.3,0.5,0,0.5C74.9,70.9,75.1,71.1,75.7,71z M75.7,65.5c-0.5,1-1.7-0.3-1.8,0.7
		c-0.4-0.1-0.5-0.4-0.9-0.5c0.8-0.6,3.8-0.8,3.1-1.9c0.1-0.4,0.4,0.1,0.9,0c0.1,0.8-0.4,1.2-1.2,1.2c0.1,0.4,0.2,0.8,0.6,1
		c0.3,0,0.2-0.2,0-0.2c0.4-0.3,0.9,0.3,1.5,0.2c-0.1,1.7-1.5-0.4-2.2,0.5C74.9,66.4,76.1,66.1,75.7,65.5z M76.6,32.5
		c1.1,0.7-1.1,0.9-1.2,1.5c-0.4-0.4-1.2-0.5-0.9-1.5c0.5,0,0.8,0.4,0.9,0c0.4,0.1-0.1,0.3,0,0.7C75.8,33,76.3,32.8,76.6,32.5z
		 M76.9,52c-1.5,0.5-1,0.5-0.6,1.7c-1-0.7-0.9-1.4-1.2-2.2C75.3,51.1,76.3,52,76.9,52z M77.5,56.4c0.8,0.2,1.7,0.3,1.5,1.2
		C78.6,57.1,77.5,57.2,77.5,56.4z M76.6,85c-0.8,0.8,0.7,1.3,0.6,2.2C76,87.4,75.3,85.2,76.6,85z M78.1,66.9
		c1.4-0.1,0.9-1.7,2.5-1.7C79.9,65.9,79.3,67.5,78.1,66.9z M80,28.2c0.3,0,0.6,0,0.9,0c0.1,0.4-0.3,0.4-0.3,0.7
		c-0.1,0.2,0.1,0.2,0.3,0.2c-0.3,0.4-1.2-0.4-0.6,0.7c-0.4-0.1-0.5-0.4-0.9-0.5C79.5,28.9,80.2,29,80,28.2z M81.2,29.4
		c0.2-0.7,0.6,0.2,1.2,0c-0.2,0.2-0.3,0.4-0.3,0.7c-0.2-0.2-2.1-0.4-0.6-0.5C81.6,29.4,81.4,29.4,81.2,29.4z M81.5,23.1
		c0.3-0.7,0.8,0.3,1.2,0.2c-0.3,0.4-0.3,0.9-1.2,0.7c0.1-0.3,0.6-0.4,0.6-0.7C82.1,23.1,81.7,23.2,81.5,23.1z M84,38.3
		c-1.5,0.5-0.1-1.5-1.5-2.2c0.4-0.9,1.3,1.2,1.5,0.5C84.9,36.9,83.1,37.6,84,38.3z M84,31.6c-0.3,0-0.6-1-0.9-0.2
		c-0.6-0.9,0.6-0.5,0.6-1c0.4,0,0.8,0,1.2,0C84.5,30.7,83.9,30.9,84,31.6z M82.7,29.9c-0.1-0.7,1.7,0.2,1.5-0.5
		c0.4,0,0.3,0.4,0.3,0.7C83.6,30.3,83.7,29.7,82.7,29.9z M80.9,34.7c-0.7-0.1-0.4-1.4,0.6-1c-0.8-0.2-0.9-0.9-1.8-1
		c0.8-1.3,1.2,0.5,2.5,0.2c0.3,1.8,0.2,3.5-0.9,4.1c-0.6-1.4,0.2-1.7,0.3-3.1C81.1,34.1,80.9,34.3,80.9,34.7z M80.6,47.2
		c-0.7-0.2-1.1-0.6-0.9-1.4c0.4,0,0.9,0,0.9-0.2c1,0.1-1.3,0.8,0.3,0.7C80.3,46.7,80.3,46.4,80.6,47.2z M81.8,30.3
		c-0.3,0.8-0.2,0.6,0.3,1.2c0.3,0.2-1.1-0.8-1.9,0.2c-0.2-0.5-0.5-1,0-1.7C81,30,80.9,30.5,81.8,30.3z M86.1,45.3
		c-0.3,0.5-1.8-0.4-2.2,0.5c-0.5-0.8-1.4-1.3-2.1-1.9c0.1-0.3,0.3-0.1,0.3,0c0.9-0.2-0.3-0.5,0-1c0.8,0.4,1.4,0.9,0.9,1.7
		c1-0.4,1.2-0.2,1.9-0.5C85,44.7,84.6,44.9,86.1,45.3z M85.8,26.5c0,0.2,0,0.5,0,0.7c-0.7,0-0.9-0.4-1.8-0.2
		C84.2,25.6,84.8,27.1,85.8,26.5z M80.9,17.6c0.8,0,0.6-0.4,1.2,0c-0.1-0.5-0.9-0.4-0.6-1.2c1.1,0.2,0.4-1,1.5-0.7
		c0,0.2-0.4,0.2-0.6,0.2c0,1,0.4,0.6,0.6,1.7c0.4,0,0.8,0,1.2,0c-0.2,0.7-0.2,0.5,0,1.2c-0.3-0.2-0.5-0.4-0.6-0.7
		c-0.7,0-0.1,1-0.3,1.4c-1.2,0.3-2-0.8-1.5-1c0.8,0,0.4,0.2,0.3,0.5c0.8,0.2,0.6-0.5,0.9-0.7c0-0.7-1.3-0.4-2.1-0.5
		C80.1,17.2,80.5,16.3,80.9,17.6z M78.4,18.1c0.5,0.4,1.3,0,1.5-0.5c0.8,0.2,1.3,1.2,0.3,1.2c0,0.6,1.1,0.4,1.5,0.7
		c-0.1,0.3-0.3,0.1-0.3,0c-0.1,0.5-2.3,1.3-0.9,1.4c-0.1,0.3-0.6,0.2-0.9,0.2c-0.3,0.1-0.2,0.5-0.6,0.5c0.3,0.3,2.4,0.2,2.4-1
		c0.4,0,0.3,0.4,0.3,0.7c0.8,0,1.8,0.1,1.8-0.5c-0.5-0.2-0.6-0.8-1.2-1c0.1-0.3,0.5,0,0.6,0.2c0.6,0,0.6-0.3,1.2-0.2
		c-0.4,0.3-0.1,0.6,0,0.2c1,0.5-1.6,1.1-0.3,1.9c-0.9-0.3-4.3-0.3-6.1,0.5c0.7,0.4,1.3,0.9,1.9,1.4c-0.2,0.5-1.9,0.9-0.9,1.5
		c-0.2,0.7-0.5-0.4-0.9-0.2c1.1-0.2-0.1-1.8,1.2-1.2c-1-1.5-3.1-1.1-4.9-0.5c0.5,0.3,1.7-0.1,1.8,1c0.4-0.1,0.6-0.3,0.6-0.7
		c1.1,0.1-0.8,0.9,0.3,1c-1,0.6-1.3-0.6-3.1,0c0.2-0.2,0.3-0.4,0.3-0.7c-0.5,0.1-0.3,0.8-1.2,0.5c0.1-0.3,1.3-0.4,0-0.5
		c0.6-0.7,0.6-1,0.3-1.9c1.7,0.7,3.2-2.4,4.9-1c0.6-0.1,0.1-1.2,1.2-1c-0.2-0.2-0.7-0.3-0.6-0.7c1,0.3,0.2-0.8,1.2-0.5
		c-0.3-0.2-0.2-0.7-0.6-0.7c-0.4,0.1-0.3,0.6-0.3,1c-0.6-0.4-0.4,0-1.2,0C77.8,18.7,78.3,18.5,78.4,18.1z M77.5,17.8
		c0.3,0.9-1.1,0.4-0.9,1.2c-0.4-0.2-0.6-0.6-1.2-0.7C75.7,17.9,77,18.1,77.5,17.8z M75.4,20.5c1,1-1.5,0-0.9,1.2
		c-0.8,0.3-1.6-0.8-1.5,0.2c-1.1-0.2-0.2-0.7-0.3-1.5C73.6,20.3,74.8,21.3,75.4,20.5z M73.8,19c0.1,0.4-0.5,0.6,0,0.7
		c-0.5,0.6-1,0.4-1.5,0C72.8,19.5,72.8,18.9,73.8,19z M72.3,17.8c0.3,0.8-0.5,0.7-0.6,1.2c-0.4-0.1-0.3-0.5,0-0.5
		c-0.1-0.5-1.3-0.1-1.5-0.5c0.2-0.8,0.6-1.1-0.6-0.7C69.7,16.3,71.1,17.6,72.3,17.8z M71.4,55.2c-0.4-0.7-0.8,0-1.5-0.5
		c0.3-0.4,1.3-0.3,0.9-1.2c0.6,0.1,0.6,0.7,1.5,0.5C71.7,54.7,71.4,54.1,71.4,55.2z M71.7,27c0.6-0.6,1.3-0.9,0-1.4
		c0.3-0.7,0.8,0.3,1.2,0.2c0.9-0.2-0.3-0.5,0-1c1-0.1,1.2,0.3,1.8,0.5c-0.1,0.3-0.6,0.4-0.6,0.7c0.6,0.8,2-0.4,2.4,0.2
		c-1,0.5-1.9,0.3-0.9,1.2c-0.7-0.1-0.6-0.8-1.5-0.7c0.4,0.3,0.9,0.5,0.3,1c-0.4-0.1-0.2-0.2,0-0.2C73.2,27.5,73,26.9,71.7,27z
		 M70.7,60c0.7-0.2,1.1,1.2,1.2,0c0.9,1,1.8,0.4,3.1,1c0.2,0.3-0.4,1.2,0.3,1.2c0.1,0.7-1.6-0.3-0.6-0.2c-0.6-0.2-1.1-0.9-2.8-0.5
		c-0.1-0.4,0.3-0.4,0.3-0.7c-0.8,0.4-1.2,0.6-2.1,0.3C70.1,60.5,71,60.6,70.7,60z M68,60c0.8-0.3,1,1,1.2,0.2c1.1,0-0.7,0.8,0.3,0.7
		c-0.2,0.4-0.7,0.1-0.6-0.3C69,60.1,67.5,60.8,68,60z M69.2,67.4c-0.8,0-0.7-0.8-1.5-0.7c0.3-0.4,0.8-0.5,1.5-0.5
		C68.6,66.7,69.4,66.7,69.2,67.4z M67.1,65c0.4-0.5,1.9,0.1,1.5,1c-1.1,0-0.9,0.3-1.8,0C66.3,65.4,68,65.2,67.1,65z M67.4,71.8
		c0.5,0,1,0,1.5,0c-0.6,0.5,0,0.6,0,1.2c-1.8-0.2-0.8,0.5-1.2,1c-0.8,0.4-0.6-1.1-0.9-0.2c-0.3-0.1-0.2-0.2,0-0.2
		c-0.3-0.2-0.2-0.7-0.6-0.7C66.3,72.2,67.7,72.7,67.4,71.8z M70.4,82.1c-3.4-1-3.5-1.4-4.9-2.2C67.3,78.7,69.8,80.9,70.4,82.1z
		 M66.1,71.3c-0.2-0.6-1.2-0.7-1.2-1.4C65.8,69.9,66.8,70.7,66.1,71.3z M63.4,61.9c0.5,0.4,0.6,0.9,0.6,1.7
		C62.5,63.4,63.4,62.6,63.4,61.9z M57.5,69.4c0.4,0.1,0.3,0.6,0.3,1c-0.4,0-0.8,0-1.2,0C56.3,69.6,57.4,69.8,57.5,69.4z M46.5,90.3
		c0.4-0.3,0.5-1.2-0.3-1.2c-0.3,0.9-1,0.1-0.9,1.2c-0.6-0.1-0.9-0.6-1.8-0.5c0.1-0.6,1.3-0.1,1.5,0c-0.4-0.7-0.5-1.1-0.6-1.5
		c-0.1-0.6,1.2,0.6,0.9-0.5c0.8-0.1,0.7,0.4,1.5,0.2c0,0.3,0,0.6,0,1c0.9-0.6,0.5-0.3,1.5,0C48.1,89.8,47.7,90.3,46.5,90.3z
		 M50.8,93.7c-1-1.3-1.5-2.9-2.1-3.8c0.2-0.3,0.6-0.5,1.2-0.5c-0.4,0.8,1,0.2,0.6,1c-0.3-0.1-0.5-0.3-0.9-0.2c0.1,0.5,1.2,0.2,0.9,1
		c0.3-0.2,0.7-0.3,1.2-0.2c0,0.5-0.8,0.3-0.6,1c-0.3,0-0.2-0.3-0.3-0.5C50.1,92.2,52.1,92.6,50.8,93.7z M52.6,91.8
		c0-0.2,0-0.3,0-0.5c-0.8,0.2,0.3,0.9,0.6,1c-0.3,0.4-0.8,0.5-1.5,0.5c0.5-0.8,0.6-0.7,0.3-1.7c0.8,0.1,1.9,0,1.9,0.7
		C53.3,91.3,53.5,91.8,52.6,91.8z M56.9,92.2c-2.3,0.6,0.7-1.5,0.3-1.5C59,90.5,56.1,91.9,56.9,92.2z M59.1,84
		c-1,1.1-2.3,1.9-4.3,2.2c0.1-0.6-0.1-1-0.9-1c0.1-0.5,1.6-0.2,1.8,0c0.9-0.2,0.4-0.4,0.3-1c-1.1,0.1-1.4,0.7-2.5,0.2
		c1.6-0.8,0.1-1.5,1.8-1.9c0.2,0.7-0.6,0.5-0.6,1c1-0.3,0.8-0.1,1.5,0.2c0.3-0.2,0.6-0.5,0.9-0.7c0.1,0.8,1.4,0.7,2.2,1
		C59.3,84.3,59.1,84.2,59.1,84z M60.9,81.4c-0.5,0-0.6-0.3-1.2-0.2c0.1-0.3,0.6-0.2,0.9-0.2c-0.1-0.3-0.6-0.2-0.9-0.2
		c-0.2-0.7,0.9-0.5,0.6-1.2c0.6,0.1,0.6,0.4,0.3,0.7c0.2,0,0.4,0,0.6,0C61,80.5,60.8,80.8,60.9,81.4z M63.7,77.8
		c0.4,0.6,0,0.4,0.3,1.2c-0.6,0-0.6-0.3-1.2-0.2C63.2,78.6,62.7,77.6,63.7,77.8z M64.3,89.6c-0.2,0-0.4,0-0.6,0c0-0.6,0.4-0.9,1.2-1
		c0.6,0.6-1.3,0.5-0.3,0.7C64.7,89.5,64.5,89.6,64.3,89.6z M66.1,92c0-0.7,0.5-0.5,0-1c-1-0.3-0.2,0.8-1.2,0.5
		c0.2-1.3,1-0.7,2.5-0.7c0,0.4,0.2,0.8,0.6,1C67.4,92.2,67.2,91.7,66.1,92z M67.7,84c0-0.4,0.1-0.9-0.3-1c0.6,0.5,1.8-0.8,1.8-0.2
		c0,0.2,0.4,0.2,0.6,0.2C69.6,84.2,68.8,83.5,67.7,84z M70.1,93c0.4-0.5-0.4-1.4-0.3-1.7C70.5,90.8,71.3,93,70.1,93z M68.6,74.4
		c0.2-0.2,0.4-0.4,0-0.5c0.8-0.6,1.2-1,1.2-1.7c0.4,0.7,1,1.1,1.8,1.4C70.3,73.9,69.7,73.3,68.6,74.4z M71.4,63.1c0.3,0,0.6,0,0.9,0
		c-0.4,0.9,0.9,0.5,0.6,1.2C72.2,64,71.5,63.8,71.4,63.1z M74.1,86.7c0.1,0.5-1.1,0.1-1.5,0.2c0.9-0.2,0.5-1.4,1.5-1.4
		C73.9,86,73.1,86.5,74.1,86.7z M73.2,75.1c-0.7,0-0.7-0.6-0.6-1.2c0.9,0.6,1.5-1,1.8,0.5C73.6,74.3,73.1,74.5,73.2,75.1z
		 M74.4,73.4c-0.7,0-0.7-0.6-0.6-1.2c0.9-0.2,0.8,0.3,1.5,0.2C75,72.8,74.5,73,74.4,73.4z M75.4,89.6c0.3-0.6-0.1-0.6,0.6-1.2
		c0.5,0.5,1.8,0.4,1.8,1.2C76.4,89.3,76.6,89,75.4,89.6z M76.6,88.6c0-0.2,0.4-0.2,0.6-0.2c0.1-0.3-0.1-0.4-0.3-0.5
		c0.4-0.5,1,0.2,1.8-0.2c0.2,0.5,0.9,0.5,0.3,1c-0.4,0.7-0.4-0.4,0-0.5C77.9,88.2,77.9,88.3,76.6,88.6z M78.7,91
		c-0.1-0.5,0.4-0.5,0.9-0.5c-1-0.7,0.2-0.6-0.3-1.2c0.3-0.8,0.1,0.7,0.9,0.2c-0.4,0.3-0.4,0.9-0.3,1.4C79.6,91,79.1,91,78.7,91z
		 M79,112.7c0.3,0.1,0.5,0.7,0.6,0.2c0.3,0.4-0.5,0.5,0.3,1.2c-0.4-0.4-1.6-0.4-1.5-1.2C78.8,113,79,112.9,79,112.7z M79.7,119
		c-1,0-0.9-0.8-2.2-0.5C77.8,118,80.1,118.1,79.7,119z M76,121.6c0.8,0,1.1,0.4,1.5,0.7c0.3-0.5,1.2-0.7,1.5-1.2
		c1.2,0.4,1.8-0.2,2.8,0.5c-0.6,0.6-1.2,1.1-1.8,1.7C78.7,122.2,76.7,123.1,76,121.6z M77.5,129.6c-0.2-0.5,0.6-0.3,0.6-0.7
		c-0.4-0.4-1-0.5,0.3-0.5C78.5,129,78.5,129.7,77.5,129.6z M83.3,148.6c-0.9-0.5-1.5-0.2-2.1-0.5c-0.1-0.5,1.1-0.1,1.5-0.2
		c-0.2-0.2-0.7-0.2-0.6-0.7C82.7,147.5,83.7,147.5,83.3,148.6z M82.7,145.4c0.2,0.5-0.4,1.1-1.2,1.7C80.8,146.7,82.5,146,82.7,145.4
		z M84.3,142.1c-0.5-0.1-0.3-0.8-1.2-0.5c-0.1-0.6,0.1-1,0.9-1C83.9,141.2,84.5,141.3,84.3,142.1z M80.6,139.9
		c-0.1-1.1-1.4-0.3-2.2-1.2c0.8-0.1,1.4,0.1,1.5-1.2c0.6,1.4,2.5,2.2,4.9,2.7C83.4,140.8,82.8,139.4,80.6,139.9z M85.8,136.5
		c-0.7-0.2-0.1-1.4,0.3-1.4c0.1-0.3-1.3,0.1-0.3-0.5c-0.6-0.9-1.3-0.4-2.2-1.2c0.3-1.2,1.1,0.6,1.5-0.2c1.1,0.8,1.3,1.8,1.5,2.6
		C86.8,136.4,85.8,136.1,85.8,136.5z M87,134.1c-0.7,0.1-0.4-0.5-0.9-0.5c0.1-0.3,0.3-0.1,0.3,0c0.7,0,1-0.2,0.9-0.7
		C88.1,133.1,87.4,134,87,134.1z"/>
	<path class="st0" d="M101.1,115.8c-0.7-0.2-1-1.1-0.6-1.4c-0.9-0.2-1.1,0.3-1.8,0.2c0.3,0.7,0.3,1.7,0.9,2.2
		C99.4,115.4,100.8,116.3,101.1,115.8z"/>
	<path class="st0" d="M106.4,119c0.1-0.2,0.4-0.3,0.7-0.4l-1.4-1c-0.2,0.2-0.4,0.4-0.6,0.7c-1,0.1-0.2-1.1-0.9-1.2
		c-0.7,0-0.1,1-0.3,1.4c-0.5-0.4-0.8,0.2-1.8,0c-0.2,0.4,0.9,1,0,1.2c-1.3,0,0.2-0.8-0.6-1.2c0.4-0.4,1.2-0.5,0.9-1.4
		c0.9,0.1,0.9-0.5,1.8-0.5c-0.4-0.4-1.5-0.3-1.8-0.7c0.4-0.3,0.2-0.4,0-0.7l-0.8-0.5c-0.2,0.2-0.2,0.6,0.1,1.5
		c-0.8,0.4-1.3,1.1-2.8,1c-0.1,0.4,0.2,0.5,0.6,0.5c-1.9,0.2-3.1,1.9-2.8,3.1c-0.4-0.4-1.1-1.2-1.2,0c-0.8-1.4,0.2-3.7-0.7-4.9v18.9
		c0,0,0,0,0.1,0c0,0,0,0-0.1,0.1v18.1c11.6-2.7,22.1-8,31.1-15.2c-0.3-0.3-0.5,0-1,0c0.5-0.1,0.1-1.8,0.9-1.4
		c-0.1,0.2-0.3,0.3-0.3,0.6c-0.2,0.6,0.7,0.2,0.7,0.6c1-0.8,2.1-1.7,3.1-2.6l-21-15.3C107.7,119.8,107.2,119.2,106.4,119z
		 M107.3,125.2c0.3,0.7,1.1,0.9,1.2,1.7c-1.4,0.3-1.2-0.6-2.2-0.7C106.7,125.9,107.2,125.7,107.3,125.2z M106.1,136.3
		c0.1-0.3,0.8-0.2,1.2-0.2c0.3,0.2,0.2,0.7,0.6,0.7c-0.5,0.3-1.1,1-1.8,0.5C106.7,137.2,107.8,136.1,106.1,136.3z M105.8,125.7
		c0.1,0.7-0.7,0.8-1.5,0.7C104.4,125.6,104.9,125.4,105.8,125.7z M105.4,137c-1,0.1-1.8-1.3-0.3-1.2c0,0.2-0.4,0.2-0.6,0.2
		C104.7,136.5,105.7,136.2,105.4,137z M99.6,120.6c1.7,0.5,0-0.6,1.2-1.2c0.8,0.2-0.1,1.7,0.6,1.9c0.3-0.5,0.3-1.2,1.8-1.2
		c-0.2,0.7,0.3,0.9,0.3,1.4c-0.9-0.8-1-0.2-0.9,1c-0.6-0.1-0.6,0.2-0.3,0.2c-0.1,0.6-0.5-0.3-1.2,0c0.3-0.4-0.6-1.8-1.5-1.2
		C99.6,121.3,99.6,121,99.6,120.6z M97.2,131.7c0.3-0.3,0.3-0.6-0.3-0.7c0.1-0.3,0.3-0.1,0.3,0c0.3-0.3,1.1-0.1,0.9-0.7
		c0.2,0.1,0.5,0.3,0.9,0.2C98.1,130.7,98.5,131.9,97.2,131.7z M99,149.1c-0.6,0-0.2-0.8-0.9-0.7c0.1-0.4,0.5-0.5,1.2-0.5
		C99.4,148.4,99.3,148.8,99,149.1z M98.7,140.4c0-0.4,0.4-0.5,0.3-1c0.3,0.2,0.8,0.4,0.9,0C100.8,139.8,99.1,140.2,98.7,140.4z
		 M98.4,123c-0.2-0.8-1-1-1.8-1.2c0.4-0.7,2.8,0.7,3.7,1.2C99.6,123,99,123,98.4,123z M100.5,146.2c-0.5-0.5,0-1.3,0-1.7
		c0.3,0.1,0.6,0.3,0.6,0c0.5,0.4,0.5,1.1,1.5,1c-0.3,0.7,0.4,0.6,0.3,1.2C102.1,146.7,101.4,145.4,100.5,146.2z M102.1,136.5
		c-0.6,0-0.6-0.3-1.2-0.2c0.3-0.6,0.9-1.1,1.8-1.2c-0.1-0.3-0.6-0.2-0.9-0.2c-0.6-0.2,1.5-0.4,1.2-1.2c0.3,0,0.2,0.3,0,0.3
		c-0.3,0.9,1.1,0.4,0.9,1.2C103.3,134.8,101.9,135.5,102.1,136.5z M105.2,142.3c-0.7,1-0.3-0.9-1.2-0.5c1.3-0.6,0-1.6,0.9-1.7
		c0.8,0.4,0.6,1.4,1.9,1.4C106.9,142.5,104.1,141.3,105.2,142.3z M114.4,132c-0.1,0.9-0.7,1.4-1.5,1.7
		C112.6,133.5,113.6,132.2,114.4,132z M112.5,139.4c0,0.2,0,0.5,0,0.7c-0.8,0.1-1.3-0.1-1.2-0.7
		C111.7,139.4,112.1,139.4,112.5,139.4z M109.7,126.2c0.9-0.6,0.3,0.5,0.6,1.2c-0.3,0-0.6,0-0.9,0
		C109.5,127.1,110.3,126.2,109.7,126.2z M111.3,140.6c0.3,0.2-1.8,0.5-1.8,1.2C108.8,141.4,110.1,140.4,111.3,140.6z M109.1,138.2
		c0,1.2-2,0-0.9-0.5C108.5,137.9,108.5,138.3,109.1,138.2z"/>
	<path class="st0" d="M108,119.2l-0.6-0.4c-0.1,0.2-0.1,0.4,0.2,0.7C107.8,119.4,107.9,119.3,108,119.2z"/>
	<path class="st0" d="M97.8,112.7c0.3,0.1,0.5,0.3,0.9,0.2c0.2-0.6-0.6-0.5-0.9-0.7c0.1-0.3,0.3-0.1,0.3,0c0.1,0,0.2,0,0.2-0.1
		l-3.3-2.4v3.3c1.1,0.3,2.3,1.8,2.8,2.8c-0.2,0.6-0.3,1.2-1.2,1.2c0.1,0.2,0.3,0.2,0.3,0.5c1,0,1.1-0.6,1.2-1.2
		c0.4,0.1,0.1,0.7,0.6,0.7c1.1-0.8-0.7-1.2-0.6-1.9c0.5-0.2,0.7-0.8,0.6-1.5c0.6-0.1,1-0.2,1.2-0.3l-0.5-0.4
		C98.9,113.5,97.9,113.6,97.8,112.7z"/>
	<polygon class="st0" points="312.4,104.4 308.6,119.5 307.9,122.8 307.8,122.8 307.1,119.5 302.6,104.4 300.9,104.4 296.5,119.5 
		295.7,122.8 295.6,122.8 294.9,119.5 291.1,104.4 289.3,104.4 294.7,125.5 296.4,125.5 301.2,109.3 301.7,107.1 301.8,107.1 
		302.4,109.3 307.1,125.5 308.7,125.5 314.2,104.4 	"/>
	<path class="st0" d="M278.2,104.4h-6.1v21.1h6.1c2.6,0,4.7-0.9,6.4-2.6c1.7-1.7,2.5-3.9,2.5-6.6v-2.7c0-2.7-0.8-4.9-2.5-6.6
		C282.9,105.2,280.8,104.4,278.2,104.4z M285.4,116.3c0,2.2-0.7,4.1-2,5.5c-1.4,1.5-3.1,2.2-5.2,2.2h-4.4v-18.2h4.4
		c2.1,0,3.8,0.7,5.2,2.2s2,3.3,2,5.5V116.3z"/>
	<path class="st0" d="M336.2,124.2c0,0,0-0.1,0-0.1c0,0,0,0.1,0.1,0.1c0.5-0.3,1-0.7,1.4-1.2c1.4-1.4,2.2-3.2,2.4-5.4
		c-0.5,0-1.4-0.4-1.4,0.9c-0.1-0.2-0.3-0.3-0.4-0.5c-0.3,1.5-0.9,2.7-1.9,3.8c-1.3,1.5-3.1,2.2-5.2,2.2H327
		c-0.1,0.1-0.1,0.3-0.1,0.5c-0.6-0.3-0.7,0.3-1.2,0.1c0.1-0.9,1.5-1.4,0.8-2.4c0.1-0.1,0.3-0.1,0.4-0.2v-16.3h4.4
		c0.8,0,1.5,0.1,2.2,0.3c0.1-0.1,0.1-0.3,0-0.6c0.6,0,0.9,0.2,0.8,0.9c0.1,0.1,0.2,0.1,0.3,0.2c0.1-0.5,0.4-0.9,0.6-1.4
		c-1.2-0.6-2.5-0.9-4-0.9h-1.9c0.1,0.2,0.2,0.3,0.4,0.4c-0.3,0.1-0.6-0.1-0.8-0.4h-1c-0.3,0.5-0.6,0.9-1.3,0.6
		c0.1-0.2,0.2-0.4,0.3-0.6h-1.7v21.1h6.1C333.2,125.5,334.8,125.1,336.2,124.2z"/>
	<path class="st0" d="M318.5,106.9c0-0.2,0.1-0.4,0.1-0.6c0.2,0,0.1,0.4,0.1,0.7c0.5,0.1,0.4-0.8,1-0.5v-2.1h-1.7v21.1h1.7v-17.6
		C319.4,107.5,318.9,107.1,318.5,106.9z"/>
	<path class="st0" d="M273.8,93.4v1.9c0,0.7,0.1,1.3,0.2,2c0.1,0.6,0.4,1.1,0.8,1.5h1.8v-0.3c-0.4-0.3-0.6-0.8-0.8-1.3
		c-0.2-0.5-0.2-1.1-0.2-1.8v-2c0-1.3-0.3-2.3-0.9-3.2c-0.6-0.8-1.5-1.4-2.8-1.8c1.2-0.4,2.1-1.1,2.7-1.9c0.6-0.9,1-1.9,1-3
		c0-1.9-0.6-3.4-1.8-4.4c-1.2-1-2.9-1.5-5.2-1.5h-7.2v21.1h1.7v-9.6h5.9c1.5,0,2.7,0.4,3.5,1.1C273.3,91.1,273.8,92.1,273.8,93.4z
		 M268.3,87.7h-5.2v-8.6h5.4c1.8,0,3.1,0.4,4,1.1c0.9,0.8,1.3,1.8,1.3,3.2c0,1.3-0.4,2.3-1.3,3.1C271.6,87.3,270.2,87.7,268.3,87.7z
		"/>
	<path class="st0" d="M294.1,83.8c0-1.9-0.6-3.4-1.8-4.5c-1.2-1.1-2.9-1.7-5.1-1.7h-7.3v21.1h1.7V90h5.5c2.2,0,3.9-0.6,5.1-1.7
		C293.5,87.2,294.1,85.7,294.1,83.8z M287.2,88.5h-5.5v-9.4h5.5c1.8,0,3.1,0.4,3.9,1.3c0.9,0.9,1.3,2,1.3,3.4c0,1.3-0.4,2.5-1.3,3.3
		C290.2,88,288.9,88.5,287.2,88.5z"/>
</g>
</svg>
