<?xml version="1.0" encoding="utf-8"?>
<!-- Generator: Adobe Illustrator 23.0.4, SVG Export Plug-In . SVG Version: 6.00 Build 0)  -->
<svg version="1.1" id="Layer_1" xmlns="http://www.w3.org/2000/svg" xmlns:xlink="http://www.w3.org/1999/xlink" x="0px" y="0px"
	 viewBox="0 0 434 116" style="enable-background:new 0 0 434 116;" xml:space="preserve">
<style type="text/css">
	.st0{fill:#112A3F;}
	.st1{fill:#3EC8ED;}
</style>
<path class="st0" d="M65.9,60v29.8c0-2.1,0-16.1,0-30C65.9,59.8,65.9,59.9,65.9,60z"/>
<path class="st0" d="M42.6,65.7c0-0.1,0-0.2,0-0.2V35.7C42.6,37.8,42.6,51.8,42.6,65.7z"/>
<path class="st1" d="M137.5,12.2c0,6.7-5.4,12.2-12.2,12.2c-6.7,0-12.2-5.4-12.2-12.2c0-6.7,5.4-12.2,12.2-12.2
	C132,0,137.5,5.4,137.5,12.2z"/>
<g>
	<g>
		<path class="st0" d="M169.8,105.6c1.9-4.3,5.2-11.8,5.2-11.8c3.7,2.2,7.6,3.6,10.2,3.6c2.3,0,3.9-0.6,5.4-2.7l-26.1-65.3h24.5
			l13.3,40.1l11-35.3c0,0,1.3-4.8,5.9-4.8c2.7,0,19.6,0,19.6,0l-24.4,65c-5.8,15.5-12.1,21.7-25.3,21.7c-6.8,0-11.9-1.2-17.2-3.7
			C172,112.3,167.6,110.3,169.8,105.6z"/>
	</g>
	<path class="st0" d="M108.5,52.5c0,0,0,32.9,0,37.3c0,6.3-6.3,6.3-6.3,6.3H85.1V60c0-7.3-3.8-11.2-9.5-11.2c-5.5,0-9.6,3.9-9.7,11
		c0,0.1,0,0.2,0,0.2v29.8c0,6.2-6.3,6.3-6.3,6.3H42.6c0,0,0-3.6,0-9.1c-4.3,5.5-10.5,10.6-19.9,10.6C8.5,97.5,0,88.1,0,73
		c0,0,0-32.9,0-37.3c0-6.3,6.3-6.3,6.3-6.3h17.1v36.1c0,7.3,3.8,11.2,9.5,11.2c5.5,0,9.6-3.9,9.7-11c0-0.1,0-0.2,0-0.2V35.7
		c0-6.2,6.3-6.3,6.3-6.3h17.1v9.1C70.2,33,76.4,28,85.9,28C100,28,108.5,37.3,108.5,52.5z"/>
	<path class="st0" d="M113.8,72.9c0,0,0-32.9,0-37.3c0-6.3,6.3-6.3,6.3-6.3h17.1v23.1c0,0,0,32.9,0,37.3c0,6.3-6.3,6.3-6.3,6.3
		h-17.1V72.9z"/>
	<path class="st0" d="M142.7,49.7c0,0,0-32.9,0-37.3c0-6.3,6.3-6.3,6.3-6.3h17.1v23.1c0,0,0,56.2,0,60.6c0,6.3-6.3,6.3-6.3,6.3
		h-17.1V49.7z"/>
</g>
<g>
	<g>
		<path class="st0" d="M278.6,54.3H276v-3.8c-0.2,0.4-0.5,1.2-1.1,1.9c-1.6,2-3.9,2.4-5.6,2.4c-4.1,0-5.8-2.6-6.3-3.9
			c-0.7-1.6-0.8-3.8-0.8-7.3V33.2h2.6v10.9c0,4.6,0,8.3,4.8,8.3c1.2,0,3-0.2,4.5-1.8c1.9-1.9,1.9-4.2,1.9-8.1v-9.3h2.6V54.3z"/>
		<path class="st0" d="M300.6,54.3H298V43.3c0-4.1,0-5.3-0.8-6.5c-0.5-0.8-1.8-1.8-4.1-1.8c-2.4,0-3.8,0.9-4.9,2.4
			c-1.3,1.8-1.3,3.1-1.3,7.6v9.3h-2.6V33.2h2.6V37c0.7-2.1,2.8-4.2,6.6-4.2c1.2,0,3.9,0.1,5.8,2.5c1.4,1.8,1.4,3.5,1.4,8.1V54.3z"/>
	</g>
	<path class="st0" d="M308.8,54.3h-2.6V33.2h2.6V54.3z M308.8,28.2h-2.6v-4h2.6V28.2z"/>
	<g>
		<path class="st0" d="M318.8,49.8c0,2,0.7,2.6,1.7,2.6c0.9,0,2-0.6,2.9-1.3v2.6c-1.1,0.7-2.1,1-3.4,1c-3.8,0-3.8-2.1-3.8-6.2V35.4
			h-4.4v-2.2h4.4v-9h2.5v9h4.6v2.2h-4.6V49.8z"/>
		<path class="st0" d="M341.4,41.6c-0.2-1.9-0.8-3.7-2.2-5c-0.9-0.8-2.3-1.6-4.4-1.6c-3.6,0-6.3,2.6-6.8,6.6H341.4z M344.4,48.7
			c-0.3,0.8-0.9,1.9-2,3.2c-0.6,0.7-2.7,2.9-7.2,2.9c-7,0-10-5.4-10-11.2c0-7,4.6-10.9,9.7-10.9c6.4,0,9.7,5.6,9.5,11.1H328
			c0,1.1,0,2.7,0.7,4.4c1.7,4.3,5.6,4.3,6.5,4.3c2.3,0,5-0.8,6.8-4.4L344.4,48.7z"/>
		<path class="st0" d="M374.5,33.2L365,57.3c-1.6,3.9-1.8,4.4-2.2,5.2c-1,1.6-2,2.4-3.9,2.4c-1.5,0-2.4-0.5-2.8-0.8v-2.7
			c1.2,0.9,2.2,1.1,2.7,1.1c1.3,0,1.9-0.7,2.6-2.5c0.2-0.4,0.9-2.3,1.1-2.7l1.1-3.1l-7.3-21.1h2.5l6.2,18l6.9-18H374.5z"/>
		<path class="st0" d="M385.1,34.9c-1.9,0-3.7,0.8-4.9,2.2c-1.8,2.1-2,5.3-2,7c0,6,3.1,8.5,6.7,8.5c4.6,0,6.8-3.7,6.9-8.6
			C391.8,42.7,391.9,34.9,385.1,34.9 M385,54.8c-6.2,0-9.5-4.9-9.5-10.8c0-5.5,2.8-11.3,9.6-11.3c6.7,0,9.5,5.5,9.6,10.9
			C394.7,50,390.9,54.8,385,54.8"/>
		<path class="st0" d="M415.3,54.3h-2.6v-3.8c-0.2,0.4-0.5,1.2-1.1,1.9c-1.6,2-3.9,2.4-5.6,2.4c-4.1,0-5.8-2.6-6.3-3.9
			c-0.7-1.6-0.8-3.8-0.8-7.3V33.2h2.6v10.9c0,4.6,0,8.3,4.8,8.3c1.2,0,3-0.2,4.5-1.8c1.9-1.9,1.9-4.2,1.9-8.1v-9.3h2.6V54.3z"/>
		<path class="st0" d="M423.5,54.3h-2.6V33.2h2.6v3.4c1.3-2.8,3.5-3.7,6.2-3.7c0.6,0,0.9,0,1.5,0.1v2.3c-0.8-0.1-0.9-0.1-1.6-0.1
			c-0.7,0-2.8,0-4.3,1.7c-1.6,1.8-1.6,4-1.7,8.3V54.3z"/>
		<path class="st0" d="M277.1,81c-0.2-1.9-0.8-3.7-2.2-5c-0.9-0.8-2.3-1.6-4.4-1.6c-3.6,0-6.3,2.6-6.8,6.6H277.1z M280.1,88
			c-0.3,0.8-0.9,1.9-2,3.2c-0.6,0.7-2.7,2.9-7.2,2.9c-7,0-10-5.4-10-11.2c0-7,4.6-10.9,9.7-10.9c6.4,0,9.7,5.6,9.5,11.1h-16.4
			c0,1.1,0,2.7,0.7,4.4c1.7,4.3,5.6,4.3,6.5,4.3c2.3,0,5-0.8,6.8-4.4L280.1,88z"/>
		<path class="st0" d="M300.8,93.6h-2.6V82.7c0-4.1,0-5.3-0.8-6.5c-0.5-0.8-1.8-1.8-4.1-1.8c-2.4,0-3.8,0.9-4.9,2.4
			c-1.3,1.8-1.3,3.1-1.3,7.6v9.3h-2.6V72.5h2.6v3.8c0.7-2.1,2.8-4.2,6.6-4.2c1.2,0,3.9,0.1,5.8,2.5c1.4,1.8,1.4,3.5,1.4,8.1V93.6z"
			/>
		<path class="st0" d="M310.4,89.2c0,2,0.7,2.6,1.7,2.6c0.9,0,2-0.6,2.9-1.3V93c-1.1,0.7-2.1,1-3.4,1c-3.8,0-3.8-2.1-3.8-6.2V74.7
			h-4.4v-2.2h4.4v-9h2.5v9h4.6v2.2h-4.6V89.2z"/>
		<path class="st0" d="M333,81c-0.2-1.9-0.8-3.7-2.2-5c-0.9-0.8-2.3-1.6-4.4-1.6c-3.6,0-6.3,2.6-6.8,6.6H333z M336,88
			c-0.3,0.8-0.9,1.9-2,3.2c-0.6,0.7-2.7,2.9-7.2,2.9c-7,0-10-5.4-10-11.2c0-7,4.6-10.9,9.7-10.9c6.4,0,9.7,5.6,9.5,11.1h-16.4
			c0,1.1,0,2.7,0.7,4.4c1.7,4.3,5.6,4.3,6.5,4.3c2.3,0,5-0.8,6.8-4.4L336,88z"/>
		<path class="st0" d="M342.9,93.6h-2.6V72.5h2.6v3.4c1.3-2.8,3.5-3.7,6.2-3.7c0.6,0,0.9,0,1.5,0.1v2.3c-0.8-0.1-0.9-0.1-1.6-0.1
			c-0.7,0-2.8,0-4.3,1.7c-1.6,1.8-1.6,4-1.7,8.3V93.6z"/>
		<path class="st0" d="M356.4,87c0.9,3.4,3.3,4.6,5.6,4.6c5.1,0,6.6-5.3,6.6-8.8c0-4.6-2.1-8.4-6.6-8.4c-5.7,0-5.9,6.4-5.9,8.3
			C356,84.3,356,85.7,356.4,87 M353.5,72.5h2.6V76c0.3-0.7,0.5-1.2,1.3-1.9c1.3-1.3,3.2-1.9,5.1-1.9c6.9,0,8.8,6.7,8.8,11.1
			c0,5.7-3.1,11-8.8,11c-2.7,0-5.2-1.2-6.4-4v14.7h-2.6V72.5z"/>
		<path class="st0" d="M378.3,93.6h-2.6V72.5h2.6v3.4c1.3-2.8,3.5-3.7,6.2-3.7c0.6,0,0.9,0,1.5,0.1v2.3c-0.8-0.1-0.9-0.1-1.6-0.1
			c-0.7,0-2.8,0-4.3,1.7c-1.6,1.8-1.6,4-1.7,8.3V93.6z"/>
	</g>
	<path class="st0" d="M391.5,93.6h-2.6V72.5h2.6V93.6z M391.5,67.5h-2.6v-4h2.6V67.5z"/>
	<g>
		<path class="st0" d="M405.7,81.7c1.4,0.4,3.1,0.8,4.5,2.3c0.9,1,1.4,2.3,1.4,3.7c0,3.1-2.4,6.5-7.9,6.5c-2.7,0-4.4-0.9-5.3-1.5
			c-1.5-1-2.4-2.3-3.2-4.2l2.6-0.9c0.5,1.9,2.3,4.2,5.9,4.2c3.6,0,5.4-1.9,5.4-4.2c0-2.7-2.8-3.4-4.5-3.8c-0.8-0.2-1.7-0.4-2.5-0.5
			c-1.9-0.4-5.5-1.3-5.5-5.4c0-2.2,1.2-5.9,7.6-5.9c2.1,0,3.8,0.5,4.9,1.2c1.9,1.2,2.4,2.9,2.6,3.6l-2.5,0.6
			c-0.1-0.6-0.4-1.6-1.8-2.4c-0.9-0.5-2.1-0.8-3.3-0.8c-1.6,0-4.9,0.4-4.9,3.5c0,2.3,2.1,2.9,4.4,3.4L405.7,81.7z"/>
		<path class="st0" d="M431.1,81c-0.2-1.9-0.8-3.7-2.2-5c-0.9-0.8-2.3-1.6-4.4-1.6c-3.6,0-6.3,2.6-6.8,6.6H431.1z M434,88
			c-0.3,0.8-0.9,1.9-2,3.2c-0.6,0.7-2.7,2.9-7.2,2.9c-7,0-10-5.4-10-11.2c0-7,4.6-10.9,9.7-10.9c6.4,0,9.7,5.6,9.5,11.1h-16.4
			c0,1.1,0,2.7,0.7,4.4c1.7,4.3,5.6,4.3,6.5,4.3c2.3,0,5-0.8,6.8-4.4L434,88z"/>
	</g>
</g>
</svg>
