<?xml version="1.0" encoding="utf-8"?>
<!-- Generator: Adobe Illustrator 24.3.0, SVG Export Plug-In . SVG Version: 6.00 Build 0)  -->
<svg version="1.1" id="Layer_1" xmlns="http://www.w3.org/2000/svg" xmlns:xlink="http://www.w3.org/1999/xlink" x="0px" y="0px"
	 viewBox="0 0 614.3 178.6" style="enable-background:new 0 0 614.3 178.6;" xml:space="preserve">
<style type="text/css">
	.st0{fill:#FFFFFF;}
</style>
<g>
	<g>
		<path class="st0" d="M76.4,30.6v80.3c-0.1,12.1-3.4,21.3-10,27.7c-6.5,6.4-15.9,9.6-28.1,9.6c-12.4,0-21.9-3.2-28.5-9.7
			C3.3,131.9,0,122.5,0,110.3V30.6h23.6v79.8c0,6.6,1.1,11.3,3.2,14.1c2.1,2.8,6,4.2,11.5,4.2s9.4-1.4,11.5-4.2s3.1-7.4,3.2-13.7
			V30.6H76.4z"/>
		<path class="st0" d="M174.2,146.5h-23.4l-34.2-76.1v76.1H93.1V30.6h23.4l34.3,76.1V30.6h23.3V146.5z"/>
		<path class="st0" d="M214.3,146.5h-23.4V30.6h23.4V146.5z"/>
		<path class="st0" d="M311.4,50.1h-28.7v96.4h-23.5V50.1h-28.2V30.6h80.4V50.1z"/>
		<path class="st0" d="M388,96.3h-36.5v30.7h43.2v19.4h-66.6V30.6h66.4v19.5h-43v27.4H388V96.3z"/>
	</g>
	<path class="st0" d="M525,0c-49.3,0-89.3,40-89.3,89.3s40,89.3,89.3,89.3s89.3-40,89.3-89.3S574.3,0,525,0z M527.4,133.1h-50.8
		v-11.9l23.3-29.7c3-4.1,5.1-7.7,6.5-10.8c1.4-3.1,2.1-6.1,2.1-8.9c0-3.8-0.7-6.8-2-9c-1.3-2.2-3.2-3.3-5.7-3.3
		c-2.7,0-4.9,1.3-6.5,3.8c-1.6,2.5-2.4,6.1-2.4,10.7h-16.8c0-5.3,1.1-10.1,3.3-14.5c2.2-4.4,5.3-7.8,9.2-10.2
		c4-2.4,8.5-3.6,13.5-3.6c7.7,0,13.7,2.1,17.9,6.4c4.2,4.2,6.4,10.3,6.4,18.1c0,4.9-1.2,9.8-3.5,14.8c-2.4,5-6.6,11.2-12.8,18.5
		L498,119.1h29.3V133.1z M574.8,133.1H558V67.2l-16.4,6.3v-14l31.5-12.9h1.8V133.1z"/>
</g>
</svg>
