<?xml version="1.0" encoding="utf-8"?>
<!-- Generator: Adobe Illustrator 24.3.0, SVG Export Plug-In . SVG Version: 6.00 Build 0)  -->
<svg version="1.1" id="Layer_1" xmlns="http://www.w3.org/2000/svg" xmlns:xlink="http://www.w3.org/1999/xlink" x="0px" y="0px"
	 viewBox="0 0 364.6 330.7" style="enable-background:new 0 0 364.6 330.7;" xml:space="preserve">
<style type="text/css">
	.st0{fill:#FFFFFF;}
</style>
<g>
	<g>
		<path class="st0" d="M70.6,140.4v74.2c-0.1,11.1-3.2,19.7-9.2,25.6c-6,5.9-14.7,8.9-26,8.9c-11.5,0-20.2-3-26.3-9
			C3,234,0,225.4,0,214v-73.6h21.8v73.7c0,6.1,1,10.4,2.9,13c2,2.6,5.5,3.9,10.7,3.9s8.7-1.3,10.6-3.9c1.9-2.6,2.9-6.8,2.9-12.7
			v-74.1H70.6z"/>
		<path class="st0" d="M160.9,247.5h-21.6l-31.6-70.3v70.3H86V140.4h21.6l31.7,70.3v-70.3h21.6V247.5z"/>
		<path class="st0" d="M198,247.5h-21.6V140.4H198V247.5z"/>
		<path class="st0" d="M287.7,158.4h-26.5v89.1h-21.7v-89.1h-26v-18h74.2V158.4z"/>
		<path class="st0" d="M358.5,201.2h-33.7v28.4h39.9v18h-61.5V140.4h61.4v18h-39.7v25.3h33.7V201.2z"/>
	</g>
	<path class="st0" d="M182.3,0c-33.2,0-60,26.9-60,60s26.9,60,60,60c33.2,0,60-26.9,60-60S215.5,0,182.3,0z M183.9,89.4h-34.2v-8
		l15.7-20c2-2.8,3.5-5.2,4.4-7.3c0.9-2.1,1.4-4.1,1.4-6c0-2.6-0.4-4.6-1.3-6.1c-0.9-1.5-2.2-2.2-3.8-2.2c-1.8,0-3.3,0.9-4.4,2.5
		c-1.1,1.7-1.6,4.1-1.6,7.2h-11.3c0-3.6,0.7-6.8,2.2-9.8c1.5-2.9,3.5-5.2,6.2-6.9c2.7-1.6,5.7-2.4,9.1-2.4c5.2,0,9.2,1.4,12,4.3
		c2.9,2.9,4.3,6.9,4.3,12.2c0,3.3-0.8,6.6-2.4,9.9c-1.6,3.4-4.4,7.5-8.6,12.4l-7.4,10.6h19.7V89.4z M215.8,89.4h-11.3V45.1l-11,4.3
		V40l21.1-8.6h1.2V89.4z"/>
</g>
<g>
	<path class="st0" d="M22.9,319.3c-0.2,3.7-1.2,6.6-3.2,8.5c-1.9,1.9-4.7,2.9-8.2,2.9c-3.7,0-6.6-1.2-8.5-3.7c-2-2.4-3-5.9-3-10.5
		V311c0-4.5,1-8,3.1-10.4c2-2.4,4.9-3.7,8.5-3.7c3.6,0,6.3,1,8.2,3c1.9,2,2.9,4.9,3.2,8.6h-6.7c-0.1-2.3-0.4-3.9-1.1-4.8
		c-0.7-0.9-1.9-1.3-3.6-1.3c-1.8,0-3,0.6-3.8,1.9c-0.7,1.2-1.1,3.3-1.2,6.1v6.2c0,3.3,0.4,5.5,1.1,6.7c0.7,1.2,2,1.8,3.8,1.8
		c1.7,0,2.9-0.4,3.6-1.3c0.7-0.9,1-2.4,1.1-4.6H22.9z"/>
	<path class="st0" d="M59.4,316.7c0,4.4-1,7.8-3.1,10.3c-2.1,2.4-5,3.7-8.7,3.7c-3.7,0-6.6-1.2-8.7-3.6c-2.1-2.4-3.2-5.8-3.2-10.1
		v-5.6c0-4.5,1-8,3.1-10.6c2.1-2.5,5-3.8,8.7-3.8c3.7,0,6.5,1.2,8.6,3.7c2.1,2.5,3.2,6,3.2,10.5V316.7z M52.7,311.2
		c0-3-0.4-5.2-1.3-6.6c-0.8-1.4-2.2-2.2-3.9-2.2c-1.8,0-3.1,0.7-3.9,2.1c-0.8,1.4-1.3,3.5-1.3,6.4v5.8c0,2.9,0.4,5,1.3,6.4
		c0.9,1.4,2.2,2,4,2c1.7,0,3-0.7,3.9-2c0.8-1.3,1.3-3.4,1.3-6.2V311.2z"/>
	<path class="st0" d="M82,297.4l6.2,23.8l6.2-23.8h8.7v32.9h-6.7v-8.9l0.6-13.7l-6.6,22.6H86l-6.6-22.6l0.6,13.7v8.9h-6.6v-32.9H82z
		"/>
	<path class="st0" d="M124.6,330.2H118v-32.9h6.6V330.2z"/>
	<path class="st0" d="M162.4,330.2h-6.6l-9.7-21.6v21.6h-6.6v-32.9h6.6l9.7,21.6v-21.6h6.6V330.2z"/>
	<path class="st0" d="M199.3,326.5c-1.3,1.4-2.8,2.4-4.7,3.1c-1.9,0.7-3.9,1-6.1,1c-3.8,0-6.7-1.2-8.8-3.5
		c-2.1-2.3-3.2-5.7-3.2-10.2V311c0-4.5,1-8,3-10.5c2-2.4,4.9-3.7,8.7-3.7c3.6,0,6.3,0.9,8.1,2.6c1.8,1.8,2.9,4.5,3.1,8.3h-6.5
		c-0.2-2.1-0.6-3.5-1.3-4.3c-0.7-0.8-1.8-1.1-3.3-1.1c-1.8,0-3.1,0.7-3.9,2s-1.2,3.4-1.3,6.3v6c0,3,0.4,5.2,1.3,6.5
		c0.9,1.4,2.4,2,4.4,2c1.3,0,2.4-0.3,3.2-0.8l0.6-0.4v-6H188v-5h11.3V326.5z"/>
	<path class="st0" d="M247,321.6c0-1.3-0.3-2.4-1-3c-0.7-0.7-1.9-1.4-3.7-2.1c-3.3-1.2-5.7-2.7-7.1-4.4c-1.4-1.7-2.2-3.7-2.2-5.9
		c0-2.8,1-5,2.9-6.7c2-1.7,4.5-2.5,7.5-2.5c2,0,3.8,0.4,5.4,1.3c1.6,0.9,2.8,2.1,3.6,3.6c0.9,1.6,1.3,3.3,1.3,5.3h-6.6
		c0-1.5-0.3-2.7-1-3.5c-0.7-0.8-1.6-1.2-2.8-1.2c-1.2,0-2.1,0.3-2.7,1c-0.6,0.7-1,1.6-1,2.8c0,0.9,0.4,1.7,1.1,2.4
		c0.7,0.7,2,1.5,3.8,2.3c3.2,1.2,5.5,2.6,7,4.3c1.5,1.7,2.2,3.8,2.2,6.4c0,2.9-0.9,5.1-2.7,6.7c-1.8,1.6-4.3,2.4-7.4,2.4
		c-2.1,0-4.1-0.4-5.8-1.3c-1.7-0.9-3.1-2.1-4.1-3.7c-1-1.6-1.5-3.5-1.5-5.8h6.7c0,1.9,0.4,3.3,1.1,4.1c0.7,0.9,1.9,1.3,3.6,1.3
		C245.9,325.3,247,324,247,321.6z"/>
	<path class="st0" d="M290.5,316.7c0,4.4-1,7.8-3.1,10.3c-2.1,2.4-5,3.7-8.7,3.7c-3.7,0-6.6-1.2-8.7-3.6c-2.1-2.4-3.2-5.8-3.2-10.1
		v-5.6c0-4.5,1-8,3.1-10.6c2.1-2.5,5-3.8,8.7-3.8c3.7,0,6.5,1.2,8.6,3.7c2.1,2.5,3.2,6,3.2,10.5V316.7z M283.9,311.2
		c0-3-0.4-5.2-1.3-6.6c-0.8-1.4-2.2-2.2-3.9-2.2c-1.8,0-3.1,0.7-3.9,2.1c-0.8,1.4-1.3,3.5-1.3,6.4v5.8c0,2.9,0.4,5,1.3,6.4
		c0.9,1.4,2.2,2,4,2c1.7,0,3-0.7,3.9-2c0.8-1.3,1.3-3.4,1.3-6.2V311.2z"/>
	<path class="st0" d="M327.7,316.7c0,4.4-1,7.8-3.1,10.3c-2.1,2.4-5,3.7-8.7,3.7c-3.7,0-6.6-1.2-8.7-3.6c-2.1-2.4-3.2-5.8-3.2-10.1
		v-5.6c0-4.5,1-8,3.1-10.6c2.1-2.5,5-3.8,8.7-3.8c3.7,0,6.5,1.2,8.6,3.7c2.1,2.5,3.2,6,3.2,10.5V316.7z M321,311.2
		c0-3-0.4-5.2-1.3-6.6c-0.8-1.4-2.2-2.2-3.9-2.2c-1.8,0-3.1,0.7-3.9,2.1c-0.8,1.4-1.3,3.5-1.3,6.4v5.8c0,2.9,0.4,5,1.3,6.4
		c0.9,1.4,2.2,2,4,2c1.7,0,3-0.7,3.9-2c0.8-1.3,1.3-3.4,1.3-6.2V311.2z"/>
	<path class="st0" d="M364.6,330.2H358l-9.7-21.6v21.6h-6.6v-32.9h6.6l9.7,21.6v-21.6h6.6V330.2z"/>
</g>
</svg>
