<?xml version="1.0" encoding="utf-8"?>
<!-- Generator: Adobe Illustrator 24.3.0, SVG Export Plug-In . SVG Version: 6.00 Build 0)  -->
<svg version="1.1" id="Layer_1" xmlns="http://www.w3.org/2000/svg" xmlns:xlink="http://www.w3.org/1999/xlink" x="0px" y="0px"
	 viewBox="0 0 39.6 38.7" style="enable-background:new 0 0 39.6 38.7;" xml:space="preserve">
<style type="text/css">
	.st0{fill:#1365BE;}
	.st1{fill:#18A7ED;}
	.st2{fill:#0A84F0;}
	.st3{fill:#03509A;}
	.st4{fill:#FFFFFF;}
</style>
<path class="st0" d="M15.2,28l10.4,10.3c0.5,0.5,1.4,0.5,1.8-0.1c1.9-2.3,6.4-8.1,6.4-13.2l-16-4.2L15.2,28z"/>
<path class="st1" d="M15.1,11L25.7,0.3c0.4-0.4,1.1-0.4,1.5,0c1.6,1.7,5.2,6.1,6.7,12.4l-18.4,4.8L15.1,11z"/>
<path class="st2" d="M18.8,16.2l18.7-5c0.6-0.2,1.2,0.2,1.4,0.8c0.3,1.3,0.8,3.9,0.8,7.5c0,3.6-0.5,6.2-0.9,7.5
	c-0.2,0.6-0.8,0.9-1.4,0.8L15,21.5L18.8,16.2z"/>
<path class="st3" d="M18.3,29.4H1.7c-0.9,0-1.7-0.8-1.7-1.7V11.1c0-0.9,0.8-1.7,1.7-1.7h16.6c0.9,0,1.7,0.8,1.7,1.7v16.6
	C20,28.7,19.2,29.4,18.3,29.4z"/>
<path class="st4" d="M13.8,14.1c-0.5-0.3-1.1-0.1-1.3,0.4L10.1,19l-2.5-4.6c-0.3-0.5-0.9-0.6-1.3-0.4c-0.5,0.3-0.6,0.9-0.4,1.3
	L8.9,21v2.9c0,0.6,0.5,1.1,1.1,1.1s1.1-0.5,1.1-1.1v-2.7l3.2-5.8C14.5,14.9,14.3,14.3,13.8,14.1z"/>
</svg>
