<?xml version="1.0" encoding="utf-8"?>
<!-- Generator: Adobe Illustrator 21.0.0, SVG Export Plug-In . SVG Version: 6.00 Build 0)  -->
<svg version="1.1" id="Layer_1" xmlns="http://www.w3.org/2000/svg" xmlns:xlink="http://www.w3.org/1999/xlink" x="0px" y="0px"
	 viewBox="0 0 118.3 25" style="enable-background:new 0 0 118.3 25;" xml:space="preserve">
<style type="text/css">
	.st0{fill:#FFFFFF;}
</style>
<g>
	<path class="st0" d="M48.2,6.3c-2.4,0-3.8,1.1-4.9,3c-0.5-1.1-1.6-3-4.9-3c-2.6,0-3.8,1.4-4.5,3h-0.1c0-0.5,0-1,0-1.5
		c-0.1-0.6-0.6-1-1.2-1c-0.7,0-1.2,0.5-1.3,1.2c0,0.7,0.1,1.5,0.1,2.4v10.5v0v0.1c0,0.7,0.6,1.3,1.3,1.3c0.7,0,1.2-0.5,1.3-1.1v-6.4
		c0-3.6,0.7-6,4.1-6c2.1,0,3,1.3,3,4.8v7.4h0v0v0v0.1c0,0.7,0.6,1.3,1.3,1.3c0.7,0,1.2-0.5,1.3-1.1v-6.4l0,0v-1.4
		c0-2.8,1.8-4.6,4-4.6c3,0,3.1,2.1,3.1,4.3v7.9h0c0,0,0,0,0,0.1c0,0.7,0.6,1.3,1.3,1.3c0.7,0,1.2-0.5,1.3-1.2v-8.2
		C53.4,8.8,52.7,6.3,48.2,6.3 M72.5,6.3c-2.4,0-3.8,1.1-4.9,3c-0.5-1.1-1.6-3-4.9-3c-2.6,0-3.8,1.4-4.5,3H58c0-0.5,0-1,0-1.5
		c-0.1-0.6-0.6-1-1.2-1c-0.7,0-1.2,0.5-1.3,1.2c0,0.7,0.1,1.5,0.1,2.4v10.5v0v0.1c0,0.7,0.6,1.3,1.3,1.3c0.7,0,1.2-0.5,1.3-1.1v-6.4
		c0-3.6,0.7-6,4.1-6c2.1,0,3,1.3,3,4.8v7.4h0v0v0v0.1c0,0.7,0.6,1.3,1.3,1.3c0.7,0,1.2-0.5,1.3-1.1v-6.4l0,0v-1.4
		c0-2.8,1.8-4.6,4-4.6c3,0,3.1,2.1,3.1,4.3v7.9h0c0,0,0,0,0,0.1c0,0.7,0.6,1.3,1.3,1.3c0.7,0,1.2-0.5,1.3-1.2v-8.2
		C77.7,8.8,76.9,6.3,72.5,6.3 M104.9,6.3C104.9,6.3,104.9,6.3,104.9,6.3L104.9,6.3c-0.1,0-0.2,0-0.2,0c-2.5,0-4.4,1.5-5.1,3h-0.1
		c0-0.5,0-1,0-1.4l0,0c0,0,0,0,0-0.1c-0.1-0.7-0.8-1.1-1.5-1c-0.5,0.1-0.9,0.5-1,1c0,0.8,0.1,1.7,0.1,2.6v10.8
		c0.1,0.7,0.6,1.2,1.3,1.2c0.7,0,1.3-0.6,1.3-1.3v0c0,0,0,0,0,0h0v-6.2c0-3.6,1.4-5.8,4.6-5.8c0.2,0,0.3,0,0.5,0v0c0,0,0,0,0.1,0
		c0.7,0,1.3-0.6,1.3-1.3C106.3,6.9,105.7,6.3,104.9,6.3 M82.4,13.1c0.4-2.7,2.2-4.6,5.3-4.6c3,0,4.9,1.8,5,4.6H82.4z M87.8,6.2
		c-4.6,0-8,3.4-8,8.2c0,4.5,3,8.2,7.9,8.2c2.3,0,4.2-0.6,5.8-2c0.4-0.5,0.4-1.2,0-1.7c-0.4-0.4-1.1-0.5-1.5-0.2
		c-1,1-2.5,1.5-4.2,1.5c-3.3,0-5.3-2-5.4-5.1l11.5,0c0.3,0,0.5,0,0.6-0.1c0.4-0.2,0.5-0.4,0.6-0.8c0-0.1,0-0.9,0-0.9
		C94.8,8.9,91.9,6.2,87.8,6.2 M16.3,5C16.3,5,16.3,4.9,16.3,5c0.2-0.7-0.1-1.5-0.8-1.7c-0.7-0.2-1.4,0.1-1.6,0.8c0,0,0,0,0,0.1
		c0,0,0,0,0,0h0c-0.4,1.2-4.2,11.1-4.2,11.1H9.5L5.1,4c0,0,0,0,0,0L5,3.8C4.7,3.2,4,2.9,3.3,3.1c-0.7,0.3-1.1,1-0.8,1.7
		C3,6.3,8.1,18.8,8.1,18.8l-0.3,0.7c-0.6,1.5-1.2,2.6-2.9,2.6c-0.2,0-0.7,0-0.8,0c-0.5,0-1.1,0.3-1.2,0.9c-0.2,0.6,0.2,1.3,0.8,1.5
		c0.5,0.1,0.9,0.1,1.3,0.1c3.1,0,4.2-1.8,5.2-4.4c0,0,5.7-14.2,6-14.8C16.3,5.1,16.3,5.1,16.3,5L16.3,5z M26.3,15.8
		c-0.1,2.5-1.6,4.7-4.6,4.7c-2,0-3.4-0.7-3.4-2.7c0-2.1,2.1-3,5.5-3h2.6V15.8z M29,20.8L29,20.8c0-0.4,0-0.8,0-1.2v-6.7
		c0-4.4-1.9-6.6-6.6-6.6c-1.8,0-3.7,0.5-5.2,1.6c-0.4,0.4-0.5,1.1-0.1,1.6c0.4,0.5,1.1,0.7,1.7,0.3c0,0,0,0,0,0l0,0
		c1.1-0.7,2.4-1,3.7-1c2.4,0,3.9,1.2,3.9,3.4v0.5h-1c-3.8,0-9.9,0.3-9.9,5.5c0,3,2.6,4.6,5.8,4.6c2.4,0,4.1-1.1,5.1-2.7h0.1
		c0,0.4,0,0.8,0,1.2c0.1,0.7,0.7,1.1,1.4,1C28.6,22.1,29.1,21.5,29,20.8C29,20.8,29,20.8,29,20.8"/>
	<path class="st0" d="M112.3,14.7L112.3,14.7c-0.1,0-0.2,0-0.4,0l-0.2-0.1c-0.4-0.2-5-3.3-5.1-4.2c0-0.1,0-0.2,0.1-0.3
		c0.1-0.1,0.2-0.1,0.4-0.1c1.1,0,4.1,1.4,5.8,2.4c0.5,0.4,0.7,1.1,0.3,1.7C113.1,14.5,112.7,14.7,112.3,14.7"/>
	<path class="st0" d="M107.2,5.2L107.2,5.2c-0.2,0-0.3,0-0.4-0.1c-0.1-0.1-0.1-0.2-0.1-0.3c0-0.8,4.7-3.9,5.1-4.2l0.1-0.1
		c0.1,0,0.3-0.1,0.4-0.1c0.4,0,0.8,0.2,1.1,0.6c0.3,0.5,0.2,1.3-0.3,1.7C111.3,3.7,108.3,5.2,107.2,5.2"/>
	<path class="st0" d="M114.9,8.8L114.9,8.8c-0.1,0-6.1,0-6.6-1c0-0.1,0-0.2,0-0.3c0.4-0.7,6-1.2,6.4-1.2l0.1,0c0.6,0.1,1,0.6,1,1.2
		C116,8.1,115.5,8.7,114.9,8.8L114.9,8.8z"/>
</g>
</svg>
