<?xml version="1.0" encoding="utf-8"?>
<!-- Generator: Adobe Illustrator 24.1.0, SVG Export Plug-In . SVG Version: 6.00 Build 0)  -->
<svg version="1.1" id="Regular" xmlns="http://www.w3.org/2000/svg" xmlns:xlink="http://www.w3.org/1999/xlink" x="0px" y="0px"
	 viewBox="0 0 24 24" style="enable-background:new 0 0 24 24;" xml:space="preserve">
<style type="text/css">
	.st0{fill:#FFFFFF;}
</style>
<g>
	<path class="st0" d="M12,19c-0.4,0-0.8-0.2-1.1-0.4L0.2,7.8C0.1,7.7,0,7.5,0,7.3c0-0.2,0.1-0.4,0.2-0.5c0.1-0.1,0.3-0.2,0.5-0.2
		s0.4,0.1,0.5,0.2L12,17.5L22.7,6.8c0.1-0.1,0.3-0.2,0.5-0.2s0.4,0.1,0.5,0.2C23.9,6.9,24,7.1,24,7.3s-0.1,0.4-0.2,0.5L13.1,18.6
		C12.8,18.8,12.4,19,12,19z"/>
</g>
</svg>
