<!-- Generated by IcoMoon.io -->
<svg version="1.1" xmlns="http://www.w3.org/2000/svg" width="32" height="32" viewBox="0 0 32 32">
<title>book2</title>
<path d="M31.778 7.208c-1.597-1.979-4.577-3.208-7.778-3.208s-6.181 1.229-7.778 3.208c-0.143 0.178-0.222 0.399-0.222 0.628 0-0.229-0.078-0.45-0.222-0.628-1.597-1.979-4.577-3.208-7.778-3.208s-6.182 1.229-7.778 3.208c-0.143 0.178-0.222 0.399-0.222 0.628v20c0 0.424 0.267 0.802 0.667 0.943s0.845 0.015 1.111-0.315c1.226-1.52 3.61-2.464 6.222-2.464s4.995 0.944 6.222 2.464c0.194 0.24 0.482 0.372 0.778 0.372h2c0.297 0 0.585-0.132 0.778-0.372 1.226-1.52 3.61-2.464 6.222-2.464s4.995 0.944 6.222 2.464c0.266 0.33 0.711 0.456 1.111 0.315s0.667-0.519 0.667-0.943v-20c0-0.229-0.078-0.45-0.222-0.628zM14 25.643c-1.626-1.041-3.759-1.643-6-1.643s-4.374 0.603-6 1.643v-17.434c1.278-1.37 3.538-2.209 6-2.209s4.722 0.839 6 2.209v17.434zM30 25.643c-1.626-1.040-3.759-1.643-6-1.643s-4.374 0.603-6 1.643v-17.434c1.278-1.37 3.538-2.209 6-2.209s4.722 0.839 6 2.209v17.434z"></path>
</svg>
