<!-- Generated by IcoMoon.io -->
<svg version="1.1" xmlns="http://www.w3.org/2000/svg" width="32" height="32" viewBox="0 0 32 32">
<title>brain</title>
<path d="M25 32c-0.552 0-1-0.448-1-1v-1c0-6.148 1.843-8.282 3.468-10.165 1.358-1.573 2.532-2.932 2.532-6.835 0-6.065-5.383-11-12-11s-12 4.935-12 11v1c0 0.093-0.013 0.185-0.038 0.275l-1.636 5.725h2.674c0.552 0 1 0.448 1 1v4c0 0.449 0.551 1 1 1h4c0.552 0 1 0.448 1 1v4c0 0.552-0.448 1-1 1s-1-0.448-1-1v-3h-3c-1.542 0-3-1.458-3-3v-3h-3c-0.314 0-0.609-0.147-0.798-0.398s-0.249-0.575-0.163-0.877l1.961-6.865v-0.86c0-3.488 1.466-6.762 4.129-9.22 2.641-2.438 6.146-3.78 9.871-3.78s7.23 1.342 9.871 3.78c2.663 2.458 4.129 5.732 4.129 9.22 0 4.646-1.534 6.423-3.018 8.142-1.534 1.776-2.982 3.454-2.982 8.858v1c0 0.552-0.448 1-1 1z"></path>
<path d="M18 5c-4.418 0-8 2.462-8 5.5v0.5c0 2.761 2.239 5 5 5h3.536c0.692 1.195 1.983 2 3.464 2 2.209 0 4-1.791 4-4v-3.5c0-3.038-3.582-5.5-8-5.5z"></path>
</svg>
