<?xml version="1.0" encoding="utf-8"?>
<!-- Generator: Adobe Illustrator 22.1.0, SVG Export Plug-In . SVG Version: 6.00 Build 0)  -->
<svg version="1.1" id="Layer_1" xmlns="http://www.w3.org/2000/svg" xmlns:xlink="http://www.w3.org/1999/xlink" x="0px" y="0px"
	 viewBox="0 0 24 24" style="enable-background:new 0 0 24 24;" xml:space="preserve">
<style type="text/css">
	.st0{fill:#666666;}
</style>
<g>
	<title>button-play-1</title>
	<path class="st0" d="M12,24C5.4,24,0,18.6,0,12S5.4,0,12,0s12,5.4,12,12S18.6,24,12,24z M12,1C5.9,1,1,5.9,1,12s4.9,11,11,11
		s11-4.9,11-11S18.1,1,12,1z"/>
	<path class="st0" d="M9,16.7c-0.1,0-0.2,0-0.3-0.1c-0.3-0.1-0.5-0.3-0.6-0.5C8,16,8,15.8,8,15.7V8.3c0-0.6,0.4-1,1-1
		c0.2,0,0.3,0,0.4,0.1l7.4,3.7c0.2,0.1,0.4,0.3,0.5,0.6c0.1,0.3,0.1,0.5-0.1,0.8c-0.1,0.2-0.3,0.3-0.4,0.4l-7.4,3.7
		C9.3,16.7,9.2,16.7,9,16.7z M9,15.7l7.4-3.7L9,8.3V15.7z"/>
</g>
</svg>
