<?xml version="1.0" encoding="utf-8"?>
<!-- Generator: Adobe Illustrator 24.2.0, SVG Export Plug-In . SVG Version: 6.00 Build 0)  -->
<svg version="1.1" id="Layer_1" xmlns="http://www.w3.org/2000/svg" xmlns:xlink="http://www.w3.org/1999/xlink" x="0px" y="0px"
	 viewBox="0 0 22.4 22.4" style="enable-background:new 0 0 22.4 22.4;" xml:space="preserve">
<style type="text/css">
	.st0{fill:#666666;}
</style>
<g>
	<path class="st0" d="M11.2,22.4C5,22.4,0,17.4,0,11.2S5,0,11.2,0s11.2,5,11.2,11.2S17.4,22.4,11.2,22.4z M11.2,1.4
		c-5.4,0-9.8,4.4-9.8,9.8S5.8,21,11.2,21s9.8-4.4,9.8-9.8S16.6,1.4,11.2,1.4z"/>
	<path class="st0" d="M15.9,16.6c-0.2,0-0.4-0.1-0.5-0.2l-4.7-4.7c-0.1-0.1-0.1-0.2-0.2-0.2l0,0c0-0.1,0-0.2,0-0.3V7.4
		c0-0.4,0.3-0.8,0.8-0.8s0.8,0.3,0.8,0.8v3.4l4.5,4.5c0.1,0.1,0.2,0.3,0.2,0.5c0,0.2-0.1,0.4-0.2,0.5C16.5,16.4,16.1,16.6,15.9,16.6
		z"/>
</g>
</svg>
