<?xml version="1.0" encoding="utf-8"?>
<!-- Generator: Adobe Illustrator 24.2.3, SVG Export Plug-In . SVG Version: 6.00 Build 0)  -->
<svg version="1.1" id="Layer_1" xmlns="http://www.w3.org/2000/svg" xmlns:xlink="http://www.w3.org/1999/xlink" x="0px" y="0px"
	 viewBox="0 0 16.4 16.4" style="enable-background:new 0 0 16.4 16.4;" xml:space="preserve">
<style type="text/css">
	.st0{fill:#FFFFFF;}
</style>
<g>
	<path class="st0" d="M15.7,16.4c-0.2,0-0.4-0.1-0.5-0.2l-7-7l-7,7c-0.1,0.1-0.3,0.2-0.5,0.2s-0.4,0-0.5-0.2c-0.3-0.3-0.3-0.8,0-1.1
		l7-7l-7-6.9C0,1.1,0,0.9,0,0.7s0-0.4,0.2-0.5C0.3,0.1,0.5,0,0.7,0s0.4,0,0.5,0.2l7,7l7-7C15.3,0.1,15.5,0,15.7,0s0.4,0,0.5,0.2
		c0.1,0.1,0.2,0.3,0.2,0.5s0,0.4-0.2,0.5l-7,7l7,7c0.3,0.3,0.3,0.8,0,1.1C16.1,16.4,15.9,16.4,15.7,16.4z"/>
</g>
</svg>
