<!-- Generated by IcoMoon.io -->
<svg version="1.1" xmlns="http://www.w3.org/2000/svg" width="32" height="32" viewBox="0 0 32 32">
<title>color-sampler</title>
<path d="M23 22h-22c-0.552 0-1 0.448-1 1v6c0 0.552 0.448 1 1 1h22c0.552 0 1-0.448 1-1v-6c0-0.552-0.448-1-1-1zM20 28c-1.105 0-2-0.895-2-2s0.895-2 2-2 2 0.895 2 2-0.895 2-2 2z"></path>
<path d="M24 21.161v-14.161c0-0.552-0.448-1-1-1h-6c-0.552 0-1 0.448-1 1v6.161l8 8z"></path>
<path d="M31.395 9.292l-5.395-2.604v16.083l5.861-12.143c0.24-0.497 0.032-1.095-0.466-1.335z"></path>
<path d="M19.657 20l-10.263-10.264c-0.391-0.39-1.024-0.39-1.414 0l-4.243 4.243c-0.391 0.39-0.391 1.024 0 1.414l4.606 4.607h11.314z"></path>
</svg>
