<?xml version="1.0" encoding="utf-8"?>
<!-- Generator: Adobe Illustrator 25.0.1, SVG Export Plug-In . SVG Version: 6.00 Build 0)  -->
<svg version="1.1" id="Layer_1" xmlns="http://www.w3.org/2000/svg" xmlns:xlink="http://www.w3.org/1999/xlink" x="0px" y="0px"
	 viewBox="0 0 110.8 113.1" style="enable-background:new 0 0 110.8 113.1;" xml:space="preserve">
<style type="text/css">
	.st0{fill:#4285F4;}
	.st1{fill:#34A853;}
	.st2{fill:#FBBC04;}
	.st3{fill:#EA4335;}
</style>
<path class="st0" d="M110.8,57.8c0-3.8-0.3-7.7-1-11.5H56.5v21.8h30.5c-1.3,7-5.3,13.2-11.3,17.2v14.1H94
	C104.7,89.6,110.8,75,110.8,57.8L110.8,57.8z"/>
<path class="st1" d="M56.5,113.1c15.2,0,28.1-5,37.5-13.6L75.8,85.3c-5.1,3.4-11.6,5.4-19.2,5.4c-14.7,0-27.3-9.9-31.7-23.3H6v14.6
	C15.6,101,35.2,113.1,56.5,113.1z"/>
<path class="st2" d="M24.8,67.4c-2.4-7-2.4-14.6,0-21.6V31.2H6c-8,16-8,34.8,0,50.8L24.8,67.4z"/>
<path class="st3" d="M56.5,22.4c8.1-0.1,15.8,2.9,21.7,8.5l16.1-16.1C84.1,5.1,70.6-0.2,56.5,0C35.2,0,15.6,12.1,6,31.2l18.8,14.6
	C29.3,32.3,41.8,22.4,56.5,22.4z"/>
</svg>
