<svg id="Group_3275" data-name="Group 3275" xmlns="http://www.w3.org/2000/svg" width="73.734" height="73.734" viewBox="0 0 73.734 73.734">
  <g id="Group_3273" data-name="Group 3273" transform="translate(21.115 23.741)">
    <path id="Path_3276" data-name="Path 3276" d="M48.314,65.816a2.627,2.627,0,0,1-1.856-.769l-10.5-10.5a2.626,2.626,0,0,1,3.713-3.713l8.361,8.361L61.966,40.613a2.625,2.625,0,0,1,4.2,3.15l-15.752,21A2.625,2.625,0,0,1,48.5,65.81C48.438,65.814,48.376,65.816,48.314,65.816Z" transform="translate(-35.188 -39.563)" fill="#fff"/>
  </g>
  <g id="Group_3274" data-name="Group 3274">
    <path id="Path_3277" data-name="Path 3277" d="M36.867,73.734A36.867,36.867,0,1,1,73.734,36.867,36.909,36.909,0,0,1,36.867,73.734Zm0-68.484A31.617,31.617,0,1,0,68.484,36.867,31.653,31.653,0,0,0,36.867,5.251Z" fill="#fff"/>
  </g>
</svg>
