<?xml version="1.0" encoding="utf-8"?>
<!-- Generator: Adobe Illustrator 24.3.0, SVG Export Plug-In . SVG Version: 6.00 Build 0)  -->
<svg version="1.1" id="Layer_1" xmlns="http://www.w3.org/2000/svg" xmlns:xlink="http://www.w3.org/1999/xlink" x="0px" y="0px"
	 viewBox="0 0 140 122.5" style="enable-background:new 0 0 140 122.5;" xml:space="preserve">
<style type="text/css">
	.st0{fill:#1C1C1B;}
</style>
<g transform="matrix(5.833333333333333,0,0,5.833333333333333,0,0)">
	<g>
		<path class="st0" d="M23.3,21H0.8C0.3,21,0,20.7,0,20.3V0.8C0,0.3,0.3,0,0.8,0h22.5C23.7,0,24,0.3,24,0.8v19.5
			C24,20.7,23.7,21,23.3,21z M1.5,19.5h21v-18h-21V19.5z"/>
	</g>
	<g>
		<path class="st0" d="M5.3,10.5c-0.4,0-0.8-0.3-0.8-0.8v-3c0-1.2,1-2.2,2.2-2.2h3c0.4,0,0.8,0.3,0.8,0.8S10.2,6,9.8,6h-3
			C6.3,6,6,6.3,6,6.8v3C6,10.2,5.7,10.5,5.3,10.5z"/>
	</g>
	<g>
		<path class="st0" d="M17.3,16.5h-3c-0.4,0-0.8-0.3-0.8-0.7s0.3-0.8,0.8-0.8h3c0.4,0,0.8-0.3,0.8-0.8v-3c0-0.4,0.3-0.8,0.8-0.8
			c0.4,0,0.8,0.3,0.8,0.8v3C19.5,15.5,18.5,16.5,17.3,16.5z"/>
	</g>
</g>
</svg>
