<?xml version="1.0" encoding="utf-8"?>
<!-- Generator: Adobe Illustrator 24.1.0, SVG Export Plug-In . SVG Version: 6.00 Build 0)  -->
<svg version="1.1" id="Layer_1" xmlns="http://www.w3.org/2000/svg" xmlns:xlink="http://www.w3.org/1999/xlink" x="0px" y="0px"
	 viewBox="0 0 24 24" style="enable-background:new 0 0 24 24;" xml:space="preserve">
<style type="text/css">
	.st0{fill:#666666;}
</style>
<g>
	<path class="st0" d="M12,11.2c-2.1,0-3.8-1.7-3.8-3.8S9.9,3.8,12,3.8s3.8,1.7,3.8,3.8S14.1,11.2,12,11.2z M12,5.2
		c-1.2,0-2.2,1-2.2,2.2s1,2.2,2.2,2.2s2.2-1,2.2-2.2S13.2,5.2,12,5.2z"/>
	<path class="st0" d="M12,20.7c-0.2,0-0.5-0.1-0.7-0.2c-0.1-0.1-0.2-0.2-0.2-0.2C5.1,12.1,4.5,8.6,4.5,7.5C4.5,3.4,7.9,0,12,0
		s7.5,3.4,7.5,7.5c0,3.4-5,10.6-6.6,12.8c-0.2,0.2-0.4,0.4-0.7,0.5C12.1,20.7,12.1,20.7,12,20.7z M12,1.5c-3.3,0-6,2.7-6,6
		C6,9.8,9.2,15,12,19c2.8-4,6-9.2,6-11.5C18,4.2,15.3,1.5,12,1.5z"/>
	<path class="st0" d="M12,24c-2.8,0-5.5-0.3-7.5-0.9c-2.4-0.7-3.7-1.7-3.7-2.9c0-1.8,2.8-2.7,5.1-3.2c0,0,0.1,0,0.1,0
		c0.4,0,0.7,0.3,0.7,0.6c0,0.2,0,0.4-0.1,0.6c-0.1,0.2-0.3,0.3-0.5,0.3c-2.9,0.6-3.9,1.4-3.9,1.7c0,0.2,0.5,0.8,2.5,1.4
		c1.9,0.5,4.5,0.9,7.2,0.9s5.3-0.3,7.2-0.9c2.1-0.6,2.5-1.2,2.5-1.4c0-0.3-1-1.1-3.9-1.7c-0.2,0-0.4-0.2-0.5-0.3s-0.2-0.4-0.1-0.6
		c0.1-0.4,0.4-0.6,0.7-0.6c0,0,0.1,0,0.1,0c2.3,0.5,5.1,1.4,5.1,3.2c0,1.2-1.3,2.2-3.7,2.9C17.5,23.7,14.8,24,12,24z"/>
</g>
</svg>
