<?xml version="1.0" encoding="utf-8"?>
<!-- Generator: Adobe Illustrator 24.1.0, SVG Export Plug-In . SVG Version: 6.00 Build 0)  -->
<svg version="1.1" id="Layer_1" xmlns="http://www.w3.org/2000/svg" xmlns:xlink="http://www.w3.org/1999/xlink" x="0px" y="0px"
	 viewBox="0 0 24 24" style="enable-background:new 0 0 24 24;" xml:space="preserve">
<style type="text/css">
	.st0{fill:#666666;}
</style>
<g>
	<path class="st0" d="M12,23.2c-6.2,0-11.2-5-11.2-11.2S5.8,0.8,12,0.8s11.2,5,11.2,11.2S18.2,23.2,12,23.2z M12,2.2
		c-5.4,0-9.8,4.4-9.8,9.8s4.4,9.8,9.8,9.8s9.8-4.4,9.8-9.8S17.4,2.2,12,2.2z"/>
	<path class="st0" d="M16.7,17.4c-0.2,0-0.4-0.1-0.5-0.2l-4.7-4.7c-0.1-0.1-0.1-0.2-0.2-0.2c0,0,0,0,0,0c0-0.1,0-0.2,0-0.3V8.2
		c0-0.4,0.3-0.8,0.8-0.8s0.8,0.3,0.8,0.8v3.4l4.5,4.5c0.1,0.1,0.2,0.3,0.2,0.5s-0.1,0.4-0.2,0.5S16.9,17.4,16.7,17.4z"/>
</g>
</svg>
