<!-- Generated by IcoMoon.io -->
<svg version="1.1" xmlns="http://www.w3.org/2000/svg" width="40" height="32" viewBox="0 0 40 32">
<title>twitter</title>
<path fill="#3EC8ED" d="M39.696 3.785c-1.446 0.646-3.008 1.077-4.638 1.269 1.669-1 2.946-2.585 3.554-4.469-1.562 0.923-3.292 1.6-5.131 1.962-1.477-1.569-3.577-2.546-5.9-2.546-4.462 0-8.077 3.615-8.077 8.077 0 0.631 0.069 1.246 0.208 1.838-6.715-0.338-12.669-3.554-16.654-8.446-0.692 1.192-1.092 2.585-1.092 4.062 0 2.8 1.423 5.277 3.592 6.723-1.323-0.039-2.569-0.408-3.662-1.008 0 0.031 0 0.069 0 0.1 0 3.915 2.785 7.185 6.485 7.923-0.677 0.185-1.392 0.285-2.131 0.285-0.523 0-1.023-0.054-1.523-0.146 1.031 3.208 4.015 5.546 7.546 5.615-2.769 2.169-6.246 3.462-10.038 3.462-0.654 0-1.292-0.038-1.931-0.115 3.585 2.3 7.831 3.631 12.392 3.631 14.862 0 22.992-12.315 22.992-22.992 0-0.354-0.008-0.7-0.023-1.046 1.577-1.131 2.946-2.554 4.031-4.177z"></path>
</svg>
