<!-- Generated by IcoMoon.io -->
<svg version="1.1" xmlns="http://www.w3.org/2000/svg" width="36" height="32" viewBox="0 0 36 32">
<title>linkedin2</title>
<path fill="#3EC8ED" d="M13.077 9.846h6.812v3.492h0.097c0.948-1.7 3.268-3.492 6.725-3.492 7.19 0 8.52 4.476 8.52 10.297v11.856h-7.1v-10.511c0-2.507-0.051-5.732-3.693-5.732-3.698 0-4.262 2.73-4.262 5.55v10.693h-7.098v-22.154z"></path>
<path fill="#3EC8ED" d="M0.769 9.846h7.385v22.154h-7.385v-22.154z"></path>
<path fill="#3EC8ED" d="M8.154 3.692c0 2.039-1.653 3.692-3.692 3.692s-3.692-1.653-3.692-3.692c0-2.039 1.653-3.692 3.692-3.692s3.692 1.653 3.692 3.692z"></path>
</svg>
