<?xml version="1.0" encoding="utf-8"?>
<!-- Generator: Adobe Illustrator 24.3.0, SVG Export Plug-In . SVG Version: 6.00 Build 0)  -->
<svg version="1.1" id="Layer_1" xmlns="http://www.w3.org/2000/svg" xmlns:xlink="http://www.w3.org/1999/xlink" x="0px" y="0px"
	 viewBox="0 0 140 140" style="enable-background:new 0 0 140 140;" xml:space="preserve">
<style type="text/css">
	.st0{fill:#1C1C1B;}
</style>
<g transform="matrix(5.833333333333333,0,0,5.833333333333333,0,0)">
	<g>
		<path class="st0" d="M14.3,17.3h-0.8c-1.2,0-2.3-1-2.3-2.2v-3.8h-0.8c-0.4,0-0.8-0.3-0.8-0.8s0.3-0.8,0.8-0.8h0.8
			c0.8,0,1.5,0.7,1.5,1.5V15c0,0.4,0.3,0.8,0.8,0.8h0.8c0.4,0,0.8,0.3,0.8,0.8C15,16.9,14.7,17.3,14.3,17.3z"/>
	</g>
	<g>
		<path class="st0" d="M12,24C5.4,24,0,18.6,0,12S5.4,0,12,0s12,5.4,12,12S18.6,24,12,24z M12,1.5C6.2,1.5,1.5,6.2,1.5,12
			c0,5.8,4.7,10.5,10.5,10.5c5.8,0,10.5-4.7,10.5-10.5C22.5,6.2,17.8,1.5,12,1.5z"/>
	</g>
</g>
<circle class="st0" cx="68.3" cy="41.5" r="6.5"/>
</svg>
