<?xml version="1.0" encoding="utf-8"?>
<!-- Generator: Adobe Illustrator 25.1.0, SVG Export Plug-In . SVG Version: 6.00 Build 0)  -->
<svg version="1.1" id="Layer_1" xmlns="http://www.w3.org/2000/svg" xmlns:xlink="http://www.w3.org/1999/xlink" x="0px" y="0px"
	 viewBox="0 0 32 32" style="enable-background:new 0 0 32 32;" xml:space="preserve">
<style type="text/css">
	.st0{fill:#112A3F;}
</style>
<path class="st0" d="M29,0H3C1.4,0,0,1.4,0,3v26c0,1.6,1.4,3,3,3h26c1.6,0,3-1.4,3-3V3C32,1.4,30.6,0,29,0z M22,5c0-0.6,0.5-1,1-1h4
	c0.5,0,1,0.4,1,1v4c0,0.6-0.5,1-1,1h-4c-0.5,0-1-0.4-1-1V5z M16,10c3.3,0,6,2.7,6,6s-2.7,6-6,6c-3.3,0-6-2.7-6-6S12.7,10,16,10z
	 M28,27L28,27c0,0.5-0.5,1-1,1H5c-0.6,0-1-0.5-1-1l0,0V14h2.2C6.1,14.6,6,15.3,6,16c0,5.5,4.5,10,10,10s10-4.5,10-10
	c0-0.7-0.1-1.4-0.2-2H28V27z"/>
</svg>
