<!-- Generated by IcoMoon.io -->
<svg version="1.1" xmlns="http://www.w3.org/2000/svg" width="32" height="32" viewBox="0 0 32 32">
<title>lan2</title>
<path d="M29 16h-13v-4h3c0.552 0 1-0.448 1-1v-8c0-0.552-0.448-1-1-1h-8c-0.552 0-1 0.448-1 1v8c0 0.552 0.448 1 1 1h3v4h-13c-0.552 0-1 0.448-1 1s0.448 1 1 1h5v4h-3c-0.552 0-1 0.448-1 1v8c0 0.552 0.448 1 1 1h8c0.552 0 1-0.448 1-1v-8c0-0.552-0.448-1-1-1h-3v-4h14v4h-3c-0.552 0-1 0.448-1 1v8c0 0.552 0.448 1 1 1h8c0.552 0 1-0.448 1-1v-8c0-0.552-0.448-1-1-1h-3v-4h5c0.552 0 1-0.448 1-1s-0.448-1-1-1zM12 4h6v6h-6v-6zM10 30h-6v-6h6v6zM26 30h-6v-6h6v6z"></path>
</svg>
