<?xml version="1.0" encoding="utf-8"?>
<!-- Generator: Adobe Illustrator 24.2.0, SVG Export Plug-In . SVG Version: 6.00 Build 0)  -->
<svg version="1.1" id="Layer_1" xmlns="http://www.w3.org/2000/svg" xmlns:xlink="http://www.w3.org/1999/xlink" x="0px" y="0px"
	 viewBox="0 0 34.5 32" style="enable-background:new 0 0 34.5 32;" xml:space="preserve">
<style type="text/css">
	.st0{fill:#112A3F;}
</style>
<path class="st0" d="M12.3,9.9h6.8v3.5h0.1c1.5-2.3,4-3.6,6.7-3.5c7.2,0,8.5,4.5,8.5,10.3V32h-7.1V21.5c0-2.5,0-5.7-3.7-5.7
	s-4.3,2.7-4.3,5.6V32h-7.1L12.3,9.9L12.3,9.9z"/>
<path class="st0" d="M0,9.9h7.4V32H0V9.9z"/>
<path class="st0" d="M7.4,3.7c0,2-1.6,3.7-3.7,3.7C1.7,7.4,0,5.8,0,3.7S1.6,0,3.7,0c0,0,0,0,0,0C5.7,0,7.4,1.7,7.4,3.7z"/>
</svg>
