<?xml version="1.0" encoding="utf-8"?>
<!-- Generator: Adobe Illustrator 24.2.0, SVG Export Plug-In . SVG Version: 6.00 Build 0)  -->
<svg version="1.1" id="Layer_1" xmlns="http://www.w3.org/2000/svg" xmlns:xlink="http://www.w3.org/1999/xlink" x="0px" y="0px"
	 viewBox="0 0 22.2 24" style="enable-background:new 0 0 22.2 24;" xml:space="preserve">
<style type="text/css">
	.st0{fill:#666666;}
</style>
<g>
	<path class="st0" d="M11.2,11.2c-2.1,0-3.8-1.7-3.8-3.8s1.7-3.6,3.8-3.6S15,5.5,15,7.6S13.3,11.2,11.2,11.2z M11.2,5.2
		C10,5.2,9,6.2,9,7.4s1,2.2,2.2,2.2s2.2-1,2.2-2.2S12.4,5.2,11.2,5.2z"/>
	<path class="st0" d="M11.2,20.7c-0.2,0-0.5-0.1-0.7-0.2c-0.1-0.1-0.2-0.2-0.2-0.2c-6-8.2-6.6-11.7-6.6-12.8C3.7,3.4,7.1,0,11.2,0
		s7.5,3.4,7.5,7.5c0,3.4-5,10.6-6.6,12.8c-0.2,0.2-0.4,0.4-0.7,0.5C11.3,20.7,11.3,20.7,11.2,20.7z M11.2,1.5c-3.3,0-6,2.7-6,6
		c0,2.3,3.2,7.5,6,11.5c2.8-4,6-9.2,6-11.5C17.2,4.2,14.5,1.5,11.2,1.5z"/>
	<path class="st0" d="M11.2,24c-2.8,0-5.5-0.3-7.5-0.9C1.3,22.4,0,21.4,0,20.2c0-1.8,2.8-2.7,5.1-3.2h0.1c0.4,0,0.7,0.3,0.7,0.6
		c0,0.2,0,0.4-0.1,0.6c-0.1,0.2-0.3,0.3-0.5,0.3c-2.9,0.6-3.9,1.4-3.9,1.7c0,0.2,0.5,0.8,2.5,1.4c1.9,0.5,4.5,0.9,7.2,0.9
		s5.3-0.3,7.2-0.9c2.1-0.6,2.5-1.2,2.5-1.4c0-0.3-1-1.1-3.9-1.7c-0.2,0-0.4-0.2-0.5-0.3s-0.2-0.4-0.1-0.6c0.1-0.4,0.4-0.6,0.7-0.6
		h0.1c2.3,0.5,5.1,1.4,5.1,3.2c0,1.2-1.3,2.2-3.7,2.9C16.7,23.7,14,24,11.2,24z"/>
</g>
</svg>
