<?xml version="1.0" encoding="utf-8"?>
<!-- Generator: Adobe Illustrator 24.1.0, SVG Export Plug-In . SVG Version: 6.00 Build 0)  -->
<svg version="1.1" id="Layer_1" xmlns="http://www.w3.org/2000/svg" xmlns:xlink="http://www.w3.org/1999/xlink" x="0px" y="0px"
	 viewBox="0 0 87.5 25" style="enable-background:new 0 0 87.5 25;" xml:space="preserve">
<style type="text/css">
	.st0{fill:#FFFFFF;}
</style>
<g>
	<path class="st0" d="M12.5,0c3.5,0,6.4,1.2,8.8,3.7S25,9,25,12.5c0,3.5-1.2,6.4-3.7,8.8S16,25,12.5,25c-3.5,0-6.4-1.2-8.8-3.7
		S0,16,0,12.5C0,9,1.2,6.1,3.7,3.7S9,0,12.5,0z M43.8,0c3.5,0,6.4,1.2,8.8,3.7s3.7,5.4,3.7,8.8c0,3.5-1.2,6.4-3.7,8.8
		S47.2,25,43.8,25c-3.5,0-6.4-1.2-8.8-3.7s-3.7-5.4-3.7-8.8c0-3.5,1.2-6.4,3.7-8.8S40.3,0,43.8,0z M75,0c3.5,0,6.4,1.2,8.8,3.7
		s3.7,5.4,3.7,8.8c0,3.5-1.2,6.4-3.7,8.8S78.5,25,75,25c-3.5,0-6.4-1.2-8.8-3.7s-3.7-5.4-3.7-8.8c0-3.5,1.2-6.4,3.7-8.8S71.5,0,75,0
		z"/>
</g>
</svg>
