<svg id="microsoft" xmlns="http://www.w3.org/2000/svg" width="221" height="47.16" viewBox="0 0 221 47.16">
  <path id="Path_3416" data-name="Path 3416" d="M0,0H22.441V22.441H0Z" fill="#f25022"/>
  <path id="Path_3417" data-name="Path 3417" d="M15.2,0H37.642V22.441H15.2Z" transform="translate(9.518)" fill="#80ba01"/>
  <path id="Path_3418" data-name="Path 3418" d="M126.9,5.784a8.488,8.488,0,0,1,7.155-.813V9.2a4.608,4.608,0,0,0-3.578-.325,2.937,2.937,0,0,0-1.626,2.277,26.349,26.349,0,0,0-.163,3.578h7.155V10.175l4.879-1.464v6.017h4.879v3.9h-4.879V29.2a2.318,2.318,0,0,0,.976,1.951,3.494,3.494,0,0,0,3.74-.325v4.065a8.312,8.312,0,0,1-4.391.65,5.465,5.465,0,0,1-3.9-1.789,6.727,6.727,0,0,1-1.3-4.716V18.631h-7.155V35.055h-4.879V18.631H120.4v-3.9h3.415a18.7,18.7,0,0,1,.325-5.2,5.779,5.779,0,0,1,2.764-3.74Z" transform="translate(75.394 2.835)" fill="#777"/>
  <path id="Path_3419" data-name="Path 3419" d="M61.439,5.416a2.7,2.7,0,0,1,2.6.976,2.461,2.461,0,0,1,.325,3.09,2.855,2.855,0,0,1-3.252,1.3A2.637,2.637,0,0,1,59,8.18a2.945,2.945,0,0,1,2.439-2.765Z" transform="translate(36.946 3.366)" fill="#777"/>
  <path id="Path_3420" data-name="Path 3420" d="M37.7,5.8h6.993c2.114,5.529,4.391,11.221,6.667,16.75.488,1.464,1.138,2.765,1.626,4.228,2.765-6.993,5.692-13.985,8.456-20.978h6.83V34.1H63.394V12.3c-.163.163-.163.325-.325.488-2.765,7.155-5.692,14.148-8.456,21.3H51.2c-2.927-7.155-5.692-14.311-8.619-21.466l-.325-.488V33.933H37.7Z" transform="translate(23.608 3.632)" fill="#777"/>
  <path id="Path_3421" data-name="Path 3421" d="M71.59,10.888a13.362,13.362,0,0,1,7.155,0,3.269,3.269,0,0,1,1.3.65v4.553a7.681,7.681,0,0,0-5.529-1.626,5.766,5.766,0,0,0-4.065,2.277,7.455,7.455,0,0,0-1.3,5.529A6.419,6.419,0,0,0,71.1,26.337a6.536,6.536,0,0,0,4.553,1.3,8.72,8.72,0,0,0,4.391-1.789V30.24a10.544,10.544,0,0,1-6.667,1.3,10.464,10.464,0,0,1-6.342-2.6,9.737,9.737,0,0,1-2.927-6.83,12.059,12.059,0,0,1,1.951-7.48,11.605,11.605,0,0,1,5.529-3.74Z" transform="translate(40.13 6.512)" fill="#777"/>
  <path id="Path_3422" data-name="Path 3422" d="M103.492,10.56a13.237,13.237,0,0,1,6.667.65V15.6a7.981,7.981,0,0,0-5.041-1.464,2.6,2.6,0,0,0-2.277,1.3,2.261,2.261,0,0,0,.65,2.439c1.3.976,3.09,1.3,4.391,2.114a7.1,7.1,0,0,1,2.765,2.6,5.74,5.74,0,0,1-1.3,6.83,9.149,9.149,0,0,1-6.667,2.114A17.692,17.692,0,0,1,97.8,30.4V25.684a10.728,10.728,0,0,0,4.391,1.951,6.178,6.178,0,0,0,3.415-.325,1.881,1.881,0,0,0,.65-2.6v-.163a6.188,6.188,0,0,0-2.114-1.464,20.552,20.552,0,0,1-4.228-2.114A5.478,5.478,0,0,1,98.125,18.2a6.4,6.4,0,0,1,.65-4.879,7.844,7.844,0,0,1,4.716-2.765Z" transform="translate(61.242 6.515)" fill="#777"/>
  <path id="Path_3423" data-name="Path 3423" d="M83.455,11.18a5,5,0,0,1,4.553-.325v4.879a5.713,5.713,0,0,0-3.252-.813,4.222,4.222,0,0,0-3.09,2.439,9.261,9.261,0,0,0-.65,4.228v9.757H76.3V11.017h4.716v3.415a6.016,6.016,0,0,1,2.439-3.252Z" transform="translate(47.779 6.546)" fill="#777"/>
  <path id="Path_3424" data-name="Path 3424" d="M59.3,10.7h4.879V31.027H59.3V10.7Z" transform="translate(37.133 6.7)" fill="#777"/>
  <path id="Path_3425" data-name="Path 3425" d="M103.471,15.6a8.251,8.251,0,0,0-4.228-4.228,12.668,12.668,0,0,0-6.993-.813,9.857,9.857,0,0,0-6.342,3.415,11.92,11.92,0,0,0-2.277,6.18A11.651,11.651,0,0,0,85.42,27.8a8.335,8.335,0,0,0,5.529,3.578,16.723,16.723,0,0,0,5.692,0,9.862,9.862,0,0,0,5.692-3.415,11.154,11.154,0,0,0,2.114-5.854A14.766,14.766,0,0,0,103.471,15.6Zm-4.716,9.269a3.768,3.768,0,0,1-2.439,2.277,6.413,6.413,0,0,1-3.9.163,5.156,5.156,0,0,1-3.09-2.439,10.974,10.974,0,0,1-.813-5.041A7.655,7.655,0,0,1,90.3,15.6a5.164,5.164,0,0,1,3.252-1.3h0a5.354,5.354,0,0,1,4.065,1.3,6.5,6.5,0,0,1,1.626,4.228A8.708,8.708,0,0,1,98.755,24.869Z" transform="translate(52.318 6.516)" fill="#777"/>
  <path id="Path_3426" data-name="Path 3426" d="M127.4,16.239a8.62,8.62,0,0,0-4.228-4.716,13.505,13.505,0,0,0-7.155-.976h.163a9.378,9.378,0,0,0-5.366,2.277A10.47,10.47,0,0,0,107.559,19,12.668,12.668,0,0,0,108.372,26a9.212,9.212,0,0,0,4.879,4.716,13.875,13.875,0,0,0,6.83.65,9.844,9.844,0,0,0,6.017-3.415,10.355,10.355,0,0,0,2.114-6.83A12.825,12.825,0,0,0,127.4,16.239Zm-4.391,6.83a6.024,6.024,0,0,1-1.3,2.927,4.622,4.622,0,0,1-2.765,1.464,7.918,7.918,0,0,1-3.415-.325,4.85,4.85,0,0,1-2.6-2.765,10.182,10.182,0,0,1-.488-4.391,6.245,6.245,0,0,1,1.464-4.065,4.926,4.926,0,0,1,3.578-1.626v-.163a5.553,5.553,0,0,1,3.9,1.138,5.024,5.024,0,0,1,1.789,3.252A13.717,13.717,0,0,1,123.007,23.069Z" transform="translate(67.257 6.528)" fill="#777"/>
  <path id="Path_3427" data-name="Path 3427" d="M0,15.2H22.441V37.642H0Z" transform="translate(0 9.518)" fill="#02a4ef"/>
  <path id="Path_3428" data-name="Path 3428" d="M15.2,15.2H37.642V37.642H15.2Z" transform="translate(9.518 9.518)" fill="#ffb902"/>
</svg>
