<?xml version="1.0" encoding="utf-8"?>
<!-- Generator: Adobe Illustrator 24.1.0, SVG Export Plug-In . SVG Version: 6.00 Build 0)  -->
<svg version="1.1" id="Layer_1" xmlns="http://www.w3.org/2000/svg" xmlns:xlink="http://www.w3.org/1999/xlink" x="0px" y="0px"
	 viewBox="0 0 24 24" style="enable-background:new 0 0 24 24;" xml:space="preserve">
<style type="text/css">
	.st0{fill:#FFFFFF;}
</style>
<g>
	<path class="st0" d="M19.5,20.2c-0.2,0-0.4-0.1-0.5-0.2l-7-7l-7,7c-0.1,0.1-0.3,0.2-0.5,0.2S4.1,20.2,4,20c-0.3-0.3-0.3-0.8,0-1.1
		l7-7L4,5C3.8,4.9,3.8,4.7,3.8,4.5S3.8,4.1,4,4c0.1-0.1,0.3-0.2,0.5-0.2S4.9,3.8,5,4l7,7l7-7c0.1-0.1,0.3-0.2,0.5-0.2S19.9,3.8,20,4
		c0.1,0.1,0.2,0.3,0.2,0.5S20.2,4.9,20,5l-7,7l7,7c0.3,0.3,0.3,0.8,0,1.1C19.9,20.2,19.7,20.2,19.5,20.2z"/>
</g>
</svg>
