<?xml version="1.0" encoding="utf-8"?>
<!-- Generator: Adobe Illustrator 24.1.0, SVG Export Plug-In . SVG Version: 6.00 Build 0)  -->
<svg version="1.1" id="Layer_1" xmlns="http://www.w3.org/2000/svg" xmlns:xlink="http://www.w3.org/1999/xlink" x="0px" y="0px"
	 viewBox="0 0 24 24" style="enable-background:new 0 0 24 24;" xml:space="preserve">
<style type="text/css">
	.st0{fill:#FFFFFF;}
</style>
<g>
	<path class="st0" d="M23.2,24c-0.2,0-0.4-0.1-0.5-0.2l-6.5-6.5c-0.8,0.7-1.6,1.2-2.6,1.6c-1.2,0.5-2.5,0.8-3.8,0.8
		c-1.3,0-2.5-0.2-3.7-0.7c-2.4-1-4.3-2.8-5.4-5.3c-1-2.4-1-5.1-0.1-7.5S3.6,1.8,6,0.8C7.2,0.3,8.5,0,9.8,0c1.3,0,2.5,0.2,3.7,0.7
		c2.4,1,4.3,2.8,5.4,5.3s1,5.1,0.1,7.5c-0.4,1-1,1.9-1.6,2.7l6.5,6.5c0.3,0.3,0.3,0.8,0,1.1C23.6,23.9,23.4,24,23.2,24z M9.8,1.5
		c-1.1,0-2.2,0.2-3.2,0.7C4.5,3,2.9,4.6,2.1,6.7S1.3,11,2.2,13.1c0.9,2,2.5,3.6,4.5,4.5c1,0.4,2,0.6,3.1,0.6c1.1,0,2.2-0.2,3.2-0.7
		c1-0.4,1.8-1,2.6-1.7c0,0,0,0,0,0c0,0,0,0,0,0c0.8-0.8,1.4-1.7,1.8-2.7c0.8-2.1,0.8-4.3-0.1-6.4c-0.9-2-2.5-3.6-4.5-4.5
		C11.9,1.7,10.9,1.5,9.8,1.5z"/>
</g>
</svg>
