<?xml version="1.0" encoding="utf-8"?>
<!-- Generator: Adobe Illustrator 24.2.0, SVG Export Plug-In . SVG Version: 6.00 Build 0)  -->
<svg version="1.1" id="Layer_1" xmlns:svgjs="http://svgjs.com/svgjs"
	 xmlns="http://www.w3.org/2000/svg" xmlns:xlink="http://www.w3.org/1999/xlink" x="0px" y="0px" viewBox="0 0 103.9 138.5"
	 style="enable-background:new 0 0 103.9 138.5;" xml:space="preserve">
<style type="text/css">
	.st0{fill:url(#Social-Medias-Rewards-Rating__x2F__Certified__x2F__certified-ribbon-2_1_);}
</style>
<linearGradient id="Social-Medias-Rewards-Rating__x2F__Certified__x2F__certified-ribbon-2_1_" gradientUnits="userSpaceOnUse" x1="-0.1589" y1="71.35" x2="103.7411" y2="71.35" gradientTransform="matrix(1 0 0 -1 0 140.6)">
	<stop  offset="0" style="stop-color:#B479FF"/>
	<stop  offset="1" style="stop-color:#3FC3A3"/>
</linearGradient>
<path id="Social-Medias-Rewards-Rating__x2F__Certified__x2F__certified-ribbon-2" class="st0" d="M95.1,138.5
	c-1.8,0-3.6-0.6-5.1-1.7l-35.6-25.9c-1.5-1.1-3.6-1.1-5.1,0l-35.6,25.9c-2.6,1.9-6.1,2.2-9,0.7S0,133.1,0,129.8V13C0,5.8,5.8,0,13,0
	h77.9c7.2,0,13,5.8,13,13v116.9c0,3.3-1.8,6.2-4.7,7.7C97.7,138.2,96.4,138.5,95.1,138.5z M12.8,8.6c-2.4,0-4.3,1.9-4.3,4.3v116.9
	l35.6-25.9c4.6-3.3,10.7-3.3,15.3,0L95,129.8V13c0-2.4-1.9-4.3-4.3-4.3L12.8,8.6L12.8,8.6z M95.1,129.8L95.1,129.8L95.1,129.8z
	 M49.2,79.7l31.6-31.6c1.7-1.7,1.7-4.4,0-6.1c-1.7-1.7-4.4-1.7-6.1,0L43.1,73.5l-9.9-9.9c-1.7-1.7-4.4-1.7-6.1,0
	c-1.7,1.7-1.7,4.4,0,6.1l9.9,9.9c1.6,1.6,3.8,2.5,6.1,2.5C45.4,82.2,47.6,81.3,49.2,79.7z"/>
</svg>
