<svg width="39.3" height="32" xmlns="http://www.w3.org/2000/svg"><path fill="none" d="M-1-1h582v402H-1z"/><g><path fill="#3EC8ED" d="M39.3 3.8c-1.4.6-3 1.1-4.6 1.3 1.7-1 2.9-2.6 3.6-4.5-1.6.9-3.3 1.6-5.1 2C31.6 1 29.5 0 27.2 0c-4.5 0-8.1 3.6-8.1 8.1 0 .6.1 1.2.2 1.8-6.7-.3-12.7-3.5-16.6-8.4-.7 1.2-1.1 2.6-1.1 4 0 2.8 1.4 5.3 3.6 6.7-1.3 0-2.6-.4-3.7-1v.1c0 3.9 2.8 7.2 6.5 7.9-.7.2-1.4.3-2.1.3-.5 0-1-.1-1.5-.1 1 3.2 4 5.5 7.5 5.6-2.8 2.2-6.2 3.5-10 3.5-.7 0-1.3 0-1.9-.1C3.5 30.7 7.7 32 12.3 32c14.9 0 23-12.3 23-23V8c1.5-1.2 2.9-2.6 4-4.2z"/></g></svg>