<?xml version="1.0" encoding="utf-8"?>
<!-- Generator: Adobe Illustrator 24.3.0, SVG Export Plug-In . SVG Version: 6.00 Build 0)  -->
<svg version="1.1" id="Layer_1" xmlns="http://www.w3.org/2000/svg" xmlns:xlink="http://www.w3.org/1999/xlink" x="0px" y="0px"
	 viewBox="0 0 194.4 188.8" style="enable-background:new 0 0 194.4 188.8;" xml:space="preserve">
<style type="text/css">
	.st0{fill:#3EC8ED;}
	.st1{fill:#112A3F;}
</style>
<circle class="st0" cx="172.6" cy="21.8" r="21.8"/>
<path class="st1" d="M193.5,108.4c0,0,0,58.7,0,66.5c0,11.2-11.2,11.2-11.2,11.2h-30.5v-64.4c0-13-6.8-20-16.9-20
	c-9.8,0-17.1,7-17.3,19.6c0,0.2,0,0.4,0,0.4v53.1c0,11.1-11.2,11.2-11.2,11.2H75.8c0,0,0-6.4,0-16.2c-7.7,9.8-18.7,18.9-35.5,18.9
	C15,188.8,0,172.1,0,145.2c0,0,0-58.7,0-66.5c0-11.2,11.2-11.2,11.2-11.2h30.5v64.4c0,13,6.8,20,16.9,20c9.8,0,17.1-7,17.3-19.6
	c0-0.2,0-0.4,0-0.4V78.6c0-11.1,11.2-11.2,11.2-11.2h30.5v16.2c7.7-9.8,18.7-18.9,35.5-18.9C178.3,64.7,193.5,81.3,193.5,108.4z"/>
</svg>
