<!-- Generated by IcoMoon.io -->
<svg version="1.1" xmlns="http://www.w3.org/2000/svg" width="36" height="32" viewBox="0 0 36 32">
<title>vimeo</title>
<path d="M35.983 7.628c-0.162 3.502-2.609 8.305-7.341 14.395-4.894 6.357-9.036 9.543-12.426 9.543-2.096 0-3.875-1.934-5.323-5.809-0.97-3.551-1.934-7.102-2.904-10.654-1.076-3.875-2.229-5.809-3.467-5.809-0.267 0-1.21 0.57-2.827 1.695l-1.695-2.18c1.779-1.561 3.53-3.122 5.253-4.683 2.37-2.046 4.149-3.122 5.337-3.235 2.799-0.267 4.529 1.646 5.176 5.745 0.696 4.423 1.181 7.173 1.456 8.249 0.809 3.671 1.695 5.506 2.665 5.506 0.752 0 1.885-1.188 3.396-3.572 1.505-2.377 2.314-4.191 2.426-5.436 0.218-2.053-0.591-3.087-2.426-3.087-0.865 0-1.751 0.197-2.665 0.591 1.772-5.794 5.148-8.607 10.14-8.446 3.692 0.098 5.436 2.496 5.225 7.187z"></path>
</svg>
