<?xml version="1.0" encoding="utf-8"?>
<!-- Generator: Adobe Illustrator 25.1.0, SVG Export Plug-In . SVG Version: 6.00 Build 0)  -->
<svg version="1.1" id="Layer_1" xmlns="http://www.w3.org/2000/svg" xmlns:xlink="http://www.w3.org/1999/xlink" x="0px" y="0px"
	 viewBox="0 0 36 31.1" style="enable-background:new 0 0 36 31.1;" xml:space="preserve">
<style type="text/css">
	.st0{fill:#112A3F;}
</style>
<path class="st0" d="M36,7.2c-0.2,3.5-2.6,8.3-7.3,14.4c-4.9,6.4-9,9.5-12.4,9.5c-2.1,0-3.9-1.9-5.3-5.8C9.9,21.8,9,18.2,8,14.7
	c-1.1-3.9-2.2-5.8-3.5-5.8c-0.3,0-1.2,0.6-2.8,1.7L0,8.4c1.8-1.6,3.5-3.1,5.3-4.7c2.4-2,4.1-3.1,5.3-3.2c2.8-0.3,4.5,1.6,5.2,5.7
	c0.7,4.4,1.2,7.2,1.5,8.2c0.8,3.7,1.7,5.5,2.7,5.5c0.8,0,1.9-1.2,3.4-3.6c1.5-2.4,2.3-4.2,2.4-5.4c0.2-2.1-0.6-3.1-2.4-3.1
	c-0.9,0-1.8,0.2-2.7,0.6c1.8-5.8,5.1-8.6,10.1-8.4C34.4,0.1,36.2,2.5,36,7.2z"/>
</svg>
