<?xml version="1.0" encoding="utf-8"?>
<!-- Generator: Adobe Illustrator 25.0.0, SVG Export Plug-In . SVG Version: 6.00 Build 0)  -->
<svg version="1.1" id="Layer_1" xmlns="http://www.w3.org/2000/svg" xmlns:xlink="http://www.w3.org/1999/xlink" x="0px" y="0px"
	 viewBox="0 0 140 87.5" style="enable-background:new 0 0 140 87.5;" xml:space="preserve">
<style type="text/css">
	.st0{fill:url(#SVGID_1_);}
</style>
<linearGradient id="SVGID_1_" gradientUnits="userSpaceOnUse" x1="0" y1="43.75" x2="140" y2="43.75">
	<stop  offset="0" style="stop-color:#3EC8ED"/>
	<stop  offset="1" style="stop-color:#112A3F"/>
</linearGradient>
<path class="st0" d="M91.9,0H4.4C2,0,0,2,0,4.4v78.8c0,2.4,2,4.4,4.4,4.4h87.5c2.4,0,4.4-2,4.4-4.4V4.4C96.2,2,94.3,0,91.9,0z
	 M87.5,78.8H8.8v-70h78.8V78.8z M140,20.2v47.1c0,1.3-0.3,2.7-0.9,3.9c-1,2.1-2.8,3.7-5.1,4.4c-0.9,0.3-1.8,0.5-2.8,0.5
	c-1.3,0-2.7-0.3-3.9-0.9l-19.9-10c-2.2-1.1-3-3.7-2-5.9c1.1-2.2,3.7-3,5.9-2l19.9,10l0-47.1l-19.9,10c-2.2,1.1-4.8,0.2-5.9-2
	c-1.1-2.2-0.2-4.8,2-5.9l19.9-10c1.2-0.6,2.6-0.9,3.9-0.9c0,0,0,0,0,0c2.3,0,4.5,0.9,6.2,2.6C139.1,15.7,140,17.9,140,20.2z"/>
</svg>
