<?xml version="1.0" encoding="utf-8"?>
<!-- Generator: Adobe Illustrator 25.1.0, SVG Export Plug-In . SVG Version: 6.00 Build 0)  -->
<svg version="1.1" id="Layer_1" xmlns="http://www.w3.org/2000/svg" xmlns:xlink="http://www.w3.org/1999/xlink" x="0px" y="0px"
	 viewBox="0 0 32 22.5" style="enable-background:new 0 0 32 22.5;" xml:space="preserve">
<style type="text/css">
	.st0{fill:#FFFFFF;}
</style>
<path class="st0" d="M31.7,4.9c0,0-0.3-2.2-1.3-3.2c-1.2-1.3-2.6-1.3-3.2-1.4C22.7,0,16,0,16,0l0,0c0,0-6.7,0-11.2,0.3
	c-0.6,0.1-2,0.1-3.2,1.4c-1,1-1.3,3.2-1.3,3.2S0,7.4,0,10v2.4c0,2.6,0.3,5.2,0.3,5.2s0.3,2.2,1.3,3.2c1.2,1.3,2.8,1.2,3.5,1.4
	C7.7,22.4,16,22.5,16,22.5s6.7,0,11.2-0.3c0.6-0.1,2-0.1,3.2-1.4c1-1,1.3-3.2,1.3-3.2S32,15,32,12.4V10C32,7.4,31.7,4.9,31.7,4.9
	L31.7,4.9z M12.7,15.4v-9l8.6,4.5L12.7,15.4z"/>
</svg>
