<?xml version="1.0" encoding="utf-8"?>
<!-- Generator: Adobe Illustrator 24.2.0, SVG Export Plug-In . SVG Version: 6.00 Build 0)  -->
<svg version="1.1" id="Layer_1" xmlns:svgjs="http://svgjs.com/svgjs"
	 xmlns="http://www.w3.org/2000/svg" xmlns:xlink="http://www.w3.org/1999/xlink" x="0px" y="0px" viewBox="0 0 113.7 140"
	 style="enable-background:new 0 0 113.7 140;" xml:space="preserve">
<style type="text/css">
	.st0{fill:url(#Work-Office-Companies__x2F__Tasks__x2F__task-list-check_1_);}
</style>
<linearGradient id="Work-Office-Companies__x2F__Tasks__x2F__task-list-check_1_" gradientUnits="userSpaceOnUse" x1="0" y1="72" x2="113.7" y2="72" gradientTransform="matrix(1 0 0 -1 0 142)">
	<stop  offset="0.1905" style="stop-color:#48BCA2"/>
	<stop  offset="0.8077" style="stop-color:#FF2896"/>
</linearGradient>
<path id="Work-Office-Companies__x2F__Tasks__x2F__task-list-check" class="st0" d="M46,104c-2.5,0-4.8-1-6.5-2.7L28.6,90.4
	c-1.7-1.7-1.7-4.5,0-6.2s4.5-1.7,6.2,0l10.9,10.9l33.2-32.6c1.7-1.7,4.5-1.7,6.2,0c1.7,1.7,1.7,4.5,0,6.2l-32.6,32.6
	C50.8,103.1,48.5,104,46,104z M113.7,126.9V35c0-7.2-5.9-13.1-13.1-13.1H82.7C80.6,9.5,69.8,0,56.9,0C43.9,0,33.1,9.5,31,21.9H13.1
	C5.9,21.9,0,27.8,0,35v91.9c0,7.2,5.9,13.1,13.1,13.1h87.5C107.8,140,113.7,134.1,113.7,126.9z M35,30.6c2.4,0,4.4-2,4.4-4.4
	c0-9.6,7.8-17.5,17.5-17.5c9.6,0,17.5,7.8,17.5,17.5c0,2.4,2,4.4,4.4,4.4h21.9c2.4,0,4.4,2,4.4,4.4v91.9c0,2.4-2,4.4-4.4,4.4H13.1
	c-2.4,0-4.4-2-4.4-4.4V35c0-2.4,2-4.4,4.4-4.4H35z M83.1,26.3L83.1,26.3L83.1,26.3z M60.7,29.4c2.1-1.6,3.1-4.3,2.5-6.9
	s-2.7-4.5-5.4-4.9c-3.6-0.5-6.9,1.9-7.5,5.5c-0.4,2.6,0.8,5.2,3.1,6.6c1.1,0.6,2.2,1,3.4,1C58.2,30.6,59.6,30.2,60.7,29.4z
	 M56.5,26.2c-0.9-0.1-1.6-0.8-1.8-1.7c-0.2-0.9,0.1-1.7,0.8-2.3c0.7-0.5,1.7-0.6,2.4-0.1c0.8,0.5,1.2,1.3,1,2.2
	C58.8,25.6,57.7,26.4,56.5,26.2L56.5,26.2z"/>
</svg>
