<?xml version="1.0" encoding="utf-8"?>
<!-- Generator: Adobe Illustrator 24.2.0, SVG Export Plug-In . SVG Version: 6.00 Build 0)  -->
<svg version="1.1" id="Layer_1" xmlns:svgjs="http://svgjs.com/svgjs"
	 xmlns="http://www.w3.org/2000/svg" xmlns:xlink="http://www.w3.org/1999/xlink" x="0px" y="0px" viewBox="0 0 139.7 78.7"
	 style="enable-background:new 0 0 139.7 78.7;" xml:space="preserve">
<style type="text/css">
	.st0{fill:url(#SVGID_1_);}
</style>
<linearGradient id="SVGID_1_" gradientUnits="userSpaceOnUse" x1="0" y1="41.85" x2="139.675" y2="41.85" gradientTransform="matrix(1 0 0 -1 0 81.2)">
	<stop  offset="0" style="stop-color:#424278"/>
	<stop  offset="0.3546" style="stop-color:#6854A5"/>
	<stop  offset="1" style="stop-color:#B479FF"/>
</linearGradient>
<path class="st0" d="M139.7,4.5v39.3c0,2.4-2,4.4-4.4,4.4s-4.4-2-4.4-4.4V15L92.2,53.8c-4.9,4.9-13.6,4.9-18.5,0L55.5,35.6
	c-1.7-1.7-4.5-1.7-6.2,0L7.5,77.4c-0.9,0.9-2,1.3-3.1,1.3s-2.2-0.4-3.1-1.3c-1.7-1.7-1.7-4.5,0-6.2l41.8-41.8c5-5,13.6-5,18.5,0
	l18.3,18.2c1.6,1.6,4.5,1.6,6.2,0l38.8-38.8H96.1c-2.4,0-4.4-2-4.4-4.4s2-4.4,4.4-4.4h39.3c0.3,0,0.6,0,0.9,0.1
	c0.1,0,0.2,0.1,0.4,0.1s0.3,0.1,0.4,0.1c0.1,0.1,0.3,0.1,0.4,0.2c0.1,0.1,0.2,0.1,0.3,0.2c0.5,0.3,0.9,0.7,1.2,1.2
	c0.1,0.1,0.1,0.2,0.2,0.3c0.1,0.1,0.2,0.3,0.2,0.4c0.1,0.1,0.1,0.3,0.1,0.4c0,0.1,0.1,0.2,0.1,0.4C139.7,3.9,139.7,4.2,139.7,4.5z"
	/>
</svg>
