<?xml version="1.0" encoding="utf-8"?>
<!-- Generator: Adobe Illustrator 24.2.0, SVG Export Plug-In . SVG Version: 6.00 Build 0)  -->
<svg version="1.1" id="Layer_1" xmlns:svgjs="http://svgjs.com/svgjs"
	 xmlns="http://www.w3.org/2000/svg" xmlns:xlink="http://www.w3.org/1999/xlink" x="0px" y="0px" viewBox="0 0 139.9 139.8"
	 style="enable-background:new 0 0 139.9 139.8;" xml:space="preserve">
<style type="text/css">
	.st0{fill:url(#Interface-Essential__x2F__VoiceID__x2F__voice-id_1_);}
</style>
<linearGradient id="Interface-Essential__x2F__VoiceID__x2F__voice-id_1_" gradientUnits="userSpaceOnUse" x1="0.1518" y1="72.1" x2="139.8577" y2="72.1" gradientTransform="matrix(1 0 0 -1 0 142)">
	<stop  offset="9.320056e-02" style="stop-color:#3EC8ED"/>
	<stop  offset="0.9151" style="stop-color:#122F44"/>
</linearGradient>
<path id="Interface-Essential__x2F__VoiceID__x2F__voice-id" class="st0" d="M126.8,139.8h-35c-2.4,0-4.4-2-4.4-4.4s2-4.4,4.4-4.4
	h34.9c2.4,0,4.4-2,4.4-4.4V91.8c0-2.4,2-4.4,4.4-4.4s4.4,2,4.4,4.4v34.9C139.9,133.9,134,139.8,126.8,139.8z M139.9,48.1V13.2
	c0-7.2-5.9-13.1-13.1-13.1h-35c-2.4,0-4.4,2-4.4,4.4s2,4.4,4.4,4.4h34.9c2.4,0,4.4,2,4.4,4.4v34.9c0,2.4,2,4.4,4.4,4.4
	S139.9,50.6,139.9,48.1z M8.9,48.1V13.2c0-2.4,2-4.4,4.4-4.4h34.9c2.4,0,4.4-2,4.4-4.4S50.6,0,48.2,0h-35C6,0.1,0.2,6,0.2,13.2v34.9
	c0,2.4,2,4.4,4.4,4.4S8.9,50.6,8.9,48.1z M52.5,135.5c0-2.4-2-4.4-4.4-4.4H13.2c-2.4,0-4.4-2-4.4-4.4V91.8c0-2.4-2-4.4-4.4-4.4
	S0,89.4,0,91.8v34.9c0,7.2,5.9,13.1,13.1,13.1H48C50.6,139.8,52.5,137.9,52.5,135.5z M74.4,100.5V39.4c0-2.4-2-4.4-4.4-4.4
	s-4.4,2-4.4,4.4v61.1c0,2.4,2,4.4,4.4,4.4S74.4,102.9,74.4,100.5z M52.5,87.4V52.5c0-2.4-2-4.4-4.4-4.4s-4.4,2-4.4,4.4v34.9
	c0,2.4,2,4.4,4.4,4.4S52.5,89.8,52.5,87.4z M96.2,87.4V52.5c0-2.4-2-4.4-4.4-4.4s-4.4,2-4.4,4.4v34.9c0,2.4,2,4.4,4.4,4.4
	S96.2,89.8,96.2,87.4z M30.7,78.7V61.2c0-2.4-2-4.4-4.4-4.4c-2.4,0-4.4,2-4.4,4.4v17.5c0,2.4,2,4.4,4.4,4.4
	C28.7,83.1,30.7,81.1,30.7,78.7z M118,78.7V61.2c0-2.4-2-4.4-4.4-4.4s-4.4,2-4.4,4.4v17.5c0,2.4,2,4.4,4.4,4.4S118,81.1,118,78.7z"
	/>
</svg>
