<?xml version="1.0" encoding="utf-8"?>
<!-- Generator: Adobe Illustrator 24.2.0, SVG Export Plug-In . SVG Version: 6.00 Build 0)  -->
<svg version="1.1" id="Layer_1" xmlns:svgjs="http://svgjs.com/svgjs"
	 xmlns="http://www.w3.org/2000/svg" xmlns:xlink="http://www.w3.org/1999/xlink" x="0px" y="0px" viewBox="0 0 138.6 133.3"
	 style="enable-background:new 0 0 138.6 133.3;" xml:space="preserve">
<style type="text/css">
	.st0{fill:url(#SVGID_1_);}
</style>
<linearGradient id="SVGID_1_" gradientUnits="userSpaceOnUse" x1="0" y1="68.95" x2="138.6" y2="68.95" gradientTransform="matrix(1 0 0 -1 0 135.6)">
	<stop  offset="0" style="stop-color:#B479FF"/>
	<stop  offset="1" style="stop-color:#3EC8ED"/>
</linearGradient>
<path class="st0" d="M60.6,45.8c0,2.4-1.9,4.3-4.3,4.3h-26c-2.4,0-4.3-1.9-4.3-4.3s1.9-4.3,4.3-4.3h26
	C58.7,41.5,60.6,43.4,60.6,45.8z M56.3,58.1h-26c-2.4,0-4.3,1.9-4.3,4.3c0,2.4,1.9,4.3,4.3,4.3h26c2.4,0,4.3-1.9,4.3-4.3
	C60.6,60,58.7,58.1,56.3,58.1z M56.3,74.8h-26c-2.4,0-4.3,1.9-4.3,4.3s1.9,4.3,4.3,4.3h26c2.4,0,4.3-1.9,4.3-4.3
	S58.7,74.8,56.3,74.8z M56.3,91.4h-26c-2.4,0-4.3,1.9-4.3,4.3s1.9,4.3,4.3,4.3h26c2.4,0,4.3-1.9,4.3-4.3
	C60.6,93.4,58.7,91.4,56.3,91.4z M56.3,108.1h-26c-2.4,0-4.3,1.9-4.3,4.3s1.9,4.3,4.3,4.3h26c2.4,0,4.3-1.9,4.3-4.3
	C60.6,110,58.7,108.1,56.3,108.1z M138.6,129c0,2.4-1.9,4.3-4.3,4.3h-8.7H90.9H73.6H12.9H4.3c-2.4,0-4.3-1.9-4.3-4.3
	c0-2.4,1.9-4.3,4.3-4.3h4.3V32c0-3.9,3.2-7.1,7.2-7.1h10.1v-9.5c0-3.9,3.2-7.1,7.2-7.1h10.1v-4c0-2.4,1.9-4.3,4.3-4.3
	s4.3,1.9,4.3,4.3v4h1.4c4,0,7.2,3.2,7.2,7.1v9.5h10.1c4,0,7.2,3.2,7.2,7.1v92.7h8.7V58.3c0-4.7,3.9-8.5,8.7-8.5h17.3v-4
	c0-2.4,1.9-4.3,4.3-4.3s4.3,1.9,4.3,4.3v4c4.8,0,8.7,3.8,8.7,8.5v66.4h4.3C136.7,124.7,138.6,126.6,138.6,129z M34.6,24.9h17.3v-8
	H34.6V24.9z M69.3,124.7V33.5h-13h-26h-13v91.2C17.3,124.7,69.3,124.7,69.3,124.7z M121.3,124.7V58.3H118c-0.3,0.1-0.7,0.2-1.1,0.2
	s-0.7-0.1-1-0.1l-20.6,0.1v66.2C95.3,124.7,121.3,124.7,121.3,124.7z"/>
</svg>
