<?xml version="1.0" encoding="utf-8"?>
<!-- Generator: Adobe Illustrator 24.2.0, SVG Export Plug-In . SVG Version: 6.00 Build 0)  -->
<svg version="1.1" id="Layer_1" xmlns:svgjs="http://svgjs.com/svgjs"
	 xmlns="http://www.w3.org/2000/svg" xmlns:xlink="http://www.w3.org/1999/xlink" x="0px" y="0px" viewBox="0 0 138.5 138.5"
	 style="enable-background:new 0 0 138.5 138.5;" xml:space="preserve">
<style type="text/css">
	.st0{fill:url(#SVGID_1_);}
</style>
<linearGradient id="SVGID_1_" gradientUnits="userSpaceOnUse" x1="0" y1="71.75" x2="138.4825" y2="71.75" gradientTransform="matrix(1 0 0 -1 0 141)">
	<stop  offset="0" style="stop-color:#3EC8ED"/>
	<stop  offset="1" style="stop-color:#3FC3A3"/>
</linearGradient>
<path class="st0" d="M134.8,43.3C125.7,17.4,101.1,0,73.6,0c-0.1,0-0.1,0-0.2,0C49.9,0,28.2,12.8,16.8,33.3
	C5.7,53.2,5.9,77.3,17.2,97L0.4,132.3c-0.8,1.7-0.4,3.6,0.8,4.9c0.8,0.8,1.9,1.3,3.1,1.3c0.6,0,1.3-0.1,1.9-0.4l35.2-16.9
	c23,13.2,52,11,72.8-5.7C135.7,98.3,143.9,69.3,134.8,43.3z M108.8,108.7c-18.6,14.9-44.7,16.5-64.9,3.9c-1.3-0.8-2.8-0.9-4.1-0.2
	L13.4,125l12.5-26.3c0.6-1.3,0.5-2.9-0.2-4.1c-10.8-17.4-11.3-39.2-1.4-57.1C34.2,19.7,53,8.7,73.4,8.7h0.1h0.1
	c23.8,0,45.1,15.1,53,37.5C134.5,68.7,127.4,93.8,108.8,108.7z M54,64.9c0,3.6-2.9,6.5-6.5,6.5S41,68.5,41,64.9s2.9-6.5,6.5-6.5
	C51.1,58.4,54,61.3,54,64.9z M80,64.9c0,3.6-2.9,6.5-6.5,6.5S67,68.5,67,64.9s2.9-6.5,6.5-6.5S80,61.3,80,64.9z M105.9,64.9
	c0,3.6-2.9,6.5-6.5,6.5s-6.5-2.9-6.5-6.5s2.9-6.5,6.5-6.5S105.9,61.3,105.9,64.9z"/>
</svg>
