<?xml version="1.0" encoding="utf-8"?>
<!-- Generator: Adobe Illustrator 24.2.0, SVG Export Plug-In . SVG Version: 6.00 Build 0)  -->
<svg version="1.1" id="Layer_1" xmlns:svgjs="http://svgjs.com/svgjs"
	 xmlns="http://www.w3.org/2000/svg" xmlns:xlink="http://www.w3.org/1999/xlink" x="0px" y="0px" viewBox="0 0 139.6 139.5"
	 style="enable-background:new 0 0 139.6 139.5;" xml:space="preserve">
<style type="text/css">
	.st0{fill:url(#Interface-Essential__x2F__FaceID__x2F__face-id-4_1_);}
</style>
<linearGradient id="Interface-Essential__x2F__FaceID__x2F__face-id-4_1_" gradientUnits="userSpaceOnUse" x1="0.1441" y1="71.65" x2="139.465" y2="71.65" gradientTransform="matrix(1 0 0 -1 0 141.4)">
	<stop  offset="0" style="stop-color:#FCDA0E"/>
	<stop  offset="1" style="stop-color:#FF8A00"/>
</linearGradient>
<path id="Interface-Essential__x2F__FaceID__x2F__face-id-4" class="st0" d="M126.4,139.5H109c-2.4,0-4.4-2-4.4-4.4s2-4.4,4.4-4.4
	h17.4c2.4,0,4.4-2,4.4-4.4v-17.4c0-2.4,2-4.4,4.4-4.4s4.4,2,4.4,4.4v17.4C139.5,133.6,133.6,139.5,126.4,139.5z M139.5,30.7V13.2
	c0-7.2-5.9-13.1-13.1-13.1H109c-2.4,0-4.4,2-4.4,4.4s2,4.4,4.4,4.4h17.4c2.4,0,4.4,2,4.4,4.4v17.4c0,2.4,2,4.4,4.4,4.4
	C137.5,35,139.5,33.1,139.5,30.7z M8.9,30.7V13.2c0-2.4,2-4.4,4.4-4.4h17.4c2.4,0,4.4-2,4.4-4.4S33.1,0,30.7,0H13.2
	C6,0.2,0.1,6,0.1,13.2v17.5c0,2.4,2,4.4,4.4,4.4S8.9,33.1,8.9,30.7z M35,135.1c0-2.4-2-4.4-4.4-4.4H13.2c-2.4,0-4.4-2-4.4-4.4v-17.4
	c0-2.4-2-4.4-4.4-4.4s-4.4,2-4.4,4.4v17.4c0,7.2,5.9,13.1,13.1,13.1h17.4C33,139.5,35,137.5,35,135.1z M98.1,52.5
	c0-15.6-12.7-28.3-28.3-28.3S41.5,36.8,41.5,52.5s12.7,28.3,28.3,28.3S98.1,68.1,98.1,52.5z M89.4,52.5c0,10.8-8.8,19.6-19.6,19.6
	s-19.6-8.8-19.6-19.6S59,32.9,69.8,32.9S89.4,41.7,89.4,52.5z M108.2,115.3c2.3-0.8,3.5-3.3,2.7-5.6c-6.1-17.4-22.6-29-41.1-29
	s-34.9,11.7-41.1,29c-0.8,2.3,0.4,4.8,2.7,5.6c2.3,0.8,4.8-0.4,5.6-2.7c4.9-13.9,18.1-23.2,32.8-23.2s27.9,9.3,32.8,23.2
	c0.6,1.8,2.3,2.9,4.1,2.9C107.2,115.5,107.7,115.5,108.2,115.3z"/>
</svg>
