<?xml version="1.0" encoding="utf-8"?>
<!-- Generator: Adobe Illustrator 24.2.0, SVG Export Plug-In . SVG Version: 6.00 Build 0)  -->
<svg version="1.1" id="Layer_1" xmlns="http://www.w3.org/2000/svg" xmlns:xlink="http://www.w3.org/1999/xlink" x="0px" y="0px"
	 viewBox="0 0 20.9 24.1" style="enable-background:new 0 0 20.9 24.1;" xml:space="preserve">
<style type="text/css">
	.st0{fill:url(#SVGID_1_);}
</style>
<linearGradient id="SVGID_1_" gradientUnits="userSpaceOnUse" x1="0" y1="13.95" x2="21" y2="13.95" gradientTransform="matrix(1 0 0 -1 0 26)">
	<stop  offset="0" style="stop-color:#3FC3A3"/>
	<stop  offset="0.288" style="stop-color:#60A8A1"/>
	<stop  offset="0.7185" style="stop-color:#DB4598"/>
	<stop  offset="1" style="stop-color:#FF2896"/>
</linearGradient>
<path class="st0" d="M3.5,24C1.6,24,0,22.4,0,20.5V5c0-1.9,1.6-3.5,3.5-3.5h1.8c0.4,0,0.8,0.3,0.8,0.8S5.7,3,5.3,3H3.5
	c-1.1,0-2,0.9-2,2v13H12v-2.2c0-0.4,0.3-0.8,0.8-0.8s0.8,0.3,0.8,0.8v4.8c0,1.9-1.6,3.5-3.5,3.5H3.5V24z M1.5,20.5c0,1.1,0.9,2,2,2
	H10c1.1,0,2-0.9,2-2v-1H1.5V20.5z M9.7,13.5c-1.2,0-2.2-1-2.2-2.2v-9C7.5,1,8.5,0,9.7,0h9c1.2,0,2.2,1,2.2,2.2v9
	c0,1.2-1,2.2-2.2,2.2h-9V13.5z M9.7,1.5c-0.4,0-0.8,0.3-0.8,0.8v9c0,0.4,0.3,0.8,0.8,0.8h9c0.4,0,0.8-0.3,0.8-0.8v-9
	c0-0.4-0.3-0.8-0.8-0.8C18.7,1.5,9.7,1.5,9.7,1.5z M12.7,9c-0.2,0-0.4-0.1-0.5-0.2l-1.5-1.5c-0.1-0.2-0.2-0.4-0.2-0.5
	s0.1-0.4,0.2-0.5l1.5-1.5c0.1-0.1,0.3-0.2,0.5-0.2s0.4,0.1,0.5,0.2c0.2,0.1,0.3,0.3,0.3,0.4s-0.1,0.4-0.2,0.5l-1,1l1,1
	c0.1,0.2,0.2,0.4,0.2,0.5s-0.1,0.4-0.2,0.5S12.9,9,12.7,9z M15.7,9c-0.2,0-0.4-0.1-0.5-0.2C15.1,8.7,15,8.5,15,8.3s0.1-0.4,0.2-0.5
	l1-1l-1-1C15.1,5.7,15,5.5,15,5.3s0.1-0.4,0.2-0.5s0.3-0.2,0.5-0.2s0.4,0.1,0.5,0.2l1.5,1.5c0.1,0.1,0.2,0.3,0.2,0.5
	s-0.1,0.4-0.2,0.5l-1.5,1.5C16.1,8.9,16,9,15.7,9z"/>
</svg>
