<?xml version="1.0" encoding="utf-8"?>
<!-- Generator: Adobe Illustrator 24.2.0, SVG Export Plug-In . SVG Version: 6.00 Build 0)  -->
<svg version="1.1" id="Layer_1" xmlns:svgjs="http://svgjs.com/svgjs"
	 xmlns="http://www.w3.org/2000/svg" xmlns:xlink="http://www.w3.org/1999/xlink" x="0px" y="0px" viewBox="0 0 122.1 139.5"
	 style="enable-background:new 0 0 122.1 139.5;" xml:space="preserve">
<style type="text/css">
	.st0{fill:url(#SVGID_1_);}
</style>
<linearGradient id="SVGID_1_" gradientUnits="userSpaceOnUse" x1="0" y1="72.05" x2="122.1004" y2="72.05" gradientTransform="matrix(1 0 0 -1 0 141.8)">
	<stop  offset="0" style="stop-color:#3FC3A3"/>
	<stop  offset="0.2957" style="stop-color:#78CA76"/>
	<stop  offset="1" style="stop-color:#FCDA0E"/>
</linearGradient>
<path class="st0" d="M74.2,87.2c-2.4,0-4.4,2-4.4,4.4v13.1h-61V29c0-6.4,5.2-11.5,11.5-11.5h10.3c2.4,0,4.4-2,4.4-4.4
	s-2-4.4-4.4-4.4H20.3C9.1,8.7,0,17.8,0,29v90.3c0,5.4,2.1,10.5,5.9,14.3s8.9,5.9,14.3,5.9h38c5.4,0,10.5-2.1,14.3-5.9
	c3.8-3.8,5.9-8.9,5.9-14.3V91.6C78.6,89.2,76.6,87.2,74.2,87.2z M66.5,127.5c-2.1,2.1-5.1,3.4-8.2,3.4h-38c-3,0-6-1.2-8.2-3.4
	c-2.1-2.1-3.4-5.1-3.4-8.2v-5.9h61v5.9C69.8,122.4,68.6,125.3,66.5,127.5z M82.9,0C61.3,0,43.7,17.6,43.7,39.3
	c0,21.6,17.6,39.2,39.2,39.2s39.2-17.6,39.2-39.2C122.2,17.6,104.6,0,82.9,0z M82.9,69.8c-16.8,0-30.5-13.7-30.5-30.5
	S66.1,8.8,82.9,8.8s30.5,13.7,30.5,30.5C113.5,56.1,99.8,69.8,82.9,69.8z M99.1,31.8c1.7,1.7,1.7,4.5,0,6.2c-0.9,0.9-2,1.3-3.1,1.3
	c-1.1,0-2.2-0.4-3.1-1.3l-5.6-5.6v24.4c0,2.4-2,4.4-4.4,4.4c-2.4,0-4.4-2-4.4-4.4V32.4L72.9,38c-1.7,1.7-4.5,1.7-6.2,0
	s-1.7-4.5,0-6.2l13.1-13.1c0.2-0.2,0.4-0.4,0.7-0.5c0.1-0.1,0.2-0.1,0.3-0.2c0.1-0.1,0.3-0.2,0.4-0.2c0.1-0.1,0.3-0.1,0.4-0.1
	c0.1,0,0.2-0.1,0.4-0.1c0.6-0.1,1.1-0.1,1.7,0c0.1,0,0.2,0.1,0.4,0.1c0.1,0,0.3,0.1,0.4,0.1c0.1,0.1,0.3,0.1,0.4,0.2
	c0.1,0.1,0.2,0.1,0.3,0.2c0.2,0.2,0.5,0.3,0.7,0.5L99.1,31.8z"/>
</svg>
