<?xml version="1.0" encoding="utf-8"?>
<!-- Generator: Adobe Illustrator 24.2.0, SVG Export Plug-In . SVG Version: 6.00 Build 0)  -->
<svg version="1.1" id="Layer_1" xmlns:svgjs="http://svgjs.com/svgjs"
	 xmlns="http://www.w3.org/2000/svg" xmlns:xlink="http://www.w3.org/1999/xlink" x="0px" y="0px" viewBox="0 0 113.4 139.3"
	 style="enable-background:new 0 0 113.4 139.3;" xml:space="preserve">
<style type="text/css">
	.st0{fill:url(#SVGID_1_);}
</style>
<linearGradient id="SVGID_1_" gradientUnits="userSpaceOnUse" x1="0.1806" y1="71.55" x2="113.3167" y2="71.55" gradientTransform="matrix(1 0 0 -1 0 141.2)">
	<stop  offset="0" style="stop-color:#3FC3A3"/>
	<stop  offset="1" style="stop-color:#FCDA0E"/>
</linearGradient>
<path class="st0" d="M91.6,87.1c-12,0-21.8,9.8-21.8,21.8c0,7.2-5.9,13.1-13.1,13.1c-7.2,0-13.1-5.9-13.1-13.1V95.5
	c19.6-2.1,34.9-18.8,34.9-38.9V39.2c0-7.2-5.9-13.1-13.1-13.1H61V4.4C61,2,59.1,0,56.6,0s-4.4,1.9-4.4,4.4v21.8H26.3V4.4
	C26.3,2,24.4,0,21.9,0c-2.4,0-4.4,1.9-4.4,4.4v21.8h-4.4C5.9,26.2,0,32.1,0,39.3v17.3c0,20.1,15.3,36.7,34.8,38.9v13.3
	c0,12,9.8,21.8,21.8,21.8s21.8-9.8,21.8-21.8c0-7.2,5.9-13.1,13.1-13.1s13.1,5.9,13.1,13.1v26.1c0,2.4,1.9,4.4,4.4,4.4
	c2.4,0,4.4-1.9,4.4-4.4v-26.1C113.3,96.8,103.6,87.1,91.6,87.1z M8.9,56.6V39.2c0-2.4,2-4.4,4.4-4.4h52.2c2.4,0,4.4,2,4.4,4.4v17.4
	c0,16.8-13.7,30.5-30.5,30.5C22.5,87.1,8.9,73.4,8.9,56.6z M48,52.3H30.6c-2.4,0-4.4-1.9-4.4-4.4c0-2.4,1.9-4.4,4.4-4.4H48
	c2.4,0,4.4,1.9,4.4,4.4C52.4,50.3,50.4,52.3,48,52.3z"/>
</svg>
