<?xml version="1.0" encoding="utf-8"?>
<!-- Generator: Adobe Illustrator 24.2.0, SVG Export Plug-In . SVG Version: 6.00 Build 0)  -->
<svg version="1.1" id="Layer_1" xmlns:svgjs="http://svgjs.com/svgjs"
	 xmlns="http://www.w3.org/2000/svg" xmlns:xlink="http://www.w3.org/1999/xlink" x="0px" y="0px" viewBox="0 0 139.3 139.3"
	 style="enable-background:new 0 0 139.3 139.3;" xml:space="preserve">
<style type="text/css">
	.st0{fill:url(#SVGID_1_);}
</style>
<linearGradient id="SVGID_1_" gradientUnits="userSpaceOnUse" x1="0" y1="71.55" x2="139.3" y2="71.55" gradientTransform="matrix(1 0 0 -1 0 141.2)">
	<stop  offset="0" style="stop-color:#424278"/>
	<stop  offset="0.3546" style="stop-color:#6854A5"/>
	<stop  offset="1" style="stop-color:#B479FF"/>
</linearGradient>
<path class="st0" d="M138.7,67.4L127,47.9l11.7-19.5c0.8-1.4,0.8-3.1,0-4.5L125.6,2.1c-0.8-1.3-2.2-2.1-3.7-2.1H95.8
	c-1.5,0-2.9,0.8-3.7,2.1L80.3,21.7H59.1L47.3,2.1C46.5,0.8,45.1,0,43.6,0H17.4c-1.5,0-2.9,0.8-3.7,2.1L0.6,23.9
	c-0.8,1.4-0.8,3.1,0,4.5l11.7,19.5L0.6,67.4c-0.8,1.4-0.8,3.1,0,4.5l11.7,19.5L0.6,110.9c-0.8,1.4-0.8,3.1,0,4.5l13.1,21.8
	c0.8,1.3,2.2,2.1,3.7,2.1h26.1c1.5,0,2.9-0.8,3.7-2.1L59,117.5h21.2L92,137.2c0.8,1.3,2.2,2.1,3.7,2.1h26.1c1.5,0,2.9-0.8,3.7-2.1
	l13.1-21.8c0.8-1.4,0.8-3.1,0-4.5l-11.7-19.5l11.7-19.5C139.5,70.5,139.5,68.8,138.7,67.4z M98.3,8.7h21.2l10.4,17.4l-10.4,17.4
	H98.3L87.8,26.1L98.3,8.7z M80.3,108.8H59.1L48.6,91.4L59.1,74h21.2l10.4,17.4L80.3,108.8z M80.3,65.3H59.1L48.6,47.9l10.5-17.4
	h21.2l10.4,17.4L80.3,65.3z M19.9,8.7h21.2l10.5,17.4L41.1,43.5H19.9L9.4,26.1L19.9,8.7z M19.9,52.2h21.2l10.4,17.4L41.1,87H19.9
	L9.4,69.6L19.9,52.2z M41.1,130.6H19.9L9.4,113.2l10.5-17.4h21.2l10.5,17.4L41.1,130.6z M119.4,130.6H98.3l-10.4-17.4l10.4-17.4
	h21.2l10.4,17.4L119.4,130.6z M119.4,87H98.3L87.8,69.6l10.4-17.4h21.2l10.5,17.4L119.4,87z"/>
</svg>
