<?xml version="1.0" encoding="utf-8"?>
<!-- Generator: Adobe Illustrator 24.2.0, SVG Export Plug-In . SVG Version: 6.00 Build 0)  -->
<svg version="1.1" id="Layer_1" xmlns:svgjs="http://svgjs.com/svgjs"
	 xmlns="http://www.w3.org/2000/svg" xmlns:xlink="http://www.w3.org/1999/xlink" x="0px" y="0px" viewBox="0 0 139.5 139.5"
	 style="enable-background:new 0 0 139.5 139.5;" xml:space="preserve">
<style type="text/css">
	.st0{fill:url(#SVGID_1_);}
</style>
<linearGradient id="SVGID_1_" gradientUnits="userSpaceOnUse" x1="0" y1="70.65" x2="139.3208" y2="70.65" gradientTransform="matrix(1 0 0 -1 0 140.4)">
	<stop  offset="0" style="stop-color:#FF2896"/>
	<stop  offset="1" style="stop-color:#B479FF"/>
</linearGradient>
<path class="st0" d="M126.4,87.1h-8.7v-4.4c0-7.2-5.9-13.1-13.1-13.1H74.1V52.3h8.7c7.2,0,13.1-5.9,13.1-13.1V13.1
	C95.9,5.9,90,0,82.8,0H56.7c-7.2,0-13.1,5.9-13.1,13.1v26.1c0,7.2,5.9,13.1,13.1,13.1h8.7v17.4H34.9c-7.2,0-13.1,5.9-13.1,13.1v4.4
	h-8.7C5.9,87.2,0,93.1,0,100.3v26.1c0,7.2,5.9,13.1,13.1,13.1h26.1c7.2,0,13.1-5.9,13.1-13.1v-26.2c0-7.2-5.9-13.1-13.1-13.1h-8.6
	v-4.4c0-2.4,2-4.4,4.4-4.4h69.6c2.4,0,4.4,2,4.4,4.4v4.4h-8.7c-7.2,0-13.1,5.9-13.1,13.1v26.1c0,7.2,5.9,13.1,13.1,13.1h26.1
	c7.2,0,13.1-5.9,13.1-13.1v-26.1C139.4,93,133.6,87.1,126.4,87.1z M52.4,39.2V13.1c0-2.4,2-4.4,4.4-4.4h26.1c2.4,0,4.4,2,4.4,4.4
	v26.1c0,2.4-2,4.4-4.4,4.4H56.7C54.3,43.6,52.4,41.6,52.4,39.2z M43.6,100.2v26.1c0,2.4-2,4.4-4.4,4.4h-26c-2.4,0-4.4-2-4.4-4.4
	v-26.1c0-2.4,2-4.4,4.4-4.4h26.1C41.7,95.8,43.6,97.8,43.6,100.2z M130.7,126.3c0,2.4-2,4.4-4.4,4.4h-26.1c-2.4,0-4.4-2-4.4-4.4
	v-26.1c0-2.4,2-4.4,4.4-4.4h26.1c2.4,0,4.4,2,4.4,4.4V126.3z"/>
</svg>
