<?xml version="1.0" encoding="utf-8"?>
<!-- Generator: Adobe Illustrator 24.2.0, SVG Export Plug-In . SVG Version: 6.00 Build 0)  -->
<svg version="1.1" id="Layer_1" xmlns:svgjs="http://svgjs.com/svgjs"
	 xmlns="http://www.w3.org/2000/svg" xmlns:xlink="http://www.w3.org/1999/xlink" x="0px" y="0px" viewBox="0 0 138.8 138.9"
	 style="enable-background:new 0 0 138.8 138.9;" xml:space="preserve">
<style type="text/css">
	.st0{fill:url(#Interface-Essential__x2F__Dashboard__x2F__layout-dashboard_1_);}
</style>
<linearGradient id="Interface-Essential__x2F__Dashboard__x2F__layout-dashboard_1_" gradientUnits="userSpaceOnUse" x1="0" y1="71.35" x2="138.8" y2="71.35" gradientTransform="matrix(1 0 0 -1 0 140.8)">
	<stop  offset="0" style="stop-color:#FF2896"/>
	<stop  offset="1" style="stop-color:#FF8A00"/>
</linearGradient>
<path id="Interface-Essential__x2F__Dashboard__x2F__layout-dashboard" class="st0" d="M55.1,82.5H10c-2.7,0-5.2-1.1-7.1-2.9
	C1,77.7,0,75.2,0,72.5V10.1C0,7.5,1.1,4.9,2.9,3C4.8,1.1,7.3,0.1,10,0.1l45.1,0.1c5.5,0,10,4.5,10,10v62.3
	C65.1,78,60.6,82.5,55.1,82.5z M9.9,8.7C9.6,8.7,9.2,8.8,9,9.1C8.8,9.3,8.6,9.7,8.6,10v62.4c0,0.4,0.1,0.7,0.4,0.9
	c0.2,0.2,0.6,0.4,0.9,0.4H55c0.7,0,1.3-0.6,1.3-1.3l0,0V10.2c0-0.7-0.6-1.3-1.3-1.3L9.9,8.7z M83.6,47.8c-2.6,0-5.1-1-6.9-2.9
	c-1.9-1.8-2.9-4.4-3-7V10c0-2.7,1.1-5.2,2.9-7s4.4-2.6,7-2.9L128.7,0c5.5,0.1,10,4.4,10,9.9v28l0,0c0,5.5-4.5,9.9-9.9,9.9
	c0,0,0,0-0.1,0H83.6C83.7,47.8,83.6,47.8,83.6,47.8z M83.7,8.8c-0.5,0-0.7,0.2-0.9,0.4c-0.2,0.2-0.4,0.4-0.4,0.9v27.8
	c0,0.3,0.1,0.6,0.4,0.9c0.2,0.2,0.6,0.4,0.9,0.4l0,0h45.2l0,0c0.7,0,1.3-0.6,1.3-1.2V10c0-0.7-0.6-1.2-1.3-1.2l0,0L83.7,8.8
	L83.7,8.8z M134.5,37.9L134.5,37.9L134.5,37.9z M55.1,138.9L55.1,138.9l-45.2-0.1l0,0c-5.4,0-9.9-4.4-9.9-9.9v-27.8
	c0-2.7,1.1-5.2,2.9-7c1.9-1.9,4.4-2.9,7-2.9H10h45.1c5.4,0,9.9,4.4,10,9.9V129l0,0c0,2.6-1.1,5.2-3,7
	C60.2,137.9,57.7,138.9,55.1,138.9z M9.9,130.2l45.2,0.1l0,0c0.4,0,0.7-0.1,0.9-0.4c0.2-0.2,0.4-0.6,0.4-0.9v-27.9
	c0-0.7-0.6-1.2-1.3-1.2l0,0H10c-0.2,0-0.7,0.1-0.9,0.4c-0.2,0.2-0.4,0.5-0.4,0.9V129C8.7,129.6,9.2,130.2,9.9,130.2L9.9,130.2z
	 M60.7,129L60.7,129L60.7,129z M83.7,138.9L83.7,138.9c-2.7,0-5.2-1.1-7.1-2.9c-1.9-1.9-2.9-4.4-2.9-7.1V66.5c0-2.6,1-5.2,2.9-7.1
	c1.9-1.9,4.4-2.9,7.1-2.9h45.1c2.7,0,5.2,1.1,7.1,2.9c1.9,1.9,2.9,4.4,2.9,7.1v62.3c0,5.5-4.5,10-10,10L83.7,138.9z M128.8,65.2
	H83.7c-0.3,0-0.7,0.1-0.9,0.4c-0.2,0.2-0.4,0.6-0.4,0.9v62.4c0,0.4,0.1,0.7,0.4,1c0.2,0.2,0.6,0.4,0.9,0.4l45.1-0.1
	c0.7,0,1.3-0.6,1.3-1.3V66.5c0-0.4-0.1-0.7-0.4-0.9C129.5,65.3,129.1,65.2,128.8,65.2z"/>
</svg>
