<?xml version="1.0" encoding="utf-8"?>
<!-- Generator: Adobe Illustrator 24.2.0, SVG Export Plug-In . SVG Version: 6.00 Build 0)  -->
<svg version="1.1" id="Layer_1" xmlns:svgjs="http://svgjs.com/svgjs"
	 xmlns="http://www.w3.org/2000/svg" xmlns:xlink="http://www.w3.org/1999/xlink" x="0px" y="0px" viewBox="0 0 104.8 139.6"
	 style="enable-background:new 0 0 104.8 139.6;" xml:space="preserve">
<style type="text/css">
	.st0{fill:url(#SVGID_1_);}
</style>
<linearGradient id="SVGID_1_" gradientUnits="userSpaceOnUse" x1="0" y1="71.5568" x2="104.8" y2="71.5568" gradientTransform="matrix(1 0 0 -1 0 141.3424)">
	<stop  offset="0" style="stop-color:#FF2896"/>
	<stop  offset="1" style="stop-color:#B479FF"/>
</linearGradient>
<path class="st0" d="M0.1,52.3c0-20.2,11.8-38.8,30-47.3c18.2-8.6,40.1-5.9,55.6,7c1.9,1.5,2.1,4.3,0.6,6.1
	c-1.5,1.9-4.3,2.1-6.1,0.6C67.2,8,49,5.7,33.8,12.9s-25,22.7-25,39.5c0,2.4-2,4.4-4.4,4.4S0.1,54.7,0.1,52.3z M101.2,33.3
	c-0.9-2.2-3.4-3.3-5.6-2.5c-2.2,0.9-3.4,3.4-2.5,5.6c2,5.1,3,10.4,3,15.9v34.9c0,24-19.6,43.6-43.6,43.6c-2.6,0-5.3-0.2-7.9-0.7
	c-2.4-0.5-4.6,1.1-5.1,3.5c-0.4,2.4,1.1,4.6,3.5,5.1c3.1,0.6,6.3,0.9,9.5,0.9c28.9,0,52.3-23.5,52.3-52.3v-35
	C104.8,45.8,103.6,39.4,101.2,33.3z M8.8,87.2V74.1c0-2.4-2-4.4-4.4-4.4S0,71.7,0,74.1v13.1c0,15.7,6.9,30.4,19,40.4
	c0.8,0.7,1.8,1,2.8,1c1.3,0,2.5-0.5,3.4-1.6c1.5-1.9,1.3-4.6-0.6-6.1C14.6,112.6,8.8,100.3,8.8,87.2z M74.2,91.6
	c2.4,0,4.4-2,4.4-4.4V52.3c0-10-5.5-18.9-14.5-23.4c-8.9-4.5-19.4-3.5-27.4,2.5c-1.9,1.4-2.3,4.2-0.9,6.1c1.4,1.9,4.2,2.3,6.1,0.9
	c5.3-4,12.3-4.6,18.3-1.6c5.9,3,9.6,9,9.6,15.6v34.9C69.9,89.6,71.8,91.6,74.2,91.6z M62.9,111.2c2.2-1,3.2-3.5,2.3-5.7
	c-1-2.2-3.6-3.2-5.7-2.3c-5.4,2.4-11.6,1.8-16.5-1.4c-4.9-3.2-7.9-8.7-7.9-14.6V52.3c0-2.4-2-4.4-4.4-4.4s-4.4,2-4.4,4.4v34.9
	c0,8.8,4.4,17,11.8,21.9c4.3,2.8,9.3,4.3,14.3,4.3C56,113.4,59.5,112.7,62.9,111.2z M48.1,56.7v26.2c0,2.4,2,4.4,4.4,4.4
	s4.4-2,4.4-4.4V56.7c0-2.4-2-4.4-4.4-4.4C50,52.3,48.1,54.3,48.1,56.7z"/>
</svg>
