<?xml version="1.0" encoding="utf-8"?>
<!-- Generator: Adobe Illustrator 25.0.0, SVG Export Plug-In . SVG Version: 6.00 Build 0)  -->
<svg version="1.1" id="Layer_1" xmlns="http://www.w3.org/2000/svg" xmlns:xlink="http://www.w3.org/1999/xlink" x="0px" y="0px"
	 viewBox="0 0 117.1 117.1" style="enable-background:new 0 0 117.1 117.1;" xml:space="preserve">
<style type="text/css">
	.st0{fill:url(#SVGID_1_);}
</style>
<g>
	<linearGradient id="SVGID_1_" gradientUnits="userSpaceOnUse" x1="0" y1="58.5374" x2="117.0752" y2="58.5374">
		<stop  offset="0" style="stop-color:#3EC8ED"/>
		<stop  offset="1" style="stop-color:#3FC3A3"/>
	</linearGradient>
	<path class="st0" d="M58.5,117.1C26.3,117.1,0,90.8,0,58.5C0,26.3,26.3,0,58.5,0s58.5,26.3,58.5,58.5
		C117.1,90.8,90.8,117.1,58.5,117.1z M58.5,8.8C31.1,8.8,8.8,31.1,8.8,58.5s22.3,49.8,49.8,49.8c27.5,0,49.8-22.3,49.8-49.8
		S86,8.8,58.5,8.8z M54.2,80.4c-1.2,0-2.3-0.5-3.1-1.3L33.6,61.6c-1.7-1.7-1.7-4.5,0-6.2c1.7-1.7,4.5-1.7,6.2,0l13.9,13.9l23.2-31
		c1.5-1.9,4.2-2.3,6.1-0.9c1.9,1.4,2.3,4.2,0.9,6.1l-26.2,35c-0.8,1-1.9,1.6-3.2,1.7C54.4,80.4,54.3,80.4,54.2,80.4z"/>
</g>
</svg>
