<?xml version="1.0" encoding="utf-8"?>
<!-- Generator: Adobe Illustrator 24.2.0, SVG Export Plug-In . SVG Version: 6.00 Build 0)  -->
<svg version="1.1" id="Layer_1" xmlns:svgjs="http://svgjs.com/svgjs"
	 xmlns="http://www.w3.org/2000/svg" xmlns:xlink="http://www.w3.org/1999/xlink" x="0px" y="0px" viewBox="0 0 138.9 138.9"
	 style="enable-background:new 0 0 138.9 138.9;" xml:space="preserve">
<style type="text/css">
	.st0{fill:url(#Design__x2F__Grids_x2F_Rulers__x2F__grid-artboard_1_);}
</style>
<linearGradient id="Design__x2F__Grids_x2F_Rulers__x2F__grid-artboard_1_" gradientUnits="userSpaceOnUse" x1="0" y1="70.75" x2="138.9" y2="70.75" gradientTransform="matrix(1 0 0 -1 0 140.2)">
	<stop  offset="0" style="stop-color:#B479FF"/>
	<stop  offset="1" style="stop-color:#3EC8ED"/>
</linearGradient>
<path id="Design__x2F__Grids_x2F_Rulers__x2F__grid-artboard" class="st0" d="M99.8,112.9H39c-7.2,0-13-5.8-13-13V39
	c0-7.2,5.8-13,13-13h60.8c7.2,0,13,5.8,13,13v60.8C112.9,107,107,112.9,99.8,112.9z M39,34.7c-2.4,0-4.3,1.9-4.3,4.3v60.8
	c0,2.4,1.9,4.3,4.3,4.3h60.8c2.4,0,4.3-2,4.3-4.3V39c0-2.4-2-4.3-4.3-4.3C99.8,34.7,39,34.7,39,34.7z M112.9,13V4.3
	c0-2.4-1.9-4.3-4.3-4.3s-4.3,1.9-4.3,4.3V13c0,2.4,1.9,4.3,4.3,4.3C110.9,17.3,112.9,15.4,112.9,13z M138.9,30.4
	c0-2.4-1.9-4.3-4.3-4.3h-8.7c-2.4,0-4.3,1.9-4.3,4.3c0,2.4,1.9,4.3,4.3,4.3h8.7C137,34.7,138.9,32.8,138.9,30.4z M112.9,134.6v-8.7
	c0-2.4-1.9-4.3-4.3-4.3s-4.3,1.9-4.3,4.3v8.7c0,2.4,1.9,4.3,4.3,4.3C110.9,138.9,112.9,137,112.9,134.6z M138.9,108.5
	c0-2.4-1.9-4.3-4.3-4.3h-8.7c-2.4,0-4.3,1.9-4.3,4.3s1.9,4.3,4.3,4.3h8.7C137,112.9,138.9,110.9,138.9,108.5z M34.7,134.6v-8.7
	c0-2.4-1.9-4.3-4.3-4.3s-4.3,1.9-4.3,4.3v8.7c0,2.4,1.9,4.3,4.3,4.3S34.7,137,34.7,134.6z M17.3,108.5c0-2.4-1.9-4.3-4.3-4.3H4.3
	c-2.4,0-4.3,1.9-4.3,4.3s1.9,4.3,4.3,4.3H13C15.4,112.9,17.3,110.9,17.3,108.5z M17.3,30.4c0-2.4-1.9-4.3-4.3-4.3H4.3
	C1.9,26.1,0,28,0,30.4c0,2.4,1.9,4.3,4.3,4.3H13C15.4,34.7,17.3,32.8,17.3,30.4z M34.7,13V4.3c0-2.4-1.9-4.3-4.3-4.3
	s-4.3,1.9-4.3,4.3V13c0,2.4,1.9,4.3,4.3,4.3S34.7,15.4,34.7,13z"/>
</svg>
