<?xml version="1.0" encoding="utf-8"?>
<!-- Generator: Adobe Illustrator 24.2.0, SVG Export Plug-In . SVG Version: 6.00 Build 0)  -->
<svg version="1.1" id="Layer_1" xmlns:svgjs="http://svgjs.com/svgjs"
	 xmlns="http://www.w3.org/2000/svg" xmlns:xlink="http://www.w3.org/1999/xlink" x="0px" y="0px" viewBox="0 0 139.6 139.5"
	 style="enable-background:new 0 0 139.6 139.5;" xml:space="preserve">
<style type="text/css">
	.st0{fill:url(#SVGID_1_);}
</style>
<linearGradient id="SVGID_1_" gradientUnits="userSpaceOnUse" x1="0" y1="71.9204" x2="139.6456" y2="71.9204" gradientTransform="matrix(1 0 0 -1 0 141.6938)">
	<stop  offset="0" style="stop-color:#FF2896"/>
	<stop  offset="1" style="stop-color:#FCDA0E"/>
</linearGradient>
<path class="st0" d="M138.2,131.3L100.9,94c13.4-16,17.6-38.7,8.9-59.2c-12.3-29.1-46-42.6-75-30.3s-42.6,46-30.3,75
	c9.2,21.8,30.5,34.8,52.7,34.8c7.5,0,15-1.5,22.3-4.6c5.4-2.3,10.3-5.3,14.5-8.9l37.3,37.3c1,1,2.2,1.4,3.4,1.4s2.5-0.5,3.4-1.4
	C140.1,136.2,140.1,133.2,138.2,131.3z M75.7,100.8c-24.1,10.2-52-1-62.3-25.1c-10.2-24.1,1-52,25.1-62.3c6-2.6,12.3-3.8,18.5-3.8
	c18.5,0,36.1,10.9,43.8,28.9C108.5,56.7,104,77,91,90.3c-0.1,0.1-0.2,0.2-0.3,0.2c-0.1,0.1-0.1,0.2-0.2,0.3
	C86.4,95,81.4,98.4,75.7,100.8z"/>
</svg>
