<?xml version="1.0" encoding="utf-8"?>
<!-- Generator: Adobe Illustrator 24.2.0, SVG Export Plug-In . SVG Version: 6.00 Build 0)  -->
<svg version="1.1" id="Layer_1" xmlns:svgjs="http://svgjs.com/svgjs"
	 xmlns="http://www.w3.org/2000/svg" xmlns:xlink="http://www.w3.org/1999/xlink" x="0px" y="0px" viewBox="0 0 138.6 138.8"
	 style="enable-background:new 0 0 138.6 138.8;" xml:space="preserve">
<style type="text/css">
	.st0{fill:url(#SVGID_1_);}
</style>
<linearGradient id="SVGID_1_" gradientUnits="userSpaceOnUse" x1="0" y1="72.2" x2="138.6476" y2="72.2" gradientTransform="matrix(1 0 0 -1 0 141.6)">
	<stop  offset="0" style="stop-color:#FCDA0E"/>
	<stop  offset="0.8058" style="stop-color:#FF8D00"/>
	<stop  offset="0.8803" style="stop-color:#FF8A00"/>
</linearGradient>
<path class="st0" d="M35.7,118.8c5.8-3.4,9.8-9.7,9.8-16.9c0-10.8-8.8-19.5-19.5-19.5S6.4,91.1,6.4,101.9c0,7.2,3.9,13.5,9.8,16.9
	c-6.6,2.4-12.3,7.2-15.7,13.6c-1.1,2.1-0.3,4.7,1.8,5.9c2.1,1.1,4.7,0.3,5.9-1.8c3.5-6.6,10.4-10.7,17.8-10.7s14.3,4.1,17.8,10.7
	c0.8,1.5,2.3,2.3,3.8,2.3c0.7,0,1.4-0.2,2-0.5c2.1-1.1,2.9-3.8,1.8-5.9C48,125.9,42.3,121.1,35.7,118.8z M25.9,91.1
	c6,0,10.8,4.9,10.8,10.8c0,6-4.9,10.8-10.8,10.8s-10.8-4.9-10.8-10.8C15.1,95.9,20,91.1,25.9,91.1z M138.1,132.4
	c-3.4-6.4-9.1-11.2-15.7-13.6c5.8-3.4,9.7-9.7,9.7-16.9c0-10.8-8.7-19.5-19.5-19.5s-19.5,8.7-19.5,19.5c0,7.2,3.9,13.5,9.7,16.9
	c-6.6,2.4-12.3,7.2-15.7,13.6c-1.1,2.1-0.3,4.7,1.8,5.9c2.1,1.1,4.7,0.3,5.9-1.8c3.5-6.6,10.4-10.7,17.8-10.7s14.3,4.1,17.8,10.7
	c0.8,1.5,2.3,2.3,3.8,2.3c0.7,0,1.4-0.2,2-0.5C138.5,137.1,139.3,134.5,138.1,132.4z M112.6,91.1c6,0,10.8,4.9,10.8,10.8
	c0,6-4.9,10.8-10.8,10.8s-10.8-4.9-10.8-10.8C101.8,95.9,106.7,91.1,112.6,91.1z M50.5,52.1c1.2,0,2.4-0.5,3.3-1.5
	c3.9-4.5,9.5-7.2,15.5-7.2s11.6,2.6,15.5,7.2c1.5,1.8,4.3,2,6.1,0.5c1.8-1.6,2-4.3,0.5-6.1c-3.3-3.9-7.6-6.8-12.3-8.5
	c5.8-3.4,9.8-9.7,9.8-16.9C88.8,8.8,80,0,69.3,0C58.5,0,49.8,8.8,49.8,19.5c0,7.2,3.9,13.5,9.8,16.9c-4.7,1.7-9,4.6-12.3,8.5
	c-1.6,1.8-1.3,4.6,0.5,6.1C48.5,51.7,49.5,52.1,50.5,52.1z M69.3,8.7c6,0,10.8,4.9,10.8,10.8c0,6-4.9,10.8-10.8,10.8
	c-6,0-10.8-4.9-10.8-10.8S63.3,8.7,69.3,8.7z M88.2,117.9c-6.1,2.4-12.5,3.5-18.9,3.5c-6.3,0-12.6-1.1-18.6-3.4
	c-2.2-0.9-3.4-3.4-2.5-5.6s3.4-3.4,5.6-2.5c10.1,3.8,21.2,3.8,31.2-0.1c2.2-0.9,4.7,0.2,5.6,2.5C91.5,114.5,90.4,117,88.2,117.9z
	 M17.5,74.1c-0.1-1.6-0.2-3.1-0.2-4.7c0-14.3,6-28.1,16.4-37.8c1.7-1.6,4.5-1.5,6.1,0.2s1.5,4.5-0.2,6.1
	C30.9,46,25.9,57.5,25.9,69.4c0,1.3,0.1,2.6,0.2,3.9c0.2,2.4-1.5,4.5-3.9,4.7c-0.1,0-0.3,0-0.4,0C19.6,78.1,17.7,76.4,17.5,74.1z
	 M99,37.9c-1.7-1.6-1.8-4.4-0.2-6.1c1.6-1.7,4.4-1.8,6.1-0.2c10.4,9.8,16.4,23.6,16.4,37.8c0,1.6-0.1,3.2-0.2,4.7
	c-0.2,2.2-2.1,3.9-4.3,3.9c-0.1,0-0.3,0-0.4,0c-2.4-0.2-4.1-2.3-3.9-4.7c0.1-1.3,0.2-2.6,0.2-3.9C112.6,57.5,107.7,46,99,37.9z"/>
</svg>
