<?xml version="1.0" encoding="utf-8"?>
<!-- Generator: Adobe Illustrator 24.2.0, SVG Export Plug-In . SVG Version: 6.00 Build 0)  -->
<svg version="1.1" id="Layer_1" xmlns:svgjs="http://svgjs.com/svgjs"
	 xmlns="http://www.w3.org/2000/svg" xmlns:xlink="http://www.w3.org/1999/xlink" x="0px" y="0px" viewBox="0 0 139.6 123.2"
	 style="enable-background:new 0 0 139.6 123.2;" xml:space="preserve">
<style type="text/css">
	.st0{fill:url(#Social-Medias-Rewards-Rating__x2F__Love-It__x2F__love-it_1_);}
</style>
<linearGradient id="Social-Medias-Rewards-Rating__x2F__Love-It__x2F__love-it_1_" gradientUnits="userSpaceOnUse" x1="0" y1="64.3583" x2="139.6118" y2="64.3583" gradientTransform="matrix(1 0 0 -1 0 125.9444)">
	<stop  offset="0" style="stop-color:#FF2896"/>
	<stop  offset="1" style="stop-color:#B479FF"/>
</linearGradient>
<path id="Social-Medias-Rewards-Rating__x2F__Love-It__x2F__love-it" class="st0" d="M69.9,123.2c-1.2,0-2.3-0.5-3.2-1.3L11,63.7
	C-0.4,52.4-3.2,35.1,4,20.6C9.4,9.9,19.7,2.4,31.5,0.5s23.9,2,32.4,10.5l6,6l6-6c8.5-8.5,20.6-12.4,32.4-10.5s22.1,9.5,27.4,20.2
	c7.2,14.4,4.4,31.7-7,43.1L73,121.9C72.2,122.8,71.1,123.2,69.9,123.2z M37.4,8.7c-1.5,0-3,0.1-4.6,0.4c-9.1,1.5-16.9,7.2-21,15.5
	c-5.5,11-3.4,24.3,5.4,33.1l52.7,55l52.6-54.9c8.8-8.8,10.9-22.1,5.4-33.1c-4.1-8.2-12-14-21-15.5c-9.1-1.5-18.3,1.5-24.8,8L73,26.3
	c-1.7,1.7-4.5,1.7-6.2,0l-9.1-9.1C52.3,11.7,45,8.7,37.4,8.7z"/>
</svg>
