<svg id="unily-app" xmlns="http://www.w3.org/2000/svg" width="43.93" height="42.642" viewBox="0 0 43.93 42.642">
  <circle id="Ellipse_62" data-name="Ellipse 62" cx="4.926" cy="4.926" r="4.926" transform="translate(34.078 0)" fill="#3ec8ed"/>
  <path id="Path_3275" data-name="Path 3275" d="M43.727,74.575V89.6A2.479,2.479,0,0,1,41.2,92.134H34.3V77.581c0-2.938-1.537-4.52-3.819-4.52-2.215,0-3.864,1.582-3.909,4.429V89.58a2.5,2.5,0,0,1-2.531,2.531H17.129V88.45a9.939,9.939,0,0,1-8.022,4.271C3.39,92.744,0,88.97,0,82.891V67.864a2.479,2.479,0,0,1,2.531-2.531H9.423V79.886c0,2.938,1.537,4.52,3.819,4.52,2.215,0,3.864-1.582,3.909-4.429V67.841a2.5,2.5,0,0,1,2.531-2.531h6.892v3.661A9.939,9.939,0,0,1,34.6,64.7C40.292,64.7,43.727,68.451,43.727,74.575Z" transform="translate(0 -50.079)" fill="#112a3f"/>
</svg>
