<svg xmlns="http://www.w3.org/2000/svg" width="122.266" height="57.827" viewBox="0 0 122.266 57.827"><defs><style>.a{fill:#fff;}</style></defs><g transform="translate(0 -0.022)"><path class="a" d="M0,48.694V8.1H8.52L19.4,32.137h.069V8.1H26.6V48.694H19.119L7.2,22.509H7.066V48.694Z" transform="translate(0 -2.482)"/><path class="a" d="M57.7,48.694V8.1H66.22L77.1,32.137h.139V8.1H84.3V48.694H76.888L64.9,22.509h-.069V48.694Z" transform="translate(-17.73 -2.482)"/><path class="a" d="M154.871,34.713c0,3.741-1.663,5.611-5.057,5.611-3.533,0-5.4-1.87-5.4-5.473,0-3.879,1.8-5.68,5.265-5.68C153.416,29.241,154.871,30.9,154.871,34.713Zm3.464-7.62c-3.394,0-4.295-1.593-8.521-1.593-6.1,0-10.322,3.879-10.322,9.49a8.61,8.61,0,0,0,6.3,8.1c-3.81,1.178-5.057,2.494-5.057,4.78,0,2.563,2.009,4.087,5.265,4.087.9,0,3.187-.069,4.295-.069,2.771,0,4.433.277,5.473,1.039a3.809,3.809,0,0,1,1.524,3.394c0,3.464-2.494,4.918-6.789,4.918a11.478,11.478,0,0,1-5.68-1.316,3.605,3.605,0,0,1-1.593-3.256A5.864,5.864,0,0,1,144,54.109l-4.641.416A7.792,7.792,0,0,0,138.8,57.5c0,4.018,3.394,7.135,12.123,7.135,6.789,0,11.153-2.7,11.153-8.8a6.77,6.77,0,0,0-3.117-5.957c-1.663-1.178-3.464-1.593-6.719-1.593h-4.5c-1.385,0-2.217-.485-2.217-1.316,0-.97,1.316-1.87,5.057-3.256a9.482,9.482,0,0,0,5.2-1.247,9.105,9.105,0,0,0,4.156-7.689A7.436,7.436,0,0,0,158.266,30a5.116,5.116,0,0,0,1.94.346,7.4,7.4,0,0,0,4.711-1.663l-2.7-2.7A7.183,7.183,0,0,1,158.335,27.093Z" transform="translate(-42.65 -7.829)"/><g transform="translate(74.76 0.023)"><path class="a" d="M109.292,57.849a.879.879,0,0,1-.416-.069,1.434,1.434,0,0,1-.9-1.732L125.918.977a1.434,1.434,0,0,1,1.732-.9,1.434,1.434,0,0,1,.9,1.732L110.609,56.879A1.489,1.489,0,0,1,109.292,57.849Z" transform="translate(-107.923 -0.023)"/></g></g></svg>