<svg xmlns="http://www.w3.org/2000/svg" width="184" height="42.032" viewBox="0 0 184 42.032"><defs><style>.a{fill:#fff;}</style></defs><g transform="translate(0 0.005)"><path class="a" d="M150.575,10.9l-.5,6.375H147.45a6.334,6.334,0,0,0-6.375,6.5v14.5H133.7V10.9h7l.125,3.375c1.5-2.375,4-3.375,7.25-3.375Z" transform="translate(33.425 2.726)"/><path class="a" d="M111.2,38.4h-7.375V24.025c0-3-.25-6.875-4.5-6.875-4.125,0-5.75,3-5.75,6.375V38.4H86.2V11.025h6.875l.125,3.5c1.5-2.375,4.25-4.125,8.25-4.125,7.5,0,9.75,5.375,9.75,10.875Z" transform="translate(21.55 2.601)"/><path class="a" d="M86.55,33.425l-.5,6.25a18.319,18.319,0,0,1-5.25.625c-7,0-9-3.25-9-9.625V4.8h7.375v7.75H86.55l-.5,6.25H79.175V30.05c0,2.625.75,4,3.375,4a10.094,10.094,0,0,0,4-.625" transform="translate(17.95 1.201)"/><path class="a" d="M73.15,10.9l-.625,6.375h-2a6.228,6.228,0,0,0-6.25,6.5v14.5H56.9V10.9h7l.125,3.375c1.5-2.375,4-3.375,7.25-3.375Z" transform="translate(14.225 2.726)"/><path class="a" d="M37.75,38a31.242,31.242,0,0,1-16.625,4C8.875,41.626,0,34,0,21.251,0,8.376,8.875.251,21.125,0c6.125-.125,11.75,1.5,16,5.25l-5.25,5.25a15.959,15.959,0,0,0-11.25-3.375C13,7.5,8.375,13.126,8.25,20.751c-.125,8.25,5,14,13,14.25A18.052,18.052,0,0,0,30,33.5V25H21.75l.5-7h15.5Z"/><path class="a" d="M136.625,27.4h-20.25a6.837,6.837,0,0,0,6.75,5.75c3.375.125,5.25-.875,7.625-3.375l4.875,3.625a14.594,14.594,0,0,1-12.25,5.75C115.125,39.15,109,33.4,109,24.775S115.125,10.4,123.125,10.4c8.75,0,13.625,5.375,13.625,14.75l-.125,2.25Zm-7.5-5.75c-.25-3.5-2.75-5.625-6.375-5.5a6.516,6.516,0,0,0-6.5,5.5Z" transform="translate(27.25 2.601)"/><path class="a" d="M58.225,20.575V38.45h-6.5L51.6,35.7c-2,2.5-5.25,3.375-8.625,3.375-5,0-9.75-2.5-9.875-8.25-.125-9.125,10.25-9.75,16.75-9.75H51.1V20.7c0-3-2-4.625-5.75-4.625A10.765,10.765,0,0,0,38.1,18.95l-4.25-4.375A18.693,18.693,0,0,1,46.1,10.2c8.375.25,12.125,4.125,12.125,10.375m-7.125,6h-1c-3.5,0-9.625.125-9.625,3.875,0,5.125,10.625,3.5,10.625-2.75Z" transform="translate(8.275 2.551)"/></g></svg>