<svg xmlns="http://www.w3.org/2000/svg" width="224.09" height="36.517" viewBox="0 0 224.09 36.517"><defs><style>.a{fill:#fff;}</style></defs><path class="a" d="M241.8,14.5a6.406,6.406,0,0,1-1.245.069c-1.107.069-3.251.069-7.469.069H227.9c-4.288,0-6.363-.069-7.469-.069-1.107-.069-1.107-.069-1.245-.069-.484,0-.484.346-.484,1.314v3.8c0,.207,0,.692.415.692.484,0,.553-.138,1.314-1.729.484-1.037,1.452-2.559,7.054-2.628.553,0,.83.138.83,1.037v19.3c0,1.591,0,2.7-2.075,2.836-.9.069-1.452.138-1.452.692,0,.622.553.622.9.622.761,0,4.15-.138,4.841-.138,1.383,0,3.527.138,4.91.138.346,0,.9,0,.9-.622s-.553-.692-1.452-.692c-2.075-.138-2.075-1.245-2.075-2.9V17.336c0-1.107.138-1.314,1.314-1.383,5.118.138,6.086,1.591,6.57,2.628.761,1.522.83,1.729,1.314,1.729.415,0,.415-.484.415-.692v-3.8c-.138-.968-.138-1.314-.622-1.314" transform="translate(-67.448 -4.472)"/><path class="a" d="M178.487,33.865c-.346,0-.484.138-1.176,1.591-1.8,3.527-4.357,3.527-6.224,3.527-3.458,0-4.357-.484-4.357-3.389V28.47c0-1.245.346-1.245,2.282-1.245,3.389,0,4.565.069,5.394,3.251.207.761.484.968.761.968.484,0,.484-.553.484-.83,0-.346-.138-1.8-.138-2.075,0-.9.277-5.187.277-5.74,0-.484-.207-.553-.484-.553-.207,0-.415.069-.622.622-.761,2.213-1.107,3.112-5.671,3.112-2.421,0-2.421-.346-2.421-1.66V18.3c0-2.075.138-2.351,2.213-2.351,5.879,0,6.847,1.591,7.331,2.628.761,1.522.83,1.729,1.245,1.729s.415-.484.415-.692v-3.8c0-.968,0-1.314-.484-1.314a6.4,6.4,0,0,1-1.245.069c-1.107.069-3.251.069-7.469.069h-2.006c-3.527,0-5.325-.069-6.224-.069-.9-.069-.968-.069-1.037-.069-.277,0-.83,0-.83.553,0,.622.553.692,1.522.692,2.075.138,2.075,1.245,2.075,2.9V36.078c0,1.729,0,2.836-2.075,2.9-.9.069-1.522.138-1.522.692,0,.622.553.622.9.622.277,0,.622-.069,1.314-.069.692-.069,1.729-.069,3.389-.069h.484c.277,0,2.213.069,4.565.069,2.421.069,5.256.069,7.4.069,1.176,0,1.591-.484,1.66-1.245.138-1.522.553-4.15.553-4.7.277-.138.138-.484-.277-.484" transform="translate(-48.882 -4.472)"/><path class="a" d="M276.087,33.865c-.346,0-.484.138-1.176,1.591-1.8,3.527-4.357,3.527-6.224,3.527-3.458,0-4.357-.484-4.357-3.389V28.47c0-1.245.346-1.245,2.282-1.245,3.389,0,4.565.069,5.394,3.251.207.761.484.968.761.968.484,0,.484-.553.484-.83,0-.346-.138-1.8-.138-2.075,0-.9.277-5.187.277-5.74,0-.484-.207-.553-.484-.553-.207,0-.415.069-.622.622-.761,2.213-1.107,3.112-5.671,3.112-2.421,0-2.421-.346-2.421-1.66V18.3c0-2.075.138-2.351,2.213-2.351,5.879,0,6.847,1.591,7.331,2.628.761,1.522.83,1.729,1.245,1.729s.415-.484.415-.692v-3.8c0-.968,0-1.314-.484-1.314a6.4,6.4,0,0,1-1.245.069c-1.107.069-3.251.069-7.469.069h-2.006c-3.527,0-5.325-.069-6.224-.069-.9-.069-.968-.069-1.037-.069-.277,0-.83,0-.83.553,0,.622.553.692,1.522.692,2.075.138,2.075,1.245,2.075,2.9V36.078c0,1.729,0,2.836-2.075,2.9-.9.069-1.522.138-1.522.692,0,.622.553.622.9.622.277,0,.622-.069,1.314-.069.692-.069,1.729-.069,3.389-.069h.484c.277,0,2.213.069,4.565.069,2.421.069,5.256.069,7.4.069,1.176,0,1.591-.484,1.66-1.245.138-1.522.553-4.15.553-4.7.207-.138.069-.484-.277-.484" transform="translate(-78.982 -4.472)"/><path class="a" d="M202.137,24.343c-3.389-1.383-5.809-2.421-5.809-5.464a4.2,4.2,0,0,1,4.565-4.011c3.527,0,4.288,2.351,4.772,4.011.415,1.314.622,1.591,1.037,1.591.622,0,.622-.346.622-1.245,0-3.735,0-4.08-.484-4.357a16.805,16.805,0,0,0-5.533-.968c-5.325,0-8.3,3.389-8.3,7.262,0,4.5,3.32,6.086,6.778,7.608,3.043,1.383,5.879,2.974,5.879,6.294,0,3.389-3.32,4.565-5.118,4.565-2.974,0-5.879-2.559-6.708-6.224-.069-.346-.138-.83-.484-.83-.484,0-.553.622-.553.761,0,1.522.138,3.32.207,3.873.138,1.037.277,1.867.761,2.213.761.553,2.836,1.383,6.155,1.383,5.6,0,9.06-3.942,9.06-8.576-.069-4.841-4.5-6.916-6.847-7.884" transform="translate(-59.46 -4.287)"/><path class="a" d="M56.247,13.8C48.155,13.8,42,19.609,42,27.217c0,8.023,6.778,13.555,14.109,13.555a14.057,14.057,0,0,0,14.039-13.9c0-7.331-6.086-13.071-13.9-13.071m.207,25.8c-5.533,0-9.544-6.432-9.544-13.279,0-5.948,3.735-11.342,8.852-11.342,6.57,0,9.475,7.054,9.475,12.034,0,6.086-3.043,12.587-8.783,12.587" transform="translate(-12.953 -4.256)"/><path class="a" d="M26.419,0A10.874,10.874,0,0,1,24.69.138c-1.522.069-4.7.069-10.858.069H12.518c-5.948,0-8.092,0-9.682-.069A14.949,14.949,0,0,1,1.176,0C.761,0,0,0,0,.83s.9.9,2.144,1.037c2.974.207,2.974,1.8,2.974,4.219V30.845c0,2.006,0,3.389-2.559,3.527-1.037.069-1.8.138-1.8.9s.692.761,1.037.761c.968,0,5.187-.207,6.017-.207,1.66,0,4.426.207,6.086.207.415,0,1.037,0,1.037-.761s-.692-.83-1.8-.9c-2.559-.138-2.559-1.522-2.559-3.6v-9.2c0-1.729,0-2.351.968-2.628a33.839,33.839,0,0,1,5.118-.207c1.522,0,5.325,0,6.155,3.251.138.277.484,1.867.692,2.282.069.277.346.968.968.968.692,0,.692-.692.692-1.107L24.967,21.3a27.96,27.96,0,0,1-.138-2.9c0-.9.207-4.979.207-5.809,0-.622-.207-.968-.692-1.037-.553,0-.83.484-.968.968-.761,3.112-1.591,4.426-6.432,4.426-.9,0-4.426,0-5.325-.138-.761-.138-.968-.207-.968-3.389V5.049c.138-2.836,1.107-2.974,3.181-2.974,9.267,0,10.1,1.245,11.826,5.256.207.484.484,1.176,1.107,1.176.692,0,.692-.968.692-1.107V1.107C27.456.277,27.387,0,26.419,0"/><path class="a" d="M107.268,39.221c-1.176-.138-1.729-1.176-2.559-2.628L100.7,29.469c-.968-1.729-1.452-2.006-2.006-2.282,1.383-.277,5.671-1.314,5.671-6.086,0-1.452-.622-6.5-7.953-6.5-1.245,0-6.708.138-7.884.138-.484,0-2.49-.138-2.9-.138-1.383,0-1.522,0-1.522.553s.553.622,1.522.692c2.006.138,2.006,1.245,2.006,2.9v17.5c0,1.729,0,2.836-2.006,2.974-.9.069-1.522.069-1.522.692s.553.553.9.553c.761,0,4.08-.138,4.772-.138.138,0,4.15.138,4.979.138.346,0,.9.069.9-.553s-.553-.692-1.522-.692c-2.075-.138-2.075-1.245-2.075-2.974v-7.4c0-.692.069-.968.761-.968,1.867,0,2.075.138,2.974,1.936l4.979,9.406c.484.9.622,1.245,1.383,1.245h5.464c.277,0,.692-.069.692-.484,0-.484-.207-.622-1.037-.761M94.128,26.772c-2.075,0-2.075-.069-2.075-1.522V18.335c0-1.591.069-2.628,1.936-2.628,5.118,0,5.671,4.426,5.671,5.879.069,5.187-4.08,5.187-5.533,5.187" transform="translate(-25.937 -4.503)"/><path class="a" d="M144.768,39.221c-1.176-.138-1.729-1.176-2.559-2.628L138.2,29.469c-.968-1.729-1.452-2.006-2.006-2.282,1.383-.277,5.671-1.314,5.671-6.086,0-1.452-.622-6.5-7.953-6.5-1.245,0-6.708.138-7.884.138-.484,0-2.49-.138-2.9-.138-1.383,0-1.522,0-1.522.553s.553.622,1.522.692c2.006.138,2.006,1.245,2.006,2.9v17.5c0,1.729,0,2.836-2.006,2.974-.9.069-1.522.069-1.522.692s.553.553.9.553c.761,0,4.08-.138,4.772-.138.138,0,4.15.138,4.979.138.346,0,.9.069.9-.553s-.553-.692-1.522-.692c-2.075-.138-2.075-1.245-2.075-2.974v-7.4c0-.692.069-.968.761-.968,1.867,0,2.075.138,2.974,1.936l4.979,9.406c.484.9.622,1.245,1.383,1.245h5.464c.277,0,.692-.069.692-.484,0-.484-.207-.622-1.037-.761m-13.14-12.449c-2.075,0-2.075-.069-2.075-1.522V18.335c0-1.591.069-2.628,1.936-2.628,5.118,0,5.671,4.426,5.671,5.879.069,5.187-4.08,5.187-5.533,5.187" transform="translate(-37.502 -4.503)"/><path class="a" d="M312.168,39.221c-1.176-.138-1.729-1.176-2.559-2.628L305.6,29.469c-.968-1.729-1.452-2.006-2.006-2.282,1.383-.277,5.671-1.314,5.671-6.086,0-1.452-.622-6.5-7.953-6.5-1.245,0-6.708.138-7.884.138-.484,0-2.49-.138-2.9-.138-1.383,0-1.522,0-1.522.553s.553.622,1.522.692c2.006.138,2.006,1.245,2.006,2.9v17.5c0,1.729,0,2.836-2.006,2.974-.9.069-1.522.069-1.522.692s.553.553.9.553c.761,0,4.08-.138,4.772-.138.138,0,4.15.138,4.979.138.346,0,.9.069.9-.553s-.553-.692-1.522-.692c-2.075-.138-2.075-1.245-2.075-2.974v-7.4c0-.692.069-.968.761-.968,1.867,0,2.075.138,2.974,1.936l4.979,9.406c.484.9.622,1.245,1.383,1.245h5.464c.277,0,.692-.069.692-.484.069-.484-.138-.622-1.037-.761m-13.14-12.449c-2.075,0-2.075-.069-2.075-1.522V18.335c0-1.591.069-2.628,1.936-2.628,5.118,0,5.671,4.426,5.671,5.879.069,5.187-4.011,5.187-5.533,5.187" transform="translate(-89.129 -4.503)"/></svg>