<svg xmlns="http://www.w3.org/2000/svg" width="189.141" height="34.321" viewBox="0 0 189.141 34.321"><defs><style>.a{fill:#fff;}</style></defs><g transform="translate(-499.565 -611.052)"><g transform="translate(499.565 611.052)"><path class="a" d="M499.565,628.3a23.381,23.381,0,0,1,.927-6.517,16.061,16.061,0,0,1,2.824-5.572,13.383,13.383,0,0,1,4.757-3.774,15.386,15.386,0,0,1,6.754-1.385,19.237,19.237,0,0,1,4.506.509,21.774,21.774,0,0,1,3.926,1.349,1.665,1.665,0,0,1,.786.728,2.011,2.011,0,0,1,.244.935,1.851,1.851,0,0,1-.4,1.174,1.285,1.285,0,0,1-1.076.522,1.558,1.558,0,0,1-.539-.1,26.6,26.6,0,0,0-3.728-1.077,16.45,16.45,0,0,0-3.418-.4,11.33,11.33,0,0,0-3.752.561,9.437,9.437,0,0,0-4.96,3.843,13.571,13.571,0,0,0-1.4,2.865,17.179,17.179,0,0,0-.777,3.177,21.082,21.082,0,0,0-.234,3.117,20.749,20.749,0,0,0,.234,3.067,17.045,17.045,0,0,0,.777,3.172,13.4,13.4,0,0,0,1.4,2.868,9.4,9.4,0,0,0,2.1,2.3,9.573,9.573,0,0,0,2.863,1.542,11.383,11.383,0,0,0,3.752.56,13.632,13.632,0,0,0,1.746-.123,16.24,16.24,0,0,0,1.967-.4,19.274,19.274,0,0,0,2.03-.678,14.365,14.365,0,0,0,1.987-.96,1.63,1.63,0,0,1,.438-.171,2.349,2.349,0,0,1,.412-.034,1.285,1.285,0,0,1,1.006.448,1.6,1.6,0,0,1,.4,1.071,1.946,1.946,0,0,1-.5,1.27,5.167,5.167,0,0,1-1.314,1.083,11.606,11.606,0,0,1-1.891.886,20.614,20.614,0,0,1-4.468,1.065,17.032,17.032,0,0,1-2.083.142,15.631,15.631,0,0,1-6.8-1.377,13.268,13.268,0,0,1-4.772-3.752,15.744,15.744,0,0,1-2.811-5.532A23.1,23.1,0,0,1,499.565,628.3Z" transform="translate(-499.565 -611.052)"/><path class="a" d="M551.157,613.4a1.673,1.673,0,0,1,.6-1.413,2.07,2.07,0,0,1,1.3-.47,1.954,1.954,0,0,1,.685.117,1.588,1.588,0,0,1,.585.352,1.731,1.731,0,0,1,.419.586,1.853,1.853,0,0,1,.166.827v29.711a1.689,1.689,0,0,1-.611,1.418,2.117,2.117,0,0,1-1.315.485,1.971,1.971,0,0,1-1.272-.461,1.749,1.749,0,0,1-.56-1.442Z" transform="translate(-517.681 -611.217)"/><path class="a" d="M588.309,637.892a1.478,1.478,0,0,1-.343.955,1.446,1.446,0,0,1-1.167.409H569.989a12.634,12.634,0,0,0,.644,3.844,6.692,6.692,0,0,0,1.723,2.643,7.725,7.725,0,0,0,2.514,1.588,8.252,8.252,0,0,0,3,.528,10.491,10.491,0,0,0,3.479-.618,15.141,15.141,0,0,0,3.5-1.825,1.677,1.677,0,0,1,.505-.257,1.728,1.728,0,0,1,.461-.071,1.131,1.131,0,0,1,.868.355,1.164,1.164,0,0,1,.328.845,1.525,1.525,0,0,1-.515,1.108,11.175,11.175,0,0,1-2.059,1.553,12.05,12.05,0,0,1-2.25,1.052,13.388,13.388,0,0,1-2.323.587,14.007,14.007,0,0,1-2.3.191,12.148,12.148,0,0,1-4.482-.834,10.651,10.651,0,0,1-3.661-2.414,11.288,11.288,0,0,1-2.478-3.837,13.8,13.8,0,0,1-.9-5.1,14.65,14.65,0,0,1,.716-4.611,11.594,11.594,0,0,1,2.126-3.882,10.178,10.178,0,0,1,3.5-2.669,11.082,11.082,0,0,1,4.8-.988,12.542,12.542,0,0,1,4.92.873,9.185,9.185,0,0,1,3.436,2.394,10.013,10.013,0,0,1,2.026,3.619A16.81,16.81,0,0,1,588.309,637.892Zm-3.7-1.13a10.876,10.876,0,0,0-.625-3.009,6.882,6.882,0,0,0-1.418-2.339,6,6,0,0,0-2.245-1.522,8.4,8.4,0,0,0-3.087-.53,6.647,6.647,0,0,0-2.806.587,6.578,6.578,0,0,0-2.181,1.614,8.213,8.213,0,0,0-1.482,2.359,9.222,9.222,0,0,0-.683,2.841Z" transform="translate(-522.909 -616.457)"/><path class="a" d="M621.907,634.081a5.687,5.687,0,0,0-.386-2.256,3.5,3.5,0,0,0-1.094-1.457,4.465,4.465,0,0,0-1.691-.775,9.66,9.66,0,0,0-2.181-.232,16.041,16.041,0,0,0-2.152.128,7.484,7.484,0,0,0-1.755.441,15.094,15.094,0,0,0-1.494.644c-.461.222-.92.483-1.392.76a1.649,1.649,0,0,1-.825.238,1.331,1.331,0,0,1-.986-.406,1.255,1.255,0,0,1-.4-.933,1.385,1.385,0,0,1,.471-1,9.2,9.2,0,0,1,3.667-2.1,16.574,16.574,0,0,1,4.977-.691,13.778,13.778,0,0,1,3.686.459,7.522,7.522,0,0,1,2.795,1.439,6.329,6.329,0,0,1,1.785,2.475,9.368,9.368,0,0,1,.628,3.615l-.027,14.154a1.427,1.427,0,0,1-.581,1.245,2.066,2.066,0,0,1-2.463.039,1.388,1.388,0,0,1-.555-1.212V646.5a6.565,6.565,0,0,1-1.3,1.831,7.834,7.834,0,0,1-1.83,1.339,8.9,8.9,0,0,1-2.212.821,9.913,9.913,0,0,1-2.385.287,10.313,10.313,0,0,1-3.148-.46,7.113,7.113,0,0,1-2.547-1.369,6.4,6.4,0,0,1-1.7-2.2,6.8,6.8,0,0,1-.618-2.978,6.566,6.566,0,0,1,.948-3.63,6.975,6.975,0,0,1,2.67-2.369,13.4,13.4,0,0,1,4.125-1.3,32.447,32.447,0,0,1,5.322-.4c.406,0,.844.008,1.306.025s.919.028,1.347.046Zm-.025,4.8c-.7.034-1.481.042-2.335.038s-1.725.007-2.6.057a19.713,19.713,0,0,0-2.573.3,7.847,7.847,0,0,0-2.224.755,4.2,4.2,0,0,0-1.567,1.4,3.988,3.988,0,0,0-.587,2.252,3.912,3.912,0,0,0,.4,1.842,3.973,3.973,0,0,0,1.076,1.278,4.723,4.723,0,0,0,1.613.773,7.838,7.838,0,0,0,1.967.284,8.046,8.046,0,0,0,2.611-.464,6.451,6.451,0,0,0,2.134-1.277,5.879,5.879,0,0,0,1.47-2.107,8.481,8.481,0,0,0,.62-3.082Z" transform="translate(-537.005 -616.457)"/><path class="a" d="M647.048,628.749a1.6,1.6,0,0,1,.575-1.316,2.194,2.194,0,0,1,1.426-.466,1.624,1.624,0,0,1,1.758,1.782v2.095a8.529,8.529,0,0,1,.9-1.838,5.372,5.372,0,0,1,1.316-1.385,6.083,6.083,0,0,1,1.818-.871,8.844,8.844,0,0,1,2.411-.3,1.8,1.8,0,0,1,1.4.521,1.632,1.632,0,0,1,.485,1.128,1.616,1.616,0,0,1-.471,1.093,1.9,1.9,0,0,1-1.457.5,6.929,6.929,0,0,0-2.722.509,5.239,5.239,0,0,0-1.992,1.446,6.357,6.357,0,0,0-1.244,2.288,9.844,9.844,0,0,0-.439,3.05v11.543a1.508,1.508,0,0,1-.6,1.3,2.234,2.234,0,0,1-1.329.433,2.088,2.088,0,0,1-.685-.111,1.583,1.583,0,0,1-.578-.316,1.444,1.444,0,0,1-.413-.542,1.722,1.722,0,0,1-.155-.765Z" transform="translate(-551.352 -616.457)"/><path class="a" d="M674.186,613.479a1.826,1.826,0,0,1,.167-.788,1.9,1.9,0,0,1,.441-.64,2.025,2.025,0,0,1,.664-.418,2.085,2.085,0,0,1,.79-.156h10.788a13.706,13.706,0,0,1,4.125.6,9.649,9.649,0,0,1,3.24,1.7,8.109,8.109,0,0,1,2.114,2.644,7.6,7.6,0,0,1,.776,3.475,7.023,7.023,0,0,1-.495,2.623,7.971,7.971,0,0,1-1.353,2.231,8.111,8.111,0,0,1-2.045,1.712,8.678,8.678,0,0,1-2.575,1v.1a11.809,11.809,0,0,1,3.228.974,8.4,8.4,0,0,1,2.475,1.757,7.761,7.761,0,0,1,1.586,2.512,8.535,8.535,0,0,1,.562,3.2,9.536,9.536,0,0,1-.573,3.275,7.3,7.3,0,0,1-1.948,2.883,10.542,10.542,0,0,1-3.573,2.056,15.119,15.119,0,0,1-5.094.788h-11.24a1.971,1.971,0,0,1-.79-.156,1.928,1.928,0,0,1-.664-.425,1.825,1.825,0,0,1-.441-.631,1.845,1.845,0,0,1-.167-.788Zm4.113,1.243v11.452h6.951a13,13,0,0,0,2.882-.31,7.212,7.212,0,0,0,2.483-1,5.275,5.275,0,0,0,1.729-1.791,5.4,5.4,0,0,0,.642-2.734,5.3,5.3,0,0,0-.67-2.8,4.812,4.812,0,0,0-1.773-1.719,7.61,7.61,0,0,0-2.513-.855,17.175,17.175,0,0,0-2.888-.239Zm0,27.037h7.075a22.923,22.923,0,0,0,3.811-.284,7.536,7.536,0,0,0,2.8-1,4.65,4.65,0,0,0,1.74-1.929,6.843,6.843,0,0,0,.6-3.063,5.867,5.867,0,0,0-.8-3.236,5.311,5.311,0,0,0-2.211-1.916,10.418,10.418,0,0,0-3.359-.9,37.3,37.3,0,0,0-4.282-.227H678.3Z" transform="translate(-560.881 -611.202)"/><path class="a" d="M719.15,638.6a14.128,14.128,0,0,1,.71-4.38,11.382,11.382,0,0,1,2.132-3.946,10.449,10.449,0,0,1,3.617-2.78,13.247,13.247,0,0,1,10.312,0,10.515,10.515,0,0,1,3.635,2.78,11.615,11.615,0,0,1,2.134,3.946,14.09,14.09,0,0,1,0,8.8,11.734,11.734,0,0,1-2.134,3.941,10.55,10.55,0,0,1-3.635,2.771,13.209,13.209,0,0,1-10.312,0,10.484,10.484,0,0,1-3.617-2.771,11.5,11.5,0,0,1-2.132-3.941A14.225,14.225,0,0,1,719.15,638.6Zm4.021,0a12.791,12.791,0,0,0,.422,3.177,9.582,9.582,0,0,0,1.341,3.024A7.236,7.236,0,0,0,727.294,647a7.5,7.5,0,0,0,6.957,0A7.3,7.3,0,0,0,736.6,644.8a9.86,9.86,0,0,0,1.328-3.024,12.09,12.09,0,0,0,0-6.312,9.718,9.718,0,0,0-1.328-3.031,7.228,7.228,0,0,0-2.353-2.211,7.477,7.477,0,0,0-6.957,0,7.169,7.169,0,0,0-2.361,2.211,9.447,9.447,0,0,0-1.341,3.031A12.822,12.822,0,0,0,723.171,638.6Z" transform="translate(-576.67 -616.457)"/><path class="a" d="M767.632,638.6l-6.746-8.484a1.467,1.467,0,0,1-.3-.522,1.593,1.593,0,0,1-.085-.509,1.664,1.664,0,0,1,.162-.706,1.972,1.972,0,0,1,.453-.579,2.408,2.408,0,0,1,.643-.4,1.874,1.874,0,0,1,.737-.149,1.8,1.8,0,0,1,.79.182,2.037,2.037,0,0,1,.718.612l6.209,8.176,6.4-8.266a1.632,1.632,0,0,1,.618-.541,1.507,1.507,0,0,1,.7-.163,1.7,1.7,0,0,1,1.173.467,1.425,1.425,0,0,1,.514,1.1,1.478,1.478,0,0,1-.352.943l-6.79,8.768,7.259,9.192a1.606,1.606,0,0,1,.376,1.017,1.548,1.548,0,0,1-.159.674,1.937,1.937,0,0,1-.449.575,2.275,2.275,0,0,1-.646.4,1.859,1.859,0,0,1-.744.156,1.684,1.684,0,0,1-.782-.2,1.85,1.85,0,0,1-.716-.6l-6.822-8.911-6.815,9.033a1.562,1.562,0,0,1-1.271.678,1.7,1.7,0,0,1-.685-.143,2.041,2.041,0,0,1-.585-.368,1.719,1.719,0,0,1-.414-.522,1.392,1.392,0,0,1-.153-.64,1.3,1.3,0,0,1,.335-.862Z" transform="translate(-590.968 -616.739)"/></g><path class="a" d="M499.569,628.307a23.424,23.424,0,0,1,.926-6.519,16.13,16.13,0,0,1,2.823-5.57,13.425,13.425,0,0,1,4.761-3.777,15.378,15.378,0,0,1,6.751-1.38,19.059,19.059,0,0,1,4.507.508,21.577,21.577,0,0,1,3.926,1.348,1.638,1.638,0,0,1,.786.728,2,2,0,0,1,.244.935,1.842,1.842,0,0,1-.4,1.173,1.285,1.285,0,0,1-1.076.523,1.558,1.558,0,0,1-.538-.1,26.749,26.749,0,0,0-3.729-1.078,16.541,16.541,0,0,0-3.417-.4,11.344,11.344,0,0,0-3.751.563,9.386,9.386,0,0,0-4.961,3.841,13.609,13.609,0,0,0-1.4,2.863,17.588,17.588,0,0,0-.777,3.182,21.372,21.372,0,0,0-.232,3.115,21.1,21.1,0,0,0,.232,3.068,17.264,17.264,0,0,0,.777,3.17,13.308,13.308,0,0,0,1.4,2.871,9.319,9.319,0,0,0,2.1,2.3,9.491,9.491,0,0,0,2.865,1.54,11.362,11.362,0,0,0,3.751.563,13.056,13.056,0,0,0,1.745-.128,15.656,15.656,0,0,0,1.967-.395,19.466,19.466,0,0,0,2.031-.679,14.07,14.07,0,0,0,1.985-.959,1.509,1.509,0,0,1,.438-.169,2.04,2.04,0,0,1,.412-.036,1.3,1.3,0,0,1,1.01.447,1.6,1.6,0,0,1,.4,1.07,1.922,1.922,0,0,1-.5,1.271,5.075,5.075,0,0,1-1.312,1.083,11.73,11.73,0,0,1-1.891.887,22.219,22.219,0,0,1-2.2.655,20.631,20.631,0,0,1-2.269.407,16.567,16.567,0,0,1-2.084.141,15.64,15.64,0,0,1-6.8-1.373,13.268,13.268,0,0,1-4.773-3.752,15.692,15.692,0,0,1-2.812-5.533,23.147,23.147,0,0,1-.914-6.409" transform="translate(-0.001 -0.003)"/><path class="a" d="M551.161,613.409a1.668,1.668,0,0,1,.6-1.411,2.064,2.064,0,0,1,1.3-.472,2.015,2.015,0,0,1,.684.115,1.645,1.645,0,0,1,.587.356,1.748,1.748,0,0,1,.42.582,1.877,1.877,0,0,1,.163.829v29.71a1.7,1.7,0,0,1-.609,1.42,2.122,2.122,0,0,1-1.315.487,1.974,1.974,0,0,1-1.272-.463,1.748,1.748,0,0,1-.559-1.443Z" transform="translate(-18.117 -0.166)"/><path class="a" d="M588.31,637.9a1.474,1.474,0,0,1-.343.957,1.449,1.449,0,0,1-1.167.408h-16.81a12.734,12.734,0,0,0,.644,3.845,6.7,6.7,0,0,0,1.724,2.643,7.649,7.649,0,0,0,2.515,1.586,8.179,8.179,0,0,0,3,.527,10.457,10.457,0,0,0,3.479-.619,15,15,0,0,0,3.5-1.821,1.632,1.632,0,0,1,.5-.258,1.674,1.674,0,0,1,.463-.069,1.127,1.127,0,0,1,.866.35,1.165,1.165,0,0,1,.329.848,1.564,1.564,0,0,1-.113.546,1.658,1.658,0,0,1-.4.563,11.342,11.342,0,0,1-2.06,1.553,12.19,12.19,0,0,1-2.25,1.05,13.853,13.853,0,0,1-2.324.587,14.267,14.267,0,0,1-2.3.187,12.147,12.147,0,0,1-4.484-.831,10.682,10.682,0,0,1-3.659-2.412,11.3,11.3,0,0,1-2.479-3.841,13.794,13.794,0,0,1-.9-5.1,14.674,14.674,0,0,1,.716-4.608,11.677,11.677,0,0,1,2.126-3.885,10.183,10.183,0,0,1,3.5-2.667,11.1,11.1,0,0,1,4.8-.985,12.558,12.558,0,0,1,4.922.869,9.241,9.241,0,0,1,3.435,2.391,9.994,9.994,0,0,1,2.024,3.623,16.622,16.622,0,0,1,.744,4.56m-3.7-1.129a10.953,10.953,0,0,0-.625-3.01,6.937,6.937,0,0,0-1.419-2.34,6,6,0,0,0-2.246-1.52,8.382,8.382,0,0,0-3.087-.529,6.533,6.533,0,0,0-4.985,2.2,8.177,8.177,0,0,0-1.483,2.36,9.2,9.2,0,0,0-.681,2.842Z" transform="translate(-23.344 -5.409)"/><path class="a" d="M621.909,634.089a5.756,5.756,0,0,0-.385-2.261,3.477,3.477,0,0,0-1.1-1.453,4.472,4.472,0,0,0-1.689-.777,9.78,9.78,0,0,0-2.182-.229,15.844,15.844,0,0,0-2.153.128,7.407,7.407,0,0,0-1.753.441,15.073,15.073,0,0,0-1.5.644c-.459.222-.921.481-1.391.76a1.671,1.671,0,0,1-.826.233,1.333,1.333,0,0,1-.984-.4,1.246,1.246,0,0,1-.4-.936,1.384,1.384,0,0,1,.472-.992,9.183,9.183,0,0,1,3.668-2.1,16.589,16.589,0,0,1,4.979-.688,13.707,13.707,0,0,1,3.682.456,7.514,7.514,0,0,1,2.8,1.436,6.381,6.381,0,0,1,1.786,2.476,9.388,9.388,0,0,1,.626,3.617l-.023,14.152a1.431,1.431,0,0,1-.585,1.246,2.066,2.066,0,0,1-2.463.038,1.383,1.383,0,0,1-.554-1.211v-2.16a6.645,6.645,0,0,1-1.3,1.832,7.98,7.98,0,0,1-1.832,1.338,8.956,8.956,0,0,1-2.212.822,9.881,9.881,0,0,1-2.383.285,10.367,10.367,0,0,1-3.148-.457,7.074,7.074,0,0,1-2.547-1.371,6.367,6.367,0,0,1-1.7-2.205,6.77,6.77,0,0,1-.618-2.978,6.544,6.544,0,0,1,.949-3.63,6.964,6.964,0,0,1,2.669-2.368,13.377,13.377,0,0,1,4.125-1.307,32.68,32.68,0,0,1,5.322-.4c.407,0,.847.005,1.307.025s.917.028,1.345.046Zm-.025,4.8c-.7.036-1.48.04-2.332.037s-1.727.007-2.605.058a19.921,19.921,0,0,0-2.573.3,7.78,7.78,0,0,0-2.222.756,4.181,4.181,0,0,0-1.568,1.4,3.969,3.969,0,0,0-.587,2.252,3.705,3.705,0,0,0,1.477,3.12,4.719,4.719,0,0,0,1.612.774,7.733,7.733,0,0,0,1.966.28,7.918,7.918,0,0,0,2.612-.461,6.52,6.52,0,0,0,2.133-1.277,5.883,5.883,0,0,0,1.471-2.111,8.471,8.471,0,0,0,.617-3.08Z" transform="translate(-37.441 -5.409)"/><path class="a" d="M647.05,628.755a1.589,1.589,0,0,1,.575-1.315,2.2,2.2,0,0,1,1.427-.469,1.625,1.625,0,0,1,1.756,1.784v2.091a8.634,8.634,0,0,1,.9-1.834,5.287,5.287,0,0,1,1.318-1.385,6.035,6.035,0,0,1,1.817-.872,8.984,8.984,0,0,1,2.41-.3,1.8,1.8,0,0,1,1.4.518,1.633,1.633,0,0,1,.485,1.13,1.607,1.607,0,0,1-.47,1.093,1.9,1.9,0,0,1-1.457.5,6.969,6.969,0,0,0-2.722.506,5.229,5.229,0,0,0-1.991,1.449,6.377,6.377,0,0,0-1.246,2.287,9.882,9.882,0,0,0-.439,3.052v11.543a1.506,1.506,0,0,1-.6,1.3,2.209,2.209,0,0,1-1.329.435,2.091,2.091,0,0,1-.684-.11,1.6,1.6,0,0,1-.579-.316,1.433,1.433,0,0,1-.413-.542,1.737,1.737,0,0,1-.155-.763Z" transform="translate(-51.788 -5.408)"/><path class="a" d="M674.189,613.485a1.839,1.839,0,0,1,.165-.788,1.929,1.929,0,0,1,.441-.639,1.967,1.967,0,0,1,.664-.418,2.066,2.066,0,0,1,.791-.157h10.787a13.625,13.625,0,0,1,4.125.6,9.656,9.656,0,0,1,3.241,1.7,8.106,8.106,0,0,1,2.115,2.643,7.583,7.583,0,0,1,.775,3.475,7.031,7.031,0,0,1-.492,2.621,7.946,7.946,0,0,1-1.356,2.236,8.155,8.155,0,0,1-2.043,1.71,8.633,8.633,0,0,1-2.577,1v.1a11.711,11.711,0,0,1,3.229.975,8.416,8.416,0,0,1,2.477,1.756,7.753,7.753,0,0,1,1.586,2.512,8.561,8.561,0,0,1,.56,3.2,9.531,9.531,0,0,1-.572,3.276,7.286,7.286,0,0,1-1.948,2.883,10.546,10.546,0,0,1-3.573,2.057,15.163,15.163,0,0,1-5.1.786H676.25a1.983,1.983,0,0,1-.791-.156,2,2,0,0,1-1.1-1.056,1.85,1.85,0,0,1-.165-.784Zm4.112,1.243v11.45h6.95a13.042,13.042,0,0,0,2.882-.31,7.184,7.184,0,0,0,2.486-1,5.3,5.3,0,0,0,1.729-1.792,5.388,5.388,0,0,0,.641-2.733,5.3,5.3,0,0,0-.67-2.8,4.826,4.826,0,0,0-1.774-1.723,7.679,7.679,0,0,0-2.512-.853,17.321,17.321,0,0,0-2.889-.238Zm0,27.035h7.074a22.856,22.856,0,0,0,3.812-.284,7.556,7.556,0,0,0,2.8-1,4.654,4.654,0,0,0,1.738-1.928,6.866,6.866,0,0,0,.6-3.066,5.837,5.837,0,0,0-.8-3.233,5.284,5.284,0,0,0-2.213-1.916,10.346,10.346,0,0,0-3.358-.9,37.919,37.919,0,0,0-4.282-.226H678.3Z" transform="translate(-61.318 -0.152)"/><path class="a" d="M719.076,638.6a14.4,14.4,0,0,1,.7-4.379,11.613,11.613,0,0,1,2.139-3.944,10.423,10.423,0,0,1,3.618-2.78,13.275,13.275,0,0,1,10.312,0,10.435,10.435,0,0,1,3.628,2.78,11.562,11.562,0,0,1,2.141,3.944,14.108,14.108,0,0,1,0,8.8,11.717,11.717,0,0,1-2.141,3.94,10.54,10.54,0,0,1-3.628,2.774,13.254,13.254,0,0,1-10.312,0,10.527,10.527,0,0,1-3.618-2.774,11.769,11.769,0,0,1-2.139-3.94,14.494,14.494,0,0,1-.7-4.423m4.017,0a12.763,12.763,0,0,0,.424,3.181,9.578,9.578,0,0,0,1.335,3.023,7.383,7.383,0,0,0,2.366,2.205,7.51,7.51,0,0,0,6.956,0,7.378,7.378,0,0,0,2.354-2.205,9.728,9.728,0,0,0,1.32-3.023,11.88,11.88,0,0,0,0-6.313,9.571,9.571,0,0,0-1.32-3.031,7.235,7.235,0,0,0-2.354-2.211,7.485,7.485,0,0,0-6.956,0,7.24,7.24,0,0,0-2.366,2.211,9.425,9.425,0,0,0-1.335,3.031,12.711,12.711,0,0,0-.424,3.131" transform="translate(-77.079 -5.409)"/><path class="a" d="M767.554,638.6l-6.75-8.484a1.669,1.669,0,0,1-.291-.524,1.747,1.747,0,0,1-.081-.507,1.565,1.565,0,0,1,.16-.707,1.983,1.983,0,0,1,.444-.578,2.389,2.389,0,0,1,.652-.4,1.886,1.886,0,0,1,.742-.151,1.724,1.724,0,0,1,.781.185,2.2,2.2,0,0,1,.727.614l6.2,8.173,6.4-8.265a1.683,1.683,0,0,1,.619-.545,1.573,1.573,0,0,1,.69-.162,1.728,1.728,0,0,1,1.182.469,1.456,1.456,0,0,1,.516,1.1,1.481,1.481,0,0,1-.355.942l-6.79,8.769,7.259,9.192a1.553,1.553,0,0,1,.374,1.013,1.5,1.5,0,0,1-.161.678,2.067,2.067,0,0,1-.445.576,2.263,2.263,0,0,1-.644.4,1.851,1.851,0,0,1-.741.156,1.66,1.66,0,0,1-.788-.195,1.921,1.921,0,0,1-.715-.607l-6.822-8.907-6.823,9.031a1.542,1.542,0,0,1-1.263.677,1.624,1.624,0,0,1-.675-.141,2.1,2.1,0,0,1-.6-.365,1.867,1.867,0,0,1-.411-.524,1.424,1.424,0,0,1-.145-.641,1.254,1.254,0,0,1,.326-.861Z" transform="translate(-91.379 -5.688)"/></g></svg>