<svg xmlns="http://www.w3.org/2000/svg" width="148.687" height="57.827" viewBox="0 0 148.687 57.827"><defs><style>.a{fill:#fff;}</style></defs><path class="a" d="M48.608,0H0V48.608H28.005V29.472a12.91,12.91,0,0,0-.838-5.308l3.911-1.048a8.366,8.366,0,0,1,.768,4.051c1.816-2.514,4.47-4.121,6.984-4.121a5.285,5.285,0,0,1,1.117.14,9.246,9.246,0,0,1,1.816.838l-3.213,3.492a4.552,4.552,0,0,0-1.117-.21,5.618,5.618,0,0,0-4.12,1.816C32.2,30.24,31.847,31.008,31.847,33.1V48.678H48.608Z"/><path class="a" d="M87.62,45.881c-6.285,0-8.52,2.165-8.52,5.936,0,2.933,1.467,4.54,4.33,4.54a6.838,6.838,0,0,0,6.076-3.911l.14-6.5c-.768,0-1.327-.07-2.025-.07m5.657,13.688a5.26,5.26,0,0,1-3.422-3.632c-2.375,2.375-4.33,3.352-7.193,3.352-6.146,0-7.962-3.771-7.962-7.124,0-5.657,4.819-8.939,13.2-8.939,1.048,0,1.746.07,1.746.07V41.551c0-2.235-.07-3.073-.768-3.911a4.035,4.035,0,0,0-3.352-1.327,13.73,13.73,0,0,0-7.962,2.933l-1.955-2.794A19,19,0,0,1,86.084,33.1c3.422,0,5.866,1.327,6.914,3.911a14.254,14.254,0,0,1,.559,5.517l-.21,8.171c-.07,4.051.14,5.1,2.025,6.076Z" transform="translate(-22.53 -9.983)"/><path class="a" d="M120.738,36.482c-3.073,0-4.679,1.676-4.679,5.168,0,3.213,1.676,4.959,4.819,4.959,3,0,4.47-1.746,4.47-5.1,0-3.422-1.327-5.028-4.609-5.028M117.6,56.247a16.107,16.107,0,0,0-1.886,2.3v.07a4.453,4.453,0,0,0-.7,2.235,3.107,3.107,0,0,0,1.467,2.863,10.507,10.507,0,0,0,5.028,1.117c3.841,0,6.076-1.257,6.076-4.33a3.427,3.427,0,0,0-1.327-3c-.978-.629-2.444-.908-4.889-.908-.978,0-3.073.07-3.841.07-2.933,0-4.679-1.327-4.679-3.632,0-2.025,1.117-3.213,4.47-4.26a7.632,7.632,0,0,1-5.587-7.193c0-5.028,3.771-8.381,9.219-8.381,3.771,0,4.54,1.4,7.612,1.4a5.3,5.3,0,0,0,3.422-1.117l2.375,2.375a6.53,6.53,0,0,1-4.19,1.467,4.015,4.015,0,0,1-1.676-.279,6.713,6.713,0,0,1,1.467,4.26,8.09,8.09,0,0,1-3.7,6.844,8.934,8.934,0,0,1-4.679,1.117c-3.352,1.187-4.47,2.025-4.47,2.933,0,.768.768,1.187,2.025,1.187h3.981c2.863,0,4.47.349,6.006,1.4a5.872,5.872,0,0,1,2.724,5.238c0,5.378-3.841,7.822-9.917,7.822-7.822,0-10.825-2.794-10.825-6.355a8.241,8.241,0,0,1,.419-2.514V58.9c.768-2.3,3.7-5.238,3.7-5.238" transform="translate(-33.509 -10.013)"/><path class="a" d="M160.05,45.881c-6.286,0-8.52,2.165-8.52,5.936,0,2.933,1.467,4.54,4.33,4.54a6.918,6.918,0,0,0,6.076-3.911l.14-6.5c-.7,0-1.327-.07-2.025-.07m5.727,13.688a5.26,5.26,0,0,1-3.422-3.632c-2.375,2.375-4.33,3.352-7.193,3.352-6.146,0-7.962-3.771-7.962-7.124,0-5.657,4.819-8.939,13.2-8.939,1.048,0,1.746.07,1.746.07V41.551c0-2.235-.07-3.073-.768-3.911a4.035,4.035,0,0,0-3.352-1.327,13.73,13.73,0,0,0-7.962,2.933l-1.955-2.794A19,19,0,0,1,158.584,33.1c3.422,0,5.866,1.327,6.914,3.911a14.254,14.254,0,0,1,.559,5.517l-.21,8.171c-.07,4.051.14,5.1,2.025,6.076Z" transform="translate(-44.397 -9.983)"/><path class="a" d="M200.695,58.621V41.79c0-2.654-.21-3.282-.908-4.12a3.734,3.734,0,0,0-2.724-1.048c-2.025,0-5.1,1.606-6.914,3.492V58.621h-3.771V39.486a11.163,11.163,0,0,0-.978-5.238l3.771-1.048a9.812,9.812,0,0,1,.908,3.911c2.584-2.584,5.168-3.841,7.822-3.841a6.572,6.572,0,0,1,6.076,3.632,6.831,6.831,0,0,1,.629,2.863V58.621Z" transform="translate(-55.919 -10.013)"/></svg>