<?xml version="1.0" encoding="utf-8"?>
<!-- Generator: Adobe Illustrator 22.0.1, SVG Export Plug-In . SVG Version: 6.00 Build 0)  -->
<svg version="1.1" id="Layer_1" xmlns="http://www.w3.org/2000/svg" xmlns:xlink="http://www.w3.org/1999/xlink" x="0px" y="0px"
	 viewBox="0 0 338.7 74.5" style="enable-background:new 0 0 338.7 74.5;" xml:space="preserve">
<style type="text/css">
	.st0{fill:#E83F24;}
</style>
<g>
	<g>
		<path class="st0" d="M126.8,36.7c0,4.8-0.9,8.9-2.6,12.5c-1.7,3.6-4.2,6.3-7.5,8.3c-3.2,1.9-7,2.9-11.2,2.9
			c-4.1,0-7.7-0.9-10.9-2.8c-3.2-1.9-5.7-4.5-7.4-8c-1.7-3.5-2.6-7.4-2.6-11.8c0-4.7,0.9-8.9,2.6-12.5c1.8-3.6,4.3-6.3,7.6-8.3
			c3.3-1.9,7.1-2.9,11.5-2.9c4,0,7.5,0.9,10.7,2.8c3.1,1.9,5.6,4.5,7.3,8C125.9,28.5,126.8,32.4,126.8,36.7z M121.3,37.4
			c0-5.8-1.4-10.4-4.1-13.6c-2.7-3.3-6.5-4.9-11.4-4.9c-3.1,0-5.8,0.8-8.2,2.3c-2.4,1.5-4.3,3.7-5.6,6.6c-1.3,2.8-2,6-2,9.5
			c0,3.6,0.6,6.8,1.9,9.5c1.3,2.8,3.1,5,5.5,6.5c2.4,1.5,5.1,2.3,8.1,2.3c4.9,0,8.8-1.6,11.6-4.9C119.9,47.6,121.3,43.1,121.3,37.4z
			"/>
		<path class="st0" d="M149.4,16.9c-1-0.6-2.1-0.8-3.4-0.8c-3.6,0-5.4,2.3-5.4,6.8v4.9h7.5v4.3h-7.5v27.6h-5.1V32.1h-5.4v-4.3h5.4
			v-5.2c0-3.2,1-5.9,2.9-7.8c1.9-2,4.3-3,7.3-3c1.6,0,2.8,0.2,3.7,0.6V16.9z"/>
		<path class="st0" d="M166.9,16.9c-1-0.6-2.1-0.8-3.4-0.8c-3.6,0-5.4,2.3-5.4,6.8v4.9h7.5v4.3h-7.5v27.6H153V32.1h-5.4v-4.3h5.4
			v-5.2c0-3.2,1-5.9,2.9-7.8c1.9-2,4.3-3,7.3-3c1.6,0,2.8,0.2,3.7,0.6V16.9z"/>
		<path class="st0" d="M176.3,16.3c0,1-0.3,1.7-1,2.4c-0.7,0.6-1.5,0.9-2.4,0.9c-0.9,0-1.7-0.3-2.4-0.9c-0.6-0.6-1-1.4-1-2.4
			c0-0.9,0.3-1.7,1-2.3c0.6-0.7,1.4-1,2.4-1c1,0,1.8,0.3,2.4,1C176,14.6,176.3,15.4,176.3,16.3z M175.5,59.6h-5.1V27.7h5.1V59.6z"/>
		<path class="st0" d="M204.6,58.2c-2.5,1.5-5.4,2.2-8.8,2.2c-2.9,0-5.5-0.7-7.8-2c-2.3-1.3-4.1-3.2-5.4-5.7
			c-1.3-2.4-1.9-5.2-1.9-8.3c0-5.3,1.5-9.5,4.5-12.7c3-3.2,7-4.8,12.1-4.8c2.8,0,5.2,0.5,7.4,1.6v5.2c-2.4-1.7-4.9-2.5-7.6-2.5
			c-3.3,0-6,1.2-8.1,3.5c-2.1,2.4-3.1,5.4-3.1,9.1c0,3.7,1,6.7,2.9,8.8c2,2.2,4.6,3.2,7.9,3.2c2.8,0,5.4-0.9,7.8-2.7V58.2z"/>
		<path class="st0" d="M236.1,45h-22.5c0.1,3.6,1,6.3,2.9,8.2c1.8,1.9,4.3,2.8,7.6,2.8c3.6,0,6.9-1.2,9.9-3.5v4.8
			c-2.8,2.1-6.5,3.1-11.1,3.1c-4.5,0-8.1-1.5-10.7-4.4c-2.6-2.9-3.8-7-3.8-12.2c0-3.2,0.6-6,1.9-8.6c1.3-2.6,3-4.6,5.3-6.1
			c2.2-1.4,4.7-2.1,7.5-2.1c4.1,0,7.4,1.3,9.7,4c2.3,2.7,3.5,6.5,3.5,11.3V45z M230.8,40.6c0-2.9-0.8-5.2-2.1-6.9
			c-1.4-1.6-3.3-2.4-5.8-2.4c-2.4,0-4.4,0.9-6.1,2.6c-1.7,1.7-2.7,4-3.2,6.8H230.8z"/>
		<path class="st0" d="M274.9,47c0,4-1.4,7.3-4.3,9.7c-2.9,2.5-6.7,3.7-11.4,3.7c-4.3,0-7.6-0.8-10.2-2.4v-5.5
			c3,2.4,6.5,3.6,10.3,3.6c3.1,0,5.6-0.8,7.5-2.3c1.9-1.5,2.8-3.6,2.8-6.3c0-5.8-4.2-8.8-12.5-8.8h-3.7v-4.3h3.5
			c7.4,0,11-2.7,11-8.2c0-5.1-2.8-7.6-8.4-7.6c-3.2,0-6.1,1.1-8.9,3.2v-5c2.8-1.7,6.2-2.6,10.2-2.6c3.7,0,6.7,1,9,2.9
			c2.3,2,3.4,4.5,3.4,7.7c0,5.9-3,9.7-8.9,11.3v0.1c3.2,0.4,5.7,1.5,7.6,3.4C274,41.7,274.9,44.1,274.9,47z"/>
		<path class="st0" d="M308.6,45.5c0,2.8-0.6,5.4-1.8,7.7c-1.2,2.3-2.9,4.1-5,5.4c-2.1,1.3-4.5,1.9-7.2,1.9c-4.5,0-8-1.8-10.5-5.4
			c-2.5-3.6-3.8-8.6-3.8-15c0-5.1,0.8-9.6,2.3-13.5c1.5-3.9,3.6-6.9,6.4-9c2.8-2.1,5.9-3.2,9.6-3.2c3.1,0,5.5,0.4,7.4,1.3v4.8
			c-2.3-1.2-4.7-1.8-7.3-1.8c-3.9,0-7.1,1.8-9.5,5.3c-2.4,3.5-3.6,8.3-3.6,14.2h0.1c2.1-4.2,5.5-6.3,10.2-6.3c3.9,0,7,1.3,9.3,3.8
			C307.4,38,308.6,41.3,308.6,45.5z M303.4,46.1c0-3.1-0.8-5.6-2.3-7.4c-1.5-1.8-3.7-2.7-6.4-2.7c-2.5,0-4.6,0.9-6.3,2.6
			c-1.7,1.8-2.6,3.9-2.6,6.4c0,3.1,0.8,5.8,2.5,7.9c1.7,2.1,3.8,3.2,6.4,3.2c2.6,0,4.6-0.9,6.2-2.8
			C302.6,51.5,303.4,49.1,303.4,46.1z"/>
		<path class="st0" d="M338.7,46c0,4.3-1.4,7.8-4.3,10.5c-2.9,2.6-6.7,4-11.5,4c-4.2,0-7.2-0.6-9.3-1.9v-5.4c3,2,6.1,2.9,9.3,2.9
			c3.2,0,5.7-0.9,7.6-2.6c1.9-1.8,2.9-4.1,2.9-7.1c0-2.9-1-5.2-2.9-6.8c-2-1.7-4.8-2.5-8.5-2.5c-3,0-5.5,0.1-7.6,0.4L316,15h20.6
			v4.6h-16.2l-0.9,13.1l4.1-0.2c4.7,0,8.3,1.2,11,3.5C337.3,38.4,338.7,41.7,338.7,46z"/>
	</g>
	<polygon class="st0" points="62.1,68.3 62.1,68.3 62.1,6.4 40,0 0.1,15 0,15 0,59.7 13.6,54.4 13.6,18 40,11.7 40,65.2 0,59.7 
		40,74.5 40,74.5 62.1,68.4 62.1,68.3 	"/>
</g>
</svg>
