<?xml version="1.0" encoding="utf-8"?>
<!-- Generator: Adobe Illustrator 23.0.6, SVG Export Plug-In . SVG Version: 6.00 Build 0)  -->
<svg version="1.1" id="Layer_1" xmlns="http://www.w3.org/2000/svg" xmlns:xlink="http://www.w3.org/1999/xlink" x="0px" y="0px"
	 viewBox="0 0 139.8 37.8" style="enable-background:new 0 0 139.8 37.8;" xml:space="preserve">
<style type="text/css">
	.st0{fill:#3FC3A3;}
	.st1{fill:#112A3F;}
</style>
<title>universe revised</title>
<path class="st0" d="M55.8,23.6l3.5-13.9h7.2l-7.2,22h-7l-7.2-22h7.2L55.8,23.6z"/>
<path class="st0" d="M76.2,32.2c-1.6,0-3.3-0.3-4.8-0.9c-1.3-0.5-2.6-1.3-3.6-2.4c-1-1-1.7-2.1-2.2-3.4c-0.5-1.3-0.8-2.7-0.8-4.1
	v-0.8c0-1.5,0.2-3,0.7-4.5c0.4-1.3,1.1-2.6,2-3.6c0.9-1,2-1.9,3.3-2.4c1.5-0.6,3-0.9,4.6-0.9c1.4,0,2.9,0.2,4.2,0.8
	c1.2,0.5,2.3,1.2,3.2,2.2c0.9,1,1.6,2.1,2,3.4c0.5,1.4,0.7,3,0.7,4.5V23H71.9c0.2,1.1,0.8,2.2,1.6,2.9c0.9,0.7,2.1,1.1,3.2,1.1
	c0.9,0,1.9-0.2,2.8-0.5c0.9-0.4,1.7-1,2.3-1.8l3.1,3.7c-0.4,0.5-0.8,1-1.3,1.4c-0.6,0.5-1.2,0.9-1.9,1.2c-0.8,0.4-1.6,0.7-2.5,0.9
	C78.2,32.1,77.2,32.2,76.2,32.2z M75.4,14.6c-0.5,0-1,0.1-1.5,0.3c-0.4,0.2-0.7,0.5-1,0.8c-0.3,0.4-0.5,0.8-0.7,1.3
	c-0.2,0.5-0.3,1.1-0.4,1.6h6.9v-0.5c0.1-0.9-0.2-1.9-0.8-2.5C77.3,14.9,76.4,14.6,75.4,14.6z"/>
<path class="st0" d="M100.2,16l-0.5-0.1l-0.6-0.1h-0.6h-0.5c-0.9,0-1.8,0.1-2.7,0.5c-0.7,0.3-1.2,0.9-1.5,1.5v14h-6.9v-22h6.4
	l0.2,2.8c0.5-0.9,1.2-1.8,2-2.4c0.8-0.6,1.8-0.9,2.8-0.9c0.3,0,0.7,0,1,0.1c2.6,0.4,3,1.6,3.1,1.9L100.2,16z"/>
<path class="st0" d="M111.9,25.6c0-0.3-0.1-0.5-0.2-0.8c-0.2-0.3-0.4-0.5-0.7-0.6c-0.4-0.2-0.9-0.4-1.3-0.6
	c-0.6-0.2-1.3-0.4-2.1-0.6c-1-0.2-2-0.5-3-0.9c-0.9-0.3-1.7-0.8-2.5-1.4c-0.7-0.5-1.2-1.2-1.7-2c-0.4-0.8-0.6-1.7-0.6-2.6
	c0-0.9,0.2-1.8,0.6-2.7c0.4-0.9,1-1.6,1.8-2.2c0.8-0.7,1.8-1.2,2.8-1.5c1.2-0.4,2.5-0.6,3.8-0.6c1.4,0,2.7,0.2,4,0.5
	c1.1,0.3,2.1,0.8,3,1.5c0.8,0.6,1.5,1.4,1.9,2.3c0.5,0.9,0.7,1.9,0.7,2.9h-6.9c0.1-0.7-0.2-1.4-0.6-2c-0.6-0.5-1.4-0.8-2.2-0.7
	c-0.3,0-0.7,0.1-1,0.2c-0.3,0.1-0.6,0.2-0.8,0.4c-0.2,0.2-0.4,0.4-0.6,0.7c-0.1,0.3-0.2,0.6-0.2,0.9c0,0.6,0.3,1.2,0.9,1.5
	c0.9,0.5,1.8,0.8,2.8,0.9c1.1,0.2,2.2,0.5,3.2,0.8c1,0.3,1.9,0.7,2.8,1.3c0.8,0.5,1.4,1.2,1.9,2c0.9,1.8,0.9,3.9,0,5.7
	c-0.5,0.8-1.1,1.6-1.9,2.2c-0.9,0.6-1.9,1.1-3,1.4c-1.3,0.4-2.6,0.5-4,0.5c-1.4,0-2.9-0.2-4.2-0.7c-1.1-0.4-2.2-1-3.1-1.7
	c-0.8-0.7-1.4-1.5-1.9-2.4c-0.4-0.8-0.6-1.7-0.6-2.7h6.4c-0.1,0.9,0.3,1.7,1,2.2c0.7,0.5,1.6,0.7,2.5,0.7c0.7,0.1,1.5-0.1,2.1-0.6
	C111.7,26.7,112,26.2,111.9,25.6z"/>
<path class="st0" d="M130.5,32.2c-1.6,0-3.3-0.3-4.8-0.9c-1.3-0.5-2.6-1.3-3.6-2.4c-1-1-1.7-2.1-2.2-3.4c-0.5-1.3-0.8-2.7-0.8-4.1
	v-0.8c0-1.5,0.2-3,0.7-4.5c0.4-1.3,1.1-2.6,2-3.6c0.9-1,2-1.9,3.3-2.4c1.5-0.6,3-0.9,4.6-0.9c1.4,0,2.9,0.2,4.2,0.8
	c1.2,0.5,2.3,1.2,3.2,2.2c0.9,1,1.6,2.1,2,3.4c0.5,1.4,0.7,3,0.7,4.5V23h-13.7c0.2,1.1,0.8,2.2,1.6,2.9c0.9,0.7,2.1,1.1,3.3,1
	c0.9,0,1.9-0.2,2.8-0.5c0.9-0.4,1.7-1,2.3-1.8l3.1,3.7c-0.4,0.5-0.9,1-1.4,1.4c-0.6,0.5-1.3,0.9-2,1.2c-0.8,0.4-1.6,0.7-2.5,0.9
	C132.5,32.1,131.5,32.2,130.5,32.2z M129.7,14.6c-0.5,0-1,0.1-1.5,0.3c-0.4,0.2-0.7,0.5-1,0.8c-0.3,0.4-0.5,0.8-0.7,1.3
	c-0.2,0.5-0.3,1-0.4,1.6h6.9v-0.5c0.1-0.9-0.2-1.9-0.8-2.6C131.6,14.9,130.7,14.6,129.7,14.6z"/>
<path class="st0" d="M45.5,4c0,2.2-1.8,4-4,4s-4-1.8-4-4s1.8-4,4-4S45.5,1.8,45.5,4"/>
<path class="st1" d="M28.5,9.3c-2.6,0-5.1,1.3-6.6,3.5v-3h-5.7c-1.1,0-2.1,0.9-2.1,2c0,0,0,0,0,0v9.9c0,0,0,0.1,0,0.1
	c0,2.4-1.4,3.6-3.2,3.6s-3.1-1.3-3.1-3.7V9.8H2.1C1,9.7,0,10.6,0,11.7c0,0.1,0,0.1,0,0.2v12.4c0,5,2.8,8.1,7.5,8.1
	c2.6,0,5.1-1.3,6.6-3.5v3h5.7c1.1,0,2.1-0.9,2.1-2c0,0,0,0,0-0.1v-9.9c0,0,0-0.1,0-0.1c0-2.4,1.4-3.6,3.2-3.6s3.1,1.3,3.1,3.7v12
	h5.7c1.1,0.1,2.1-0.7,2.1-1.9c0-0.1,0-0.2,0-0.3V17.4C36,12.4,33.2,9.3,28.5,9.3"/>
<path class="st1" d="M37.7,11.8v20h5.7c1.1,0,2-0.8,2.1-1.9c0-0.1,0-0.1,0-0.2v-20h-5.7c-1.1,0-2,0.8-2.1,1.9
	C37.7,11.7,37.7,11.8,37.7,11.8"/>
</svg>
