<?xml version="1.0" encoding="utf-8"?>
<!-- Generator: Adobe Illustrator 23.0.1, SVG Export Plug-In . SVG Version: 6.00 Build 0)  -->
<svg version="1.1" id="Layer_1" xmlns="http://www.w3.org/2000/svg" xmlns:xlink="http://www.w3.org/1999/xlink" x="0px" y="0px"
	 viewBox="0 0 185.32 44.9" style="enable-background:new 0 0 185.32 44.9;" xml:space="preserve">
<style type="text/css">
	.st0{clip-path:url(#SVGID_2_);fill:#373E4C;}
</style>
<g>
	<defs>
		<path id="SVGID_1_" d="M74.54,15.1c-0.56,0.18-1.06,0.39-1.48,0.64c-0.43,0.25-0.79,0.53-1.11,0.83c-0.31,0.3-0.57,0.58-0.77,0.82
			l-0.11-2.21h-4.24v17.56h4.43v-9.46c0-0.65,0.12-1.24,0.35-1.76c0.24-0.53,0.55-0.97,0.96-1.35c0.4-0.38,0.87-0.66,1.42-0.86
			c0.55-0.2,1.12-0.3,1.72-0.3c0.42,0,0.79,0.03,1.11,0.08c0.31,0.05,0.62,0.14,0.92,0.26l0.9-4.16c-0.35-0.12-0.69-0.21-1.03-0.26
			c-0.34-0.05-0.72-0.08-1.14-0.08C75.74,14.84,75.1,14.93,74.54,15.1 M104.74,28.44v-5.21c0-0.5,0.1-1.02,0.32-1.56
			c0.21-0.54,0.51-1.03,0.9-1.48c0.39-0.45,0.86-0.82,1.4-1.1c0.55-0.29,1.16-0.43,1.84-0.43c0.85,0,1.56,0.14,2.14,0.43
			c0.57,0.29,1.04,0.67,1.41,1.16c0.36,0.49,0.62,1.06,0.79,1.71c0.16,0.65,0.24,1.35,0.24,2.1c0,0.7-0.11,1.37-0.34,2.02
			c-0.22,0.65-0.56,1.23-0.99,1.74c-0.44,0.51-0.97,0.92-1.59,1.24c-0.62,0.31-1.33,0.47-2.13,0.47
			C106.93,29.53,105.59,29.17,104.74,28.44 M108.35,15.06c-0.59,0.15-1.11,0.34-1.57,0.56c-0.46,0.22-0.86,0.47-1.2,0.75
			c-0.34,0.28-0.62,0.54-0.84,0.79l-0.11-1.99h-4.26v25.06h4.38v-7.82c0.34,0.12,0.63,0.24,0.92,0.36c0.29,0.11,0.6,0.21,0.93,0.3
			c0.34,0.09,0.71,0.16,1.12,0.21c0.41,0.05,0.9,0.08,1.48,0.08c1.25,0,2.47-0.24,3.65-0.71c1.19-0.47,2.28-1.31,3.28-2.51
			c0.6-0.72,1.1-1.57,1.5-2.55s0.6-2.15,0.6-3.52c0-1.17-0.16-2.31-0.49-3.41c-0.33-1.1-0.81-2.08-1.46-2.94
			c-0.65-0.86-1.47-1.56-2.46-2.08s-2.15-0.79-3.5-0.79C109.59,14.84,108.93,14.91,108.35,15.06 M51.66,29.02
			c-0.62-0.34-1.14-0.78-1.55-1.33c-0.41-0.55-0.72-1.15-0.92-1.8c-0.2-0.65-0.3-1.3-0.3-1.95c0-0.62,0.1-1.27,0.3-1.93
			s0.51-1.26,0.92-1.8c0.41-0.54,0.93-0.97,1.55-1.31c0.62-0.34,1.36-0.51,2.21-0.51c0.85,0,1.59,0.17,2.21,0.51
			c0.62,0.34,1.14,0.78,1.55,1.31c0.41,0.54,0.72,1.14,0.92,1.8c0.2,0.66,0.3,1.31,0.3,1.93c0,0.65-0.1,1.3-0.3,1.95
			c-0.2,0.65-0.51,1.25-0.92,1.8c-0.41,0.55-0.93,0.99-1.55,1.33c-0.62,0.34-1.36,0.51-2.21,0.51
			C53.02,29.53,52.28,29.36,51.66,29.02 M50.02,15.32c-1.16,0.5-2.15,1.17-2.98,2.02c-0.82,0.85-1.47,1.84-1.93,2.98
			c-0.46,1.14-0.69,2.34-0.69,3.62c0,1.28,0.23,2.48,0.69,3.62c0.46,1.14,1.1,2.14,1.93,3c0.83,0.86,1.82,1.54,2.98,2.04
			c1.16,0.5,2.44,0.75,3.84,0.75c1.4,0,2.68-0.25,3.84-0.75c1.16-0.5,2.15-1.18,2.98-2.04c0.82-0.86,1.47-1.86,1.93-3
			c0.46-1.14,0.69-2.34,0.69-3.62c0-1.27-0.23-2.48-0.69-3.62c-0.46-1.14-1.11-2.13-1.93-2.98c-0.83-0.85-1.82-1.52-2.98-2.02
			c-1.16-0.5-2.44-0.75-3.84-0.75C52.47,14.57,51.19,14.83,50.02,15.32 M135.03,29.19c-0.54-0.42-0.81-1.01-0.81-1.76
			c0-0.72,0.29-1.37,0.86-1.93c0.57-0.56,1.57-0.84,3-0.84c0.27,0,0.6,0.01,0.99,0.02c0.39,0.01,0.76,0.03,1.11,0.06
			c0.42,0.02,0.86,0.05,1.32,0.07v1.72c0,0.45-0.12,0.88-0.36,1.27c-0.24,0.4-0.55,0.75-0.92,1.05c-0.37,0.3-0.81,0.54-1.29,0.71
			c-0.49,0.17-0.99,0.26-1.52,0.26C136.36,29.83,135.57,29.62,135.03,29.19 M135.56,14.78c-0.79,0.14-1.48,0.31-2.08,0.53
			c-0.6,0.21-1.12,0.45-1.57,0.71c-0.45,0.26-0.85,0.52-1.2,0.77l2.02,3c0.57-0.38,1.24-0.73,1.99-1.05c0.75-0.33,1.75-0.49,3-0.49
			c1.12,0,2.04,0.25,2.74,0.75c0.7,0.5,1.05,1.19,1.05,2.06v0.41c-0.45-0.02-0.94-0.05-1.39-0.07c-0.4-0.02-0.81-0.04-1.24-0.06
			c-0.43-0.01-0.81-0.02-1.16-0.02c-1.15,0-2.2,0.14-3.15,0.41c-0.95,0.28-1.76,0.68-2.44,1.22c-0.67,0.54-1.2,1.2-1.57,1.99
			c-0.38,0.79-0.56,1.68-0.56,2.68c0,0.97,0.18,1.82,0.54,2.55c0.36,0.72,0.84,1.32,1.42,1.78c0.59,0.46,1.24,0.81,1.95,1.03
			c0.71,0.23,1.43,0.34,2.16,0.34c1.2,0,2.29-0.22,3.26-0.67c0.98-0.45,1.7-0.97,2.17-1.55l0.11,1.64h4.1V20.95
			c0-0.92-0.16-1.78-0.51-2.57c-0.35-0.79-0.85-1.46-1.49-2.02c-0.65-0.56-1.43-1-2.34-1.31c-0.91-0.31-1.93-0.47-3.05-0.47
			C137.26,14.57,136.34,14.64,135.56,14.78 M154.79,15.32c-1.16,0.5-2.15,1.17-2.98,2.02c-0.82,0.85-1.47,1.84-1.93,2.98
			c-0.46,1.14-0.69,2.34-0.69,3.62c0,1.4,0.21,2.67,0.64,3.82c0.42,1.15,1.04,2.14,1.84,2.96c0.8,0.83,1.79,1.46,2.96,1.91
			c1.17,0.45,2.51,0.67,4.01,0.67c1.5,0,2.81-0.26,3.94-0.79c1.12-0.53,2.1-1.22,2.92-2.1l-2.62-2.85c-0.5,0.57-1.11,1.03-1.84,1.37
			c-0.73,0.34-1.52,0.51-2.4,0.51c-0.85,0-1.59-0.16-2.21-0.49s-1.14-0.75-1.56-1.27c-0.41-0.53-0.72-1.11-0.92-1.76
			c-0.2-0.65-0.3-1.31-0.3-1.99c0-0.7,0.1-1.39,0.3-2.06c0.2-0.67,0.51-1.26,0.92-1.76c0.41-0.5,0.93-0.9,1.56-1.22
			c0.62-0.31,1.36-0.47,2.21-0.47c0.87,0,1.65,0.16,2.32,0.49c0.68,0.32,1.26,0.77,1.76,1.35l2.81-2.85c-0.82-0.87-1.82-1.57-3-2.08
			c-1.17-0.51-2.47-0.77-3.9-0.77C157.23,14.57,155.95,14.83,154.79,15.32 M172.19,20.76c0.2-0.45,0.49-0.86,0.86-1.22
			c0.38-0.36,0.84-0.66,1.41-0.9c0.56-0.24,1.2-0.36,1.93-0.36c0.67,0,1.27,0.12,1.8,0.36c0.52,0.24,0.96,0.54,1.29,0.9
			c0.34,0.36,0.59,0.77,0.77,1.22c0.17,0.45,0.26,0.89,0.26,1.35h-8.62C171.89,21.65,171.99,21.21,172.19,20.76 M172.77,15.29
			c-1.09,0.48-2.02,1.12-2.81,1.95c-0.79,0.82-1.4,1.79-1.84,2.91c-0.44,1.11-0.66,2.32-0.66,3.62c0,1.42,0.22,2.72,0.66,3.9
			c0.44,1.17,1.06,2.18,1.87,3.02c0.81,0.84,1.79,1.49,2.94,1.97c1.15,0.47,2.42,0.71,3.82,0.71c1.37,0,2.55-0.15,3.54-0.45
			c0.99-0.3,1.8-0.64,2.44-1.01s1.12-0.73,1.46-1.07c0.34-0.34,0.54-0.54,0.62-0.62l-2.4-2.7c-0.15,0.15-0.37,0.34-0.66,0.58
			c-0.29,0.24-0.66,0.46-1.11,0.67c-0.45,0.21-0.99,0.4-1.63,0.56c-0.64,0.16-1.38,0.24-2.23,0.24c-0.58,0-1.16-0.1-1.74-0.3
			c-0.59-0.2-1.11-0.49-1.57-0.86c-0.46-0.38-0.84-0.83-1.12-1.35c-0.29-0.52-0.43-1.08-0.43-1.77h13.11v-0.63
			c0-1.25-0.14-2.47-0.44-3.67c-0.3-1.2-0.78-2.27-1.46-3.22c-0.67-0.95-1.57-1.72-2.68-2.3c-1.11-0.59-2.47-0.88-4.07-0.88
			C175.06,14.57,173.86,14.81,172.77,15.29 M81.15,7.73v25.01h4.43v-6.2l1.91-1.88l5.09,8.09h5.28l-7.35-11.09l6.6-6.47h-5.21
			l-6.33,6.22V7.73H81.15z M121.73,32.73h4.43V7.73h-4.43V32.73z M13.82,2.03c-2.64,1.12-5.01,2.71-7.04,4.75
			c-2.04,2.04-3.63,4.41-4.75,7.04c-1.16,2.73-1.74,5.64-1.74,8.63c0,2.99,0.59,5.89,1.74,8.63c1.12,2.64,2.71,5.01,4.75,7.04
			c2.03,2.03,4.4,3.63,7.04,4.75c2.73,1.16,5.65,1.74,8.64,1.74c1.61,0,3.19-0.17,4.76-0.52v-4.68c-1.54,0.43-3.15,0.65-4.76,0.65
			c-4.71,0-9.14-1.83-12.46-5.16c-3.33-3.33-5.16-7.75-5.16-12.46c0-4.71,1.83-9.13,5.16-12.46c3.33-3.33,7.75-5.16,12.46-5.16
			c8.24,0,14.93,6.68,14.93,14.93c0,3.04-0.91,5.87-2.47,8.23L30.43,17c-0.51-1.24-1.89-2.05-3.23-2.05c-1.34,0-2.72,0.81-3.23,2.05
			l-4.16,10.26l-4.91-12.09H9.99l6.56,16.14c0.51,1.26,1.9,2.05,3.26,2.05c1.36,0,2.75-0.79,3.26-2.06l4.12-10.18l4.14,10.17
			c0.45,1.12,1.75,2.05,3.26,2.05c1.57,0,2.74-1.08,3.32-1.77c2.51-3.28,4-7.38,4-11.83C41.92,9,33.2,0.28,22.45,0.28
			C19.46,0.28,16.55,0.87,13.82,2.03"/>
	</defs>
	<use xlink:href="#SVGID_1_"  style="overflow:visible;fill:#373E4C;"/>
	<clipPath id="SVGID_2_">
		<use xlink:href="#SVGID_1_"  style="overflow:visible;"/>
	</clipPath>
	<rect class="st0" width="185.32" height="44.9"/>
</g>
</svg>
